# Blender 5.1.2
# www.blender.org
mtllib bonus.mtl
o GAZ
v -0.172992 0.000000 0.094039
v -0.172992 0.000000 -0.094039
v 0.173000 0.000000 0.094039
v 0.173000 0.000000 -0.094039
v -0.172992 0.326967 0.094039
v -0.172992 0.326967 -0.094039
v 0.173000 0.326967 0.094039
v 0.173000 0.326967 -0.094039
v -0.172992 0.393090 0.094039
v -0.172992 0.393090 -0.094039
v 0.141656 0.393090 0.094039
v 0.141656 0.393090 -0.094039
v 0.000004 0.000000 0.094039
v 0.000004 0.000000 -0.094039
v 0.104103 0.323351 0.094039
v 0.104103 0.323351 -0.094039
v 0.032561 0.393090 0.094039
v 0.032561 0.393090 -0.094039
v 0.113595 0.458316 0.076667
v 0.113595 0.458316 -0.076667
v 0.032561 0.458316 0.076667
v 0.032561 0.458316 -0.076667
v -0.172992 0.000000 0.031346
v -0.172992 0.000000 -0.031346
v 0.173000 0.000000 0.031346
v 0.173000 0.000000 -0.031346
v -0.172992 0.326967 0.031346
v -0.172992 0.326967 -0.031346
v 0.173000 0.326967 0.031346
v 0.173000 0.326967 -0.031346
v -0.172992 0.393090 0.031346
v -0.172992 0.393090 -0.031346
v 0.166855 0.393090 0.031346
v 0.166855 0.393090 -0.031346
v 0.032561 0.393090 0.031346
v 0.032561 0.393090 -0.031346
v 0.113595 0.483722 0.031346
v 0.113595 0.483722 -0.031346
v 0.032561 0.483722 0.031346
v 0.032561 0.483722 -0.031346
v -0.118236 0.000000 0.094039
v -0.118236 0.000000 -0.094039
v -0.081313 0.323351 0.094039
v -0.081313 0.323351 -0.094039
v -0.129029 0.393090 0.094039
v -0.129029 0.393090 -0.094039
v -0.129029 0.393090 0.031346
v -0.129029 0.393090 -0.031346
v -0.172992 0.466101 0.031346
v -0.172992 0.466101 -0.031346
v -0.129029 0.487026 0.031346
v -0.129029 0.487026 -0.031346
v 0.070697 0.508733 0.031346
v 0.070697 0.508733 -0.031346
v 0.032561 0.518150 0.031346
v 0.032561 0.518150 -0.031346
v -0.159391 0.499482 0.031346
v -0.159391 0.499482 -0.031346
v -0.129029 0.521453 0.031346
v -0.129029 0.521453 -0.031346
v -0.172992 0.084315 0.094039
v -0.172992 0.084315 -0.094039
v 0.173000 0.084315 -0.094039
v 0.173000 0.084315 0.094039
v 0.104103 0.080699 0.094039
v 0.104103 0.080699 -0.094039
v 0.173000 0.084315 0.031346
v 0.173000 0.084315 -0.031346
v -0.172992 0.084315 -0.031346
v -0.172992 0.084315 0.031346
v -0.081313 0.080699 0.094039
v -0.081313 0.080699 -0.094039
v 0.083585 0.296499 0.098567
v 0.083585 0.296499 -0.098567
v -0.060795 0.296499 0.098567
v -0.060795 0.296499 -0.098567
v 0.083585 0.107551 0.098567
v 0.083585 0.107551 -0.098567
v -0.060795 0.107551 0.098567
v -0.060795 0.107551 -0.098567
v 0.157601 0.427002 0.013080
v 0.157601 0.427002 -0.013080
v 0.134813 0.449811 -0.013080
v 0.134813 0.449811 0.013080
v 0.208612 0.477968 0.013080
v 0.208612 0.477968 -0.013080
v 0.185824 0.500776 0.013080
v 0.185824 0.500776 -0.013080
v 0.251377 0.529835 0.007834
v 0.251377 0.529835 -0.007834
v 0.237730 0.543495 0.007834
v 0.237730 0.543495 -0.007834
vn -0.0000 -0.0000 -1.0000
vn -1.0000 -0.0000 -0.0000
vn 1.0000 -0.0000 -0.0000
vn -0.0000 -0.0000 1.0000
vn 0.9957 0.0925 -0.0000
vn -0.0000 1.0000 -0.0000
vn 0.2155 -0.0000 -0.9765
vn -0.0000 0.8723 -0.4890
vn -0.0000 0.2574 -0.9663
vn 0.8293 0.4874 -0.2732
vn -0.0000 0.2574 0.9663
vn 0.8304 0.4461 0.3338
vn -0.0000 0.8723 0.4890
vn -0.9261 0.3773 -0.0000
vn 0.8493 0.4026 0.3414
vn -0.2155 -0.0000 0.9765
vn 0.2397 0.9708 -0.0000
vn -0.5863 0.8101 -0.0000
vn 0.0204 0.9998 -0.0000
vn 0.5037 0.8639 -0.0000
vn -0.0204 -0.9998 -0.0000
vn -0.0000 0.1663 0.9861
vn -0.2155 -0.0000 -0.9765
vn -0.0000 -0.1663 -0.9861
vn 0.2155 -0.0000 0.9765
vn -0.0000 0.1663 -0.9861
vn -0.0000 -0.1663 0.9861
vn 0.9647 0.2633 -0.0000
vn 0.5119 0.5115 -0.6902
vn 0.8477 0.5304 -0.0000
vn 0.8606 0.5057 0.0608
vn -0.6355 0.7721 -0.0000
vn 0.7068 -0.7074 -0.0000
vn -0.7068 0.7074 -0.0000
vn 0.7074 0.7068 -0.0000
vn 0.0553 0.0552 0.9969
vn 0.0553 0.0553 -0.9969
vn 0.7716 -0.6362 -0.0000
vn 0.8493 0.4026 -0.3414
vn 0.8304 0.4461 -0.3338
vn 0.8293 0.4874 0.2732
vn 0.8606 0.5057 -0.0608
vn 0.5119 0.5115 0.6902
vn 0.0553 0.0553 0.9969
vn 0.0553 0.0552 -0.9969
vt 0.111001 0.558278
vt 0.009843 0.500000
s 0
usemtl Material.008
f 6/1/1 46/1/1 44/1/1
f 61/1/2 27/1/2 70/1/2
f 62/1/1 44/1/1 72/1/1
f 63/1/3 30/1/3 68/1/3
f 64/1/4 15/1/4 65/1/4
f 35/1/2 21/1/2 39/1/2
f 8/1/5 34/1/5 30/1/5
f 15/1/4 11/1/4 17/1/4
f 5/1/2 31/1/2 27/1/2
f 43/1/4 17/1/4 45/1/4
f 36/1/6 46/1/6 48/1/6
f 16/1/7 78/1/7 74/1/7
f 63/1/1 16/1/1 8/1/1
f 16/1/1 12/1/1 8/1/1
f 38/1/8 22/1/8 40/1/8
f 18/1/9 20/1/9 12/1/9
f 34/1/10 20/1/10 38/1/10
f 17/1/11 19/1/11 21/1/11
f 33/1/12 19/1/12 11/1/12
f 82/1/1 88/1/1 86/1/1
f 19/1/13 39/1/13 21/1/13
f 49/1/14 58/1/14 50/1/14
f 17/1/6 47/1/6 45/1/6
f 35/1/6 48/1/6 47/1/6
f 28/1/2 10/1/2 6/1/2
f 27/1/2 32/1/2 28/1/2
f 7/1/15 33/1/15 11/1/15
f 30/1/5 33/1/5 29/1/5
f 36/1/2 22/1/2 18/1/2
f 35/1/2 40/1/2 36/1/2
f 67/1/3 7/1/3 64/1/3
f 68/1/3 29/1/3 67/1/3
f 69/1/2 6/1/2 62/1/2
f 70/1/2 28/1/2 69/1/2
f 31/1/2 50/1/2 32/1/2
f 45/1/6 31/1/6 9/1/6
f 61/1/4 43/1/4 5/1/4
f 48/1/6 10/1/6 32/1/6
f 5/1/4 45/1/4 9/1/4
f 71/1/16 75/1/16 43/1/16
f 44/1/1 18/1/1 16/1/1
f 52/1/1 58/1/1 60/1/1
f 48/1/1 50/1/1 52/1/1
f 48/1/3 51/1/3 47/1/3
f 47/1/4 49/1/4 31/1/4
f 53/1/17 56/1/17 55/1/17
f 59/1/18 58/1/18 57/1/18
f 40/1/1 54/1/1 38/1/1
f 59/1/19 56/1/19 60/1/19
f 52/1/1 56/1/1 40/1/1
f 51/1/4 57/1/4 49/1/4
f 38/1/20 53/1/20 37/1/20
f 39/1/4 53/1/4 55/1/4
f 51/1/4 55/1/4 59/1/4
f 52/1/21 39/1/21 51/1/21
f 14/1/1 72/1/1 66/1/1
f 41/1/4 61/1/4 1/1/4
f 23/1/2 69/1/2 24/1/2
f 24/1/2 62/1/2 2/1/2
f 26/1/3 67/1/3 25/1/3
f 25/1/3 64/1/3 3/1/3
f 4/1/1 66/1/1 63/1/1
f 13/1/4 71/1/4 41/1/4
f 3/1/4 65/1/4 13/1/4
f 4/1/3 68/1/3 26/1/3
f 42/1/1 62/1/1 72/1/1
f 1/1/2 70/1/2 23/1/2
f 77/1/4 75/1/4 79/1/4
f 80/1/1 74/1/1 78/1/1
f 43/1/22 73/1/22 15/1/22
f 44/1/23 80/1/23 72/1/23
f 72/1/24 78/1/24 66/1/24
f 65/1/25 73/1/25 77/1/25
f 16/1/26 76/1/26 44/1/26
f 65/1/27 79/1/27 71/1/27
f 34/1/28 81/1/28 33/1/28
f 34/1/29 83/1/29 82/1/29
f 37/1/30 83/1/30 38/1/30
f 33/1/31 84/1/31 37/1/31
f 87/2/32 92/2/32 88/2/32
f 82/1/33 85/1/33 81/1/33
f 84/1/34 88/1/34 83/1/34
f 81/1/4 87/1/4 84/1/4
f 90/2/35 91/2/35 89/2/35
f 87/2/36 89/2/36 91/2/36
f 88/2/37 90/2/37 86/2/37
f 86/2/38 89/2/38 85/2/38
f 6/1/1 10/1/1 46/1/1
f 61/1/2 5/1/2 27/1/2
f 62/1/1 6/1/1 44/1/1
f 63/1/3 8/1/3 30/1/3
f 64/1/4 7/1/4 15/1/4
f 35/1/2 17/1/2 21/1/2
f 8/1/39 12/1/39 34/1/39
f 15/1/4 7/1/4 11/1/4
f 5/1/2 9/1/2 31/1/2
f 43/1/4 15/1/4 17/1/4
f 36/1/6 18/1/6 46/1/6
f 16/1/7 66/1/7 78/1/7
f 63/1/1 66/1/1 16/1/1
f 16/1/1 18/1/1 12/1/1
f 38/1/8 20/1/8 22/1/8
f 18/1/9 22/1/9 20/1/9
f 34/1/40 12/1/40 20/1/40
f 17/1/11 11/1/11 19/1/11
f 33/1/41 37/1/41 19/1/41
f 82/1/1 83/1/1 88/1/1
f 19/1/13 37/1/13 39/1/13
f 49/1/14 57/1/14 58/1/14
f 17/1/6 35/1/6 47/1/6
f 35/1/6 36/1/6 48/1/6
f 28/1/2 32/1/2 10/1/2
f 27/1/2 31/1/2 32/1/2
f 7/1/5 29/1/5 33/1/5
f 30/1/5 34/1/5 33/1/5
f 36/1/2 40/1/2 22/1/2
f 35/1/2 39/1/2 40/1/2
f 67/1/3 29/1/3 7/1/3
f 68/1/3 30/1/3 29/1/3
f 69/1/2 28/1/2 6/1/2
f 70/1/2 27/1/2 28/1/2
f 31/1/2 49/1/2 50/1/2
f 45/1/6 47/1/6 31/1/6
f 61/1/4 71/1/4 43/1/4
f 48/1/6 46/1/6 10/1/6
f 5/1/4 43/1/4 45/1/4
f 71/1/16 79/1/16 75/1/16
f 44/1/1 46/1/1 18/1/1
f 52/1/1 50/1/1 58/1/1
f 48/1/1 32/1/1 50/1/1
f 48/1/3 52/1/3 51/1/3
f 47/1/4 51/1/4 49/1/4
f 53/1/17 54/1/17 56/1/17
f 59/1/18 60/1/18 58/1/18
f 40/1/1 56/1/1 54/1/1
f 59/1/19 55/1/19 56/1/19
f 52/1/1 60/1/1 56/1/1
f 51/1/4 59/1/4 57/1/4
f 38/1/20 54/1/20 53/1/20
f 39/1/4 37/1/4 53/1/4
f 51/1/4 39/1/4 55/1/4
f 52/1/21 40/1/21 39/1/21
f 14/1/1 42/1/1 72/1/1
f 41/1/4 71/1/4 61/1/4
f 23/1/2 70/1/2 69/1/2
f 24/1/2 69/1/2 62/1/2
f 26/1/3 68/1/3 67/1/3
f 25/1/3 67/1/3 64/1/3
f 4/1/1 14/1/1 66/1/1
f 13/1/4 65/1/4 71/1/4
f 3/1/4 64/1/4 65/1/4
f 4/1/3 63/1/3 68/1/3
f 42/1/1 2/1/1 62/1/1
f 1/1/2 61/1/2 70/1/2
f 77/1/4 73/1/4 75/1/4
f 80/1/1 76/1/1 74/1/1
f 43/1/22 75/1/22 73/1/22
f 44/1/23 76/1/23 80/1/23
f 72/1/24 80/1/24 78/1/24
f 65/1/25 15/1/25 73/1/25
f 16/1/26 74/1/26 76/1/26
f 65/1/27 77/1/27 79/1/27
f 34/1/28 82/1/28 81/1/28
f 34/1/42 38/1/42 83/1/42
f 37/1/30 84/1/30 83/1/30
f 33/1/43 81/1/43 84/1/43
f 87/2/32 91/2/32 92/2/32
f 82/1/33 86/1/33 85/1/33
f 84/1/34 87/1/34 88/1/34
f 81/1/4 85/1/4 87/1/4
f 90/2/35 92/2/35 91/2/35
f 87/2/44 85/2/44 89/2/44
f 88/2/45 92/2/45 90/2/45
f 86/2/38 90/2/38 89/2/38
