# Blender 5.1.2
# www.blender.org
mtllib driver.mtl
o DRIVER
v -0.100000 1.031541 -0.181655
v -0.120000 0.640000 -0.220000
v 0.100000 1.031541 -0.181655
v 0.120000 0.640000 -0.220000
v -0.110000 0.610000 0.080000
v 0.110000 0.610000 0.080000
v -0.110000 0.310000 0.050000
v 0.110000 0.310000 0.050000
v -0.110000 0.240000 0.170000
v 0.110000 0.240000 0.170000
v -0.114471 1.130000 -0.117100
v 0.114471 1.130000 -0.117100
v 0.335069 1.072442 0.187813
v 0.278543 1.072187 0.207813
v -0.335069 1.072442 0.187813
v -0.278543 1.072187 0.207813
v -0.113182 0.786583 -0.248380
v 0.113182 0.786583 -0.248381
v -0.108922 0.640000 -0.795714
v 0.124261 0.640000 -0.795714
v -0.108922 0.786583 -0.795715
v 0.124261 0.786583 -0.795715
v 0.125648 1.080771 -0.162144
v -0.125648 1.080771 -0.162144
v 0.306806 1.072314 0.197813
v -0.306806 1.072314 0.197813
v 0.223853 1.091458 0.099509
v 0.169162 1.110729 -0.008795
v 0.178356 1.045174 -0.058499
v 0.256713 1.058808 0.064657
v 0.255619 1.092140 0.082083
v 0.195191 1.107419 -0.033647
v -0.256713 1.058808 0.064657
v -0.178356 1.045174 -0.058499
v -0.169162 1.110729 -0.008795
v -0.223853 1.091458 0.099509
v -0.255619 1.092140 0.082083
v -0.195191 1.107419 -0.033647
v 0.040000 0.664262 -0.260378
v -0.040000 0.664262 -0.260378
v -0.033333 1.031541 -0.222034
v 0.033333 1.031541 -0.222034
v 0.036667 0.668988 0.148068
v -0.036667 0.668988 0.148068
v 0.036667 0.310000 0.082015
v -0.036667 0.310000 0.082015
v 0.036667 0.240000 0.202015
v -0.036667 0.240000 0.202015
v -0.038157 1.130000 -0.157478
v 0.038157 1.130000 -0.157478
v -0.040022 1.349091 -0.053572
v 0.040022 1.349091 -0.053572
v -0.037727 0.786583 -0.288759
v 0.037727 0.786583 -0.288759
v -0.041883 1.080770 -0.202523
v 0.041883 1.080770 -0.202523
v -0.118201 1.276061 -0.074748
v -0.116336 1.203030 -0.095924
v 0.116336 1.203030 -0.095924
v 0.118201 1.276061 -0.074748
v -0.039400 1.276061 -0.147461
v -0.038779 1.203030 -0.168637
v 0.039400 1.276061 -0.147461
v 0.038779 1.203030 -0.168637
v -0.038157 1.130000 -0.157478
v 0.038157 1.130000 -0.157478
v -0.040022 1.349091 -0.053572
v 0.040022 1.349091 -0.053572
v -0.118201 1.276061 -0.074748
v -0.116336 1.203030 -0.095924
v 0.116336 1.203030 -0.095924
v 0.118201 1.276060 -0.074748
v -0.039400 1.276061 -0.008513
v -0.038779 1.203030 -0.029689
v 0.039400 1.276061 -0.008513
v 0.038779 1.203030 -0.029689
vn 0.4630 -0.1922 -0.8653
vn 0.2399 -0.9651 -0.1045
vn 0.6088 0.1436 -0.7803
vn 0.2148 -0.8436 -0.4921
vn 0.3191 0.6782 -0.6620
vn -0.4944 0.6845 -0.5357
vn 0.9056 0.2195 -0.3629
vn -0.0589 0.9875 0.1460
vn 0.4579 0.2413 -0.8556
vn -0.0000 -0.0000 -1.0000
vn -0.9056 0.2195 -0.3629
vn 0.0589 0.9875 0.1460
vn 0.5027 0.2417 -0.8300
vn 0.8136 0.4821 -0.3250
vn 0.1960 0.9777 0.0750
vn 0.8318 -0.2339 -0.5033
vn 0.8443 -0.0145 -0.5356
vn -0.8318 -0.2339 -0.5033
vn -0.8443 -0.0145 -0.5356
vn -0.8136 0.4821 -0.3250
vn -0.1959 0.9777 0.0750
vn -0.5027 0.2416 -0.8300
vn -0.0000 0.3684 -0.9296
vn -0.5013 0.2524 -0.8276
vn -0.0000 0.2628 -0.9648
vn 0.4944 0.6845 -0.5357
vn -0.0000 0.7893 -0.6140
vn -0.3191 0.6782 -0.6620
vn -0.0000 0.6750 -0.7378
vn -0.2148 -0.8436 -0.4921
vn -0.0000 -0.8638 -0.5039
vn -0.6088 0.1436 -0.7803
vn -0.0000 0.1810 -0.9835
vn -0.2399 -0.9651 -0.1045
vn -0.0000 -0.9999 0.0116
vn -0.4072 -0.1553 -0.9000
vn -0.0000 -0.2260 -0.9741
vn -0.0000 -0.1510 -0.9885
vn -0.0000 0.2785 -0.9604
vn -0.6793 -0.1165 -0.7246
vn -0.6699 0.2015 -0.7146
vn 0.6793 -0.1165 -0.7246
vn 0.6699 0.2015 -0.7146
vn 0.5830 -0.4230 -0.6936
vn -0.5830 -0.4230 -0.6936
vn -0.0000 -0.5251 -0.8510
vn -0.0000 0.8682 -0.4962
vn 0.3891 0.8006 -0.4556
vn 0.6319 0.2307 -0.7399
vn -0.3891 0.8006 -0.4556
vn -0.6319 0.2307 -0.7399
vn 0.4072 -0.1553 -0.9000
vn 0.6245 -0.7810 0.0039
vn 0.3984 0.0913 -0.9126
vn 0.3574 0.6450 -0.6754
vn -0.0355 0.9955 -0.0876
vn -0.0479 0.9878 0.1480
vn 0.5013 0.2524 -0.8276
vn 0.0355 0.9955 -0.0876
vn 0.0479 0.9878 0.1480
vn 0.4306 0.1297 -0.8932
vn -0.0459 0.9828 -0.1790
vn 0.0393 0.9931 0.1106
vn 0.8828 -0.0523 -0.4669
vn 0.8716 0.2493 -0.4222
vn -0.8828 -0.0523 -0.4669
vn -0.8716 0.2493 -0.4222
vn 0.0459 0.9828 -0.1790
vn -0.0393 0.9931 0.1106
vn -0.4306 0.1297 -0.8932
vn -0.4579 0.2413 -0.8556
vn -0.3574 0.6450 -0.6754
vn -0.3984 0.0913 -0.9126
vn -0.6245 -0.7810 0.0039
vn -0.4630 -0.1922 -0.8653
vn -0.6655 0.1921 -0.7212
vn 0.6655 0.1921 -0.7212
vn 0.6274 0.2218 -0.7464
vn -0.6274 0.2218 -0.7464
vt 0.003664 0.697481
vt 0.042012 0.625400
vt 0.043203 0.697481
vt 0.042085 0.595409
vt 0.008565 0.410573
vt 0.003777 0.595409
vt 0.043681 0.497159
vt 0.043681 0.410573
vt 0.042873 0.389700
vt 0.008602 0.274861
vt 0.008602 0.389700
vt 0.046379 0.851602
vt 0.015812 0.866355
vt 0.013192 0.851602
vt 0.008709 0.954829
vt 0.044546 0.993556
vt 0.044546 0.954829
vt 0.191794 0.863297
vt 0.219277 0.783358
vt 0.191411 0.783601
vt 0.191624 0.783338
vt 0.217236 0.862807
vt 0.216839 0.782749
vt 0.045505 0.836850
vt 0.274865 0.896313
vt 0.392130 0.842266
vt 0.392130 0.896313
vt 0.166409 0.783928
vt 0.191575 0.862621
vt 0.164062 0.863281
vt 0.163546 0.783844
vt 0.010572 0.836850
vt 0.163029 0.704407
vt 0.190647 0.624210
vt 0.162512 0.624969
vt 0.191029 0.703905
vt 0.219029 0.703404
vt 0.218781 0.623450
vt 0.166904 0.705420
vt 0.191722 0.624773
vt 0.167399 0.626912
vt 0.191673 0.704055
vt 0.216442 0.702691
vt 0.216045 0.622633
vt 0.115372 0.836850
vt 0.079565 0.851602
vt 0.080438 0.836850
vt 0.122279 0.697481
vt 0.082741 0.697481
vt 0.116218 0.954829
vt 0.080382 0.954829
vt 0.080382 0.993556
vt 0.110132 0.866355
vt 0.112752 0.851602
vt 0.078692 0.866355
vt 0.111414 0.274861
vt 0.077144 0.389700
vt 0.111414 0.389700
vt 0.077144 0.274861
vt 0.113912 0.410573
vt 0.078797 0.497159
vt 0.078797 0.410573
vt 0.080393 0.595409
vt 0.118701 0.595409
vt 0.083932 0.625400
vt 0.125852 0.625400
vt 0.044546 0.877377
vt 0.080382 0.916103
vt 0.080382 0.877377
vt 0.044546 0.916103
vt 0.008709 0.916103
vt 0.116218 0.916103
vt 0.132667 0.958325
vt 0.168711 0.997276
vt 0.168711 0.958325
vt 0.240800 0.958325
vt 0.204755 0.958325
vt 0.204755 0.997276
vt 0.168711 0.880424
vt 0.204755 0.919375
vt 0.204755 0.880424
vt 0.168711 0.919375
vt 0.132667 0.919375
vt 0.240800 0.919375
vt 0.000092 0.625400
vt 0.008565 0.497159
vt 0.042873 0.274861
vt 0.047252 0.866355
vt 0.219525 0.863312
vt 0.274865 0.842266
vt 0.165914 0.862436
vt 0.113912 0.497159
s 0
usemtl Material.005
f 18/1/1 39/2/1 54/3/1
f 40/4/2 5/5/2 2/6/2
f 46/7/3 5/5/3 44/8/3
f 46/9/4 9/10/4 7/11/4
f 56/12/5 12/13/5 23/14/5
f 57/15/6 51/16/6 61/17/6
f 25/18/7 30/19/7 31/20/7
f 37/21/8 16/22/8 36/23/8
f 42/24/9 18/1/9 54/3/9
f 22/25/10 19/26/10 21/27/10
f 33/28/11 26/29/11 37/21/11
f 14/30/12 31/20/12 27/31/12
f 56/12/13 3/32/13 42/24/13
f 28/33/14 23/34/14 12/35/14
f 27/31/15 32/36/15 28/33/15
f 23/34/16 29/37/16 3/38/16
f 32/36/17 30/19/17 29/37/17
f 34/39/18 24/40/18 1/41/18
f 33/28/19 38/42/19 34/39/19
f 24/40/20 35/43/20 11/44/20
f 38/42/21 36/23/21 35/43/21
f 1/45/22 55/46/22 41/47/22
f 55/46/23 42/24/23 41/47/23
f 41/47/24 17/48/24 1/45/24
f 42/24/25 53/49/25 41/47/25
f 60/50/26 63/51/26 52/52/26
f 51/16/27 63/51/27 61/17/27
f 11/53/28 55/46/28 24/54/28
f 49/55/29 56/12/29 55/46/29
f 10/56/30 45/57/30 8/58/30
f 47/59/31 46/9/31 45/57/31
f 6/60/32 45/61/32 43/62/32
f 43/62/33 46/7/33 44/8/33
f 6/60/34 39/63/34 4/64/34
f 43/62/35 40/4/35 39/63/35
f 17/48/36 40/65/36 2/66/36
f 54/3/37 40/65/37 53/49/37
f 49/67/38 64/68/38 50/69/38
f 62/70/39 63/51/39 64/68/39
f 62/70/40 49/67/40 58/71/40
f 58/71/41 61/17/41 62/70/41
f 50/69/42 64/68/42 59/72/42
f 63/51/43 59/72/43 64/68/43
f 69/73/44 67/74/44 73/75/44
f 72/76/45 75/77/45 68/78/45
f 67/74/46 75/77/46 73/75/46
f 65/79/47 76/80/47 66/81/47
f 73/75/39 76/80/39 74/82/39
f 74/82/48 65/79/48 70/83/48
f 69/73/49 74/82/49 70/83/49
f 66/81/50 76/80/50 71/84/50
f 76/80/51 72/76/51 71/84/51
f 18/1/52 4/85/52 39/2/52
f 40/4/53 44/8/53 5/5/53
f 46/7/54 7/86/54 5/5/54
f 46/9/4 48/87/4 9/10/4
f 56/12/55 50/88/55 12/13/55
f 25/18/56 13/89/56 30/19/56
f 37/21/57 26/29/57 16/22/57
f 42/24/58 3/32/58 18/1/58
f 22/25/10 20/90/10 19/26/10
f 33/28/59 15/91/59 26/29/59
f 14/30/60 25/18/60 31/20/60
f 56/12/61 23/14/61 3/32/61
f 28/33/62 32/36/62 23/34/62
f 27/31/63 31/20/63 32/36/63
f 23/34/64 32/36/64 29/37/64
f 32/36/65 31/20/65 30/19/65
f 34/39/66 38/42/66 24/40/66
f 33/28/67 37/21/67 38/42/67
f 24/40/68 38/42/68 35/43/68
f 38/42/69 37/21/69 36/23/69
f 1/45/70 24/54/70 55/46/70
f 55/46/23 56/12/23 42/24/23
f 41/47/71 53/49/71 17/48/71
f 42/24/25 54/3/25 53/49/25
f 51/16/27 52/52/27 63/51/27
f 11/53/72 49/55/72 55/46/72
f 49/55/29 50/88/29 56/12/29
f 10/56/30 47/59/30 45/57/30
f 47/59/31 48/87/31 46/9/31
f 6/60/73 8/92/73 45/61/73
f 43/62/33 45/61/33 46/7/33
f 6/60/74 43/62/74 39/63/74
f 43/62/35 44/8/35 40/4/35
f 17/48/75 53/49/75 40/65/75
f 54/3/37 39/2/37 40/65/37
f 49/67/38 62/70/38 64/68/38
f 62/70/39 61/17/39 63/51/39
f 58/71/76 57/15/76 61/17/76
f 63/51/77 60/50/77 59/72/77
f 67/74/46 68/78/46 75/77/46
f 65/79/47 74/82/47 76/80/47
f 73/75/39 75/77/39 76/80/39
f 69/73/78 73/75/78 74/82/78
f 76/80/79 75/77/79 72/76/79
