# Blender 5.1.2
# www.blender.org
mtllib goal.mtl
o GOAL
v -4.000000 0.000000 5.000000
v -2.000000 0.000000 5.000000
v -1.000000 0.000000 5.000000
v 0.200000 0.000000 5.000000
v 1.000000 0.000000 5.000000
v 2.000000 0.000000 5.000000
v 4.000000 0.000000 5.000000
v 4.000000 0.000000 -5.000000
v 2.000000 0.000000 -5.000000
v 1.000000 0.000000 -5.000000
v 0.200000 0.000000 -5.000000
v -1.000000 0.000000 -5.000000
v -2.000000 0.000000 -5.000000
v -4.000000 0.000000 -5.000000
v -4.000000 0.000000 4.000000
v -4.000000 0.000000 3.000000
v -4.000000 0.000000 2.000000
v -4.000000 0.000000 1.000000
v -4.000000 0.000000 0.000000
v -4.000000 0.000000 -1.000000
v -4.000000 0.000000 -2.000000
v -4.000000 0.000000 -3.000000
v -4.000000 0.000000 -4.000000
v -2.000000 0.000000 4.000000
v -2.000000 0.000000 3.000000
v -2.000000 0.000000 2.000000
v -2.000000 0.000000 1.000000
v -2.000000 0.000000 0.000000
v -2.000000 0.000000 -1.000000
v -2.000000 0.000000 -2.000000
v -2.000000 0.000000 -3.000000
v -2.000000 0.000000 -4.000000
v -1.000000 0.000000 4.000000
v -1.000000 0.000000 3.000000
v -1.000000 0.000000 2.000000
v -1.000000 0.000000 1.000000
v -1.000000 0.000000 0.000000
v -1.000000 0.000000 -1.000000
v -1.000000 0.000000 -2.000000
v -1.000000 0.000000 -3.000000
v -1.000000 0.000000 -4.000000
v 0.200000 0.000000 4.000000
v 0.200000 0.000000 3.000000
v 0.200000 0.000000 2.000000
v 0.200000 0.000000 1.000000
v 0.200000 0.000000 0.000000
v 0.200000 0.000000 -1.000000
v 0.200000 0.000000 -2.000000
v 0.200000 0.000000 -3.000000
v 0.200000 0.000000 -4.000000
v 1.000000 0.000000 4.000000
v 1.000000 0.000000 3.000000
v 1.000000 0.000000 2.000000
v 1.000000 0.000000 1.000000
v 1.000000 0.000000 0.000000
v 1.000000 0.000000 -1.000000
v 1.000000 0.000000 -2.000000
v 1.000000 0.000000 -3.000000
v 1.000000 0.000000 -4.000000
v 2.000000 0.000000 4.000000
v 2.000000 0.000000 3.000000
v 2.000000 0.000000 2.000000
v 2.000000 0.000000 1.000000
v 2.000000 0.000000 0.000000
v 2.000000 0.000000 -1.000000
v 2.000000 0.000000 -2.000000
v 2.000000 0.000000 -3.000000
v 2.000000 0.000000 -4.000000
v 4.000000 0.000000 4.000000
v 4.000000 0.000000 3.000000
v 4.000000 0.000000 2.000000
v 4.000000 0.000000 1.000000
v 4.000000 0.000000 0.000000
v 4.000000 0.000000 -1.000000
v 4.000000 0.000000 -2.000000
v 4.000000 0.000000 -3.000000
v 4.000000 0.000000 -4.000000
v 6.000000 0.100000 -4.000000
v 6.000000 0.100000 -5.000000
v -5.000000 0.100000 -5.000000
v -6.000000 0.100000 -5.000000
v -6.000000 0.100000 -4.000000
v -6.000000 0.100000 -3.000000
v -6.000000 0.100000 -2.000000
v -6.000000 0.100000 -1.000000
v -6.000000 0.100000 0.000000
v -6.000000 0.100000 1.000000
v 6.000000 0.100000 1.000000
v 6.000000 0.100000 0.000000
v 6.000000 0.100000 -1.000000
v 6.000000 0.100000 -2.000000
v 6.000000 0.100000 -3.000000
v 5.000000 0.100000 -5.000000
v 4.000000 0.100000 -5.000000
v -4.000000 0.100000 -5.000000
v -5.000000 0.100000 -4.000000
v -5.000000 0.100000 1.000000
v -5.000000 0.100000 0.000000
v -5.000000 0.100000 -1.000000
v -5.000000 0.100000 -2.000000
v -5.000000 0.100000 -3.000000
v -4.000000 0.100000 -4.000000
v -4.000000 0.100000 1.000000
v -4.000000 0.100000 0.000000
v -4.000000 0.100000 -1.000000
v -4.000000 0.100000 -2.000000
v -4.000000 0.100000 -3.000000
v 4.000000 0.100000 -4.000000
v 4.000000 0.100000 1.000000
v 4.000000 0.100000 0.000000
v 4.000000 0.100000 -1.000000
v 4.000000 0.100000 -2.000000
v 4.000000 0.100000 -3.000000
v 5.000000 0.100000 -4.000000
v 5.000000 0.100000 1.000000
v 5.000000 0.100000 0.000000
v 5.000000 0.100000 -1.000000
v 5.000000 0.100000 -2.000000
v 5.000000 0.100000 -3.000000
v -0.200000 0.000000 5.000000
v -0.200000 0.000000 -5.000000
v -0.200000 0.000000 4.000000
v -0.200000 0.000000 3.000000
v -0.200000 0.000000 2.000000
v -0.200000 0.000000 1.000000
v -0.200000 0.000000 0.000000
v -0.200000 0.000000 -1.000000
v -0.200000 0.000000 -2.000000
v -0.200000 0.000000 -3.000000
v -0.200000 0.000000 -4.000000
v 10.000000 0.000000 5.000000
v 10.000000 0.000000 4.000000
v 10.000000 0.000000 3.000000
v 10.000000 0.000000 2.000000
v 10.000000 0.000000 1.000000
v -10.000000 0.000000 5.000000
v -10.000000 0.000000 4.000000
v -10.000000 0.000000 3.000000
v -10.000000 0.000000 2.000000
v -10.000000 0.000000 1.000000
v -2.000000 0.100000 6.300000
v 2.000000 0.100000 6.300000
v -2.000000 0.100000 6.000000
v 2.000000 0.100000 6.000000
v 2.000000 0.360119 6.300000
v -2.000000 0.360119 6.300000
v -2.000000 0.360119 6.000000
v 2.000000 0.360119 6.000000
v 1.733333 0.100000 6.300000
v 1.466667 0.100000 6.300000
v 1.200000 0.100000 6.300000
v 0.933333 0.100000 6.300000
v 0.666667 0.100000 6.300000
v 0.400000 0.100000 6.300000
v 0.133333 0.100000 6.300000
v -0.133333 0.100000 6.300000
v -0.400000 0.100000 6.300000
v -0.666667 0.100000 6.300000
v -0.933333 0.100000 6.300000
v -1.200000 0.100000 6.300000
v -1.466667 0.100000 6.300000
v -1.733333 0.100000 6.300000
v 1.733333 0.100000 6.000000
v 1.466667 0.100000 6.000000
v 1.200000 0.100000 6.000000
v 0.933333 0.100000 6.000000
v 0.666667 0.100000 6.000000
v 0.400000 0.100000 6.000000
v 0.133333 0.100000 6.000000
v -0.133333 0.100000 6.000000
v -0.400000 0.100000 6.000000
v -0.666667 0.100000 6.000000
v -0.933333 0.100000 6.000000
v -1.200000 0.100000 6.000000
v -1.466667 0.100000 6.000000
v -1.733333 0.100000 6.000000
v 1.733333 0.360119 6.300000
v 1.466667 0.360119 6.300000
v 1.200000 0.360119 6.300000
v 0.933333 0.360119 6.300000
v 0.666667 0.360119 6.300000
v 0.400000 0.360119 6.300000
v 0.133333 0.360119 6.300000
v -0.133333 0.360119 6.300000
v -0.400000 0.360119 6.300000
v -0.666667 0.360119 6.300000
v -0.933333 0.360119 6.300000
v -1.200000 0.360119 6.300000
v -1.466667 0.360119 6.300000
v -1.733333 0.360119 6.300000
v 1.733333 0.360119 6.000000
v 1.466667 0.360119 6.000000
v 1.200000 0.360119 6.000000
v 0.933333 0.360119 6.000000
v 0.666667 0.360119 6.000000
v 0.400000 0.360119 6.000000
v 0.133333 0.360119 6.000000
v -0.133333 0.360119 6.000000
v -0.400000 0.360119 6.000000
v -0.666667 0.360119 6.000000
v -0.933333 0.360119 6.000000
v -1.200000 0.360119 6.000000
v -1.466667 0.360119 6.000000
v -1.733333 0.360119 6.000000
v 1.824809 0.360119 6.208525
v 1.908524 0.360119 6.208525
v 1.908524 0.360119 6.091475
v 1.824809 0.360119 6.091475
v -1.908524 0.360119 6.208525
v -1.824809 0.360119 6.208525
v -1.824809 0.360119 6.091475
v -1.908524 0.360119 6.091475
v -1.641858 0.360119 6.208525
v -1.558142 0.360119 6.208525
v -1.558142 0.360119 6.091475
v -1.641858 0.360119 6.091475
v -1.375191 0.360119 6.208525
v -1.291476 0.360119 6.208525
v -1.291476 0.360119 6.091475
v -1.375191 0.360119 6.091475
v -1.108524 0.360119 6.208525
v -1.024809 0.360119 6.208525
v -1.024809 0.360119 6.091475
v -1.108524 0.360119 6.091475
v -0.841858 0.360119 6.208525
v -0.758142 0.360119 6.208525
v -0.758142 0.360119 6.091475
v -0.841858 0.360119 6.091475
v -0.575191 0.360119 6.208525
v -0.491476 0.360119 6.208525
v -0.491476 0.360119 6.091475
v -0.575191 0.360119 6.091475
v -0.308524 0.360119 6.208525
v -0.224809 0.360119 6.208525
v -0.224809 0.360119 6.091475
v -0.308524 0.360119 6.091475
v -0.041858 0.360119 6.208525
v 0.041858 0.360119 6.208525
v 0.041858 0.360119 6.091475
v -0.041858 0.360119 6.091475
v 0.224809 0.360119 6.208525
v 0.308524 0.360119 6.208525
v 0.308524 0.360119 6.091475
v 0.224809 0.360119 6.091475
v 0.491476 0.360119 6.208525
v 0.575191 0.360119 6.208525
v 0.575191 0.360119 6.091475
v 0.491476 0.360119 6.091475
v 0.758142 0.360119 6.208525
v 0.841858 0.360119 6.208525
v 0.841858 0.360119 6.091475
v 0.758142 0.360119 6.091475
v 1.024809 0.360119 6.208525
v 1.108524 0.360119 6.208525
v 1.108524 0.360119 6.091475
v 1.024809 0.360119 6.091475
v 1.291476 0.360119 6.208525
v 1.375191 0.360119 6.208525
v 1.375191 0.360119 6.091475
v 1.291476 0.360119 6.091475
v 1.558142 0.360119 6.208525
v 1.641858 0.360119 6.208525
v 1.641858 0.360119 6.091475
v 1.558142 0.360119 6.091475
v 1.908524 2.270189 6.208525
v 1.824809 2.270189 6.208525
v 1.824809 2.270189 6.091475
v 1.908524 2.270189 6.091475
v -1.824809 2.270189 6.208525
v -1.908524 2.270189 6.208525
v -1.908524 2.270189 6.091475
v -1.824809 2.270189 6.091475
v -1.558142 2.270189 6.208525
v -1.641858 2.270189 6.208525
v -1.641858 2.270189 6.091475
v -1.558142 2.270189 6.091475
v -1.291476 2.270189 6.208525
v -1.375191 2.270189 6.208525
v -1.375191 2.270189 6.091475
v -1.291476 2.270189 6.091475
v -1.024809 2.270189 6.208525
v -1.108524 2.270189 6.208525
v -1.108524 2.270189 6.091475
v -1.024809 2.270189 6.091475
v -0.758142 2.270189 6.208525
v -0.841858 2.270189 6.208525
v -0.841858 2.270189 6.091475
v -0.758142 2.270189 6.091475
v -0.491476 2.270189 6.208525
v -0.575191 2.270189 6.208525
v -0.575191 2.270189 6.091475
v -0.491476 2.270189 6.091475
v -0.224809 2.270189 6.208525
v -0.308524 2.270189 6.208525
v -0.308524 2.270189 6.091475
v -0.224809 2.270189 6.091475
v 0.041858 2.270189 6.208525
v -0.041858 2.270189 6.208525
v -0.041858 2.270189 6.091475
v 0.041858 2.270189 6.091475
v 0.308524 2.270189 6.208525
v 0.224809 2.270189 6.208525
v 0.224809 2.270189 6.091475
v 0.308524 2.270189 6.091475
v 0.575191 2.270189 6.208525
v 0.491476 2.270189 6.208525
v 0.491476 2.270189 6.091475
v 0.575191 2.270189 6.091475
v 0.841858 2.270189 6.208525
v 0.758142 2.270189 6.208525
v 0.758142 2.270189 6.091475
v 0.841858 2.270189 6.091475
v 1.108524 2.270189 6.208525
v 1.024809 2.270189 6.208525
v 1.024809 2.270189 6.091475
v 1.108524 2.270189 6.091475
v 1.375191 2.270189 6.208525
v 1.291476 2.270189 6.208525
v 1.291476 2.270189 6.091475
v 1.375191 2.270189 6.091475
v 1.641858 2.270189 6.208525
v 1.558142 2.270189 6.208525
v 1.558142 2.270189 6.091475
v 1.641858 2.270189 6.091475
v 1.908524 2.463130 6.208525
v 1.824809 2.463130 6.208525
v 1.824809 2.463130 6.091475
v 1.908524 2.463130 6.091475
v -1.824809 2.463130 6.208525
v -1.908524 2.463130 6.208525
v -1.908524 2.463130 6.091475
v -1.824809 2.463130 6.091475
v 1.997431 2.270189 6.208525
v 1.997431 2.270189 6.091475
v -1.997431 2.270189 6.208525
v -1.997431 2.270189 6.091475
v 1.997431 2.463130 6.208525
v 1.997431 2.463130 6.091475
v -1.997431 2.463130 6.208525
v -1.997431 2.463130 6.091475
v -4.000000 0.100000 5.000000
v -2.000000 0.100000 5.000000
v -1.000000 0.100000 5.000000
v -0.200000 0.100000 5.000000
v 0.200000 0.100000 5.000000
v 1.000000 0.100000 5.000000
v 2.000000 0.100000 5.000000
v 4.000000 0.100000 5.000000
v 10.000000 0.100000 5.000000
v -10.000000 0.100000 5.000000
v -4.000000 0.100000 6.000000
v -2.000000 0.100000 6.000000
v -1.000000 0.100000 6.000000
v -0.200000 0.100000 6.000000
v 0.200000 0.100000 6.000000
v 1.000000 0.100000 6.000000
v 2.000000 0.100000 6.000000
v 4.000000 0.100000 6.000000
v 10.000000 0.100000 6.000000
v -10.000000 0.100000 6.000000
v -4.000000 0.100000 10.000000
v -2.000000 0.100000 10.000000
v -1.000000 0.100000 10.000000
v -0.200000 0.100000 10.000000
v 0.200000 0.100000 10.000000
v 1.000000 0.100000 10.000000
v 2.000000 0.100000 10.000000
v 4.000000 0.100000 10.000000
v 10.000000 0.100000 10.000000
v -10.000000 0.100000 10.000000
v -4.000000 2.100000 6.000000
v -2.000000 2.100000 6.000000
v 2.000000 2.100000 6.000000
v 4.000000 2.100000 6.000000
v 10.000000 2.100000 6.000000
v -10.000000 2.100000 6.000000
v -10.000000 0.100000 -1.000000
v -10.000000 0.100000 0.000000
v -10.000000 0.100000 1.000000
v 10.000000 0.100000 1.000000
v 10.000000 0.100000 0.000000
v 10.000000 0.100000 -1.000000
vn 1.0000 -0.0000 -0.0000
vn -0.0000 1.0000 -0.0000
vn -1.0000 -0.0000 -0.0000
vn -0.0000 -1.0000 -0.0000
vn -0.0000 -0.0000 1.0000
vn -0.0000 -0.0000 -1.0000
vt 0.174811 0.512345
vt 0.772835 0.400787
vt 0.208268 0.549606
vt 0.609842 0.500000
vt 0.439764 0.251969
vt 0.181309 0.164552
vt 0.606299 0.500000
vt 0.725062 0.284232
vt 0.769414 0.696863
s 0
usemtl Material.008
f 21/1/1 105/1/1 20/1/1
f 32/2/2 14/2/2 23/2/2
f 41/2/2 13/2/2 32/2/2
f 50/3/2 121/3/2 130/3/2
f 59/2/2 11/2/2 50/2/2
f 68/2/2 10/2/2 59/2/2
f 77/2/2 9/2/2 68/2/2
f 77/1/3 94/1/3 8/1/3
f 20/1/1 104/1/1 19/1/1
f 19/1/1 103/1/1 18/1/1
f 2/2/2 15/2/2 1/2/2
f 24/2/2 16/2/2 15/2/2
f 25/2/2 17/2/2 16/2/2
f 26/2/2 18/2/2 17/2/2
f 27/2/2 19/2/2 18/2/2
f 28/2/2 20/2/2 19/2/2
f 29/2/2 21/2/2 20/2/2
f 30/2/2 22/2/2 21/2/2
f 31/2/2 23/2/2 22/2/2
f 3/2/2 24/2/2 2/2/2
f 33/2/2 25/2/2 24/2/2
f 34/2/2 26/2/2 25/2/2
f 35/2/2 27/2/2 26/2/2
f 36/2/2 28/2/2 27/2/2
f 37/2/2 29/2/2 28/2/2
f 38/2/2 30/2/2 29/2/2
f 39/2/2 31/2/2 30/2/2
f 40/2/2 32/2/2 31/2/2
f 4/2/2 122/2/2 120/2/2
f 42/2/2 123/2/2 122/2/2
f 43/2/2 124/2/2 123/2/2
f 44/3/2 125/3/2 124/3/2
f 45/3/2 126/3/2 125/3/2
f 46/2/2 127/2/2 126/2/2
f 47/2/2 128/2/2 127/2/2
f 48/2/2 129/2/2 128/2/2
f 49/3/2 130/3/2 129/3/2
f 5/2/2 42/2/2 4/2/2
f 51/2/2 43/2/2 42/2/2
f 52/2/2 44/2/2 43/2/2
f 53/2/2 45/2/2 44/2/2
f 54/2/2 46/2/2 45/2/2
f 55/2/2 47/2/2 46/2/2
f 56/2/2 48/2/2 47/2/2
f 57/2/2 49/2/2 48/2/2
f 58/2/2 50/2/2 49/2/2
f 6/2/2 51/2/2 5/2/2
f 60/2/2 52/2/2 51/2/2
f 61/2/2 53/2/2 52/2/2
f 62/2/2 54/2/2 53/2/2
f 63/2/2 55/2/2 54/2/2
f 64/2/2 56/2/2 55/2/2
f 65/2/2 57/2/2 56/2/2
f 66/2/2 58/2/2 57/2/2
f 67/2/2 59/2/2 58/2/2
f 7/2/2 60/2/2 6/2/2
f 69/2/2 61/2/2 60/2/2
f 70/2/2 62/2/2 61/2/2
f 71/2/2 63/2/2 62/2/2
f 72/2/2 64/2/2 63/2/2
f 73/2/2 65/2/2 64/2/2
f 74/2/2 66/2/2 65/2/2
f 75/2/2 67/2/2 66/2/2
f 76/2/2 68/2/2 67/2/2
f 76/1/3 108/1/3 77/1/3
f 75/1/3 113/1/3 76/1/3
f 14/1/1 102/1/1 23/1/1
f 74/1/3 112/1/3 75/1/3
f 73/1/3 111/1/3 74/1/3
f 72/1/3 110/1/3 73/1/3
f 78/4/2 93/4/2 114/4/2
f 96/4/2 81/4/2 82/4/2
f 102/4/2 80/4/2 96/4/2
f 114/4/2 94/4/2 108/4/2
f 97/4/2 86/4/2 87/4/2
f 98/4/2 85/4/2 86/4/2
f 99/4/2 84/4/2 85/4/2
f 100/4/2 83/4/2 84/4/2
f 101/4/2 82/4/2 83/4/2
f 103/4/2 98/4/2 97/4/2
f 104/4/2 99/4/2 98/4/2
f 105/4/2 100/4/2 99/4/2
f 106/4/2 101/4/2 100/4/2
f 107/4/2 96/4/2 101/4/2
f 115/4/2 110/4/2 109/4/2
f 116/4/2 111/4/2 110/4/2
f 117/4/2 112/4/2 111/4/2
f 118/4/2 113/4/2 112/4/2
f 119/4/2 108/4/2 113/4/2
f 88/4/2 116/4/2 115/4/2
f 89/4/2 117/4/2 116/4/2
f 90/4/2 118/4/2 117/4/2
f 91/4/2 119/4/2 118/4/2
f 92/4/2 114/4/2 119/4/2
f 22/1/1 106/1/1 21/1/1
f 23/1/1 107/1/1 22/1/1
f 129/2/2 41/2/2 40/2/2
f 128/2/2 40/2/2 39/2/2
f 127/2/2 39/2/2 38/2/2
f 126/2/2 38/2/2 37/2/2
f 125/2/2 37/2/2 36/2/2
f 124/2/2 36/2/2 35/2/2
f 123/2/2 35/2/2 34/2/2
f 122/2/2 34/2/2 33/2/2
f 120/2/2 33/2/2 3/2/2
f 130/2/2 12/2/2 41/2/2
f 71/2/2 135/2/2 72/2/2
f 69/2/2 133/2/2 70/2/2
f 70/2/2 134/2/2 71/2/2
f 7/2/2 132/2/2 69/2/2
f 17/2/2 138/2/2 16/2/2
f 15/2/2 136/2/2 1/2/2
f 18/2/2 139/2/2 17/2/2
f 16/2/2 137/2/2 15/2/2
f 163/5/4 142/5/4 149/5/4
f 243/5/1 301/5/1 242/5/1
f 144/5/1 145/5/1 142/5/1
f 142/5/5 177/5/5 149/5/5
f 143/5/6 204/5/6 176/5/6
f 141/5/3 147/5/3 143/5/3
f 163/5/6 148/5/6 144/5/6
f 164/5/6 191/5/6 163/5/6
f 165/5/6 192/5/6 164/5/6
f 166/5/6 193/5/6 165/5/6
f 167/5/6 194/5/6 166/5/6
f 168/5/6 195/5/6 167/5/6
f 169/5/6 196/5/6 168/5/6
f 170/5/6 197/5/6 169/5/6
f 171/5/6 198/5/6 170/5/6
f 172/5/6 199/5/6 171/5/6
f 173/5/6 200/5/6 172/5/6
f 174/5/6 201/5/6 173/5/6
f 175/5/6 202/5/6 174/5/6
f 176/5/6 203/5/6 175/5/6
f 162/5/5 146/5/5 141/5/5
f 161/5/5 190/5/5 162/5/5
f 160/5/5 189/5/5 161/5/5
f 159/5/5 188/5/5 160/5/5
f 158/5/5 187/5/5 159/5/5
f 157/5/5 186/5/5 158/5/5
f 156/5/5 185/5/5 157/5/5
f 155/5/5 184/5/5 156/5/5
f 154/5/5 183/5/5 155/5/5
f 153/5/5 182/5/5 154/5/5
f 152/5/5 181/5/5 153/5/5
f 151/5/5 180/5/5 152/5/5
f 150/5/5 179/5/5 151/5/5
f 149/5/5 178/5/5 150/5/5
f 241/5/3 303/5/3 244/5/3
f 256/5/6 316/5/6 255/5/6
f 242/5/5 302/5/5 241/5/5
f 255/5/1 313/5/1 254/5/1
f 216/5/6 276/5/6 215/5/6
f 253/5/3 315/5/3 256/5/3
f 215/5/1 273/5/1 214/5/1
f 254/5/5 314/5/5 253/5/5
f 213/5/3 275/5/3 216/5/3
f 228/5/6 288/5/6 227/5/6
f 214/5/5 274/5/5 213/5/5
f 227/5/1 285/5/1 226/5/1
f 225/5/3 287/5/3 228/5/3
f 240/5/6 300/5/6 239/5/6
f 143/5/4 162/5/4 141/5/4
f 176/5/4 161/5/4 162/5/4
f 175/5/4 160/5/4 161/5/4
f 174/5/4 159/5/4 160/5/4
f 173/5/4 158/5/4 159/5/4
f 172/5/4 157/5/4 158/5/4
f 171/5/4 156/5/4 157/5/4
f 170/5/4 155/5/4 156/5/4
f 169/5/4 154/5/4 155/5/4
f 168/5/4 153/5/4 154/5/4
f 167/5/4 152/5/4 153/5/4
f 166/5/4 151/5/4 152/5/4
f 165/5/4 150/5/4 151/5/4
f 164/5/4 149/5/4 150/5/4
f 145/5/2 205/5/2 177/5/2
f 148/5/2 206/5/2 145/5/2
f 191/5/2 207/5/2 148/5/2
f 177/5/2 208/5/2 191/5/2
f 190/5/2 209/5/2 146/5/2
f 204/5/2 210/5/2 190/5/2
f 147/5/2 211/5/2 204/5/2
f 146/5/2 212/5/2 147/5/2
f 189/5/2 213/5/2 190/5/2
f 203/5/2 214/5/2 189/5/2
f 204/5/2 215/5/2 203/5/2
f 190/5/2 216/5/2 204/5/2
f 188/5/2 217/5/2 189/5/2
f 202/5/2 218/5/2 188/5/2
f 203/5/2 219/5/2 202/5/2
f 189/5/2 220/5/2 203/5/2
f 187/5/2 221/5/2 188/5/2
f 201/5/2 222/5/2 187/5/2
f 202/5/2 223/5/2 201/5/2
f 188/5/2 224/5/2 202/5/2
f 186/5/2 225/5/2 187/5/2
f 200/5/2 226/5/2 186/5/2
f 201/5/2 227/5/2 200/5/2
f 187/5/2 228/5/2 201/5/2
f 185/5/2 229/5/2 186/5/2
f 199/5/2 230/5/2 185/5/2
f 200/5/2 231/5/2 199/5/2
f 186/5/2 232/5/2 200/5/2
f 184/5/2 233/5/2 185/5/2
f 198/5/2 234/5/2 184/5/2
f 199/5/2 235/5/2 198/5/2
f 185/5/2 236/5/2 199/5/2
f 183/5/2 237/5/2 184/5/2
f 197/5/2 238/5/2 183/5/2
f 198/5/2 239/5/2 197/5/2
f 184/5/2 240/5/2 198/5/2
f 182/5/2 241/5/2 183/5/2
f 196/5/2 242/5/2 182/5/2
f 197/5/2 243/5/2 196/5/2
f 183/5/2 244/5/2 197/5/2
f 181/5/2 245/5/2 182/5/2
f 195/5/2 246/5/2 181/5/2
f 196/5/2 247/5/2 195/5/2
f 182/5/2 248/5/2 196/5/2
f 180/5/2 249/5/2 181/5/2
f 194/5/2 250/5/2 180/5/2
f 195/5/2 251/5/2 194/5/2
f 181/5/2 252/5/2 195/5/2
f 179/5/2 253/5/2 180/5/2
f 193/5/2 254/5/2 179/5/2
f 194/5/2 255/5/2 193/5/2
f 180/5/2 256/5/2 194/5/2
f 178/5/2 257/5/2 179/5/2
f 192/5/2 258/5/2 178/5/2
f 193/5/2 259/5/2 192/5/2
f 179/5/2 260/5/2 193/5/2
f 177/5/2 261/5/2 178/5/2
f 191/5/2 262/5/2 177/5/2
f 192/5/2 263/5/2 191/5/2
f 178/5/2 264/5/2 192/5/2
f 329/5/2 327/5/2 332/5/2
f 332/5/6 267/5/6 272/5/6
f 273/5/2 275/5/2 274/5/2
f 277/5/2 279/5/2 278/5/2
f 281/5/2 283/5/2 282/5/2
f 285/5/2 287/5/2 286/5/2
f 289/5/2 291/5/2 290/5/2
f 293/5/2 295/5/2 294/5/2
f 298/5/2 300/5/2 299/5/2
f 301/5/2 303/5/2 302/5/2
f 305/5/2 307/5/2 306/5/2
f 309/5/2 311/5/2 310/5/2
f 313/5/2 315/5/2 314/5/2
f 317/5/2 319/5/2 318/5/2
f 321/5/2 323/5/2 322/5/2
f 230/5/5 290/5/5 229/5/5
f 244/5/6 304/5/6 243/5/6
f 229/5/3 291/5/3 232/5/3
f 231/5/1 289/5/1 230/5/1
f 218/5/5 278/5/5 217/5/5
f 232/5/6 292/5/6 231/5/6
f 217/5/3 279/5/3 220/5/3
f 258/5/5 318/5/5 257/5/5
f 219/5/1 277/5/1 218/5/1
f 206/5/5 266/5/5 205/5/5
f 257/5/3 319/5/3 260/5/3
f 220/5/6 280/5/6 219/5/6
f 205/5/3 267/5/3 208/5/3
f 259/5/1 317/5/1 258/5/1
f 246/5/5 306/5/5 245/5/5
f 207/5/1 265/5/1 206/5/1
f 260/5/6 320/5/6 259/5/6
f 245/5/3 307/5/3 248/5/3
f 208/5/6 268/5/6 207/5/6
f 247/5/1 305/5/1 246/5/1
f 234/5/5 294/5/5 233/5/5
f 248/5/6 308/5/6 247/5/6
f 233/5/3 295/5/3 236/5/3
f 235/5/1 293/5/1 234/5/1
f 222/5/5 282/5/5 221/5/5
f 236/5/6 296/5/6 235/5/6
f 221/5/3 283/5/3 224/5/3
f 262/5/5 322/5/5 261/5/5
f 223/5/1 281/5/1 222/5/1
f 210/5/5 270/5/5 209/5/5
f 261/5/3 323/5/3 264/5/3
f 224/5/6 284/5/6 223/5/6
f 209/5/3 271/5/3 212/5/3
f 263/5/1 321/5/1 262/5/1
f 250/5/5 310/5/5 249/5/5
f 211/5/1 269/5/1 210/5/1
f 264/5/6 324/5/6 263/5/6
f 249/5/3 311/5/3 252/5/3
f 212/5/6 272/5/6 211/5/6
f 251/5/1 309/5/1 250/5/1
f 238/5/5 298/5/5 237/5/5
f 252/5/6 312/5/6 251/5/6
f 237/5/3 299/5/3 240/5/3
f 239/5/1 297/5/1 238/5/1
f 226/5/5 286/5/5 225/5/5
f 325/5/2 327/5/2 326/5/2
f 329/5/2 331/5/2 330/5/2
f 269/5/5 330/5/5 270/5/5
f 325/5/2 338/5/2 328/5/2
f 265/5/5 326/5/5 266/5/5
f 271/5/6 332/5/6 272/5/6
f 328/5/6 334/5/6 268/5/6
f 267/5/6 328/5/6 268/5/6
f 269/5/5 326/5/5 329/5/5
f 272/5/4 266/5/4 269/5/4
f 334/5/1 337/5/1 333/5/1
f 335/5/3 340/5/3 336/5/3
f 331/5/2 339/5/2 330/5/2
f 265/5/5 337/5/5 325/5/5
f 268/5/4 333/5/4 265/5/4
f 330/5/5 335/5/5 270/5/5
f 270/5/4 336/5/4 271/5/4
f 271/5/6 340/5/6 331/5/6
f 120/6/6 345/6/6 4/6/6
f 2/6/6 343/6/6 3/6/6
f 1/6/6 342/6/6 2/6/6
f 3/6/6 344/6/6 120/6/6
f 344/7/2 355/7/2 345/7/2
f 345/7/2 356/7/2 346/7/2
f 343/7/2 354/7/2 344/7/2
f 341/7/2 352/7/2 342/7/2
f 346/7/2 357/7/2 347/7/2
f 342/7/2 353/7/2 343/7/2
f 348/7/2 359/7/2 349/7/2
f 347/7/2 358/7/2 348/7/2
f 350/7/2 351/7/2 341/7/2
f 4/6/6 346/6/6 5/6/6
f 5/6/6 347/6/6 6/6/6
f 6/6/6 348/6/6 7/6/6
f 136/6/6 341/6/6 1/6/6
f 7/6/6 349/6/6 131/6/6
f 355/8/2 366/8/2 356/8/2
f 351/8/2 362/8/2 352/8/2
f 358/8/2 369/8/2 359/8/2
f 356/8/2 367/8/2 357/8/2
f 352/8/2 363/8/2 353/8/2
f 360/8/2 361/8/2 351/8/2
f 357/8/2 368/8/2 358/8/2
f 354/8/2 365/8/2 355/8/2
f 353/8/2 364/8/2 354/8/2
f 352/9/5 371/9/5 351/9/5
f 359/9/5 374/9/5 358/9/5
f 358/9/5 373/9/5 357/9/5
f 351/9/5 376/9/5 360/9/5
f 86/4/2 379/4/2 87/4/2
f 85/4/2 378/4/2 86/4/2
f 89/4/2 382/4/2 90/4/2
f 88/4/2 381/4/2 89/4/2
f 21/1/1 106/1/1 105/1/1
f 32/2/2 13/2/2 14/2/2
f 41/2/2 12/2/2 13/2/2
f 50/3/2 11/3/2 121/3/2
f 59/2/2 10/2/2 11/2/2
f 68/2/2 9/2/2 10/2/2
f 77/2/2 8/2/2 9/2/2
f 77/1/3 108/1/3 94/1/3
f 20/1/1 105/1/1 104/1/1
f 19/1/1 104/1/1 103/1/1
f 2/2/2 24/2/2 15/2/2
f 24/2/2 25/2/2 16/2/2
f 25/2/2 26/2/2 17/2/2
f 26/2/2 27/2/2 18/2/2
f 27/2/2 28/2/2 19/2/2
f 28/2/2 29/2/2 20/2/2
f 29/2/2 30/2/2 21/2/2
f 30/2/2 31/2/2 22/2/2
f 31/2/2 32/2/2 23/2/2
f 3/2/2 33/2/2 24/2/2
f 33/2/2 34/2/2 25/2/2
f 34/2/2 35/2/2 26/2/2
f 35/2/2 36/2/2 27/2/2
f 36/2/2 37/2/2 28/2/2
f 37/2/2 38/2/2 29/2/2
f 38/2/2 39/2/2 30/2/2
f 39/2/2 40/2/2 31/2/2
f 40/2/2 41/2/2 32/2/2
f 4/2/2 42/2/2 122/2/2
f 42/2/2 43/2/2 123/2/2
f 43/2/2 44/2/2 124/2/2
f 44/3/2 45/3/2 125/3/2
f 45/3/2 46/3/2 126/3/2
f 46/2/2 47/2/2 127/2/2
f 47/2/2 48/2/2 128/2/2
f 48/2/2 49/2/2 129/2/2
f 49/3/2 50/3/2 130/3/2
f 5/2/2 51/2/2 42/2/2
f 51/2/2 52/2/2 43/2/2
f 52/2/2 53/2/2 44/2/2
f 53/2/2 54/2/2 45/2/2
f 54/2/2 55/2/2 46/2/2
f 55/2/2 56/2/2 47/2/2
f 56/2/2 57/2/2 48/2/2
f 57/2/2 58/2/2 49/2/2
f 58/2/2 59/2/2 50/2/2
f 6/2/2 60/2/2 51/2/2
f 60/2/2 61/2/2 52/2/2
f 61/2/2 62/2/2 53/2/2
f 62/2/2 63/2/2 54/2/2
f 63/2/2 64/2/2 55/2/2
f 64/2/2 65/2/2 56/2/2
f 65/2/2 66/2/2 57/2/2
f 66/2/2 67/2/2 58/2/2
f 67/2/2 68/2/2 59/2/2
f 7/2/2 69/2/2 60/2/2
f 69/2/2 70/2/2 61/2/2
f 70/2/2 71/2/2 62/2/2
f 71/2/2 72/2/2 63/2/2
f 72/2/2 73/2/2 64/2/2
f 73/2/2 74/2/2 65/2/2
f 74/2/2 75/2/2 66/2/2
f 75/2/2 76/2/2 67/2/2
f 76/2/2 77/2/2 68/2/2
f 76/1/3 113/1/3 108/1/3
f 75/1/3 112/1/3 113/1/3
f 14/1/1 95/1/1 102/1/1
f 74/1/3 111/1/3 112/1/3
f 73/1/3 110/1/3 111/1/3
f 72/1/3 109/1/3 110/1/3
f 78/4/2 79/4/2 93/4/2
f 96/4/2 80/4/2 81/4/2
f 102/4/2 95/4/2 80/4/2
f 114/4/2 93/4/2 94/4/2
f 97/4/2 98/4/2 86/4/2
f 98/4/2 99/4/2 85/4/2
f 99/4/2 100/4/2 84/4/2
f 100/4/2 101/4/2 83/4/2
f 101/4/2 96/4/2 82/4/2
f 103/4/2 104/4/2 98/4/2
f 104/4/2 105/4/2 99/4/2
f 105/4/2 106/4/2 100/4/2
f 106/4/2 107/4/2 101/4/2
f 107/4/2 102/4/2 96/4/2
f 115/4/2 116/4/2 110/4/2
f 116/4/2 117/4/2 111/4/2
f 117/4/2 118/4/2 112/4/2
f 118/4/2 119/4/2 113/4/2
f 119/4/2 114/4/2 108/4/2
f 88/4/2 89/4/2 116/4/2
f 89/4/2 90/4/2 117/4/2
f 90/4/2 91/4/2 118/4/2
f 91/4/2 92/4/2 119/4/2
f 92/4/2 78/4/2 114/4/2
f 22/1/1 107/1/1 106/1/1
f 23/1/1 102/1/1 107/1/1
f 129/2/2 130/2/2 41/2/2
f 128/2/2 129/2/2 40/2/2
f 127/2/2 128/2/2 39/2/2
f 126/2/2 127/2/2 38/2/2
f 125/2/2 126/2/2 37/2/2
f 124/2/2 125/2/2 36/2/2
f 123/2/2 124/2/2 35/2/2
f 122/2/2 123/2/2 34/2/2
f 120/2/2 122/2/2 33/2/2
f 130/2/2 121/2/2 12/2/2
f 71/2/2 134/2/2 135/2/2
f 69/2/2 132/2/2 133/2/2
f 70/2/2 133/2/2 134/2/2
f 7/2/2 131/2/2 132/2/2
f 17/2/2 139/2/2 138/2/2
f 15/2/2 137/2/2 136/2/2
f 18/2/2 140/2/2 139/2/2
f 16/2/2 138/2/2 137/2/2
f 163/5/4 144/5/4 142/5/4
f 243/5/1 304/5/1 301/5/1
f 144/5/1 148/5/1 145/5/1
f 142/5/5 145/5/5 177/5/5
f 143/5/6 147/5/6 204/5/6
f 141/5/3 146/5/3 147/5/3
f 163/5/6 191/5/6 148/5/6
f 164/5/6 192/5/6 191/5/6
f 165/5/6 193/5/6 192/5/6
f 166/5/6 194/5/6 193/5/6
f 167/5/6 195/5/6 194/5/6
f 168/5/6 196/5/6 195/5/6
f 169/5/6 197/5/6 196/5/6
f 170/5/6 198/5/6 197/5/6
f 171/5/6 199/5/6 198/5/6
f 172/5/6 200/5/6 199/5/6
f 173/5/6 201/5/6 200/5/6
f 174/5/6 202/5/6 201/5/6
f 175/5/6 203/5/6 202/5/6
f 176/5/6 204/5/6 203/5/6
f 162/5/5 190/5/5 146/5/5
f 161/5/5 189/5/5 190/5/5
f 160/5/5 188/5/5 189/5/5
f 159/5/5 187/5/5 188/5/5
f 158/5/5 186/5/5 187/5/5
f 157/5/5 185/5/5 186/5/5
f 156/5/5 184/5/5 185/5/5
f 155/5/5 183/5/5 184/5/5
f 154/5/5 182/5/5 183/5/5
f 153/5/5 181/5/5 182/5/5
f 152/5/5 180/5/5 181/5/5
f 151/5/5 179/5/5 180/5/5
f 150/5/5 178/5/5 179/5/5
f 149/5/5 177/5/5 178/5/5
f 241/5/3 302/5/3 303/5/3
f 256/5/6 315/5/6 316/5/6
f 242/5/5 301/5/5 302/5/5
f 255/5/1 316/5/1 313/5/1
f 216/5/6 275/5/6 276/5/6
f 253/5/3 314/5/3 315/5/3
f 215/5/1 276/5/1 273/5/1
f 254/5/5 313/5/5 314/5/5
f 213/5/3 274/5/3 275/5/3
f 228/5/6 287/5/6 288/5/6
f 214/5/5 273/5/5 274/5/5
f 227/5/1 288/5/1 285/5/1
f 225/5/3 286/5/3 287/5/3
f 240/5/6 299/5/6 300/5/6
f 143/5/4 176/5/4 162/5/4
f 176/5/4 175/5/4 161/5/4
f 175/5/4 174/5/4 160/5/4
f 174/5/4 173/5/4 159/5/4
f 173/5/4 172/5/4 158/5/4
f 172/5/4 171/5/4 157/5/4
f 171/5/4 170/5/4 156/5/4
f 170/5/4 169/5/4 155/5/4
f 169/5/4 168/5/4 154/5/4
f 168/5/4 167/5/4 153/5/4
f 167/5/4 166/5/4 152/5/4
f 166/5/4 165/5/4 151/5/4
f 165/5/4 164/5/4 150/5/4
f 164/5/4 163/5/4 149/5/4
f 145/5/2 206/5/2 205/5/2
f 148/5/2 207/5/2 206/5/2
f 191/5/2 208/5/2 207/5/2
f 177/5/2 205/5/2 208/5/2
f 190/5/2 210/5/2 209/5/2
f 204/5/2 211/5/2 210/5/2
f 147/5/2 212/5/2 211/5/2
f 146/5/2 209/5/2 212/5/2
f 189/5/2 214/5/2 213/5/2
f 203/5/2 215/5/2 214/5/2
f 204/5/2 216/5/2 215/5/2
f 190/5/2 213/5/2 216/5/2
f 188/5/2 218/5/2 217/5/2
f 202/5/2 219/5/2 218/5/2
f 203/5/2 220/5/2 219/5/2
f 189/5/2 217/5/2 220/5/2
f 187/5/2 222/5/2 221/5/2
f 201/5/2 223/5/2 222/5/2
f 202/5/2 224/5/2 223/5/2
f 188/5/2 221/5/2 224/5/2
f 186/5/2 226/5/2 225/5/2
f 200/5/2 227/5/2 226/5/2
f 201/5/2 228/5/2 227/5/2
f 187/5/2 225/5/2 228/5/2
f 185/5/2 230/5/2 229/5/2
f 199/5/2 231/5/2 230/5/2
f 200/5/2 232/5/2 231/5/2
f 186/5/2 229/5/2 232/5/2
f 184/5/2 234/5/2 233/5/2
f 198/5/2 235/5/2 234/5/2
f 199/5/2 236/5/2 235/5/2
f 185/5/2 233/5/2 236/5/2
f 183/5/2 238/5/2 237/5/2
f 197/5/2 239/5/2 238/5/2
f 198/5/2 240/5/2 239/5/2
f 184/5/2 237/5/2 240/5/2
f 182/5/2 242/5/2 241/5/2
f 196/5/2 243/5/2 242/5/2
f 197/5/2 244/5/2 243/5/2
f 183/5/2 241/5/2 244/5/2
f 181/5/2 246/5/2 245/5/2
f 195/5/2 247/5/2 246/5/2
f 196/5/2 248/5/2 247/5/2
f 182/5/2 245/5/2 248/5/2
f 180/5/2 250/5/2 249/5/2
f 194/5/2 251/5/2 250/5/2
f 195/5/2 252/5/2 251/5/2
f 181/5/2 249/5/2 252/5/2
f 179/5/2 254/5/2 253/5/2
f 193/5/2 255/5/2 254/5/2
f 194/5/2 256/5/2 255/5/2
f 180/5/2 253/5/2 256/5/2
f 178/5/2 258/5/2 257/5/2
f 192/5/2 259/5/2 258/5/2
f 193/5/2 260/5/2 259/5/2
f 179/5/2 257/5/2 260/5/2
f 177/5/2 262/5/2 261/5/2
f 191/5/2 263/5/2 262/5/2
f 192/5/2 264/5/2 263/5/2
f 178/5/2 261/5/2 264/5/2
f 329/5/2 326/5/2 327/5/2
f 332/5/6 327/5/6 267/5/6
f 273/5/2 276/5/2 275/5/2
f 277/5/2 280/5/2 279/5/2
f 281/5/2 284/5/2 283/5/2
f 285/5/2 288/5/2 287/5/2
f 289/5/2 292/5/2 291/5/2
f 293/5/2 296/5/2 295/5/2
f 298/5/2 297/5/2 300/5/2
f 301/5/2 304/5/2 303/5/2
f 305/5/2 308/5/2 307/5/2
f 309/5/2 312/5/2 311/5/2
f 313/5/2 316/5/2 315/5/2
f 317/5/2 320/5/2 319/5/2
f 321/5/2 324/5/2 323/5/2
f 230/5/5 289/5/5 290/5/5
f 244/5/6 303/5/6 304/5/6
f 229/5/3 290/5/3 291/5/3
f 231/5/1 292/5/1 289/5/1
f 218/5/5 277/5/5 278/5/5
f 232/5/6 291/5/6 292/5/6
f 217/5/3 278/5/3 279/5/3
f 258/5/5 317/5/5 318/5/5
f 219/5/1 280/5/1 277/5/1
f 206/5/5 265/5/5 266/5/5
f 257/5/3 318/5/3 319/5/3
f 220/5/6 279/5/6 280/5/6
f 205/5/3 266/5/3 267/5/3
f 259/5/1 320/5/1 317/5/1
f 246/5/5 305/5/5 306/5/5
f 207/5/1 268/5/1 265/5/1
f 260/5/6 319/5/6 320/5/6
f 245/5/3 306/5/3 307/5/3
f 208/5/6 267/5/6 268/5/6
f 247/5/1 308/5/1 305/5/1
f 234/5/5 293/5/5 294/5/5
f 248/5/6 307/5/6 308/5/6
f 233/5/3 294/5/3 295/5/3
f 235/5/1 296/5/1 293/5/1
f 222/5/5 281/5/5 282/5/5
f 236/5/6 295/5/6 296/5/6
f 221/5/3 282/5/3 283/5/3
f 262/5/5 321/5/5 322/5/5
f 223/5/1 284/5/1 281/5/1
f 210/5/5 269/5/5 270/5/5
f 261/5/3 322/5/3 323/5/3
f 224/5/6 283/5/6 284/5/6
f 209/5/3 270/5/3 271/5/3
f 263/5/1 324/5/1 321/5/1
f 250/5/5 309/5/5 310/5/5
f 211/5/1 272/5/1 269/5/1
f 264/5/6 323/5/6 324/5/6
f 249/5/3 310/5/3 311/5/3
f 212/5/6 271/5/6 272/5/6
f 251/5/1 312/5/1 309/5/1
f 238/5/5 297/5/5 298/5/5
f 252/5/6 311/5/6 312/5/6
f 237/5/3 298/5/3 299/5/3
f 239/5/1 300/5/1 297/5/1
f 226/5/5 285/5/5 286/5/5
f 325/5/2 328/5/2 327/5/2
f 329/5/2 332/5/2 331/5/2
f 269/5/5 329/5/5 330/5/5
f 325/5/2 337/5/2 338/5/2
f 265/5/5 325/5/5 326/5/5
f 271/5/6 331/5/6 332/5/6
f 328/5/6 338/5/6 334/5/6
f 267/5/6 327/5/6 328/5/6
f 269/5/5 266/5/5 326/5/5
f 272/5/4 267/5/4 266/5/4
f 334/5/1 338/5/1 337/5/1
f 335/5/3 339/5/3 340/5/3
f 331/5/2 340/5/2 339/5/2
f 265/5/5 333/5/5 337/5/5
f 268/5/4 334/5/4 333/5/4
f 330/5/5 339/5/5 335/5/5
f 270/5/4 335/5/4 336/5/4
f 271/5/6 336/5/6 340/5/6
f 120/6/6 344/6/6 345/6/6
f 2/6/6 342/6/6 343/6/6
f 1/6/6 341/6/6 342/6/6
f 3/6/6 343/6/6 344/6/6
f 344/7/2 354/7/2 355/7/2
f 345/7/2 355/7/2 356/7/2
f 343/7/2 353/7/2 354/7/2
f 341/7/2 351/7/2 352/7/2
f 346/7/2 356/7/2 357/7/2
f 342/7/2 352/7/2 353/7/2
f 348/7/2 358/7/2 359/7/2
f 347/7/2 357/7/2 358/7/2
f 350/7/2 360/7/2 351/7/2
f 4/6/6 345/6/6 346/6/6
f 5/6/6 346/6/6 347/6/6
f 6/6/6 347/6/6 348/6/6
f 136/6/6 350/6/6 341/6/6
f 7/6/6 348/6/6 349/6/6
f 355/8/2 365/8/2 366/8/2
f 351/8/2 361/8/2 362/8/2
f 358/8/2 368/8/2 369/8/2
f 356/8/2 366/8/2 367/8/2
f 352/8/2 362/8/2 363/8/2
f 360/8/2 370/8/2 361/8/2
f 357/8/2 367/8/2 368/8/2
f 354/8/2 364/8/2 365/8/2
f 353/8/2 363/8/2 364/8/2
f 352/9/5 372/9/5 371/9/5
f 359/9/5 375/9/5 374/9/5
f 358/9/5 374/9/5 373/9/5
f 351/9/5 371/9/5 376/9/5
f 86/4/2 378/4/2 379/4/2
f 85/4/2 377/4/2 378/4/2
f 89/4/2 381/4/2 382/4/2
f 88/4/2 380/4/2 381/4/2
