# Blender 5.1.2
# www.blender.org
mtllib road3.mtl
o ROAD3
v -4.000000 0.000000 5.000000
v -2.000000 0.000000 5.000000
v -1.000000 0.000000 5.000000
v 0.200000 0.000000 5.000000
v 1.000000 0.000000 5.000000
v 2.000000 0.000000 5.000000
v 4.000000 0.000000 5.000000
v 4.000000 0.000000 -5.000000
v 2.000000 0.000000 -5.000000
v 1.000000 0.000000 -5.000000
v 0.200000 0.000000 -5.000000
v -1.000000 0.000000 -5.000000
v -2.000000 0.000000 -5.000000
v -4.000000 0.000000 -5.000000
v -4.000000 0.000000 4.000000
v -4.000000 0.000000 3.000000
v -4.000000 0.000000 2.000000
v -4.000000 0.000000 1.000000
v -4.000000 0.000000 0.000000
v -4.000000 0.000000 -1.000000
v -4.000000 0.000000 -2.000000
v -4.000000 0.000000 -3.000000
v -4.000000 0.000000 -4.000000
v -2.000000 0.000000 4.000000
v -2.000000 0.000000 3.000000
v -2.000000 0.000000 2.000000
v -2.000000 0.000000 1.000000
v -2.000000 0.000000 0.000000
v -2.000000 0.000000 -1.000000
v -2.000000 0.000000 -2.000000
v -2.000000 0.000000 -3.000000
v -2.000000 0.000000 -4.000000
v -1.000000 0.000000 4.000000
v -1.000000 0.000000 3.000000
v -1.000000 0.000000 2.000000
v -1.000000 0.000000 1.000000
v -1.000000 0.000000 0.000000
v -1.000000 0.000000 -1.000000
v -1.000000 0.000000 -2.000000
v -1.000000 0.000000 -3.000000
v -1.000000 0.000000 -4.000000
v 0.200000 0.000000 4.000000
v 0.200000 0.000000 3.000000
v 0.200000 0.000000 2.000000
v 0.200000 0.000000 1.000000
v 0.200000 0.000000 0.000000
v 0.200000 0.000000 -1.000000
v 0.200000 0.000000 -2.000000
v 0.200000 0.000000 -3.000000
v 0.200000 0.000000 -4.000000
v 1.000000 0.000000 4.000000
v 1.000000 0.000000 3.000000
v 1.000000 0.000000 2.000000
v 1.000000 0.000000 1.000000
v 1.000000 0.000000 0.000000
v 1.000000 0.000000 -1.000000
v 1.000000 0.000000 -2.000000
v 1.000000 0.000000 -3.000000
v 1.000000 0.000000 -4.000000
v 2.000000 0.000000 4.000000
v 2.000000 0.000000 3.000000
v 2.000000 0.000000 2.000000
v 2.000000 0.000000 1.000000
v 2.000000 0.000000 0.000000
v 2.000000 0.000000 -1.000000
v 2.000000 0.000000 -2.000000
v 2.000000 0.000000 -3.000000
v 2.000000 0.000000 -4.000000
v 4.000000 0.000000 4.000000
v 4.000000 0.000000 3.000000
v 4.000000 0.000000 2.000000
v 4.000000 0.000000 1.000000
v 4.000000 0.000000 0.000000
v 4.000000 0.000000 -1.000000
v 4.000000 0.000000 -2.000000
v 4.000000 0.000000 -3.000000
v 4.000000 0.000000 -4.000000
v -10.000000 0.100000 4.000000
v -10.000000 0.100000 5.000000
v 8.000000 0.100000 5.000000
v 10.000000 0.100000 5.000000
v 10.000000 0.100000 -4.000000
v 10.000000 0.100000 -5.000000
v -8.000000 0.100000 -5.000000
v -10.000000 0.100000 -5.000000
v -10.000000 0.100000 -4.000000
v -10.000000 0.100000 -3.000000
v -10.000000 0.100000 -2.000000
v -10.000000 0.100000 -1.000000
v -10.000000 0.100000 0.000000
v -10.000000 0.100000 1.000000
v -10.000000 0.100000 2.000000
v -10.000000 0.100000 3.000000
v -8.000000 0.100000 5.000000
v -4.000000 0.100000 5.000000
v 4.000000 0.100000 5.000000
v 10.000000 0.100000 4.000000
v 10.000000 0.100000 3.000000
v 10.000000 0.100000 2.000000
v 10.000000 0.100000 1.000000
v 10.000000 0.100000 0.000000
v 10.000000 0.100000 -1.000000
v 10.000000 0.100000 -2.000000
v 10.000000 0.100000 -3.000000
v 8.000000 0.100000 -5.000000
v 4.000000 0.100000 -5.000000
v -4.000000 0.100000 -5.000000
v -8.000000 0.100000 -4.000000
v -8.000000 0.100000 4.000000
v -8.000000 0.100000 3.000000
v -8.000000 0.100000 2.000000
v -8.000000 0.100000 1.000000
v -8.000000 0.100000 0.000000
v -8.000000 0.100000 -1.000000
v -8.000000 0.100000 -2.000000
v -8.000000 0.100000 -3.000000
v -4.000000 0.100000 -4.000000
v -4.000000 0.100000 4.000000
v -4.000000 0.100000 3.000000
v -4.000000 0.100000 2.000000
v -4.000000 0.100000 1.000000
v -4.000000 0.100000 0.000000
v -4.000000 0.100000 -1.000000
v -4.000000 0.100000 -2.000000
v -4.000000 0.100000 -3.000000
v 4.000000 0.100000 -4.000000
v 4.000000 0.100000 4.000000
v 4.000000 0.100000 3.000000
v 4.000000 0.100000 2.000000
v 4.000000 0.100000 1.000000
v 4.000000 0.100000 0.000000
v 4.000000 0.100000 -1.000000
v 4.000000 0.100000 -2.000000
v 4.000000 0.100000 -3.000000
v 8.000000 0.100000 -4.000000
v 8.000000 0.100000 4.000000
v 8.000000 0.100000 3.000000
v 8.000000 0.100000 2.000000
v 8.000000 0.100000 1.000000
v 8.000000 0.100000 0.000000
v 8.000000 0.100000 -1.000000
v 8.000000 0.100000 -2.000000
v 8.000000 0.100000 -3.000000
v -0.200000 0.000000 5.000000
v -0.200000 0.000000 -5.000000
v -0.200000 0.000000 4.000000
v -0.200000 0.000000 3.000000
v -0.200000 0.000000 2.000000
v -0.200000 0.000000 1.000000
v -0.200000 0.000000 0.000000
v -0.200000 0.000000 -1.000000
v -0.200000 0.000000 -2.000000
v -0.200000 0.000000 -3.000000
v -0.200000 0.000000 -4.000000
v 5.000000 0.100000 -4.800000
v 4.700000 0.100000 -4.500000
v 5.000000 0.100000 -4.200000
v 5.300000 0.100000 -4.500000
v 4.700000 0.300000 -4.500000
v 5.000000 0.300000 -4.800000
v 5.000000 0.300000 -4.200000
v 5.300000 0.300000 -4.500000
v 5.000000 0.300000 -4.400000
v 5.100000 0.300000 -4.500000
v 5.000000 0.300000 -4.600000
v 4.900000 0.300000 -4.500000
v 5.100000 3.200000 -4.500000
v 5.000000 3.200000 -4.400000
v 4.900000 3.100000 -4.500000
v 5.000000 3.200000 -4.600000
v 4.700000 4.000000 -4.500000
v 4.600000 3.900000 -4.400000
v 4.600000 3.900000 -4.500000
v 4.600000 3.900000 -4.600000
v 4.400000 4.000000 -4.500000
v 4.400000 3.900000 -4.400000
v 4.400000 3.900000 -4.600000
v 4.000000 4.000000 -4.500000
v 4.000000 3.900000 -4.400000
v 4.000000 3.900000 -4.500000
v 4.000000 3.900000 -4.600000
v 4.400000 4.000000 -4.500000
v 4.400000 3.900000 -4.400000
v 4.400000 3.900000 -4.500000
v 4.400000 3.900000 -4.600000
v 4.000000 4.000000 -4.500000
v 4.000000 3.900000 -4.400000
v 3.900000 3.900000 -4.500000
v 4.000000 3.900000 -4.600000
v 4.400000 3.800000 -4.400000
v 4.300000 3.700000 -4.500000
v 4.400000 3.800000 -4.600000
v 4.000000 3.800000 -4.400000
v 3.900000 3.700000 -4.500000
v 4.000000 3.800000 -4.600000
v -5.000000 0.100000 -4.800000
v -4.700000 0.100000 -4.500000
v -5.000000 0.100000 -4.200000
v -5.300000 0.100000 -4.500000
v -4.700000 0.300000 -4.500000
v -5.000000 0.300000 -4.800000
v -5.000000 0.300000 -4.200000
v -5.300000 0.300000 -4.500000
v -5.000000 0.300000 -4.400000
v -5.100000 0.300000 -4.500000
v -5.000000 0.300000 -4.600000
v -4.900000 0.300000 -4.500000
v -5.100000 3.200000 -4.500000
v -5.000000 3.200000 -4.400000
v -4.900000 3.100000 -4.500000
v -5.000000 3.200000 -4.600000
v -4.700000 4.000000 -4.500000
v -4.600000 3.900000 -4.400000
v -4.500000 3.900000 -4.500000
v -4.600000 3.900000 -4.600000
v -4.300000 4.000000 -4.500000
v -4.300000 3.900000 -4.400000
v -4.300000 3.900000 -4.600000
v -3.900000 4.000000 -4.500000
v -3.900000 3.900000 -4.400000
v -3.900000 3.900000 -4.500000
v -3.900000 3.900000 -4.600000
v -4.300000 4.000000 -4.500000
v -4.300000 3.900000 -4.400000
v -4.400000 3.900000 -4.500000
v -4.300000 3.900000 -4.600000
v -3.900000 4.000000 -4.500000
v -3.900000 3.900000 -4.400000
v -3.900000 3.900000 -4.500000
v -3.900000 3.900000 -4.600000
v -4.300000 3.800000 -4.400000
v -4.300000 3.700000 -4.500000
v -4.300000 3.800000 -4.600000
v -3.900000 3.800000 -4.400000
v -3.900000 3.700000 -4.500000
v -3.900000 3.800000 -4.600000
vn -1.0000 -0.0000 -0.0000
vn 1.0000 -0.0000 -0.0000
vn -0.0000 1.0000 -0.0000
vn -0.0000 -1.0000 -0.0000
vn 0.7071 -0.0000 -0.7071
vn -0.7071 -0.0000 -0.7071
vn 0.7071 -0.0000 0.7071
vn -0.7071 -0.0000 0.7071
vn 0.6667 0.3333 -0.6667
vn 0.8165 -0.4083 -0.4082
vn 0.5133 0.2933 0.8066
vn -0.8682 -0.4961 -0.0000
vn -0.5744 -0.2154 0.7898
vn -0.0000 0.7071 -0.7071
vn -0.0000 0.7071 0.7071
vn 0.5773 -0.5774 0.5773
vn -0.0000 -0.7071 -0.7071
vn -0.0000 -0.7071 0.7071
vn -0.0000 -0.0000 1.0000
vn -0.0000 -0.0000 -1.0000
vn 0.8165 -0.4083 0.4082
vn 0.5773 -0.5774 -0.5773
vn 0.6667 -0.3333 0.6667
vn 0.8165 0.4082 -0.4082
vn 0.5133 -0.2933 -0.8066
vn -0.5133 0.2933 0.8066
vn -0.6667 0.3333 -0.6667
vn 0.8165 0.4082 0.4082
vn 0.5133 0.2933 -0.8066
vn 0.6667 0.3333 0.6667
vn -0.5744 -0.2154 -0.7898
vn 0.5133 -0.2933 0.8066
vn 0.6667 -0.3333 -0.6667
vn -0.6667 0.3333 0.6667
vn -0.5133 0.2933 -0.8066
vt 0.174811 0.512345
vt 0.772835 0.400787
vt 0.208268 0.549606
vt 0.609842 0.500000
vt 0.611166 0.187500
vt 0.609842 0.500000
vt 0.238563 1.375000
vt 0.609842 0.500000
vt 0.364659 0.380463
s 0
usemtl Material.009
f 7/1/1 127/1/1 69/1/1
f 21/1/2 123/1/2 20/1/2
f 32/2/3 14/2/3 23/2/3
f 41/2/3 13/2/3 32/2/3
f 50/3/3 145/3/3 154/3/3
f 59/2/3 11/2/3 50/2/3
f 68/2/3 10/2/3 59/2/3
f 77/2/3 9/2/3 68/2/3
f 77/1/1 106/1/1 8/1/1
f 20/1/2 122/1/2 19/1/2
f 19/1/2 121/1/2 18/1/2
f 18/1/2 120/1/2 17/1/2
f 17/1/2 119/1/2 16/1/2
f 16/1/2 118/1/2 15/1/2
f 2/2/3 15/2/3 1/2/3
f 24/2/3 16/2/3 15/2/3
f 25/2/3 17/2/3 16/2/3
f 26/2/3 18/2/3 17/2/3
f 27/2/3 19/2/3 18/2/3
f 28/2/3 20/2/3 19/2/3
f 29/2/3 21/2/3 20/2/3
f 30/2/3 22/2/3 21/2/3
f 31/2/3 23/2/3 22/2/3
f 3/2/3 24/2/3 2/2/3
f 33/2/3 25/2/3 24/2/3
f 34/2/3 26/2/3 25/2/3
f 35/2/3 27/2/3 26/2/3
f 36/2/3 28/2/3 27/2/3
f 37/2/3 29/2/3 28/2/3
f 38/2/3 30/2/3 29/2/3
f 39/2/3 31/2/3 30/2/3
f 40/2/3 32/2/3 31/2/3
f 4/2/3 146/2/3 144/2/3
f 42/2/3 147/2/3 146/2/3
f 43/2/3 148/2/3 147/2/3
f 44/3/3 149/3/3 148/3/3
f 45/3/3 150/3/3 149/3/3
f 46/2/3 151/2/3 150/2/3
f 47/2/3 152/2/3 151/2/3
f 48/2/3 153/2/3 152/2/3
f 49/3/3 154/3/3 153/3/3
f 5/2/3 42/2/3 4/2/3
f 51/2/3 43/2/3 42/2/3
f 52/2/3 44/2/3 43/2/3
f 53/2/3 45/2/3 44/2/3
f 54/2/3 46/2/3 45/2/3
f 55/2/3 47/2/3 46/2/3
f 56/2/3 48/2/3 47/2/3
f 57/2/3 49/2/3 48/2/3
f 58/2/3 50/2/3 49/2/3
f 6/2/3 51/2/3 5/2/3
f 60/2/3 52/2/3 51/2/3
f 61/2/3 53/2/3 52/2/3
f 62/2/3 54/2/3 53/2/3
f 63/2/3 55/2/3 54/2/3
f 64/2/3 56/2/3 55/2/3
f 65/2/3 57/2/3 56/2/3
f 66/2/3 58/2/3 57/2/3
f 67/2/3 59/2/3 58/2/3
f 7/2/3 60/2/3 6/2/3
f 69/2/3 61/2/3 60/2/3
f 70/2/3 62/2/3 61/2/3
f 71/2/3 63/2/3 62/2/3
f 72/2/3 64/2/3 63/2/3
f 73/2/3 65/2/3 64/2/3
f 74/2/3 66/2/3 65/2/3
f 75/2/3 67/2/3 66/2/3
f 76/2/3 68/2/3 67/2/3
f 76/1/1 126/1/1 77/1/1
f 15/1/2 95/1/2 1/1/2
f 75/1/1 134/1/1 76/1/1
f 14/1/2 117/1/2 23/1/2
f 74/1/1 133/1/1 75/1/1
f 73/1/1 132/1/1 74/1/1
f 72/1/1 131/1/1 73/1/1
f 71/1/1 130/1/1 72/1/1
f 82/4/3 105/4/3 135/4/3
f 108/4/3 85/4/3 86/4/3
f 117/4/3 84/4/3 108/4/3
f 135/4/3 106/4/3 126/4/3
f 94/4/3 78/4/3 79/4/3
f 109/4/3 93/4/3 78/4/3
f 110/4/3 92/4/3 93/4/3
f 111/4/3 91/4/3 92/4/3
f 112/4/3 90/4/3 91/4/3
f 113/4/3 89/4/3 90/4/3
f 114/4/3 88/4/3 89/4/3
f 115/4/3 87/4/3 88/4/3
f 116/4/3 86/4/3 87/4/3
f 95/4/3 109/4/3 94/4/3
f 118/4/3 110/4/3 109/4/3
f 119/4/3 111/4/3 110/4/3
f 120/4/3 112/4/3 111/4/3
f 121/4/3 113/4/3 112/4/3
f 122/4/3 114/4/3 113/4/3
f 123/4/3 115/4/3 114/4/3
f 124/4/3 116/4/3 115/4/3
f 125/4/3 108/4/3 116/4/3
f 80/4/3 127/4/3 96/4/3
f 136/4/3 128/4/3 127/4/3
f 137/4/3 129/4/3 128/4/3
f 138/4/3 130/4/3 129/4/3
f 139/4/3 131/4/3 130/4/3
f 140/4/3 132/4/3 131/4/3
f 141/4/3 133/4/3 132/4/3
f 142/4/3 134/4/3 133/4/3
f 143/4/3 126/4/3 134/4/3
f 81/4/3 136/4/3 80/4/3
f 97/4/3 137/4/3 136/4/3
f 98/4/3 138/4/3 137/4/3
f 99/4/3 139/4/3 138/4/3
f 100/4/3 140/4/3 139/4/3
f 101/4/3 141/4/3 140/4/3
f 102/4/3 142/4/3 141/4/3
f 103/4/3 143/4/3 142/4/3
f 104/4/3 135/4/3 143/4/3
f 22/1/2 124/1/2 21/1/2
f 69/1/1 128/1/1 70/1/1
f 23/1/2 125/1/2 22/1/2
f 70/1/1 129/1/1 71/1/1
f 153/2/3 41/2/3 40/2/3
f 152/2/3 40/2/3 39/2/3
f 151/2/3 39/2/3 38/2/3
f 150/2/3 38/2/3 37/2/3
f 149/2/3 37/2/3 36/2/3
f 148/2/3 36/2/3 35/2/3
f 147/2/3 35/2/3 34/2/3
f 146/2/3 34/2/3 33/2/3
f 144/2/3 33/2/3 3/2/3
f 154/2/3 12/2/3 41/2/3
f 156/5/4 158/5/4 157/5/4
f 165/5/5 167/5/5 164/5/5
f 155/5/5 162/5/5 158/5/5
f 156/5/6 160/5/6 155/5/6
f 158/5/7 161/5/7 157/5/7
f 157/5/8 159/5/8 156/5/8
f 161/5/3 164/5/3 163/5/3
f 160/5/3 164/5/3 162/5/3
f 159/5/3 165/5/3 160/5/3
f 161/5/3 166/5/3 159/5/3
f 170/5/9 171/5/9 167/5/9
f 164/5/7 168/5/7 163/5/7
f 165/5/6 169/5/6 170/5/6
f 163/5/8 169/5/8 166/5/8
f 191/5/10 184/5/10 190/5/10
f 168/5/11 171/5/11 172/5/11
f 170/5/12 173/5/12 174/5/12
f 168/5/13 173/5/13 169/5/13
f 176/4/3 182/6/3 183/7/3
f 183/5/2 190/5/2 184/5/2
f 174/5/14 175/5/14 171/5/14
f 172/5/15 175/5/15 176/5/15
f 188/5/16 189/5/16 186/5/16
f 180/8/3 189/7/3 188/7/3
f 175/6/3 185/7/3 182/6/3
f 178/6/3 187/7/3 186/6/3
f 185/5/14 186/5/14 182/5/14
f 182/5/15 187/5/15 183/5/15
f 188/9/8 193/9/8 187/9/8
f 188/9/6 195/9/6 194/9/6
f 179/4/3 188/7/3 187/7/3
f 181/4/3 186/6/3 189/7/3
f 191/9/17 195/9/17 192/9/17
f 191/9/18 193/9/18 194/9/18
f 187/9/19 190/9/19 183/9/19
f 185/9/20 195/9/20 189/9/20
f 183/5/3 172/5/3 184/5/3
f 184/5/21 191/5/21 192/5/21
f 184/5/3 174/5/3 185/5/3
f 192/5/2 185/5/2 184/5/2
f 173/5/4 172/5/4 184/5/4
f 174/5/4 173/5/4 184/5/4
f 188/5/22 186/5/22 187/5/22
f 197/5/3 199/5/3 198/5/3
f 206/5/7 208/5/7 205/5/7
f 196/5/7 203/5/7 199/5/7
f 197/5/8 201/5/8 196/5/8
f 199/5/5 202/5/5 198/5/5
f 198/5/6 200/5/6 197/5/6
f 202/5/4 205/5/4 204/5/4
f 201/5/4 205/5/4 203/5/4
f 200/5/4 206/5/4 201/5/4
f 202/5/4 207/5/4 200/5/4
f 211/5/23 212/5/23 208/5/23
f 205/5/5 209/5/5 204/5/5
f 206/5/8 210/5/8 211/5/8
f 204/5/6 210/5/6 207/5/6
f 232/5/24 225/5/24 231/5/24
f 209/5/25 212/5/25 213/5/25
f 210/5/26 215/5/26 211/5/26
f 210/5/27 213/5/27 214/5/27
f 217/4/3 223/6/3 224/7/3
f 224/5/5 231/5/5 225/5/5
f 215/5/18 216/5/18 212/5/18
f 213/5/17 216/5/17 217/5/17
f 229/5/2 230/5/2 227/5/2
f 221/8/3 230/7/3 229/7/3
f 216/6/3 226/7/3 223/6/3
f 219/6/3 228/7/3 227/6/3
f 226/5/18 227/5/18 223/5/18
f 223/5/17 228/5/17 224/5/17
f 229/9/1 234/9/1 228/9/1
f 229/9/1 236/9/1 235/9/1
f 220/4/3 229/7/3 228/7/3
f 222/4/3 227/6/3 230/7/3
f 232/9/15 236/9/15 233/9/15
f 231/9/14 235/9/14 232/9/14
f 228/9/20 231/9/20 224/9/20
f 226/9/19 236/9/19 230/9/19
f 224/5/4 213/5/4 225/5/4
f 225/5/28 232/5/28 233/5/28
f 225/5/4 215/5/4 226/5/4
f 233/5/7 226/5/7 225/5/7
f 214/5/3 213/5/3 225/5/3
f 215/5/3 214/5/3 225/5/3
f 229/5/2 227/5/2 228/5/2
f 215/5/3 218/5/3 226/7/3
f 217/4/3 224/7/3 213/5/3
f 219/6/1 221/8/1 220/4/1
f 7/1/1 96/1/1 127/1/1
f 21/1/2 124/1/2 123/1/2
f 32/2/3 13/2/3 14/2/3
f 41/2/3 12/2/3 13/2/3
f 50/3/3 11/3/3 145/3/3
f 59/2/3 10/2/3 11/2/3
f 68/2/3 9/2/3 10/2/3
f 77/2/3 8/2/3 9/2/3
f 77/1/1 126/1/1 106/1/1
f 20/1/2 123/1/2 122/1/2
f 19/1/2 122/1/2 121/1/2
f 18/1/2 121/1/2 120/1/2
f 17/1/2 120/1/2 119/1/2
f 16/1/2 119/1/2 118/1/2
f 2/2/3 24/2/3 15/2/3
f 24/2/3 25/2/3 16/2/3
f 25/2/3 26/2/3 17/2/3
f 26/2/3 27/2/3 18/2/3
f 27/2/3 28/2/3 19/2/3
f 28/2/3 29/2/3 20/2/3
f 29/2/3 30/2/3 21/2/3
f 30/2/3 31/2/3 22/2/3
f 31/2/3 32/2/3 23/2/3
f 3/2/3 33/2/3 24/2/3
f 33/2/3 34/2/3 25/2/3
f 34/2/3 35/2/3 26/2/3
f 35/2/3 36/2/3 27/2/3
f 36/2/3 37/2/3 28/2/3
f 37/2/3 38/2/3 29/2/3
f 38/2/3 39/2/3 30/2/3
f 39/2/3 40/2/3 31/2/3
f 40/2/3 41/2/3 32/2/3
f 4/2/3 42/2/3 146/2/3
f 42/2/3 43/2/3 147/2/3
f 43/2/3 44/2/3 148/2/3
f 44/3/3 45/3/3 149/3/3
f 45/3/3 46/3/3 150/3/3
f 46/2/3 47/2/3 151/2/3
f 47/2/3 48/2/3 152/2/3
f 48/2/3 49/2/3 153/2/3
f 49/3/3 50/3/3 154/3/3
f 5/2/3 51/2/3 42/2/3
f 51/2/3 52/2/3 43/2/3
f 52/2/3 53/2/3 44/2/3
f 53/2/3 54/2/3 45/2/3
f 54/2/3 55/2/3 46/2/3
f 55/2/3 56/2/3 47/2/3
f 56/2/3 57/2/3 48/2/3
f 57/2/3 58/2/3 49/2/3
f 58/2/3 59/2/3 50/2/3
f 6/2/3 60/2/3 51/2/3
f 60/2/3 61/2/3 52/2/3
f 61/2/3 62/2/3 53/2/3
f 62/2/3 63/2/3 54/2/3
f 63/2/3 64/2/3 55/2/3
f 64/2/3 65/2/3 56/2/3
f 65/2/3 66/2/3 57/2/3
f 66/2/3 67/2/3 58/2/3
f 67/2/3 68/2/3 59/2/3
f 7/2/3 69/2/3 60/2/3
f 69/2/3 70/2/3 61/2/3
f 70/2/3 71/2/3 62/2/3
f 71/2/3 72/2/3 63/2/3
f 72/2/3 73/2/3 64/2/3
f 73/2/3 74/2/3 65/2/3
f 74/2/3 75/2/3 66/2/3
f 75/2/3 76/2/3 67/2/3
f 76/2/3 77/2/3 68/2/3
f 76/1/1 134/1/1 126/1/1
f 15/1/2 118/1/2 95/1/2
f 75/1/1 133/1/1 134/1/1
f 14/1/2 107/1/2 117/1/2
f 74/1/1 132/1/1 133/1/1
f 73/1/1 131/1/1 132/1/1
f 72/1/1 130/1/1 131/1/1
f 71/1/1 129/1/1 130/1/1
f 82/4/3 83/4/3 105/4/3
f 108/4/3 84/4/3 85/4/3
f 117/4/3 107/4/3 84/4/3
f 135/4/3 105/4/3 106/4/3
f 94/4/3 109/4/3 78/4/3
f 109/4/3 110/4/3 93/4/3
f 110/4/3 111/4/3 92/4/3
f 111/4/3 112/4/3 91/4/3
f 112/4/3 113/4/3 90/4/3
f 113/4/3 114/4/3 89/4/3
f 114/4/3 115/4/3 88/4/3
f 115/4/3 116/4/3 87/4/3
f 116/4/3 108/4/3 86/4/3
f 95/4/3 118/4/3 109/4/3
f 118/4/3 119/4/3 110/4/3
f 119/4/3 120/4/3 111/4/3
f 120/4/3 121/4/3 112/4/3
f 121/4/3 122/4/3 113/4/3
f 122/4/3 123/4/3 114/4/3
f 123/4/3 124/4/3 115/4/3
f 124/4/3 125/4/3 116/4/3
f 125/4/3 117/4/3 108/4/3
f 80/4/3 136/4/3 127/4/3
f 136/4/3 137/4/3 128/4/3
f 137/4/3 138/4/3 129/4/3
f 138/4/3 139/4/3 130/4/3
f 139/4/3 140/4/3 131/4/3
f 140/4/3 141/4/3 132/4/3
f 141/4/3 142/4/3 133/4/3
f 142/4/3 143/4/3 134/4/3
f 143/4/3 135/4/3 126/4/3
f 81/4/3 97/4/3 136/4/3
f 97/4/3 98/4/3 137/4/3
f 98/4/3 99/4/3 138/4/3
f 99/4/3 100/4/3 139/4/3
f 100/4/3 101/4/3 140/4/3
f 101/4/3 102/4/3 141/4/3
f 102/4/3 103/4/3 142/4/3
f 103/4/3 104/4/3 143/4/3
f 104/4/3 82/4/3 135/4/3
f 22/1/2 125/1/2 124/1/2
f 69/1/1 127/1/1 128/1/1
f 23/1/2 117/1/2 125/1/2
f 70/1/1 128/1/1 129/1/1
f 153/2/3 154/2/3 41/2/3
f 152/2/3 153/2/3 40/2/3
f 151/2/3 152/2/3 39/2/3
f 150/2/3 151/2/3 38/2/3
f 149/2/3 150/2/3 37/2/3
f 148/2/3 149/2/3 36/2/3
f 147/2/3 148/2/3 35/2/3
f 146/2/3 147/2/3 34/2/3
f 144/2/3 146/2/3 33/2/3
f 154/2/3 145/2/3 12/2/3
f 156/5/4 155/5/4 158/5/4
f 165/5/5 170/5/5 167/5/5
f 155/5/5 160/5/5 162/5/5
f 156/5/6 159/5/6 160/5/6
f 158/5/7 162/5/7 161/5/7
f 157/5/8 161/5/8 159/5/8
f 161/5/3 162/5/3 164/5/3
f 160/5/3 165/5/3 164/5/3
f 159/5/3 166/5/3 165/5/3
f 161/5/3 163/5/3 166/5/3
f 170/5/29 174/5/29 171/5/29
f 164/5/7 167/5/7 168/5/7
f 165/5/6 166/5/6 169/5/6
f 163/5/8 168/5/8 169/5/8
f 168/5/30 167/5/30 171/5/30
f 170/5/31 169/5/31 173/5/31
f 168/5/12 172/5/12 173/5/12
f 176/4/3 175/6/3 182/6/3
f 174/5/14 177/5/14 175/5/14
f 172/5/15 171/5/15 175/5/15
f 180/8/3 181/4/3 189/7/3
f 175/6/3 177/4/3 185/7/3
f 178/6/3 179/4/3 187/7/3
f 185/5/14 189/5/14 186/5/14
f 182/5/15 186/5/15 187/5/15
f 188/9/8 194/9/8 193/9/8
f 188/9/6 189/9/6 195/9/6
f 179/4/3 180/8/3 188/7/3
f 181/4/3 178/6/3 186/6/3
f 191/9/17 194/9/17 195/9/17
f 191/9/18 190/9/18 193/9/18
f 187/9/19 193/9/19 190/9/19
f 185/9/20 192/9/20 195/9/20
f 197/5/3 196/5/3 199/5/3
f 206/5/7 211/5/7 208/5/7
f 196/5/7 201/5/7 203/5/7
f 197/5/8 200/5/8 201/5/8
f 199/5/5 203/5/5 202/5/5
f 198/5/6 202/5/6 200/5/6
f 202/5/4 203/5/4 205/5/4
f 201/5/4 206/5/4 205/5/4
f 200/5/4 207/5/4 206/5/4
f 202/5/4 204/5/4 207/5/4
f 211/5/32 215/5/32 212/5/32
f 205/5/5 208/5/5 209/5/5
f 206/5/8 207/5/8 210/5/8
f 204/5/6 209/5/6 210/5/6
f 209/5/33 208/5/33 212/5/33
f 210/5/34 214/5/34 215/5/34
f 210/5/35 209/5/35 213/5/35
f 217/4/3 216/6/3 223/6/3
f 215/5/18 218/5/18 216/5/18
f 213/5/17 212/5/17 216/5/17
f 221/8/3 222/4/3 230/7/3
f 216/6/3 218/4/3 226/7/3
f 219/6/3 220/4/3 228/7/3
f 226/5/18 230/5/18 227/5/18
f 223/5/17 227/5/17 228/5/17
f 229/9/1 235/9/1 234/9/1
f 229/9/1 230/9/1 236/9/1
f 220/4/3 221/8/3 229/7/3
f 222/4/3 219/6/3 227/6/3
f 232/9/15 235/9/15 236/9/15
f 231/9/14 234/9/14 235/9/14
f 228/9/20 234/9/20 231/9/20
f 226/9/19 233/9/19 236/9/19
f 219/6/1 222/4/1 221/8/1
