# Blender 5.1.2
# www.blender.org
mtllib road.mtl
o ROAD
v -4.000000 0.000000 5.000000
v -2.000000 0.000000 5.000000
v -1.000000 0.000000 5.000000
v 0.200000 0.000000 5.000000
v 1.000000 0.000000 5.000000
v 2.000000 0.000000 5.000000
v 4.000000 0.000000 5.000000
v 4.000000 0.000000 -5.000000
v 2.000000 0.000000 -5.000000
v 1.000000 0.000000 -5.000000
v 0.200000 0.000000 -5.000000
v -1.000000 0.000000 -5.000000
v -2.000000 0.000000 -5.000000
v -4.000000 0.000000 -5.000000
v -4.000000 0.000000 4.000000
v -4.000000 0.000000 3.000000
v -4.000000 0.000000 2.000000
v -4.000000 0.000000 1.000000
v -4.000000 0.000000 0.000000
v -4.000000 0.000000 -1.000000
v -4.000000 0.000000 -2.000000
v -4.000000 0.000000 -3.000000
v -4.000000 0.000000 -4.000000
v -2.000000 0.000000 4.000000
v -2.000000 0.000000 3.000000
v -2.000000 0.000000 2.000000
v -2.000000 0.000000 1.000000
v -2.000000 0.000000 0.000000
v -2.000000 0.000000 -1.000000
v -2.000000 0.000000 -2.000000
v -2.000000 0.000000 -3.000000
v -2.000000 0.000000 -4.000000
v -1.000000 0.000000 4.000000
v -1.000000 0.000000 3.000000
v -1.000000 0.000000 2.000000
v -1.000000 0.000000 1.000000
v -1.000000 0.000000 0.000000
v -1.000000 0.000000 -1.000000
v -1.000000 0.000000 -2.000000
v -1.000000 0.000000 -3.000000
v -1.000000 0.000000 -4.000000
v 0.200000 0.000000 4.000000
v 0.200000 0.000000 3.000000
v 0.200000 0.000000 2.000000
v 0.200000 0.000000 1.000000
v 0.200000 0.000000 0.000000
v 0.200000 0.000000 -1.000000
v 0.200000 0.000000 -2.000000
v 0.200000 0.000000 -3.000000
v 0.200000 0.000000 -4.000000
v 1.000000 0.000000 4.000000
v 1.000000 0.000000 3.000000
v 1.000000 0.000000 2.000000
v 1.000000 0.000000 1.000000
v 1.000000 0.000000 0.000000
v 1.000000 0.000000 -1.000000
v 1.000000 0.000000 -2.000000
v 1.000000 0.000000 -3.000000
v 1.000000 0.000000 -4.000000
v 2.000000 0.000000 4.000000
v 2.000000 0.000000 3.000000
v 2.000000 0.000000 2.000000
v 2.000000 0.000000 1.000000
v 2.000000 0.000000 0.000000
v 2.000000 0.000000 -1.000000
v 2.000000 0.000000 -2.000000
v 2.000000 0.000000 -3.000000
v 2.000000 0.000000 -4.000000
v 4.000000 0.000000 4.000000
v 4.000000 0.000000 3.000000
v 4.000000 0.000000 2.000000
v 4.000000 0.000000 1.000000
v 4.000000 0.000000 0.000000
v 4.000000 0.000000 -1.000000
v 4.000000 0.000000 -2.000000
v 4.000000 0.000000 -3.000000
v 4.000000 0.000000 -4.000000
v -10.000000 0.100000 4.000000
v -10.000000 0.100000 5.000000
v 8.000000 0.100000 5.000000
v 10.000000 0.100000 5.000000
v 10.000000 0.100000 -4.000000
v 10.000000 0.100000 -5.000000
v -8.000000 0.100000 -5.000000
v -10.000000 0.100000 -5.000000
v -10.000000 0.100000 -4.000000
v -10.000000 0.100000 -3.000000
v -10.000000 0.100000 -2.000000
v -10.000000 0.100000 -1.000000
v -10.000000 0.100000 0.000000
v -10.000000 0.100000 1.000000
v -10.000000 0.100000 2.000000
v -10.000000 0.100000 3.000000
v -8.000000 0.100000 5.000000
v -4.000000 0.100000 5.000000
v 4.000000 0.100000 5.000000
v 10.000000 0.100000 4.000000
v 10.000000 0.100000 3.000000
v 10.000000 0.100000 2.000000
v 10.000000 0.100000 1.000000
v 10.000000 0.100000 0.000000
v 10.000000 0.100000 -1.000000
v 10.000000 0.100000 -2.000000
v 10.000000 0.100000 -3.000000
v 8.000000 0.100000 -5.000000
v 4.000000 0.100000 -5.000000
v -4.000000 0.100000 -5.000000
v -8.000000 0.100000 -4.000000
v -8.000000 0.100000 4.000000
v -8.000000 0.100000 3.000000
v -8.000000 0.100000 2.000000
v -8.000000 0.100000 1.000000
v -8.000000 0.100000 0.000000
v -8.000000 0.100000 -1.000000
v -8.000000 0.100000 -2.000000
v -8.000000 0.100000 -3.000000
v -4.000000 0.100000 -4.000000
v -4.000000 0.100000 4.000000
v -4.000000 0.100000 3.000000
v -4.000000 0.100000 2.000000
v -4.000000 0.100000 1.000000
v -4.000000 0.100000 0.000000
v -4.000000 0.100000 -1.000000
v -4.000000 0.100000 -2.000000
v -4.000000 0.100000 -3.000000
v 4.000000 0.100000 -4.000000
v 4.000000 0.100000 4.000000
v 4.000000 0.100000 3.000000
v 4.000000 0.100000 2.000000
v 4.000000 0.100000 1.000000
v 4.000000 0.100000 0.000000
v 4.000000 0.100000 -1.000000
v 4.000000 0.100000 -2.000000
v 4.000000 0.100000 -3.000000
v 8.000000 0.100000 -4.000000
v 8.000000 0.100000 4.000000
v 8.000000 0.100000 3.000000
v 8.000000 0.100000 2.000000
v 8.000000 0.100000 1.000000
v 8.000000 0.100000 0.000000
v 8.000000 0.100000 -1.000000
v 8.000000 0.100000 -2.000000
v 8.000000 0.100000 -3.000000
v -0.200000 0.000000 5.000000
v -0.200000 0.000000 -5.000000
v -0.200000 0.000000 4.000000
v -0.200000 0.000000 3.000000
v -0.200000 0.000000 2.000000
v -0.200000 0.000000 1.000000
v -0.200000 0.000000 0.000000
v -0.200000 0.000000 -1.000000
v -0.200000 0.000000 -2.000000
v -0.200000 0.000000 -3.000000
v -0.200000 0.000000 -4.000000
v 5.000000 0.100000 -4.800000
v 4.700000 0.100000 -4.500000
v 5.000000 0.100000 -4.200000
v 5.300000 0.100000 -4.500000
v 4.700000 0.300000 -4.500000
v 5.000000 0.300000 -4.800000
v 5.000000 0.300000 -4.200000
v 5.300000 0.300000 -4.500000
v 5.000000 0.300000 -4.400000
v 5.100000 0.300000 -4.500000
v 5.000000 0.300000 -4.600000
v 4.900000 0.300000 -4.500000
v 5.100000 3.200000 -4.500000
v 5.000000 3.200000 -4.400000
v 4.900000 3.100000 -4.500000
v 5.000000 3.200000 -4.600000
v 4.700000 4.000000 -4.500000
v 4.600000 3.900000 -4.400000
v 4.600000 3.900000 -4.500000
v 4.600000 3.900000 -4.600000
v 4.400000 4.000000 -4.500000
v 4.400000 3.900000 -4.400000
v 4.400000 3.900000 -4.600000
v 4.000000 4.000000 -4.500000
v 4.000000 3.900000 -4.400000
v 4.000000 3.900000 -4.500000
v 4.000000 3.900000 -4.600000
v 4.400000 4.000000 -4.500000
v 4.400000 3.900000 -4.400000
v 4.400000 3.900000 -4.500000
v 4.400000 3.900000 -4.600000
v 4.000000 4.000000 -4.500000
v 4.000000 3.900000 -4.400000
v 3.900000 3.900000 -4.500000
v 4.000000 3.900000 -4.600000
v 4.400000 3.800000 -4.400000
v 4.300000 3.700000 -4.500000
v 4.400000 3.800000 -4.600000
v 4.000000 3.800000 -4.400000
v 3.900000 3.700000 -4.500000
v 4.000000 3.800000 -4.600000
v -5.000000 0.100000 -4.800000
v -4.700000 0.100000 -4.500000
v -5.000000 0.100000 -4.200000
v -5.300000 0.100000 -4.500000
v -4.700000 0.300000 -4.500000
v -5.000000 0.300000 -4.800000
v -5.000000 0.300000 -4.200000
v -5.300000 0.300000 -4.500000
v -5.000000 0.300000 -4.400000
v -5.100000 0.300000 -4.500000
v -5.000000 0.300000 -4.600000
v -4.900000 0.300000 -4.500000
v -5.100000 3.200000 -4.500000
v -5.000000 3.200000 -4.400000
v -4.900000 3.100000 -4.500000
v -5.000000 3.200000 -4.600000
v -4.700000 4.000000 -4.500000
v -4.600000 3.900000 -4.400000
v -4.500000 3.900000 -4.500000
v -4.600000 3.900000 -4.600000
v -4.300000 4.000000 -4.500000
v -4.300000 3.900000 -4.400000
v -4.300000 3.900000 -4.600000
v -3.900000 4.000000 -4.500000
v -3.900000 3.900000 -4.400000
v -3.900000 3.900000 -4.500000
v -3.900000 3.900000 -4.600000
v -4.300000 4.000000 -4.500000
v -4.300000 3.900000 -4.400000
v -4.400000 3.900000 -4.500000
v -4.300000 3.900000 -4.600000
v -3.900000 4.000000 -4.500000
v -3.900000 3.900000 -4.400000
v -3.900000 3.900000 -4.500000
v -3.900000 3.900000 -4.600000
v -4.300000 3.800000 -4.400000
v -4.300000 3.700000 -4.500000
v -4.300000 3.800000 -4.600000
v -3.900000 3.800000 -4.400000
v -3.900000 3.700000 -4.500000
v -3.900000 3.800000 -4.600000
vn -1.0000 -0.0000 -0.0000
vn 1.0000 -0.0000 -0.0000
vn -0.0000 1.0000 -0.0000
vn -0.0000 -1.0000 -0.0000
vn 0.7071 -0.0000 -0.7071
vn -0.7071 -0.0000 -0.7071
vn 0.7071 -0.0000 0.7071
vn -0.7071 -0.0000 0.7071
vn 0.6667 0.3333 -0.6667
vn 0.8165 -0.4083 -0.4082
vn 0.5133 0.2933 0.8066
vn -0.8682 -0.4961 -0.0000
vn -0.5744 -0.2154 0.7898
vn -0.0000 0.7071 -0.7071
vn -0.0000 0.7071 0.7071
vn 0.5773 -0.5774 0.5773
vn -0.0000 -0.7071 -0.7071
vn -0.0000 -0.7071 0.7071
vn -0.0000 -0.0000 1.0000
vn -0.0000 -0.0000 -1.0000
vn 0.8165 -0.4083 0.4082
vn 0.5773 -0.5774 -0.5773
vn 0.6667 -0.3333 0.6667
vn 0.8165 0.4082 -0.4082
vn 0.5133 -0.2933 -0.8066
vn -0.5133 0.2933 0.8066
vn -0.6667 0.3333 -0.6667
vn 0.8165 0.4082 0.4082
vn 0.5133 0.2933 -0.8066
vn 0.6667 0.3333 0.6667
vn -0.5744 -0.2154 -0.7898
vn 0.5133 -0.2933 0.8066
vn 0.6667 -0.3333 -0.6667
vn -0.6667 0.3333 0.6667
vn -0.5133 0.2933 -0.8066
vt 0.174811 0.512345
vt 0.772835 0.400787
vt 0.208268 0.549606
vt 0.609842 0.500000
vt 0.611166 0.187500
vt 0.609842 0.500000
vt 0.238563 1.375000
vt 0.609842 0.500000
vt 0.364659 0.380463
s 0
usemtl Material.001
f 7/1/1 127/1/1 69/1/1
f 21/1/2 123/1/2 20/1/2
f 32/2/3 14/2/3 23/2/3
f 41/2/3 13/2/3 32/2/3
f 50/3/3 145/3/3 154/3/3
f 59/2/3 11/2/3 50/2/3
f 68/2/3 10/2/3 59/2/3
f 77/2/3 9/2/3 68/2/3
f 77/1/1 106/1/1 8/1/1
f 20/1/2 122/1/2 19/1/2
f 19/1/2 121/1/2 18/1/2
f 18/1/2 120/1/2 17/1/2
f 17/1/2 119/1/2 16/1/2
f 16/1/2 118/1/2 15/1/2
f 2/2/3 15/2/3 1/2/3
f 24/2/3 16/2/3 15/2/3
f 25/2/3 17/2/3 16/2/3
f 26/2/3 18/2/3 17/2/3
f 27/2/3 19/2/3 18/2/3
f 28/2/3 20/2/3 19/2/3
f 29/2/3 21/2/3 20/2/3
f 30/2/3 22/2/3 21/2/3
f 31/2/3 23/2/3 22/2/3
f 3/2/3 24/2/3 2/2/3
f 33/2/3 25/2/3 24/2/3
f 34/2/3 26/2/3 25/2/3
f 35/2/3 27/2/3 26/2/3
f 36/2/3 28/2/3 27/2/3
f 37/2/3 29/2/3 28/2/3
f 38/2/3 30/2/3 29/2/3
f 39/2/3 31/2/3 30/2/3
f 40/2/3 32/2/3 31/2/3
f 4/2/3 146/2/3 144/2/3
f 42/2/3 147/2/3 146/2/3
f 43/2/3 148/2/3 147/2/3
f 44/3/3 149/3/3 148/3/3
f 45/3/3 150/3/3 149/3/3
f 46/2/3 151/2/3 150/2/3
f 47/2/3 152/2/3 151/2/3
f 48/2/3 153/2/3 152/2/3
f 49/3/3 154/3/3 153/3/3
f 5/2/3 42/2/3 4/2/3
f 51/2/3 43/2/3 42/2/3
f 52/2/3 44/2/3 43/2/3
f 53/2/3 45/2/3 44/2/3
f 54/2/3 46/2/3 45/2/3
f 55/2/3 47/2/3 46/2/3
f 56/2/3 48/2/3 47/2/3
f 57/2/3 49/2/3 48/2/3
f 58/2/3 50/2/3 49/2/3
f 6/2/3 51/2/3 5/2/3
f 60/2/3 52/2/3 51/2/3
f 61/2/3 53/2/3 52/2/3
f 62/2/3 54/2/3 53/2/3
f 63/2/3 55/2/3 54/2/3
f 64/2/3 56/2/3 55/2/3
f 65/2/3 57/2/3 56/2/3
f 66/2/3 58/2/3 57/2/3
f 67/2/3 59/2/3 58/2/3
f 7/2/3 60/2/3 6/2/3
f 69/2/3 61/2/3 60/2/3
f 70/2/3 62/2/3 61/2/3
f 71/2/3 63/2/3 62/2/3
f 72/2/3 64/2/3 63/2/3
f 73/2/3 65/2/3 64/2/3
f 74/2/3 66/2/3 65/2/3
f 75/2/3 67/2/3 66/2/3
f 76/2/3 68/2/3 67/2/3
f 76/1/1 126/1/1 77/1/1
f 15/1/2 95/1/2 1/1/2
f 75/1/1 134/1/1 76/1/1
f 14/1/2 117/1/2 23/1/2
f 74/1/1 133/1/1 75/1/1
f 73/1/1 132/1/1 74/1/1
f 72/1/1 131/1/1 73/1/1
f 71/1/1 130/1/1 72/1/1
f 82/4/3 105/4/3 135/4/3
f 108/4/3 85/4/3 86/4/3
f 117/4/3 84/4/3 108/4/3
f 135/4/3 106/4/3 126/4/3
f 94/4/3 78/4/3 79/4/3
f 109/4/3 93/4/3 78/4/3
f 110/4/3 92/4/3 93/4/3
f 111/4/3 91/4/3 92/4/3
f 112/4/3 90/4/3 91/4/3
f 113/4/3 89/4/3 90/4/3
f 114/4/3 88/4/3 89/4/3
f 115/4/3 87/4/3 88/4/3
f 116/4/3 86/4/3 87/4/3
f 95/4/3 109/4/3 94/4/3
f 118/4/3 110/4/3 109/4/3
f 119/4/3 111/4/3 110/4/3
f 120/4/3 112/4/3 111/4/3
f 121/4/3 113/4/3 112/4/3
f 122/4/3 114/4/3 113/4/3
f 123/4/3 115/4/3 114/4/3
f 124/4/3 116/4/3 115/4/3
f 125/4/3 108/4/3 116/4/3
f 80/4/3 127/4/3 96/4/3
f 136/4/3 128/4/3 127/4/3
f 137/4/3 129/4/3 128/4/3
f 138/4/3 130/4/3 129/4/3
f 139/4/3 131/4/3 130/4/3
f 140/4/3 132/4/3 131/4/3
f 141/4/3 133/4/3 132/4/3
f 142/4/3 134/4/3 133/4/3
f 143/4/3 126/4/3 134/4/3
f 81/4/3 136/4/3 80/4/3
f 97/4/3 137/4/3 136/4/3
f 98/4/3 138/4/3 137/4/3
f 99/4/3 139/4/3 138/4/3
f 100/4/3 140/4/3 139/4/3
f 101/4/3 141/4/3 140/4/3
f 102/4/3 142/4/3 141/4/3
f 103/4/3 143/4/3 142/4/3
f 104/4/3 135/4/3 143/4/3
f 22/1/2 124/1/2 21/1/2
f 69/1/1 128/1/1 70/1/1
f 23/1/2 125/1/2 22/1/2
f 70/1/1 129/1/1 71/1/1
f 153/2/3 41/2/3 40/2/3
f 152/2/3 40/2/3 39/2/3
f 151/2/3 39/2/3 38/2/3
f 150/2/3 38/2/3 37/2/3
f 149/2/3 37/2/3 36/2/3
f 148/2/3 36/2/3 35/2/3
f 147/2/3 35/2/3 34/2/3
f 146/2/3 34/2/3 33/2/3
f 144/2/3 33/2/3 3/2/3
f 154/2/3 12/2/3 41/2/3
f 156/5/4 158/5/4 157/5/4
f 165/5/5 167/5/5 164/5/5
f 155/5/5 162/5/5 158/5/5
f 156/5/6 160/5/6 155/5/6
f 158/5/7 161/5/7 157/5/7
f 157/5/8 159/5/8 156/5/8
f 161/5/3 164/5/3 163/5/3
f 160/5/3 164/5/3 162/5/3
f 159/5/3 165/5/3 160/5/3
f 161/5/3 166/5/3 159/5/3
f 170/5/9 171/5/9 167/5/9
f 164/5/7 168/5/7 163/5/7
f 165/5/6 169/5/6 170/5/6
f 163/5/8 169/5/8 166/5/8
f 191/5/10 184/5/10 190/5/10
f 168/5/11 171/5/11 172/5/11
f 170/5/12 173/5/12 174/5/12
f 168/5/13 173/5/13 169/5/13
f 176/4/3 182/6/3 183/7/3
f 183/5/2 190/5/2 184/5/2
f 174/5/14 175/5/14 171/5/14
f 172/5/15 175/5/15 176/5/15
f 188/5/16 189/5/16 186/5/16
f 180/8/3 189/7/3 188/7/3
f 175/6/3 185/7/3 182/6/3
f 178/6/3 187/7/3 186/6/3
f 185/5/14 186/5/14 182/5/14
f 182/5/15 187/5/15 183/5/15
f 188/9/8 193/9/8 187/9/8
f 188/9/6 195/9/6 194/9/6
f 179/4/3 188/7/3 187/7/3
f 181/4/3 186/6/3 189/7/3
f 191/9/17 195/9/17 192/9/17
f 191/9/18 193/9/18 194/9/18
f 187/9/19 190/9/19 183/9/19
f 185/9/20 195/9/20 189/9/20
f 183/5/3 172/5/3 184/5/3
f 184/5/21 191/5/21 192/5/21
f 184/5/3 174/5/3 185/5/3
f 192/5/2 185/5/2 184/5/2
f 173/5/4 172/5/4 184/5/4
f 174/5/4 173/5/4 184/5/4
f 188/5/22 186/5/22 187/5/22
f 197/5/3 199/5/3 198/5/3
f 206/5/7 208/5/7 205/5/7
f 196/5/7 203/5/7 199/5/7
f 197/5/8 201/5/8 196/5/8
f 199/5/5 202/5/5 198/5/5
f 198/5/6 200/5/6 197/5/6
f 202/5/4 205/5/4 204/5/4
f 201/5/4 205/5/4 203/5/4
f 200/5/4 206/5/4 201/5/4
f 202/5/4 207/5/4 200/5/4
f 211/5/23 212/5/23 208/5/23
f 205/5/5 209/5/5 204/5/5
f 206/5/8 210/5/8 211/5/8
f 204/5/6 210/5/6 207/5/6
f 232/5/24 225/5/24 231/5/24
f 209/5/25 212/5/25 213/5/25
f 210/5/26 215/5/26 211/5/26
f 210/5/27 213/5/27 214/5/27
f 217/4/3 223/6/3 224/7/3
f 224/5/5 231/5/5 225/5/5
f 215/5/18 216/5/18 212/5/18
f 213/5/17 216/5/17 217/5/17
f 229/5/2 230/5/2 227/5/2
f 221/8/3 230/7/3 229/7/3
f 216/6/3 226/7/3 223/6/3
f 219/6/3 228/7/3 227/6/3
f 226/5/18 227/5/18 223/5/18
f 223/5/17 228/5/17 224/5/17
f 229/9/1 234/9/1 228/9/1
f 229/9/1 236/9/1 235/9/1
f 220/4/3 229/7/3 228/7/3
f 222/4/3 227/6/3 230/7/3
f 232/9/15 236/9/15 233/9/15
f 231/9/14 235/9/14 232/9/14
f 228/9/20 231/9/20 224/9/20
f 226/9/19 236/9/19 230/9/19
f 224/5/4 213/5/4 225/5/4
f 225/5/28 232/5/28 233/5/28
f 225/5/4 215/5/4 226/5/4
f 233/5/7 226/5/7 225/5/7
f 214/5/3 213/5/3 225/5/3
f 215/5/3 214/5/3 225/5/3
f 229/5/2 227/5/2 228/5/2
f 215/5/3 218/5/3 226/7/3
f 217/4/3 224/7/3 213/5/3
f 219/6/1 221/8/1 220/4/1
f 7/1/1 96/1/1 127/1/1
f 21/1/2 124/1/2 123/1/2
f 32/2/3 13/2/3 14/2/3
f 41/2/3 12/2/3 13/2/3
f 50/3/3 11/3/3 145/3/3
f 59/2/3 10/2/3 11/2/3
f 68/2/3 9/2/3 10/2/3
f 77/2/3 8/2/3 9/2/3
f 77/1/1 126/1/1 106/1/1
f 20/1/2 123/1/2 122/1/2
f 19/1/2 122/1/2 121/1/2
f 18/1/2 121/1/2 120/1/2
f 17/1/2 120/1/2 119/1/2
f 16/1/2 119/1/2 118/1/2
f 2/2/3 24/2/3 15/2/3
f 24/2/3 25/2/3 16/2/3
f 25/2/3 26/2/3 17/2/3
f 26/2/3 27/2/3 18/2/3
f 27/2/3 28/2/3 19/2/3
f 28/2/3 29/2/3 20/2/3
f 29/2/3 30/2/3 21/2/3
f 30/2/3 31/2/3 22/2/3
f 31/2/3 32/2/3 23/2/3
f 3/2/3 33/2/3 24/2/3
f 33/2/3 34/2/3 25/2/3
f 34/2/3 35/2/3 26/2/3
f 35/2/3 36/2/3 27/2/3
f 36/2/3 37/2/3 28/2/3
f 37/2/3 38/2/3 29/2/3
f 38/2/3 39/2/3 30/2/3
f 39/2/3 40/2/3 31/2/3
f 40/2/3 41/2/3 32/2/3
f 4/2/3 42/2/3 146/2/3
f 42/2/3 43/2/3 147/2/3
f 43/2/3 44/2/3 148/2/3
f 44/3/3 45/3/3 149/3/3
f 45/3/3 46/3/3 150/3/3
f 46/2/3 47/2/3 151/2/3
f 47/2/3 48/2/3 152/2/3
f 48/2/3 49/2/3 153/2/3
f 49/3/3 50/3/3 154/3/3
f 5/2/3 51/2/3 42/2/3
f 51/2/3 52/2/3 43/2/3
f 52/2/3 53/2/3 44/2/3
f 53/2/3 54/2/3 45/2/3
f 54/2/3 55/2/3 46/2/3
f 55/2/3 56/2/3 47/2/3
f 56/2/3 57/2/3 48/2/3
f 57/2/3 58/2/3 49/2/3
f 58/2/3 59/2/3 50/2/3
f 6/2/3 60/2/3 51/2/3
f 60/2/3 61/2/3 52/2/3
f 61/2/3 62/2/3 53/2/3
f 62/2/3 63/2/3 54/2/3
f 63/2/3 64/2/3 55/2/3
f 64/2/3 65/2/3 56/2/3
f 65/2/3 66/2/3 57/2/3
f 66/2/3 67/2/3 58/2/3
f 67/2/3 68/2/3 59/2/3
f 7/2/3 69/2/3 60/2/3
f 69/2/3 70/2/3 61/2/3
f 70/2/3 71/2/3 62/2/3
f 71/2/3 72/2/3 63/2/3
f 72/2/3 73/2/3 64/2/3
f 73/2/3 74/2/3 65/2/3
f 74/2/3 75/2/3 66/2/3
f 75/2/3 76/2/3 67/2/3
f 76/2/3 77/2/3 68/2/3
f 76/1/1 134/1/1 126/1/1
f 15/1/2 118/1/2 95/1/2
f 75/1/1 133/1/1 134/1/1
f 14/1/2 107/1/2 117/1/2
f 74/1/1 132/1/1 133/1/1
f 73/1/1 131/1/1 132/1/1
f 72/1/1 130/1/1 131/1/1
f 71/1/1 129/1/1 130/1/1
f 82/4/3 83/4/3 105/4/3
f 108/4/3 84/4/3 85/4/3
f 117/4/3 107/4/3 84/4/3
f 135/4/3 105/4/3 106/4/3
f 94/4/3 109/4/3 78/4/3
f 109/4/3 110/4/3 93/4/3
f 110/4/3 111/4/3 92/4/3
f 111/4/3 112/4/3 91/4/3
f 112/4/3 113/4/3 90/4/3
f 113/4/3 114/4/3 89/4/3
f 114/4/3 115/4/3 88/4/3
f 115/4/3 116/4/3 87/4/3
f 116/4/3 108/4/3 86/4/3
f 95/4/3 118/4/3 109/4/3
f 118/4/3 119/4/3 110/4/3
f 119/4/3 120/4/3 111/4/3
f 120/4/3 121/4/3 112/4/3
f 121/4/3 122/4/3 113/4/3
f 122/4/3 123/4/3 114/4/3
f 123/4/3 124/4/3 115/4/3
f 124/4/3 125/4/3 116/4/3
f 125/4/3 117/4/3 108/4/3
f 80/4/3 136/4/3 127/4/3
f 136/4/3 137/4/3 128/4/3
f 137/4/3 138/4/3 129/4/3
f 138/4/3 139/4/3 130/4/3
f 139/4/3 140/4/3 131/4/3
f 140/4/3 141/4/3 132/4/3
f 141/4/3 142/4/3 133/4/3
f 142/4/3 143/4/3 134/4/3
f 143/4/3 135/4/3 126/4/3
f 81/4/3 97/4/3 136/4/3
f 97/4/3 98/4/3 137/4/3
f 98/4/3 99/4/3 138/4/3
f 99/4/3 100/4/3 139/4/3
f 100/4/3 101/4/3 140/4/3
f 101/4/3 102/4/3 141/4/3
f 102/4/3 103/4/3 142/4/3
f 103/4/3 104/4/3 143/4/3
f 104/4/3 82/4/3 135/4/3
f 22/1/2 125/1/2 124/1/2
f 69/1/1 127/1/1 128/1/1
f 23/1/2 117/1/2 125/1/2
f 70/1/1 128/1/1 129/1/1
f 153/2/3 154/2/3 41/2/3
f 152/2/3 153/2/3 40/2/3
f 151/2/3 152/2/3 39/2/3
f 150/2/3 151/2/3 38/2/3
f 149/2/3 150/2/3 37/2/3
f 148/2/3 149/2/3 36/2/3
f 147/2/3 148/2/3 35/2/3
f 146/2/3 147/2/3 34/2/3
f 144/2/3 146/2/3 33/2/3
f 154/2/3 145/2/3 12/2/3
f 156/5/4 155/5/4 158/5/4
f 165/5/5 170/5/5 167/5/5
f 155/5/5 160/5/5 162/5/5
f 156/5/6 159/5/6 160/5/6
f 158/5/7 162/5/7 161/5/7
f 157/5/8 161/5/8 159/5/8
f 161/5/3 162/5/3 164/5/3
f 160/5/3 165/5/3 164/5/3
f 159/5/3 166/5/3 165/5/3
f 161/5/3 163/5/3 166/5/3
f 170/5/29 174/5/29 171/5/29
f 164/5/7 167/5/7 168/5/7
f 165/5/6 166/5/6 169/5/6
f 163/5/8 168/5/8 169/5/8
f 168/5/30 167/5/30 171/5/30
f 170/5/31 169/5/31 173/5/31
f 168/5/12 172/5/12 173/5/12
f 176/4/3 175/6/3 182/6/3
f 174/5/14 177/5/14 175/5/14
f 172/5/15 171/5/15 175/5/15
f 180/8/3 181/4/3 189/7/3
f 175/6/3 177/4/3 185/7/3
f 178/6/3 179/4/3 187/7/3
f 185/5/14 189/5/14 186/5/14
f 182/5/15 186/5/15 187/5/15
f 188/9/8 194/9/8 193/9/8
f 188/9/6 189/9/6 195/9/6
f 179/4/3 180/8/3 188/7/3
f 181/4/3 178/6/3 186/6/3
f 191/9/17 194/9/17 195/9/17
f 191/9/18 190/9/18 193/9/18
f 187/9/19 193/9/19 190/9/19
f 185/9/20 192/9/20 195/9/20
f 197/5/3 196/5/3 199/5/3
f 206/5/7 211/5/7 208/5/7
f 196/5/7 201/5/7 203/5/7
f 197/5/8 200/5/8 201/5/8
f 199/5/5 203/5/5 202/5/5
f 198/5/6 202/5/6 200/5/6
f 202/5/4 203/5/4 205/5/4
f 201/5/4 206/5/4 205/5/4
f 200/5/4 207/5/4 206/5/4
f 202/5/4 204/5/4 207/5/4
f 211/5/32 215/5/32 212/5/32
f 205/5/5 208/5/5 209/5/5
f 206/5/8 207/5/8 210/5/8
f 204/5/6 209/5/6 210/5/6
f 209/5/33 208/5/33 212/5/33
f 210/5/34 214/5/34 215/5/34
f 210/5/35 209/5/35 213/5/35
f 217/4/3 216/6/3 223/6/3
f 215/5/18 218/5/18 216/5/18
f 213/5/17 212/5/17 216/5/17
f 221/8/3 222/4/3 230/7/3
f 216/6/3 218/4/3 226/7/3
f 219/6/3 220/4/3 228/7/3
f 226/5/18 230/5/18 227/5/18
f 223/5/17 227/5/17 228/5/17
f 229/9/1 235/9/1 234/9/1
f 229/9/1 230/9/1 236/9/1
f 220/4/3 221/8/3 229/7/3
f 222/4/3 219/6/3 227/6/3
f 232/9/15 235/9/15 236/9/15
f 231/9/14 234/9/14 235/9/14
f 228/9/20 234/9/20 231/9/20
f 226/9/19 233/9/19 236/9/19
f 219/6/1 222/4/1 221/8/1
o BUILDINGS
v -10.000000 0.000000 0.000000
v -10.000000 0.000000 -5.000000
v -7.000000 0.000000 0.000000
v -7.000000 0.000000 -5.000000
v -10.000000 2.000000 0.000000
v -10.000000 2.000000 -5.000000
v -7.000000 2.000000 0.000000
v -7.000000 2.000000 -5.000000
v -10.000000 0.000000 -1.666667
v -10.000000 0.000000 -3.333333
v -7.000000 0.000000 -1.666667
v -7.000000 0.000000 -3.333333
v -10.000000 2.000000 -1.666667
v -10.000000 2.000000 -3.333333
v -7.000000 2.000000 -1.666667
v -7.000000 2.000000 -3.333333
v -7.000000 0.049198 -1.931759
v -7.000000 0.049198 -3.068241
v -7.000000 1.519013 -3.068241
v -7.000000 1.519013 -1.931759
v -7.211172 0.049198 -1.931759
v -7.211172 0.049198 -3.068241
v -7.211172 1.519013 -1.931759
v -7.211172 1.519013 -3.068241
v -10.000000 2.274942 -3.333333
v -10.000000 2.274942 -5.000000
v -7.000000 2.274942 -3.333333
v -7.000000 2.274942 -5.000000
v -7.000000 2.274942 0.000000
v -10.000000 2.274942 0.000000
v -10.000000 2.274942 -1.666667
v -7.000000 2.274942 -1.666667
v -10.000000 4.697640 -3.333333
v -10.000000 4.697640 -5.000000
v -7.000000 4.697640 -3.333333
v -7.000000 4.697640 -5.000000
v -7.000000 4.697640 0.000000
v -10.000000 4.697640 0.000000
v -10.000000 4.697640 -1.666667
v -7.000000 4.697640 -1.666667
v -10.000000 4.997988 -3.333333
v -10.000000 4.997988 -5.000000
v -7.000000 4.997988 -3.333333
v -7.000000 4.997988 -5.000000
v -7.000000 4.997988 0.000000
v -10.000000 4.997988 0.000000
v -10.000000 4.997988 -1.666667
v -7.000000 4.997988 -1.666667
v -7.000000 2.659028 -0.384086
v -7.000000 2.659028 -1.282581
v -7.000000 4.313554 -1.282581
v -7.000000 4.313554 -0.384086
v -7.000000 2.659028 -2.050753
v -7.000000 2.659028 -2.949247
v -7.000000 4.313554 -2.949247
v -7.000000 4.313554 -2.050753
v -7.000000 2.659028 -3.717419
v -7.000000 2.659028 -4.615914
v -7.000000 4.313554 -4.615914
v -7.000000 4.313554 -3.717419
v -7.205954 2.659028 -0.384086
v -7.205954 2.659028 -1.282581
v -7.205954 4.313554 -0.384086
v -7.205954 4.313554 -1.282581
v -7.205954 2.659028 -2.050753
v -7.205954 2.659028 -2.949247
v -7.205954 4.313554 -2.050753
v -7.205954 4.313554 -2.949247
v -7.205954 2.659028 -3.717419
v -7.205954 2.659028 -4.615914
v -7.205954 4.313554 -3.717419
v -7.205954 4.313554 -4.615914
v -7.000000 3.586184 0.000000
v -7.000000 3.386398 0.000000
v -7.000000 3.386398 -1.666667
v -7.000000 3.586184 -1.666667
v -10.000000 3.386398 0.000000
v -10.000000 3.586184 0.000000
v -10.000000 3.586184 -1.666667
v -10.000000 3.386398 -1.666667
v -10.000000 3.386398 -3.333333
v -10.000000 3.586184 -3.333333
v -10.000000 3.586184 -5.000000
v -10.000000 3.386398 -5.000000
v -7.000000 3.386398 -3.333333
v -7.000000 3.586184 -3.333333
v -7.000000 3.586184 -5.000000
v -7.000000 3.386398 -5.000000
v -7.000000 3.554511 -0.384086
v -7.000000 3.418071 -0.384086
v -7.000000 3.418071 -1.282581
v -7.000000 3.554511 -1.282581
v -7.000000 3.418071 -2.050753
v -7.000000 3.554511 -2.050753
v -7.000000 3.418071 -2.949247
v -7.000000 3.554511 -2.949247
v -7.000000 3.418071 -3.717419
v -7.000000 3.554511 -3.717419
v -7.000000 3.554511 -4.615914
v -7.000000 3.418071 -4.615914
v -7.205954 3.554511 -0.384086
v -7.205954 3.418071 -0.384086
v -7.205954 3.418071 -1.282581
v -7.205954 3.554511 -1.282581
v -7.205954 3.418071 -2.050753
v -7.205954 3.554511 -2.050753
v -7.205954 3.418071 -2.949247
v -7.205954 3.554511 -2.949247
v -7.205954 3.418071 -3.717419
v -7.205954 3.554511 -3.717419
v -7.205954 3.554511 -4.615914
v -7.205954 3.418071 -4.615914
v -7.000000 0.236515 -3.569848
v -7.000000 0.236515 -4.763485
v -7.000000 1.763485 -4.763485
v -7.000000 1.763485 -3.569848
v -7.000000 0.236515 -0.236515
v -7.000000 0.236515 -1.430152
v -7.000000 1.763485 -1.430152
v -7.000000 1.763485 -0.236515
v -7.180708 0.236515 -3.569848
v -7.180708 0.236515 -4.763485
v -7.180708 1.763485 -3.569848
v -7.180708 1.763485 -4.763485
v -7.180708 0.236515 -0.236515
v -7.180708 0.236515 -1.430152
v -7.180708 1.763485 -0.236515
v -7.180708 1.763485 -1.430152
v -10.000000 0.000000 5.000000
v -10.000000 0.000000 0.000000
v -7.000000 0.000000 5.000000
v -7.000000 0.000000 0.000000
v -10.000000 2.000000 5.000000
v -10.000000 2.000000 0.000000
v -7.000000 2.000000 5.000000
v -7.000000 2.000000 0.000000
v -10.000000 0.000000 3.333333
v -10.000000 0.000000 1.666667
v -7.000000 0.000000 3.333333
v -7.000000 0.000000 1.666667
v -10.000000 2.000000 3.333333
v -10.000000 2.000000 1.666667
v -7.000000 2.000000 3.333333
v -7.000000 2.000000 1.666667
v -7.000000 0.049198 3.068241
v -7.000000 0.049198 1.931759
v -7.000000 1.519013 1.931759
v -7.000000 1.519013 3.068241
v -7.211172 0.049198 3.068241
v -7.211172 0.049198 1.931759
v -7.211172 1.519013 3.068241
v -7.211172 1.519013 1.931759
v -10.000000 2.274942 1.666667
v -10.000000 2.274942 0.000000
v -7.000000 2.274942 1.666667
v -7.000000 2.274942 0.000000
v -7.000000 2.274942 5.000000
v -10.000000 2.274942 5.000000
v -10.000000 2.274942 3.333333
v -7.000000 2.274942 3.333333
v -10.000000 4.697640 1.666667
v -10.000000 4.697640 0.000000
v -7.000000 4.697640 1.666667
v -7.000000 4.697640 0.000000
v -7.000000 4.697640 5.000000
v -10.000000 4.697640 5.000000
v -10.000000 4.697640 3.333333
v -7.000000 4.697640 3.333333
v -10.000000 4.997988 1.666667
v -10.000000 4.997988 0.000000
v -7.000000 4.997988 1.666667
v -7.000000 4.997988 0.000000
v -7.000000 4.997988 5.000000
v -10.000000 4.997988 5.000000
v -10.000000 4.997988 3.333333
v -7.000000 4.997988 3.333333
v -7.000000 2.659028 4.615914
v -7.000000 2.659028 3.717419
v -7.000000 4.313554 3.717419
v -7.000000 4.313554 4.615914
v -7.000000 2.659028 2.949247
v -7.000000 2.659028 2.050753
v -7.000000 4.313554 2.050753
v -7.000000 4.313554 2.949247
v -7.000000 2.659028 1.282581
v -7.000000 2.659028 0.384086
v -7.000000 4.313554 0.384086
v -7.000000 4.313554 1.282581
v -7.205954 2.659028 4.615914
v -7.205954 2.659028 3.717419
v -7.205954 4.313554 4.615914
v -7.205954 4.313554 3.717419
v -7.205954 2.659028 2.949247
v -7.205954 2.659028 2.050753
v -7.205954 4.313554 2.949247
v -7.205954 4.313554 2.050753
v -7.205954 2.659028 1.282581
v -7.205954 2.659028 0.384086
v -7.205954 4.313554 1.282581
v -7.205954 4.313554 0.384086
v -7.000000 3.586184 5.000000
v -7.000000 3.386398 5.000000
v -7.000000 3.386398 3.333333
v -7.000000 3.586184 3.333333
v -10.000000 3.386398 5.000000
v -10.000000 3.586184 5.000000
v -10.000000 3.586184 3.333333
v -10.000000 3.386398 3.333333
v -10.000000 3.386398 1.666667
v -10.000000 3.586184 1.666667
v -10.000000 3.586184 0.000000
v -10.000000 3.386398 0.000000
v -7.000000 3.386398 1.666667
v -7.000000 3.586184 1.666667
v -7.000000 3.586184 0.000000
v -7.000000 3.386398 0.000000
v -7.000000 3.554511 4.615914
v -7.000000 3.418071 4.615914
v -7.000000 3.418071 3.717419
v -7.000000 3.554511 3.717419
v -7.000000 3.418071 2.949247
v -7.000000 3.554511 2.949247
v -7.000000 3.418071 2.050753
v -7.000000 3.554511 2.050753
v -7.000000 3.418071 1.282581
v -7.000000 3.554511 1.282581
v -7.000000 3.554511 0.384086
v -7.000000 3.418071 0.384086
v -7.205954 3.554511 4.615914
v -7.205954 3.418071 4.615914
v -7.205954 3.418071 3.717419
v -7.205954 3.554511 3.717419
v -7.205954 3.418071 2.949247
v -7.205954 3.554511 2.949247
v -7.205954 3.418071 2.050753
v -7.205954 3.554511 2.050753
v -7.205954 3.418071 1.282581
v -7.205954 3.554511 1.282581
v -7.205954 3.554511 0.384086
v -7.205954 3.418071 0.384086
v -7.000000 0.236515 1.430152
v -7.000000 0.236515 0.236515
v -7.000000 1.763485 0.236515
v -7.000000 1.763485 1.430152
v -7.000000 0.236515 4.763485
v -7.000000 0.236515 3.569848
v -7.000000 1.763485 3.569848
v -7.000000 1.763485 4.763485
v -7.180708 0.236515 1.430152
v -7.180708 0.236515 0.236515
v -7.180708 1.763485 1.430152
v -7.180708 1.763485 0.236515
v -7.180708 0.236515 4.763485
v -7.180708 0.236515 3.569848
v -7.180708 1.763485 4.763485
v -7.180708 1.763485 3.569848
v -8.880699 4.997988 2.833807
v -8.119301 4.997988 2.833807
v -8.119301 4.997988 2.166193
v -8.880699 4.997988 2.166193
v 10.000000 0.000000 0.000000
v 10.000000 0.000000 -5.000000
v 7.000000 0.000000 0.000000
v 7.000000 0.000000 -5.000000
v 10.000000 2.000000 0.000000
v 10.000000 2.000000 -5.000000
v 7.000000 2.000000 0.000000
v 7.000000 2.000000 -5.000000
v 10.000000 0.000000 -1.666667
v 10.000000 0.000000 -3.333333
v 7.000000 0.000000 -1.666667
v 7.000000 0.000000 -3.333333
v 10.000000 2.000000 -1.666667
v 10.000000 2.000000 -3.333333
v 7.000000 2.000000 -1.666667
v 7.000000 2.000000 -3.333333
v 7.000000 0.049198 -1.931759
v 7.000000 0.049198 -3.068241
v 7.000000 1.519013 -3.068241
v 7.000000 1.519013 -1.931759
v 7.211172 0.049198 -1.931759
v 7.211172 0.049198 -3.068241
v 7.211172 1.519013 -1.931759
v 7.211172 1.519013 -3.068241
v 10.000000 2.274942 -3.333333
v 10.000000 2.274942 -5.000000
v 7.000000 2.274942 -3.333333
v 7.000000 2.274942 -5.000000
v 7.000000 2.274942 0.000000
v 10.000000 2.274942 0.000000
v 10.000000 2.274942 -1.666667
v 7.000000 2.274942 -1.666667
v 10.000000 4.697640 -3.333333
v 10.000000 4.697640 -5.000000
v 7.000000 4.697640 -3.333333
v 7.000000 4.697640 -5.000000
v 7.000000 4.697640 0.000000
v 10.000000 4.697640 0.000000
v 10.000000 4.697640 -1.666667
v 7.000000 4.697640 -1.666667
v 10.000000 4.997988 -3.333333
v 10.000000 4.997988 -5.000000
v 7.000000 4.997988 -3.333333
v 7.000000 4.997988 -5.000000
v 7.000000 4.997988 0.000000
v 10.000000 4.997988 0.000000
v 10.000000 4.997988 -1.666667
v 7.000000 4.997988 -1.666667
v 7.000000 2.659028 -0.384086
v 7.000000 2.659028 -1.282581
v 7.000000 4.313554 -1.282581
v 7.000000 4.313554 -0.384086
v 7.000000 2.659028 -2.050753
v 7.000000 2.659028 -2.949247
v 7.000000 4.313554 -2.949247
v 7.000000 4.313554 -2.050753
v 7.000000 2.659028 -3.717419
v 7.000000 2.659028 -4.615914
v 7.000000 4.313554 -4.615914
v 7.000000 4.313554 -3.717419
v 7.205954 2.659028 -0.384086
v 7.205954 2.659028 -1.282581
v 7.205954 4.313554 -0.384086
v 7.205954 4.313554 -1.282581
v 7.205954 2.659028 -2.050753
v 7.205954 2.659028 -2.949247
v 7.205954 4.313554 -2.050753
v 7.205954 4.313554 -2.949247
v 7.205954 2.659028 -3.717419
v 7.205954 2.659028 -4.615914
v 7.205954 4.313554 -3.717419
v 7.205954 4.313554 -4.615914
v 7.000000 3.586184 0.000000
v 7.000000 3.386398 0.000000
v 7.000000 3.386398 -1.666667
v 7.000000 3.586184 -1.666667
v 10.000000 3.386398 0.000000
v 10.000000 3.586184 0.000000
v 10.000000 3.586184 -1.666667
v 10.000000 3.386398 -1.666667
v 10.000000 3.386398 -3.333333
v 10.000000 3.586184 -3.333333
v 10.000000 3.586184 -5.000000
v 10.000000 3.386398 -5.000000
v 7.000000 3.386398 -3.333333
v 7.000000 3.586184 -3.333333
v 7.000000 3.586184 -5.000000
v 7.000000 3.386398 -5.000000
v 7.000000 3.554511 -0.384086
v 7.000000 3.418071 -0.384086
v 7.000000 3.418071 -1.282581
v 7.000000 3.554511 -1.282581
v 7.000000 3.418071 -2.050753
v 7.000000 3.554511 -2.050753
v 7.000000 3.418071 -2.949247
v 7.000000 3.554511 -2.949247
v 7.000000 3.418071 -3.717419
v 7.000000 3.554511 -3.717419
v 7.000000 3.554511 -4.615914
v 7.000000 3.418071 -4.615914
v 7.205954 3.554511 -0.384086
v 7.205954 3.418071 -0.384086
v 7.205954 3.418071 -1.282581
v 7.205954 3.554511 -1.282581
v 7.205954 3.418071 -2.050753
v 7.205954 3.554511 -2.050753
v 7.205954 3.418071 -2.949247
v 7.205954 3.554511 -2.949247
v 7.205954 3.418071 -3.717419
v 7.205954 3.554511 -3.717419
v 7.205954 3.554511 -4.615914
v 7.205954 3.418071 -4.615914
v 7.000000 0.236515 -3.569848
v 7.000000 0.236515 -4.763485
v 7.000000 1.763485 -4.763485
v 7.000000 1.763485 -3.569848
v 7.000000 0.236515 -0.236515
v 7.000000 0.236515 -1.430152
v 7.000000 1.763485 -1.430152
v 7.000000 1.763485 -0.236515
v 7.180708 0.236515 -3.569848
v 7.180708 0.236515 -4.763485
v 7.180708 1.763485 -3.569848
v 7.180708 1.763485 -4.763485
v 7.180708 0.236515 -0.236515
v 7.180708 0.236515 -1.430152
v 7.180708 1.763485 -0.236515
v 7.180708 1.763485 -1.430152
v 10.000000 0.000000 5.000000
v 10.000000 0.000000 0.000000
v 7.000000 0.000000 5.000000
v 7.000000 0.000000 0.000000
v 10.000000 2.000000 5.000000
v 10.000000 2.000000 0.000000
v 7.000000 2.000000 5.000000
v 7.000000 2.000000 0.000000
v 10.000000 0.000000 3.333333
v 10.000000 0.000000 1.666667
v 7.000000 0.000000 3.333333
v 7.000000 0.000000 1.666667
v 10.000000 2.000000 3.333333
v 10.000000 2.000000 1.666667
v 7.000000 2.000000 3.333333
v 7.000000 2.000000 1.666667
v 7.000000 0.049198 3.068241
v 7.000000 0.049198 1.931759
v 7.000000 1.519013 1.931759
v 7.000000 1.519013 3.068241
v 7.211172 0.049198 3.068241
v 7.211172 0.049198 1.931759
v 7.211172 1.519013 3.068241
v 7.211172 1.519013 1.931759
v 10.000000 2.274942 1.666667
v 10.000000 2.274942 0.000000
v 7.000000 2.274942 1.666667
v 7.000000 2.274942 0.000000
v 7.000000 2.274942 5.000000
v 10.000000 2.274942 5.000000
v 10.000000 2.274942 3.333333
v 7.000000 2.274942 3.333333
v 10.000000 4.697640 1.666667
v 10.000000 4.697640 0.000000
v 7.000000 4.697640 1.666667
v 7.000000 4.697640 0.000000
v 7.000000 4.697640 5.000000
v 10.000000 4.697640 5.000000
v 10.000000 4.697640 3.333333
v 7.000000 4.697640 3.333333
v 10.000000 4.997988 1.666667
v 10.000000 4.997988 0.000000
v 7.000000 4.997988 1.666667
v 7.000000 4.997988 0.000000
v 7.000000 4.997988 5.000000
v 10.000000 4.997988 5.000000
v 10.000000 4.997988 3.333333
v 7.000000 4.997988 3.333333
v 7.000000 2.659028 4.615914
v 7.000000 2.659028 3.717419
v 7.000000 4.313554 3.717419
v 7.000000 4.313554 4.615914
v 7.000000 2.659028 2.949247
v 7.000000 2.659028 2.050753
v 7.000000 4.313554 2.050753
v 7.000000 4.313554 2.949247
v 7.000000 2.659028 1.282581
v 7.000000 2.659028 0.384086
v 7.000000 4.313554 0.384086
v 7.000000 4.313554 1.282581
v 7.205954 2.659028 4.615914
v 7.205954 2.659028 3.717419
v 7.205954 4.313554 4.615914
v 7.205954 4.313554 3.717419
v 7.205954 2.659028 2.949247
v 7.205954 2.659028 2.050753
v 7.205954 4.313554 2.949247
v 7.205954 4.313554 2.050753
v 7.205954 2.659028 1.282581
v 7.205954 2.659028 0.384086
v 7.205954 4.313554 1.282581
v 7.205954 4.313554 0.384086
v 7.000000 3.586184 5.000000
v 7.000000 3.386398 5.000000
v 7.000000 3.386398 3.333333
v 7.000000 3.586184 3.333333
v 10.000000 3.386398 5.000000
v 10.000000 3.586184 5.000000
v 10.000000 3.586184 3.333333
v 10.000000 3.386398 3.333333
v 10.000000 3.386398 1.666667
v 10.000000 3.586184 1.666667
v 10.000000 3.586184 0.000000
v 10.000000 3.386398 0.000000
v 7.000000 3.386398 1.666667
v 7.000000 3.586184 1.666667
v 7.000000 3.586184 0.000000
v 7.000000 3.386398 0.000000
v 7.000000 3.554511 4.615914
v 7.000000 3.418071 4.615914
v 7.000000 3.418071 3.717419
v 7.000000 3.554511 3.717419
v 7.000000 3.418071 2.949247
v 7.000000 3.554511 2.949247
v 7.000000 3.418071 2.050753
v 7.000000 3.554511 2.050753
v 7.000000 3.418071 1.282581
v 7.000000 3.554511 1.282581
v 7.000000 3.554511 0.384086
v 7.000000 3.418071 0.384086
v 7.205954 3.554511 4.615914
v 7.205954 3.418071 4.615914
v 7.205954 3.418071 3.717419
v 7.205954 3.554511 3.717419
v 7.205954 3.418071 2.949247
v 7.205954 3.554511 2.949247
v 7.205954 3.418071 2.050753
v 7.205954 3.554511 2.050753
v 7.205954 3.418071 1.282581
v 7.205954 3.554511 1.282581
v 7.205954 3.554511 0.384086
v 7.205954 3.418071 0.384086
v 7.000000 0.236515 1.430152
v 7.000000 0.236515 0.236515
v 7.000000 1.763485 0.236515
v 7.000000 1.763485 1.430152
v 7.000000 0.236515 4.763485
v 7.000000 0.236515 3.569848
v 7.000000 1.763485 3.569848
v 7.000000 1.763485 4.763485
v 7.180708 0.236515 1.430152
v 7.180708 0.236515 0.236515
v 7.180708 1.763485 1.430152
v 7.180708 1.763485 0.236515
v 7.180708 0.236515 4.763485
v 7.180708 0.236515 3.569848
v 7.180708 1.763485 4.763485
v 7.180708 1.763485 3.569848
v 7.000000 2.000000 -5.000000
v 7.000000 2.000000 0.000000
v 7.180708 0.236515 -3.569848
v 7.180708 0.236515 -4.763485
v 7.180708 1.763485 -3.569848
v 7.180708 1.763485 -4.763485
v 6.000000 1.700000 -5.000000
v 6.000000 1.700000 0.000000
v 6.000000 1.500000 -5.000000
v 6.000000 1.500000 0.000000
v 7.000000 2.000000 -0.312500
v 7.000000 2.000000 -0.625000
v 7.000000 2.000000 -0.937500
v 7.000000 2.000000 -1.250000
v 7.000000 2.000000 -1.562500
v 7.000000 2.000000 -1.875000
v 7.000000 2.000000 -2.187500
v 7.000000 2.000000 -2.500000
v 7.000000 2.000000 -2.812500
v 7.000000 2.000000 -3.125000
v 7.000000 2.000000 -3.437500
v 7.000000 2.000000 -3.750000
v 7.000000 2.000000 -4.062500
v 7.000000 2.000000 -4.375000
v 7.000000 2.000000 -4.687500
v 6.000000 1.700000 -0.312500
v 6.000000 1.700000 -0.625000
v 6.000000 1.700000 -0.937500
v 6.000000 1.700000 -1.250000
v 6.000000 1.700000 -1.562500
v 6.000000 1.700000 -1.875000
v 6.000000 1.700000 -2.187500
v 6.000000 1.700000 -2.500000
v 6.000000 1.700000 -2.812500
v 6.000000 1.700000 -3.125000
v 6.000000 1.700000 -3.437500
v 6.000000 1.700000 -3.750000
v 6.000000 1.700000 -4.062500
v 6.000000 1.700000 -4.375000
v 6.000000 1.700000 -4.687500
v 6.000000 1.500000 -0.312500
v 6.000000 1.500000 -0.625000
v 6.000000 1.500000 -0.937500
v 6.000000 1.500000 -1.250000
v 6.000000 1.500000 -1.562500
v 6.000000 1.500000 -1.875000
v 6.000000 1.500000 -2.187500
v 6.000000 1.500000 -2.500000
v 6.000000 1.500000 -2.812500
v 6.000000 1.500000 -3.125000
v 6.000000 1.500000 -3.437500
v 6.000000 1.500000 -3.750000
v 6.000000 1.500000 -4.062500
v 6.000000 1.500000 -4.375000
v 6.000000 1.500000 -4.687500
v -8.880699 4.997988 2.833807
v -8.119301 4.997988 2.833807
v -8.119301 4.997988 2.166193
v -8.880699 4.997988 2.166193
v -8.119301 5.635486 2.833807
v -8.880699 5.635486 2.833807
v -8.880699 5.635486 2.166193
v -8.119301 5.635486 2.166193
v -8.119301 5.853160 2.833807
v -8.880699 5.853160 2.833807
v -8.880699 5.853160 2.166193
v -8.119301 5.853160 2.166193
v -7.979574 5.635486 2.973534
v -9.020426 5.635486 2.973534
v -9.020426 5.635486 2.026466
v -7.979574 5.635486 2.026466
v -7.979574 5.853160 2.973534
v -9.020426 5.853160 2.973534
v -9.020426 5.853160 2.026466
v -7.979574 5.853160 2.026466
v -8.880699 4.997988 -2.166193
v -8.119301 4.997988 -2.166193
v -8.119301 4.997988 -2.833807
v -8.880699 4.997988 -2.833807
v -8.119301 5.635486 -2.166193
v -8.880699 5.635486 -2.166193
v -8.880699 5.635486 -2.833807
v -8.119301 5.635486 -2.833807
v -8.119301 5.853160 -2.166193
v -8.880699 5.853160 -2.166193
v -8.880699 5.853160 -2.833807
v -8.119301 5.853160 -2.833807
v -7.979574 5.635486 -2.026466
v -9.020426 5.635486 -2.026466
v -9.020426 5.635486 -2.973534
v -7.979574 5.635486 -2.973534
v -7.979574 5.853160 -2.026466
v -9.020426 5.853160 -2.026466
v -9.020426 5.853160 -2.973534
v -7.979574 5.853160 -2.973534
v 8.119301 4.997988 2.833807
v 8.880699 4.997988 2.833807
v 8.880699 4.997988 2.166193
v 8.119301 4.997988 2.166193
v 8.880699 5.635486 2.833807
v 8.119301 5.635486 2.833807
v 8.119301 5.635486 2.166193
v 8.880699 5.635486 2.166193
v 8.880699 5.853160 2.833807
v 8.119301 5.853160 2.833807
v 8.119301 5.853160 2.166193
v 8.880699 5.853160 2.166193
v 9.020426 5.635486 2.973534
v 7.979574 5.635486 2.973534
v 7.979574 5.635486 2.026466
v 9.020426 5.635486 2.026466
v 9.020426 5.853160 2.973534
v 7.979574 5.853160 2.973534
v 7.979574 5.853160 2.026466
v 9.020426 5.853160 2.026466
v 8.119301 4.997988 -2.166193
v 8.880699 4.997988 -2.166193
v 8.880699 4.997988 -2.833807
v 8.119301 4.997988 -2.833807
v 8.880699 5.635486 -2.166193
v 8.119301 5.635486 -2.166193
v 8.119301 5.635486 -2.833807
v 8.880699 5.635486 -2.833807
v 8.880699 5.853160 -2.166193
v 8.119301 5.853160 -2.166193
v 8.119301 5.853160 -2.833807
v 8.880699 5.853160 -2.833807
v 9.020426 5.635486 -2.026466
v 7.979574 5.635486 -2.026466
v 7.979574 5.635486 -2.973534
v 9.020426 5.635486 -2.973534
v 9.020426 5.853160 -2.026466
v 7.979574 5.853160 -2.026466
v 7.979574 5.853160 -2.973534
v 9.020426 5.853160 -2.973534
vn -0.0000 -1.0000 -0.0000
vn -1.0000 -0.0000 -0.0000
vn -0.0000 -0.0000 1.0000
vn -0.0000 -0.0000 -1.0000
vn -0.0000 1.0000 -0.0000
vn 1.0000 -0.0000 -0.0000
vn -0.2873 0.9578 -0.0000
vt 0.609842 0.500000
vt 0.348819 0.103150
vt 0.274739 0.558278
vt 0.290910 0.588287
vt 0.297343 0.312500
vt 0.230709 0.351181
vt 0.297343 0.687500
vt 0.344095 0.450394
vt 0.368468 0.568511
vt 0.632164 0.437500
vt 0.274739 0.558277
vt 0.631684 0.463287
vt 0.107874 0.400787
vt 0.365656 0.607884
vt 0.107874 0.400787
vt 0.107874 0.400787
vt 0.365656 0.607884
vt 0.365656 0.607884
vt 0.365656 0.607884
vt 0.440093 0.508671
vt 0.366593 0.568511
vt 0.440093 0.508671
vt 0.773053 0.400787
vt 0.370343 0.607884
vt 0.103150 0.301575
vt 0.991549 0.500000
vt 0.344095 0.450394
vt 0.272666 0.262894
vt 0.344095 0.450394
vt 0.344095 0.450394
s 0
usemtl Material.001
f 238/10/36 248/10/36 246/10/36
f 250/11/37 262/11/37 242/11/37
f 239/12/38 241/12/38 237/12/38
f 237/12/37 249/12/37 245/12/37
f 238/12/39 244/12/39 240/12/39
f 351/13/38 358/13/38 350/13/38
f 354/13/40 361/13/40 353/13/40
f 254/14/40 257/14/40 253/14/40
f 246/12/37 242/12/37 238/12/37
f 245/12/37 250/12/37 246/12/37
f 243/11/38 266/11/38 241/11/38
f 249/11/37 261/11/37 250/11/37
f 245/10/36 239/10/36 237/10/36
f 246/10/36 247/10/36 245/10/36
f 248/10/41 253/10/41 247/10/41
f 248/12/41 255/12/41 254/12/41
f 251/12/41 255/12/41 252/12/41
f 247/12/41 256/12/41 251/12/41
f 258/15/41 259/15/41 257/15/41
f 256/14/36 260/14/36 255/14/36
f 253/14/39 259/14/39 256/14/39
f 255/14/38 258/14/38 254/14/38
f 309/12/38 274/12/38 314/12/38
f 314/12/37 275/12/37 315/12/37
f 285/16/39 338/16/39 326/16/39
f 251/11/41 265/11/41 243/11/41
f 242/11/39 264/11/39 244/11/39
f 241/11/37 267/11/37 249/11/37
f 244/11/41 263/11/41 252/11/41
f 252/11/41 268/11/41 251/11/41
f 274/17/37 283/17/37 275/17/37
f 276/17/41 281/17/41 273/17/41
f 272/17/41 279/17/41 271/17/41
f 318/12/37 270/12/37 319/12/37
f 295/16/38 347/16/38 335/16/38
f 315/12/37 269/12/37 318/12/37
f 319/12/39 272/12/39 323/12/39
f 292/16/36 304/16/36 291/16/36
f 279/18/40 278/18/40 277/18/40
f 281/18/40 283/18/40 282/18/40
f 284/18/40 277/18/40 283/18/40
f 273/17/38 282/17/38 274/17/38
f 269/17/37 278/17/37 270/17/37
f 271/17/41 284/17/41 276/17/41
f 275/17/37 277/17/37 269/17/37
f 270/17/39 280/17/39 272/17/39
f 268/12/41 285/12/41 265/12/41
f 312/12/41 287/12/41 328/12/41
f 276/12/41 288/12/41 287/12/41
f 310/12/41 285/12/41 326/12/41
f 268/12/41 290/12/41 289/12/41
f 322/12/41 291/12/41 332/12/41
f 276/12/41 291/12/41 271/12/41
f 311/12/41 289/12/41 329/12/41
f 263/12/41 294/12/41 293/12/41
f 323/12/41 295/12/41 335/12/41
f 271/12/41 295/12/41 272/12/41
f 321/12/41 293/12/41 333/12/41
f 340/19/41 299/19/41 337/19/41
f 344/19/41 303/19/41 342/19/41
f 346/19/41 308/19/41 307/19/41
f 290/16/40 301/16/40 289/16/40
f 296/16/36 308/16/36 295/16/36
f 287/16/38 340/16/38 328/16/38
f 289/16/39 341/16/39 329/16/39
f 294/16/40 305/16/40 293/16/40
f 288/16/36 300/16/36 287/16/36
f 291/16/38 344/16/38 332/16/38
f 293/16/39 345/16/39 333/16/39
f 286/16/40 297/16/40 285/16/40
f 334/16/39 307/16/39 296/16/39
f 333/16/39 346/16/39 334/16/39
f 331/16/38 302/16/38 290/16/38
f 332/16/38 343/16/38 331/16/38
f 330/16/39 303/16/39 292/16/39
f 329/16/39 342/16/39 330/16/39
f 327/16/38 298/16/38 286/16/38
f 328/16/38 339/16/38 327/16/38
f 306/19/41 345/19/41 305/19/41
f 348/16/41 346/16/41 345/16/41
f 302/19/41 341/19/41 301/19/41
f 343/16/41 342/16/41 341/16/41
f 298/19/41 338/19/41 297/19/41
f 339/16/41 337/16/41 338/16/41
f 322/12/41 296/12/41 271/12/41
f 321/12/41 334/12/41 322/12/41
f 324/12/41 294/12/41 264/12/41
f 324/12/41 335/12/41 336/12/41
f 312/12/41 292/12/41 276/12/41
f 311/12/41 330/12/41 312/12/41
f 321/12/41 290/12/41 263/12/41
f 321/12/41 332/12/41 331/12/41
f 309/12/41 288/12/41 273/12/41
f 309/12/41 326/12/41 325/12/41
f 311/12/41 286/12/41 268/12/41
f 312/12/41 327/12/41 311/12/41
f 262/12/39 324/12/39 264/12/39
f 320/12/39 323/12/39 324/12/39
f 267/12/37 317/12/37 261/12/37
f 316/12/37 318/12/37 317/12/37
f 336/16/38 306/16/38 294/16/38
f 335/16/38 348/16/38 336/16/38
f 261/12/37 320/12/37 262/12/37
f 317/12/37 319/12/37 320/12/37
f 325/16/39 299/16/39 288/16/39
f 326/16/39 337/16/39 325/16/39
f 266/12/37 316/12/37 267/12/37
f 313/12/37 315/12/37 316/12/37
f 265/12/38 313/12/38 266/12/38
f 310/12/38 314/12/38 313/12/38
f 240/12/41 349/20/41 248/12/41
f 244/12/41 350/12/41 240/12/41
f 252/12/41 351/12/41 244/12/41
f 248/12/41 352/12/41 252/12/41
f 247/12/41 353/20/41 239/12/41
f 251/12/41 354/20/41 247/12/41
f 243/12/41 355/12/41 251/12/41
f 239/12/41 356/12/41 243/12/41
f 358/21/41 359/21/41 357/21/41
f 362/21/41 363/21/41 361/21/41
f 356/13/36 364/13/36 355/13/36
f 350/13/40 357/13/40 349/13/40
f 353/13/39 363/13/39 356/13/39
f 352/13/36 360/13/36 351/13/36
f 349/13/39 359/13/39 352/13/39
f 355/13/38 362/13/38 354/13/38
f 366/10/36 376/10/36 374/10/36
f 378/11/37 390/11/37 370/11/37
f 367/22/38 369/22/38 365/22/38
f 365/22/37 377/22/37 373/22/37
f 366/22/39 372/22/39 368/22/39
f 479/13/38 486/13/38 478/13/38
f 482/13/40 489/13/40 481/13/40
f 382/14/40 385/14/40 381/14/40
f 374/22/37 370/22/37 366/22/37
f 373/22/37 378/22/37 374/22/37
f 371/11/38 394/11/38 369/11/38
f 377/11/37 389/11/37 378/11/37
f 373/10/36 367/10/36 365/10/36
f 374/10/36 375/10/36 373/10/36
f 376/10/41 381/10/41 375/10/41
f 376/22/41 383/22/41 382/22/41
f 380/22/41 384/22/41 383/22/41
f 375/22/41 384/22/41 379/22/41
f 386/15/41 387/15/41 385/15/41
f 384/14/36 388/14/36 383/14/36
f 381/14/39 387/14/39 384/14/39
f 383/14/38 386/14/38 382/14/38
f 437/22/38 402/22/38 442/22/38
f 442/22/37 403/22/37 443/22/37
f 413/16/39 466/16/39 454/16/39
f 379/11/41 393/11/41 371/11/41
f 370/11/39 392/11/39 372/11/39
f 369/11/37 395/11/37 377/11/37
f 372/11/41 391/11/41 380/11/41
f 380/11/41 396/11/41 379/11/41
f 402/17/37 411/17/37 403/17/37
f 404/17/41 409/17/41 401/17/41
f 400/17/41 407/17/41 399/17/41
f 446/22/37 398/22/37 447/22/37
f 423/16/38 475/16/38 463/16/38
f 443/22/37 397/22/37 446/22/37
f 447/22/39 400/22/39 451/22/39
f 420/16/36 432/16/36 419/16/36
f 407/23/40 406/23/40 405/23/40
f 409/23/40 411/23/40 410/23/40
f 401/17/38 410/17/38 402/17/38
f 397/17/37 406/17/37 398/17/37
f 399/17/41 412/17/41 404/17/41
f 403/17/37 405/17/37 397/17/37
f 398/17/39 408/17/39 400/17/39
f 396/22/41 413/22/41 393/22/41
f 440/22/41 415/22/41 456/22/41
f 404/22/41 416/22/41 415/22/41
f 438/22/41 413/22/41 454/22/41
f 391/22/41 417/22/41 396/22/41
f 450/22/41 419/22/41 460/22/41
f 404/22/41 419/22/41 399/22/41
f 439/22/41 417/22/41 457/22/41
f 391/22/41 422/22/41 421/22/41
f 451/22/41 423/22/41 463/22/41
f 399/22/41 423/22/41 400/22/41
f 449/22/41 421/22/41 461/22/41
f 468/19/41 427/19/41 465/19/41
f 472/19/41 431/19/41 470/19/41
f 475/19/41 435/19/41 474/19/41
f 418/16/40 429/16/40 417/16/40
f 424/16/36 436/16/36 423/16/36
f 415/16/38 468/16/38 456/16/38
f 417/16/39 469/16/39 457/16/39
f 422/16/40 433/16/40 421/16/40
f 416/16/36 428/16/36 415/16/36
f 419/16/38 472/16/38 460/16/38
f 421/16/39 473/16/39 461/16/39
f 414/16/40 425/16/40 413/16/40
f 462/16/39 435/16/39 424/16/39
f 461/16/39 474/16/39 462/16/39
f 459/16/38 430/16/38 418/16/38
f 460/16/38 471/16/38 459/16/38
f 458/16/39 431/16/39 420/16/39
f 457/16/39 470/16/39 458/16/39
f 455/16/38 426/16/38 414/16/38
f 456/16/38 467/16/38 455/16/38
f 434/19/41 473/19/41 433/19/41
f 476/16/41 474/16/41 473/16/41
f 430/19/41 469/19/41 429/19/41
f 471/16/41 470/16/41 469/16/41
f 426/19/41 466/19/41 425/19/41
f 467/16/41 465/16/41 466/16/41
f 450/22/41 424/22/41 399/22/41
f 449/22/41 462/22/41 450/22/41
f 452/22/41 422/22/41 392/22/41
f 451/22/41 464/22/41 452/22/41
f 440/22/41 420/22/41 404/22/41
f 439/22/41 458/22/41 440/22/41
f 449/22/41 418/22/41 391/22/41
f 450/22/41 459/22/41 449/22/41
f 437/22/41 416/22/41 401/22/41
f 437/22/41 454/22/41 453/22/41
f 439/22/41 414/22/41 396/22/41
f 440/22/41 455/22/41 439/22/41
f 390/22/39 452/22/39 392/22/39
f 448/22/39 451/22/39 452/22/39
f 395/22/37 445/22/37 389/22/37
f 444/22/37 446/22/37 445/22/37
f 464/16/38 434/16/38 422/16/38
f 463/16/38 476/16/38 464/16/38
f 389/22/37 448/22/37 390/22/37
f 445/22/37 447/22/37 448/22/37
f 453/16/39 427/16/39 416/16/39
f 454/16/39 465/16/39 453/16/39
f 394/22/37 444/22/37 395/22/37
f 441/22/37 443/22/37 444/22/37
f 393/22/38 441/22/38 394/22/38
f 438/22/38 442/22/38 441/22/38
f 368/22/41 477/24/41 376/22/41
f 372/22/41 478/25/41 368/22/41
f 380/22/41 479/22/41 372/22/41
f 376/22/41 480/22/41 380/22/41
f 375/22/41 481/24/41 367/22/41
f 379/22/41 482/24/41 375/22/41
f 371/22/41 483/22/41 379/22/41
f 367/22/41 484/22/41 371/22/41
f 486/21/41 487/21/41 485/21/41
f 490/21/41 491/21/41 489/21/41
f 484/13/36 492/13/36 483/13/36
f 478/13/40 485/13/40 477/13/40
f 481/13/39 491/13/39 484/13/39
f 480/13/36 488/13/36 479/13/36
f 477/13/39 487/13/39 480/13/39
f 483/13/38 490/13/38 482/13/38
f 412/23/40 493/26/40 411/23/40
f 407/23/40 494/27/40 412/23/40
f 405/23/40 495/28/40 407/23/40
f 405/23/40 493/26/40 496/23/40
f 498/10/40 508/10/40 506/10/40
f 510/11/37 522/11/37 502/11/37
f 499/29/39 501/29/39 497/29/39
f 497/29/37 509/29/37 505/29/37
f 498/29/38 504/29/38 500/29/38
f 611/13/39 618/13/39 610/13/39
f 614/13/36 621/13/36 613/13/36
f 514/14/36 517/14/36 513/14/36
f 506/29/37 502/29/37 498/29/37
f 505/29/37 510/29/37 506/29/37
f 503/11/39 526/11/39 501/11/39
f 509/11/37 521/11/37 510/11/37
f 505/10/40 499/10/40 497/10/40
f 506/10/40 507/10/40 505/10/40
f 508/10/41 513/10/41 507/10/41
f 508/29/41 515/29/41 514/29/41
f 511/29/41 515/29/41 512/29/41
f 507/29/41 516/29/41 511/29/41
f 518/15/41 519/15/41 517/15/41
f 516/14/40 520/14/40 515/14/40
f 513/14/38 519/14/38 516/14/38
f 515/14/39 518/14/39 514/14/39
f 569/29/39 534/29/39 574/29/39
f 574/29/37 535/29/37 575/29/37
f 545/16/38 598/16/38 586/16/38
f 511/11/41 525/11/41 503/11/41
f 502/11/38 524/11/38 504/11/38
f 501/11/37 527/11/37 509/11/37
f 504/11/41 523/11/41 512/11/41
f 512/11/41 528/11/41 511/11/41
f 534/17/37 543/17/37 535/17/37
f 536/17/41 541/17/41 533/17/41
f 532/17/41 539/17/41 531/17/41
f 578/29/37 530/29/37 579/29/37
f 555/16/39 607/16/39 595/16/39
f 575/29/37 529/29/37 578/29/37
f 579/29/38 532/29/38 583/29/38
f 552/16/40 564/16/40 551/16/40
f 539/17/36 538/17/36 537/17/36
f 541/30/36 543/30/36 542/30/36
f 544/30/36 537/30/36 543/30/36
f 533/17/39 542/17/39 534/17/39
f 529/17/37 538/17/37 530/17/37
f 531/17/41 544/17/41 536/17/41
f 535/17/37 537/17/37 529/17/37
f 530/17/38 540/17/38 532/17/38
f 528/29/41 545/29/41 525/29/41
f 572/29/41 547/29/41 588/29/41
f 536/29/41 548/29/41 547/29/41
f 570/29/41 545/29/41 586/29/41
f 528/29/41 550/29/41 549/29/41
f 582/29/41 551/29/41 592/29/41
f 536/29/41 551/29/41 531/29/41
f 571/29/41 549/29/41 589/29/41
f 523/29/41 554/29/41 553/29/41
f 583/29/41 555/29/41 595/29/41
f 531/29/41 555/29/41 532/29/41
f 581/29/41 553/29/41 593/29/41
f 600/19/41 559/19/41 597/19/41
f 604/19/41 563/19/41 602/19/41
f 606/19/41 568/19/41 567/19/41
f 550/16/36 561/16/36 549/16/36
f 556/16/40 568/16/40 555/16/40
f 547/16/39 600/16/39 588/16/39
f 549/16/38 601/16/38 589/16/38
f 554/16/36 565/16/36 553/16/36
f 548/16/40 560/16/40 547/16/40
f 551/16/39 604/16/39 592/16/39
f 553/16/38 605/16/38 593/16/38
f 546/16/36 557/16/36 545/16/36
f 594/16/38 567/16/38 556/16/38
f 593/16/38 606/16/38 594/16/38
f 591/16/39 562/16/39 550/16/39
f 592/16/39 603/16/39 591/16/39
f 590/16/38 563/16/38 552/16/38
f 589/16/38 602/16/38 590/16/38
f 587/16/39 558/16/39 546/16/39
f 588/16/39 599/16/39 587/16/39
f 566/19/41 605/19/41 565/19/41
f 608/16/41 606/16/41 605/16/41
f 562/19/41 601/19/41 561/19/41
f 603/16/41 602/16/41 601/16/41
f 558/19/41 598/19/41 557/19/41
f 599/16/41 597/16/41 598/16/41
f 582/29/41 556/29/41 531/29/41
f 581/29/41 594/29/41 582/29/41
f 584/29/41 554/29/41 524/29/41
f 584/29/41 595/29/41 596/29/41
f 572/29/41 552/29/41 536/29/41
f 571/29/41 590/29/41 572/29/41
f 581/29/41 550/29/41 523/29/41
f 581/29/41 592/29/41 591/29/41
f 569/29/41 548/29/41 533/29/41
f 569/29/41 586/29/41 585/29/41
f 571/29/41 546/29/41 528/29/41
f 572/29/41 587/29/41 571/29/41
f 522/29/38 584/29/38 524/29/38
f 580/29/38 583/29/38 584/29/38
f 527/29/37 577/29/37 521/29/37
f 576/29/37 578/29/37 577/29/37
f 596/16/39 566/16/39 554/16/39
f 595/16/39 608/16/39 596/16/39
f 521/29/37 580/29/37 522/29/37
f 577/29/37 579/29/37 580/29/37
f 585/16/38 559/16/38 548/16/38
f 586/16/38 597/16/38 585/16/38
f 526/29/37 576/29/37 527/29/37
f 573/29/37 575/29/37 576/29/37
f 525/29/39 573/29/39 526/29/39
f 570/29/39 574/29/39 573/29/39
f 500/29/41 609/31/41 508/29/41
f 504/29/41 610/29/41 500/29/41
f 512/29/41 611/29/41 504/29/41
f 508/29/41 612/29/41 512/29/41
f 507/29/41 613/31/41 499/29/41
f 511/29/41 614/31/41 507/29/41
f 503/29/41 615/29/41 511/29/41
f 499/29/41 616/29/41 503/29/41
f 622/21/41 623/21/41 621/21/41
f 616/13/40 624/13/40 615/13/40
f 610/13/36 617/13/36 609/13/36
f 613/13/38 623/13/38 616/13/38
f 612/13/40 620/13/40 611/13/40
f 609/13/38 619/13/38 612/13/38
f 615/13/39 622/13/39 614/13/39
f 626/10/40 636/10/40 634/10/40
f 638/11/37 650/11/37 630/11/37
f 627/32/39 629/32/39 625/32/39
f 625/32/37 637/32/37 633/32/37
f 626/32/38 632/32/38 628/32/38
f 739/13/39 746/13/39 738/13/39
f 742/13/36 749/13/36 741/13/36
f 642/14/36 645/14/36 641/14/36
f 634/32/37 630/32/37 626/32/37
f 633/32/37 638/32/37 634/32/37
f 631/11/39 654/11/39 629/11/39
f 637/11/37 649/11/37 638/11/37
f 633/10/40 627/10/40 625/10/40
f 634/10/40 635/10/40 633/10/40
f 636/10/41 641/10/41 635/10/41
f 636/32/41 643/32/41 642/32/41
f 640/32/41 644/32/41 643/32/41
f 635/32/41 644/32/41 639/32/41
f 646/15/41 647/15/41 645/15/41
f 644/14/40 648/14/40 643/14/40
f 641/14/38 647/14/38 644/14/38
f 643/14/39 646/14/39 642/14/39
f 697/32/39 662/32/39 702/32/39
f 702/32/37 663/32/37 703/32/37
f 673/16/38 726/16/38 714/16/38
f 639/11/41 653/11/41 631/11/41
f 630/11/38 652/11/38 632/11/38
f 629/11/37 655/11/37 637/11/37
f 632/11/41 651/11/41 640/11/41
f 640/11/41 656/11/41 639/11/41
f 662/17/37 671/17/37 663/17/37
f 664/17/41 669/17/41 661/17/41
f 660/17/41 667/17/41 659/17/41
f 706/32/37 658/32/37 707/32/37
f 683/16/39 735/16/39 723/16/39
f 703/32/37 657/32/37 706/32/37
f 707/32/38 660/32/38 711/32/38
f 680/16/40 692/16/40 679/16/40
f 667/33/36 666/33/36 665/33/36
f 669/33/36 671/33/36 670/33/36
f 672/33/36 665/33/36 671/33/36
f 661/17/39 670/17/39 662/17/39
f 657/17/37 666/17/37 658/17/37
f 659/17/41 672/17/41 664/17/41
f 663/17/37 665/17/37 657/17/37
f 658/17/38 668/17/38 660/17/38
f 656/32/41 673/32/41 653/32/41
f 700/32/41 675/32/41 716/32/41
f 664/32/41 676/32/41 675/32/41
f 698/32/41 673/32/41 714/32/41
f 651/32/41 677/32/41 656/32/41
f 710/32/41 679/32/41 720/32/41
f 664/32/41 679/32/41 659/32/41
f 699/32/41 677/32/41 717/32/41
f 651/32/41 682/32/41 681/32/41
f 711/32/41 683/32/41 723/32/41
f 659/32/41 683/32/41 660/32/41
f 709/32/41 681/32/41 721/32/41
f 728/19/41 687/19/41 725/19/41
f 732/19/41 691/19/41 730/19/41
f 735/19/41 695/19/41 734/19/41
f 678/16/36 689/16/36 677/16/36
f 684/16/40 696/16/40 683/16/40
f 675/16/39 728/16/39 716/16/39
f 677/16/38 729/16/38 717/16/38
f 682/16/36 693/16/36 681/16/36
f 676/16/40 688/16/40 675/16/40
f 679/16/39 732/16/39 720/16/39
f 681/16/38 733/16/38 721/16/38
f 674/16/36 685/16/36 673/16/36
f 722/16/38 695/16/38 684/16/38
f 721/16/38 734/16/38 722/16/38
f 719/16/39 690/16/39 678/16/39
f 720/16/39 731/16/39 719/16/39
f 718/16/38 691/16/38 680/16/38
f 717/16/38 730/16/38 718/16/38
f 715/16/39 686/16/39 674/16/39
f 716/16/39 727/16/39 715/16/39
f 694/19/41 733/19/41 693/19/41
f 736/16/41 734/16/41 733/16/41
f 690/19/41 729/19/41 689/19/41
f 731/16/41 730/16/41 729/16/41
f 686/19/41 726/19/41 685/19/41
f 727/16/41 725/16/41 726/16/41
f 710/32/41 684/32/41 659/32/41
f 709/32/41 722/32/41 710/32/41
f 712/32/41 682/32/41 652/32/41
f 711/32/41 724/32/41 712/32/41
f 700/32/41 680/32/41 664/32/41
f 699/32/41 718/32/41 700/32/41
f 709/32/41 678/32/41 651/32/41
f 710/32/41 719/32/41 709/32/41
f 697/32/41 676/32/41 661/32/41
f 697/32/41 714/32/41 713/32/41
f 699/32/41 674/32/41 656/32/41
f 700/32/41 715/32/41 699/32/41
f 650/32/38 712/32/38 652/32/38
f 708/32/38 711/32/38 712/32/38
f 655/32/37 705/32/37 649/32/37
f 704/32/37 706/32/37 705/32/37
f 724/16/39 694/16/39 682/16/39
f 723/16/39 736/16/39 724/16/39
f 649/32/37 708/32/37 650/32/37
f 705/32/37 707/32/37 708/32/37
f 713/16/38 687/16/38 676/16/38
f 714/16/38 725/16/38 713/16/38
f 654/32/37 704/32/37 655/32/37
f 701/32/37 703/32/37 704/32/37
f 653/32/39 701/32/39 654/32/39
f 698/32/39 702/32/39 701/32/39
f 628/32/41 737/32/41 636/32/41
f 632/32/41 738/32/41 628/32/41
f 640/32/41 739/32/41 632/32/41
f 636/32/41 740/32/41 640/32/41
f 635/32/41 741/32/41 627/32/41
f 639/32/41 742/32/41 635/32/41
f 631/32/41 743/32/41 639/32/41
f 627/32/41 744/32/41 631/32/41
f 746/21/41 747/21/41 745/21/41
f 750/21/41 751/21/41 749/21/41
f 744/13/40 752/13/40 743/13/40
f 738/13/36 745/13/36 737/13/36
f 741/13/38 751/13/38 744/13/38
f 740/13/40 748/13/40 739/13/40
f 737/13/38 747/13/38 740/13/38
f 743/13/39 750/13/39 742/13/39
f 756/21/41 757/21/41 755/21/41
f 753/34/42 792/34/42 777/34/42
f 759/34/37 807/34/37 792/34/37
f 778/35/37 762/35/37 760/35/37
f 779/34/37 793/34/37 778/34/37
f 780/35/37 794/35/37 779/35/37
f 781/34/37 795/34/37 780/34/37
f 782/35/37 796/35/37 781/35/37
f 783/34/37 797/34/37 782/34/37
f 784/35/37 798/35/37 783/35/37
f 785/34/37 799/34/37 784/34/37
f 786/35/37 800/35/37 785/35/37
f 787/34/37 801/34/37 786/34/37
f 788/35/37 802/35/37 787/35/37
f 789/34/37 803/34/37 788/34/37
f 790/35/37 804/35/37 789/35/37
f 791/34/37 805/34/37 790/34/37
f 792/35/37 806/35/37 791/35/37
f 763/35/42 760/35/42 754/35/42
f 764/34/42 778/34/42 763/34/42
f 765/35/42 779/35/42 764/35/42
f 766/34/42 780/34/42 765/34/42
f 767/35/42 781/35/42 766/35/42
f 768/34/42 782/34/42 767/34/42
f 769/35/42 783/35/42 768/35/42
f 770/34/42 784/34/42 769/34/42
f 771/35/42 785/35/42 770/35/42
f 772/34/42 786/34/42 771/34/42
f 773/35/42 787/35/42 772/35/42
f 774/34/42 788/34/42 773/34/42
f 775/35/42 789/35/42 774/35/42
f 776/34/42 790/34/42 775/34/42
f 777/35/42 791/35/42 776/35/42
f 811/17/39 815/36/39 810/36/39
f 818/37/40 825/37/40 817/37/40
f 808/38/37 814/17/37 811/17/37
f 810/36/41 812/39/41 809/39/41
f 809/39/38 813/38/38 808/38/38
f 816/37/40 818/37/40 817/37/40
f 812/37/36 821/37/36 813/37/36
f 819/37/40 826/37/40 818/37/40
f 815/37/36 820/37/36 812/37/36
f 823/37/41 824/37/41 820/37/41
f 820/37/38 825/37/38 821/37/38
f 822/37/39 827/37/39 823/37/39
f 821/37/37 826/37/37 822/37/37
f 815/37/36 822/37/36 823/37/36
f 813/37/36 822/37/36 814/37/36
f 816/37/40 827/37/40 819/37/40
f 816/37/40 825/37/40 824/37/40
f 831/17/39 835/36/39 830/36/39
f 838/37/40 845/37/40 837/37/40
f 828/38/37 834/17/37 831/17/37
f 830/36/41 832/39/41 829/39/41
f 829/39/38 833/38/38 828/38/38
f 836/37/40 838/37/40 837/37/40
f 832/37/36 841/37/36 833/37/36
f 839/37/40 846/37/40 838/37/40
f 835/37/36 840/37/36 832/37/36
f 843/37/41 844/37/41 840/37/41
f 840/37/38 845/37/38 841/37/38
f 842/37/39 847/37/39 843/37/39
f 841/37/37 846/37/37 842/37/37
f 835/37/36 842/37/36 843/37/36
f 833/37/36 842/37/36 834/37/36
f 836/37/40 847/37/40 839/37/40
f 836/37/40 845/37/40 844/37/40
f 851/17/39 855/36/39 850/36/39
f 858/37/40 865/37/40 857/37/40
f 848/38/37 854/17/37 851/17/37
f 850/36/41 852/39/41 849/39/41
f 849/39/38 853/38/38 848/38/38
f 856/37/40 858/37/40 857/37/40
f 853/37/36 860/37/36 861/37/36
f 858/37/40 867/37/40 866/37/40
f 855/37/36 860/37/36 852/37/36
f 863/37/41 864/37/41 860/37/41
f 860/37/38 865/37/38 861/37/38
f 862/37/39 867/37/39 863/37/39
f 861/37/37 866/37/37 862/37/37
f 855/37/36 862/37/36 863/37/36
f 853/37/36 862/37/36 854/37/36
f 856/37/40 867/37/40 859/37/40
f 856/37/40 865/37/40 864/37/40
f 871/17/39 875/36/39 870/36/39
f 878/37/40 885/37/40 877/37/40
f 868/38/37 874/17/37 871/17/37
f 870/36/41 872/39/41 869/39/41
f 869/39/38 873/38/38 868/38/38
f 876/37/40 878/37/40 877/37/40
f 873/37/36 880/37/36 881/37/36
f 878/37/40 887/37/40 886/37/40
f 875/37/36 880/37/36 872/37/36
f 883/37/41 884/37/41 880/37/41
f 880/37/38 885/37/38 881/37/38
f 882/37/39 887/37/39 883/37/39
f 881/37/37 886/37/37 882/37/37
f 875/37/36 882/37/36 883/37/36
f 873/37/36 882/37/36 874/37/36
f 876/37/40 887/37/40 879/37/40
f 876/37/40 885/37/40 884/37/40
f 238/10/36 240/10/36 248/10/36
f 250/11/37 261/11/37 262/11/37
f 239/12/38 243/12/38 241/12/38
f 237/12/37 241/12/37 249/12/37
f 238/12/39 242/12/39 244/12/39
f 351/13/38 360/13/38 358/13/38
f 354/13/40 362/13/40 361/13/40
f 254/14/40 258/14/40 257/14/40
f 246/12/37 250/12/37 242/12/37
f 245/12/37 249/12/37 250/12/37
f 243/11/38 265/11/38 266/11/38
f 249/11/37 267/11/37 261/11/37
f 245/10/36 247/10/36 239/10/36
f 246/10/36 248/10/36 247/10/36
f 248/10/41 254/10/41 253/10/41
f 248/12/41 252/12/41 255/12/41
f 251/12/41 256/12/41 255/12/41
f 247/12/41 253/12/41 256/12/41
f 258/15/41 260/15/41 259/15/41
f 256/14/36 259/14/36 260/14/36
f 253/14/39 257/14/39 259/14/39
f 255/14/38 260/14/38 258/14/38
f 309/12/38 273/12/38 274/12/38
f 314/12/37 274/12/37 275/12/37
f 285/16/39 297/16/39 338/16/39
f 251/11/41 268/11/41 265/11/41
f 242/11/39 262/11/39 264/11/39
f 241/11/37 266/11/37 267/11/37
f 244/11/41 264/11/41 263/11/41
f 252/11/41 263/11/41 268/11/41
f 274/17/37 282/17/37 283/17/37
f 276/17/41 284/17/41 281/17/41
f 272/17/41 280/17/41 279/17/41
f 318/12/37 269/12/37 270/12/37
f 295/16/38 308/16/38 347/16/38
f 315/12/37 275/12/37 269/12/37
f 319/12/39 270/12/39 272/12/39
f 292/16/36 303/16/36 304/16/36
f 279/18/40 280/18/40 278/18/40
f 281/18/40 284/18/40 283/18/40
f 284/18/40 279/18/40 277/18/40
f 273/17/38 281/17/38 282/17/38
f 269/17/37 277/17/37 278/17/37
f 271/17/41 279/17/41 284/17/41
f 275/17/37 283/17/37 277/17/37
f 270/17/39 278/17/39 280/17/39
f 268/12/41 286/12/41 285/12/41
f 312/12/41 276/12/41 287/12/41
f 276/12/41 273/12/41 288/12/41
f 310/12/41 265/12/41 285/12/41
f 268/12/41 263/12/41 290/12/41
f 322/12/41 271/12/41 291/12/41
f 276/12/41 292/12/41 291/12/41
f 311/12/41 268/12/41 289/12/41
f 263/12/41 264/12/41 294/12/41
f 323/12/41 272/12/41 295/12/41
f 271/12/41 296/12/41 295/12/41
f 321/12/41 263/12/41 293/12/41
f 340/19/41 300/19/41 299/19/41
f 344/19/41 304/19/41 303/19/41
f 346/19/41 347/19/41 308/19/41
f 290/16/40 302/16/40 301/16/40
f 296/16/36 307/16/36 308/16/36
f 287/16/38 300/16/38 340/16/38
f 289/16/39 301/16/39 341/16/39
f 294/16/40 306/16/40 305/16/40
f 288/16/36 299/16/36 300/16/36
f 291/16/38 304/16/38 344/16/38
f 293/16/39 305/16/39 345/16/39
f 286/16/40 298/16/40 297/16/40
f 334/16/39 346/16/39 307/16/39
f 333/16/39 345/16/39 346/16/39
f 331/16/38 343/16/38 302/16/38
f 332/16/38 344/16/38 343/16/38
f 330/16/39 342/16/39 303/16/39
f 329/16/39 341/16/39 342/16/39
f 327/16/38 339/16/38 298/16/38
f 328/16/38 340/16/38 339/16/38
f 306/19/41 348/19/41 345/19/41
f 348/16/41 347/16/41 346/16/41
f 302/19/41 343/19/41 341/19/41
f 343/16/41 344/16/41 342/16/41
f 298/19/41 339/19/41 338/19/41
f 339/16/41 340/16/41 337/16/41
f 322/12/41 334/12/41 296/12/41
f 321/12/41 333/12/41 334/12/41
f 324/12/41 336/12/41 294/12/41
f 324/12/41 323/12/41 335/12/41
f 312/12/41 330/12/41 292/12/41
f 311/12/41 329/12/41 330/12/41
f 321/12/41 331/12/41 290/12/41
f 321/12/41 322/12/41 332/12/41
f 309/12/41 325/12/41 288/12/41
f 309/12/41 310/12/41 326/12/41
f 311/12/41 327/12/41 286/12/41
f 312/12/41 328/12/41 327/12/41
f 262/12/39 320/12/39 324/12/39
f 320/12/39 319/12/39 323/12/39
f 267/12/37 316/12/37 317/12/37
f 316/12/37 315/12/37 318/12/37
f 336/16/38 348/16/38 306/16/38
f 335/16/38 347/16/38 348/16/38
f 261/12/37 317/12/37 320/12/37
f 317/12/37 318/12/37 319/12/37
f 325/16/39 337/16/39 299/16/39
f 326/16/39 338/16/39 337/16/39
f 266/12/37 313/12/37 316/12/37
f 313/12/37 314/12/37 315/12/37
f 265/12/38 310/12/38 313/12/38
f 310/12/38 309/12/38 314/12/38
f 240/12/41 350/12/41 349/20/41
f 244/12/41 351/12/41 350/12/41
f 252/12/41 352/12/41 351/12/41
f 248/12/41 349/20/41 352/12/41
f 247/12/41 354/20/41 353/20/41
f 251/12/41 355/12/41 354/20/41
f 243/12/41 356/12/41 355/12/41
f 239/12/41 353/20/41 356/12/41
f 358/21/41 360/21/41 359/21/41
f 362/21/41 364/21/41 363/21/41
f 356/13/36 363/13/36 364/13/36
f 350/13/40 358/13/40 357/13/40
f 353/13/39 361/13/39 363/13/39
f 352/13/36 359/13/36 360/13/36
f 349/13/39 357/13/39 359/13/39
f 355/13/38 364/13/38 362/13/38
f 366/10/36 368/10/36 376/10/36
f 378/11/37 389/11/37 390/11/37
f 367/22/38 371/22/38 369/22/38
f 365/22/37 369/22/37 377/22/37
f 366/22/39 370/22/39 372/22/39
f 479/13/38 488/13/38 486/13/38
f 482/13/40 490/13/40 489/13/40
f 382/14/40 386/14/40 385/14/40
f 374/22/37 378/22/37 370/22/37
f 373/22/37 377/22/37 378/22/37
f 371/11/38 393/11/38 394/11/38
f 377/11/37 395/11/37 389/11/37
f 373/10/36 375/10/36 367/10/36
f 374/10/36 376/10/36 375/10/36
f 376/10/41 382/10/41 381/10/41
f 376/22/41 380/22/41 383/22/41
f 380/22/41 379/22/41 384/22/41
f 375/22/41 381/22/41 384/22/41
f 386/15/41 388/15/41 387/15/41
f 384/14/36 387/14/36 388/14/36
f 381/14/39 385/14/39 387/14/39
f 383/14/38 388/14/38 386/14/38
f 437/22/38 401/22/38 402/22/38
f 442/22/37 402/22/37 403/22/37
f 413/16/39 425/16/39 466/16/39
f 379/11/41 396/11/41 393/11/41
f 370/11/39 390/11/39 392/11/39
f 369/11/37 394/11/37 395/11/37
f 372/11/41 392/11/41 391/11/41
f 380/11/41 391/11/41 396/11/41
f 402/17/37 410/17/37 411/17/37
f 404/17/41 412/17/41 409/17/41
f 400/17/41 408/17/41 407/17/41
f 446/22/37 397/22/37 398/22/37
f 423/16/38 436/16/38 475/16/38
f 443/22/37 403/22/37 397/22/37
f 447/22/39 398/22/39 400/22/39
f 420/16/36 431/16/36 432/16/36
f 407/23/40 408/23/40 406/23/40
f 409/23/40 412/23/40 411/23/40
f 401/17/38 409/17/38 410/17/38
f 397/17/37 405/17/37 406/17/37
f 399/17/41 407/17/41 412/17/41
f 403/17/37 411/17/37 405/17/37
f 398/17/39 406/17/39 408/17/39
f 396/22/41 414/22/41 413/22/41
f 440/22/41 404/22/41 415/22/41
f 404/22/41 401/22/41 416/22/41
f 438/22/41 393/22/41 413/22/41
f 391/22/41 418/22/41 417/22/41
f 450/22/41 399/22/41 419/22/41
f 404/22/41 420/22/41 419/22/41
f 439/22/41 396/22/41 417/22/41
f 391/22/41 392/22/41 422/22/41
f 451/22/41 400/22/41 423/22/41
f 399/22/41 424/22/41 423/22/41
f 449/22/41 391/22/41 421/22/41
f 468/19/41 428/19/41 427/19/41
f 472/19/41 432/19/41 431/19/41
f 475/19/41 436/19/41 435/19/41
f 418/16/40 430/16/40 429/16/40
f 424/16/36 435/16/36 436/16/36
f 415/16/38 428/16/38 468/16/38
f 417/16/39 429/16/39 469/16/39
f 422/16/40 434/16/40 433/16/40
f 416/16/36 427/16/36 428/16/36
f 419/16/38 432/16/38 472/16/38
f 421/16/39 433/16/39 473/16/39
f 414/16/40 426/16/40 425/16/40
f 462/16/39 474/16/39 435/16/39
f 461/16/39 473/16/39 474/16/39
f 459/16/38 471/16/38 430/16/38
f 460/16/38 472/16/38 471/16/38
f 458/16/39 470/16/39 431/16/39
f 457/16/39 469/16/39 470/16/39
f 455/16/38 467/16/38 426/16/38
f 456/16/38 468/16/38 467/16/38
f 434/19/41 476/19/41 473/19/41
f 476/16/41 475/16/41 474/16/41
f 430/19/41 471/19/41 469/19/41
f 471/16/41 472/16/41 470/16/41
f 426/19/41 467/19/41 466/19/41
f 467/16/41 468/16/41 465/16/41
f 450/22/41 462/22/41 424/22/41
f 449/22/41 461/22/41 462/22/41
f 452/22/41 464/22/41 422/22/41
f 451/22/41 463/22/41 464/22/41
f 440/22/41 458/22/41 420/22/41
f 439/22/41 457/22/41 458/22/41
f 449/22/41 459/22/41 418/22/41
f 450/22/41 460/22/41 459/22/41
f 437/22/41 453/22/41 416/22/41
f 437/22/41 438/22/41 454/22/41
f 439/22/41 455/22/41 414/22/41
f 440/22/41 456/22/41 455/22/41
f 390/22/39 448/22/39 452/22/39
f 448/22/39 447/22/39 451/22/39
f 395/22/37 444/22/37 445/22/37
f 444/22/37 443/22/37 446/22/37
f 464/16/38 476/16/38 434/16/38
f 463/16/38 475/16/38 476/16/38
f 389/22/37 445/22/37 448/22/37
f 445/22/37 446/22/37 447/22/37
f 453/16/39 465/16/39 427/16/39
f 454/16/39 466/16/39 465/16/39
f 394/22/37 441/22/37 444/22/37
f 441/22/37 442/22/37 443/22/37
f 393/22/38 438/22/38 441/22/38
f 438/22/38 437/22/38 442/22/38
f 368/22/41 478/25/41 477/24/41
f 372/22/41 479/22/41 478/25/41
f 380/22/41 480/22/41 479/22/41
f 376/22/41 477/24/41 480/22/41
f 375/22/41 482/24/41 481/24/41
f 379/22/41 483/22/41 482/24/41
f 371/22/41 484/22/41 483/22/41
f 367/22/41 481/24/41 484/22/41
f 486/21/41 488/21/41 487/21/41
f 490/21/41 492/21/41 491/21/41
f 484/13/36 491/13/36 492/13/36
f 478/13/40 486/13/40 485/13/40
f 481/13/39 489/13/39 491/13/39
f 480/13/36 487/13/36 488/13/36
f 477/13/39 485/13/39 487/13/39
f 483/13/38 492/13/38 490/13/38
f 412/23/40 494/27/40 493/26/40
f 407/23/40 495/28/40 494/27/40
f 405/23/40 496/23/40 495/28/40
f 405/23/40 411/23/40 493/26/40
f 498/10/40 500/10/40 508/10/40
f 510/11/37 521/11/37 522/11/37
f 499/29/39 503/29/39 501/29/39
f 497/29/37 501/29/37 509/29/37
f 498/29/38 502/29/38 504/29/38
f 611/13/39 620/13/39 618/13/39
f 614/13/36 622/13/36 621/13/36
f 514/14/36 518/14/36 517/14/36
f 506/29/37 510/29/37 502/29/37
f 505/29/37 509/29/37 510/29/37
f 503/11/39 525/11/39 526/11/39
f 509/11/37 527/11/37 521/11/37
f 505/10/40 507/10/40 499/10/40
f 506/10/40 508/10/40 507/10/40
f 508/10/41 514/10/41 513/10/41
f 508/29/41 512/29/41 515/29/41
f 511/29/41 516/29/41 515/29/41
f 507/29/41 513/29/41 516/29/41
f 518/15/41 520/15/41 519/15/41
f 516/14/40 519/14/40 520/14/40
f 513/14/38 517/14/38 519/14/38
f 515/14/39 520/14/39 518/14/39
f 569/29/39 533/29/39 534/29/39
f 574/29/37 534/29/37 535/29/37
f 545/16/38 557/16/38 598/16/38
f 511/11/41 528/11/41 525/11/41
f 502/11/38 522/11/38 524/11/38
f 501/11/37 526/11/37 527/11/37
f 504/11/41 524/11/41 523/11/41
f 512/11/41 523/11/41 528/11/41
f 534/17/37 542/17/37 543/17/37
f 536/17/41 544/17/41 541/17/41
f 532/17/41 540/17/41 539/17/41
f 578/29/37 529/29/37 530/29/37
f 555/16/39 568/16/39 607/16/39
f 575/29/37 535/29/37 529/29/37
f 579/29/38 530/29/38 532/29/38
f 552/16/40 563/16/40 564/16/40
f 539/17/36 540/17/36 538/17/36
f 541/30/36 544/30/36 543/30/36
f 544/30/36 539/30/36 537/30/36
f 533/17/39 541/17/39 542/17/39
f 529/17/37 537/17/37 538/17/37
f 531/17/41 539/17/41 544/17/41
f 535/17/37 543/17/37 537/17/37
f 530/17/38 538/17/38 540/17/38
f 528/29/41 546/29/41 545/29/41
f 572/29/41 536/29/41 547/29/41
f 536/29/41 533/29/41 548/29/41
f 570/29/41 525/29/41 545/29/41
f 528/29/41 523/29/41 550/29/41
f 582/29/41 531/29/41 551/29/41
f 536/29/41 552/29/41 551/29/41
f 571/29/41 528/29/41 549/29/41
f 523/29/41 524/29/41 554/29/41
f 583/29/41 532/29/41 555/29/41
f 531/29/41 556/29/41 555/29/41
f 581/29/41 523/29/41 553/29/41
f 600/19/41 560/19/41 559/19/41
f 604/19/41 564/19/41 563/19/41
f 606/19/41 607/19/41 568/19/41
f 550/16/36 562/16/36 561/16/36
f 556/16/40 567/16/40 568/16/40
f 547/16/39 560/16/39 600/16/39
f 549/16/38 561/16/38 601/16/38
f 554/16/36 566/16/36 565/16/36
f 548/16/40 559/16/40 560/16/40
f 551/16/39 564/16/39 604/16/39
f 553/16/38 565/16/38 605/16/38
f 546/16/36 558/16/36 557/16/36
f 594/16/38 606/16/38 567/16/38
f 593/16/38 605/16/38 606/16/38
f 591/16/39 603/16/39 562/16/39
f 592/16/39 604/16/39 603/16/39
f 590/16/38 602/16/38 563/16/38
f 589/16/38 601/16/38 602/16/38
f 587/16/39 599/16/39 558/16/39
f 588/16/39 600/16/39 599/16/39
f 566/19/41 608/19/41 605/19/41
f 608/16/41 607/16/41 606/16/41
f 562/19/41 603/19/41 601/19/41
f 603/16/41 604/16/41 602/16/41
f 558/19/41 599/19/41 598/19/41
f 599/16/41 600/16/41 597/16/41
f 582/29/41 594/29/41 556/29/41
f 581/29/41 593/29/41 594/29/41
f 584/29/41 596/29/41 554/29/41
f 584/29/41 583/29/41 595/29/41
f 572/29/41 590/29/41 552/29/41
f 571/29/41 589/29/41 590/29/41
f 581/29/41 591/29/41 550/29/41
f 581/29/41 582/29/41 592/29/41
f 569/29/41 585/29/41 548/29/41
f 569/29/41 570/29/41 586/29/41
f 571/29/41 587/29/41 546/29/41
f 572/29/41 588/29/41 587/29/41
f 522/29/38 580/29/38 584/29/38
f 580/29/38 579/29/38 583/29/38
f 527/29/37 576/29/37 577/29/37
f 576/29/37 575/29/37 578/29/37
f 596/16/39 608/16/39 566/16/39
f 595/16/39 607/16/39 608/16/39
f 521/29/37 577/29/37 580/29/37
f 577/29/37 578/29/37 579/29/37
f 585/16/38 597/16/38 559/16/38
f 586/16/38 598/16/38 597/16/38
f 526/29/37 573/29/37 576/29/37
f 573/29/37 574/29/37 575/29/37
f 525/29/39 570/29/39 573/29/39
f 570/29/39 569/29/39 574/29/39
f 500/29/41 610/29/41 609/31/41
f 504/29/41 611/29/41 610/29/41
f 512/29/41 612/29/41 611/29/41
f 508/29/41 609/31/41 612/29/41
f 507/29/41 614/31/41 613/31/41
f 511/29/41 615/29/41 614/31/41
f 503/29/41 616/29/41 615/29/41
f 499/29/41 613/31/41 616/29/41
f 622/21/41 624/21/41 623/21/41
f 616/13/40 623/13/40 624/13/40
f 610/13/36 618/13/36 617/13/36
f 613/13/38 621/13/38 623/13/38
f 612/13/40 619/13/40 620/13/40
f 609/13/38 617/13/38 619/13/38
f 615/13/39 624/13/39 622/13/39
f 626/10/40 628/10/40 636/10/40
f 638/11/37 649/11/37 650/11/37
f 627/32/39 631/32/39 629/32/39
f 625/32/37 629/32/37 637/32/37
f 626/32/38 630/32/38 632/32/38
f 739/13/39 748/13/39 746/13/39
f 742/13/36 750/13/36 749/13/36
f 642/14/36 646/14/36 645/14/36
f 634/32/37 638/32/37 630/32/37
f 633/32/37 637/32/37 638/32/37
f 631/11/39 653/11/39 654/11/39
f 637/11/37 655/11/37 649/11/37
f 633/10/40 635/10/40 627/10/40
f 634/10/40 636/10/40 635/10/40
f 636/10/41 642/10/41 641/10/41
f 636/32/41 640/32/41 643/32/41
f 640/32/41 639/32/41 644/32/41
f 635/32/41 641/32/41 644/32/41
f 646/15/41 648/15/41 647/15/41
f 644/14/40 647/14/40 648/14/40
f 641/14/38 645/14/38 647/14/38
f 643/14/39 648/14/39 646/14/39
f 697/32/39 661/32/39 662/32/39
f 702/32/37 662/32/37 663/32/37
f 673/16/38 685/16/38 726/16/38
f 639/11/41 656/11/41 653/11/41
f 630/11/38 650/11/38 652/11/38
f 629/11/37 654/11/37 655/11/37
f 632/11/41 652/11/41 651/11/41
f 640/11/41 651/11/41 656/11/41
f 662/17/37 670/17/37 671/17/37
f 664/17/41 672/17/41 669/17/41
f 660/17/41 668/17/41 667/17/41
f 706/32/37 657/32/37 658/32/37
f 683/16/39 696/16/39 735/16/39
f 703/32/37 663/32/37 657/32/37
f 707/32/38 658/32/38 660/32/38
f 680/16/40 691/16/40 692/16/40
f 667/33/36 668/33/36 666/33/36
f 669/33/36 672/33/36 671/33/36
f 672/33/36 667/33/36 665/33/36
f 661/17/39 669/17/39 670/17/39
f 657/17/37 665/17/37 666/17/37
f 659/17/41 667/17/41 672/17/41
f 663/17/37 671/17/37 665/17/37
f 658/17/38 666/17/38 668/17/38
f 656/32/41 674/32/41 673/32/41
f 700/32/41 664/32/41 675/32/41
f 664/32/41 661/32/41 676/32/41
f 698/32/41 653/32/41 673/32/41
f 651/32/41 678/32/41 677/32/41
f 710/32/41 659/32/41 679/32/41
f 664/32/41 680/32/41 679/32/41
f 699/32/41 656/32/41 677/32/41
f 651/32/41 652/32/41 682/32/41
f 711/32/41 660/32/41 683/32/41
f 659/32/41 684/32/41 683/32/41
f 709/32/41 651/32/41 681/32/41
f 728/19/41 688/19/41 687/19/41
f 732/19/41 692/19/41 691/19/41
f 735/19/41 696/19/41 695/19/41
f 678/16/36 690/16/36 689/16/36
f 684/16/40 695/16/40 696/16/40
f 675/16/39 688/16/39 728/16/39
f 677/16/38 689/16/38 729/16/38
f 682/16/36 694/16/36 693/16/36
f 676/16/40 687/16/40 688/16/40
f 679/16/39 692/16/39 732/16/39
f 681/16/38 693/16/38 733/16/38
f 674/16/36 686/16/36 685/16/36
f 722/16/38 734/16/38 695/16/38
f 721/16/38 733/16/38 734/16/38
f 719/16/39 731/16/39 690/16/39
f 720/16/39 732/16/39 731/16/39
f 718/16/38 730/16/38 691/16/38
f 717/16/38 729/16/38 730/16/38
f 715/16/39 727/16/39 686/16/39
f 716/16/39 728/16/39 727/16/39
f 694/19/41 736/19/41 733/19/41
f 736/16/41 735/16/41 734/16/41
f 690/19/41 731/19/41 729/19/41
f 731/16/41 732/16/41 730/16/41
f 686/19/41 727/19/41 726/19/41
f 727/16/41 728/16/41 725/16/41
f 710/32/41 722/32/41 684/32/41
f 709/32/41 721/32/41 722/32/41
f 712/32/41 724/32/41 682/32/41
f 711/32/41 723/32/41 724/32/41
f 700/32/41 718/32/41 680/32/41
f 699/32/41 717/32/41 718/32/41
f 709/32/41 719/32/41 678/32/41
f 710/32/41 720/32/41 719/32/41
f 697/32/41 713/32/41 676/32/41
f 697/32/41 698/32/41 714/32/41
f 699/32/41 715/32/41 674/32/41
f 700/32/41 716/32/41 715/32/41
f 650/32/38 708/32/38 712/32/38
f 708/32/38 707/32/38 711/32/38
f 655/32/37 704/32/37 705/32/37
f 704/32/37 703/32/37 706/32/37
f 724/16/39 736/16/39 694/16/39
f 723/16/39 735/16/39 736/16/39
f 649/32/37 705/32/37 708/32/37
f 705/32/37 706/32/37 707/32/37
f 713/16/38 725/16/38 687/16/38
f 714/16/38 726/16/38 725/16/38
f 654/32/37 701/32/37 704/32/37
f 701/32/37 702/32/37 703/32/37
f 653/32/39 698/32/39 701/32/39
f 698/32/39 697/32/39 702/32/39
f 628/32/41 738/32/41 737/32/41
f 632/32/41 739/32/41 738/32/41
f 640/32/41 740/32/41 739/32/41
f 636/32/41 737/32/41 740/32/41
f 635/32/41 742/32/41 741/32/41
f 639/32/41 743/32/41 742/32/41
f 631/32/41 744/32/41 743/32/41
f 627/32/41 741/32/41 744/32/41
f 746/21/41 748/21/41 747/21/41
f 750/21/41 752/21/41 751/21/41
f 744/13/40 751/13/40 752/13/40
f 738/13/36 746/13/36 745/13/36
f 741/13/38 749/13/38 751/13/38
f 740/13/40 747/13/40 748/13/40
f 737/13/38 745/13/38 747/13/38
f 743/13/39 752/13/39 750/13/39
f 756/21/41 758/21/41 757/21/41
f 753/34/42 759/34/42 792/34/42
f 759/34/37 761/34/37 807/34/37
f 778/35/37 793/35/37 762/35/37
f 779/34/37 794/34/37 793/34/37
f 780/35/37 795/35/37 794/35/37
f 781/34/37 796/34/37 795/34/37
f 782/35/37 797/35/37 796/35/37
f 783/34/37 798/34/37 797/34/37
f 784/35/37 799/35/37 798/35/37
f 785/34/37 800/34/37 799/34/37
f 786/35/37 801/35/37 800/35/37
f 787/34/37 802/34/37 801/34/37
f 788/35/37 803/35/37 802/35/37
f 789/34/37 804/34/37 803/34/37
f 790/35/37 805/35/37 804/35/37
f 791/34/37 806/34/37 805/34/37
f 792/35/37 807/35/37 806/35/37
f 763/35/42 778/35/42 760/35/42
f 764/34/42 779/34/42 778/34/42
f 765/35/42 780/35/42 779/35/42
f 766/34/42 781/34/42 780/34/42
f 767/35/42 782/35/42 781/35/42
f 768/34/42 783/34/42 782/34/42
f 769/35/42 784/35/42 783/35/42
f 770/34/42 785/34/42 784/34/42
f 771/35/42 786/35/42 785/35/42
f 772/34/42 787/34/42 786/34/42
f 773/35/42 788/35/42 787/35/42
f 774/34/42 789/34/42 788/34/42
f 775/35/42 790/35/42 789/35/42
f 776/34/42 791/34/42 790/34/42
f 777/35/42 792/35/42 791/35/42
f 811/17/39 814/17/39 815/36/39
f 818/37/40 826/37/40 825/37/40
f 808/38/37 813/38/37 814/17/37
f 810/36/41 815/36/41 812/39/41
f 809/39/38 812/39/38 813/38/38
f 816/37/40 819/37/40 818/37/40
f 812/37/36 820/37/36 821/37/36
f 819/37/40 827/37/40 826/37/40
f 815/37/36 823/37/36 820/37/36
f 823/37/41 827/37/41 824/37/41
f 820/37/38 824/37/38 825/37/38
f 822/37/39 826/37/39 827/37/39
f 821/37/37 825/37/37 826/37/37
f 815/37/36 814/37/36 822/37/36
f 813/37/36 821/37/36 822/37/36
f 816/37/40 824/37/40 827/37/40
f 816/37/40 817/37/40 825/37/40
f 831/17/39 834/17/39 835/36/39
f 838/37/40 846/37/40 845/37/40
f 828/38/37 833/38/37 834/17/37
f 830/36/41 835/36/41 832/39/41
f 829/39/38 832/39/38 833/38/38
f 836/37/40 839/37/40 838/37/40
f 832/37/36 840/37/36 841/37/36
f 839/37/40 847/37/40 846/37/40
f 835/37/36 843/37/36 840/37/36
f 843/37/41 847/37/41 844/37/41
f 840/37/38 844/37/38 845/37/38
f 842/37/39 846/37/39 847/37/39
f 841/37/37 845/37/37 846/37/37
f 835/37/36 834/37/36 842/37/36
f 833/37/36 841/37/36 842/37/36
f 836/37/40 844/37/40 847/37/40
f 836/37/40 837/37/40 845/37/40
f 851/17/39 854/17/39 855/36/39
f 858/37/40 866/37/40 865/37/40
f 848/38/37 853/38/37 854/17/37
f 850/36/41 855/36/41 852/39/41
f 849/39/38 852/39/38 853/38/38
f 856/37/40 859/37/40 858/37/40
f 853/37/36 852/37/36 860/37/36
f 858/37/40 859/37/40 867/37/40
f 855/37/36 863/37/36 860/37/36
f 863/37/41 867/37/41 864/37/41
f 860/37/38 864/37/38 865/37/38
f 862/37/39 866/37/39 867/37/39
f 861/37/37 865/37/37 866/37/37
f 855/37/36 854/37/36 862/37/36
f 853/37/36 861/37/36 862/37/36
f 856/37/40 864/37/40 867/37/40
f 856/37/40 857/37/40 865/37/40
f 871/17/39 874/17/39 875/36/39
f 878/37/40 886/37/40 885/37/40
f 868/38/37 873/38/37 874/17/37
f 870/36/41 875/36/41 872/39/41
f 869/39/38 872/39/38 873/38/38
f 876/37/40 879/37/40 878/37/40
f 873/37/36 872/37/36 880/37/36
f 878/37/40 879/37/40 887/37/40
f 875/37/36 883/37/36 880/37/36
f 883/37/41 887/37/41 884/37/41
f 880/37/38 884/37/38 885/37/38
f 882/37/39 886/37/39 887/37/39
f 881/37/37 885/37/37 886/37/37
f 875/37/36 874/37/36 882/37/36
f 873/37/36 881/37/36 882/37/36
f 876/37/40 884/37/40 887/37/40
f 876/37/40 877/37/40 885/37/40
