# Blender 5.1.2
# www.blender.org
mtllib car.mtl
o Cube
v 0.000000 0.300000 3.900000
v 0.000000 0.800000 4.000000
v 0.000000 0.300000 0.100000
v 0.000000 1.000000 0.000000
v 2.000000 0.300000 3.900000
v 2.000000 0.800000 4.000000
v 2.000000 0.300000 0.100000
v 2.000000 1.000000 0.000000
v 0.000000 0.300000 1.200000
v 0.000000 0.300000 1.800000
v 0.000000 0.300000 2.700000
v 0.000000 1.000000 2.700000
v 0.000000 1.000000 1.800000
v 0.000000 1.000000 1.100000
v 2.000000 0.300000 2.700000
v 2.000000 0.300000 1.800000
v 2.000000 0.300000 1.200000
v 2.000000 1.000000 1.100000
v 2.000000 1.000000 1.800000
v 2.000000 1.000000 2.700000
v 0.400000 1.500000 2.200000
v 0.400000 1.500000 1.900000
v 0.400000 1.500000 1.400000
v 1.600000 1.500000 1.400000
v 1.600000 1.500000 1.900000
v 1.600000 1.500000 2.200000
v 0.000000 0.500000 4.000000
v 0.000000 0.500000 0.000000
v 2.000000 0.500000 0.000000
v 2.000000 0.500000 4.000000
v 2.000000 0.500000 1.100000
v 2.000000 0.500000 1.800000
v 2.000000 0.500000 2.800000
v 0.000000 0.500000 2.800000
v 0.000000 0.500000 1.800000
v 0.000000 0.500000 1.100000
v 0.025217 1.031521 1.172813
v 0.025217 1.031521 1.759633
v 0.374783 1.468479 1.859633
v 0.374783 1.468479 1.422379
v 1.974783 1.031521 2.584967
v 1.974783 1.031521 1.840367
v 1.625217 1.468479 1.940367
v 1.625217 1.468479 2.185835
v 0.060961 1.021394 2.665769
v 1.939039 1.021394 2.665769
v 1.573270 1.478606 2.234231
v 0.426730 1.478606 2.234231
v 1.927187 1.031521 1.125217
v 0.072813 1.031521 1.125217
v 0.422379 1.468479 1.374783
v 1.577621 1.468479 1.374783
v 1.974783 1.031521 1.759633
v 1.974783 1.031521 1.172813
v 1.625217 1.468479 1.422379
v 1.625217 1.468479 1.859633
v 0.025217 1.031521 1.840367
v 0.025217 1.031521 2.584967
v 0.374783 1.468479 2.185835
v 0.374783 1.468479 1.940367
v 0.000000 1.000000 0.500000
v 2.000000 0.300000 0.400000
v 0.000000 0.300000 0.400000
v 2.000000 1.000000 0.500000
v 2.000000 0.500000 0.500000
v 0.000000 0.500000 0.500000
v 0.000000 0.300000 3.500000
v 2.000000 0.900000 3.500000
v 0.000000 0.900000 3.500000
v 2.000000 0.300000 3.500000
v 0.000000 0.500000 3.400000
v 2.000000 0.500000 3.400000
v 0.000000 0.933333 3.233333
v 0.000000 0.966667 2.966667
v 0.000000 0.600000 3.200000
v 0.000000 0.600000 3.000000
v 2.000000 0.966667 2.966667
v 2.000000 0.933333 3.233333
v 2.000000 0.600000 3.000000
v 2.000000 0.600000 3.200000
v 2.000000 1.000000 0.700000
v 2.000000 1.000000 0.900000
v 2.000000 0.600000 0.700000
v 2.000000 0.600000 0.900000
v 0.000000 1.000000 0.900000
v 0.000000 1.000000 0.700000
v 0.000000 0.600000 0.900000
v 0.000000 0.600000 0.700000
vn -1.0000 -0.0000 -0.0000
vn -0.0000 -0.0000 -1.0000
vn 1.0000 -0.0000 -0.0000
vn -0.0000 -0.0000 1.0000
vn -0.0000 0.9806 0.1961
vn -0.0000 1.0000 -0.0000
vn -0.7809 0.6247 -0.0000
vn 0.7809 0.6247 -0.0000
vn -0.0000 0.6864 0.7272
vn -0.0000 0.4960 -0.8683
vn -0.0000 -0.4472 0.8944
vn -0.0000 -0.4472 -0.8944
vn -0.0000 0.8480 0.5300
vn -0.2264 0.5922 0.7733
vn -0.2008 0.7526 0.6272
vn -0.0000 0.6247 -0.7809
vn 0.1179 0.4398 -0.8903
vn 0.1236 0.5649 -0.8159
vn -0.0000 0.9923 0.1240
vn 0.2008 0.7526 0.6272
vn 0.2264 0.5922 0.7733
vn -0.1237 0.5649 -0.8158
vn -0.1179 0.4398 -0.8903
vt 0.696914 0.704147
vt 0.940531 0.546657
vt 0.940531 0.546657
vt 0.940531 0.546657
vt 0.940531 0.546657
vt 0.684610 0.546657
vt 0.069414 0.428540
vt 0.696914 0.704147
vt 0.696914 0.704147
vt 0.679176 0.374039
s 0
usemtl Material.001
f 61/1/1 28/1/1 66/1/1
f 4/1/2 29/1/2 28/1/2
f 68/1/3 30/1/3 72/1/3
f 6/1/4 27/1/4 30/1/4
f 69/1/5 6/1/5 68/1/5
f 85/1/6 18/1/6 82/1/6
f 38/2/7 40/3/7 37/3/7
f 42/3/8 44/4/8 41/3/8
f 84/1/3 18/1/3 31/1/3
f 18/1/3 32/1/3 31/1/3
f 32/1/3 20/1/3 33/1/3
f 76/1/1 12/1/1 34/1/1
f 12/1/1 35/1/1 34/1/1
f 13/1/1 36/1/1 35/1/1
f 23/1/6 25/1/6 24/1/6
f 22/1/6 26/1/6 25/1/6
f 46/4/9 48/3/9 45/4/9
f 49/2/10 51/4/10 52/4/10
f 53/2/8 55/4/8 56/5/8
f 57/5/7 59/3/7 60/2/7
f 35/1/1 9/1/1 10/1/1
f 11/1/1 35/1/1 10/1/1
f 32/6/3 15/6/3 16/6/3
f 17/6/3 32/6/3 16/6/3
f 30/7/11 1/7/11 5/7/11
f 72/7/3 5/7/3 70/7/3
f 28/7/12 7/7/12 3/7/12
f 66/7/1 3/7/1 63/7/1
f 13/1/7 37/1/7 14/1/7
f 13/1/7 39/1/7 38/8/7
f 23/1/7 39/1/7 22/1/7
f 23/1/7 37/1/7 40/1/7
f 19/1/8 41/1/8 20/1/8
f 25/1/8 42/1/8 19/1/8
f 26/1/8 43/9/8 25/1/8
f 26/1/8 41/1/8 44/1/8
f 20/1/13 45/1/13 12/1/13
f 26/1/14 46/1/14 20/1/14
f 21/1/13 47/1/13 26/1/13
f 21/1/15 45/1/15 48/1/15
f 14/1/16 49/8/16 18/1/16
f 23/1/17 50/1/17 14/1/17
f 24/1/16 51/1/16 23/1/16
f 24/1/18 49/8/18 52/1/18
f 19/1/8 54/1/8 53/8/8
f 24/1/8 54/1/8 18/1/8
f 24/1/8 56/9/8 55/1/8
f 19/1/8 56/9/8 25/1/8
f 13/1/7 58/1/7 57/9/7
f 21/1/7 58/1/7 12/1/7
f 21/1/7 60/8/7 59/1/7
f 22/1/7 57/9/7 60/8/7
f 29/7/3 62/7/3 7/7/3
f 8/1/3 65/1/3 29/1/3
f 4/1/6 64/1/6 8/1/6
f 88/1/1 61/1/1 66/1/1
f 27/7/1 67/7/1 1/7/1
f 27/1/1 69/1/1 71/1/1
f 73/1/19 68/1/19 78/1/19
f 80/1/3 68/1/3 72/1/3
f 66/10/11 62/10/11 65/10/11
f 20/1/3 79/1/3 33/1/3
f 79/1/3 78/1/3 80/1/3
f 12/1/19 77/1/19 20/1/19
f 74/1/19 78/1/19 77/1/19
f 69/1/1 75/1/1 71/1/1
f 73/1/1 76/1/1 75/1/1
f 14/1/1 87/1/1 36/1/1
f 85/1/1 88/1/1 87/1/1
f 64/1/3 83/1/3 65/1/3
f 81/1/3 84/1/3 83/1/3
f 61/1/6 81/1/6 64/1/6
f 86/1/6 82/1/6 81/1/6
f 61/1/1 4/1/1 28/1/1
f 4/1/2 8/1/2 29/1/2
f 68/1/3 6/1/3 30/1/3
f 6/1/4 2/1/4 27/1/4
f 69/1/5 2/1/5 6/1/5
f 85/1/6 14/1/6 18/1/6
f 38/2/7 39/3/7 40/3/7
f 42/3/8 43/5/8 44/4/8
f 84/1/3 82/1/3 18/1/3
f 18/1/3 19/1/3 32/1/3
f 32/1/3 19/1/3 20/1/3
f 76/1/1 74/1/1 12/1/1
f 12/1/1 13/1/1 35/1/1
f 13/1/1 14/1/1 36/1/1
f 23/1/6 22/1/6 25/1/6
f 22/1/6 21/1/6 26/1/6
f 46/4/9 47/3/9 48/3/9
f 49/2/10 50/3/10 51/4/10
f 53/2/8 54/3/8 55/4/8
f 57/5/7 58/3/7 59/3/7
f 35/1/1 36/1/1 9/1/1
f 11/1/1 34/1/1 35/1/1
f 32/6/3 33/6/3 15/6/3
f 17/6/3 31/6/3 32/6/3
f 30/7/11 27/7/11 1/7/11
f 72/7/3 30/7/3 5/7/3
f 28/7/12 29/7/12 7/7/12
f 66/7/1 28/7/1 3/7/1
f 13/1/7 38/8/7 37/1/7
f 13/1/7 22/1/7 39/1/7
f 23/1/7 40/1/7 39/1/7
f 23/1/7 14/1/7 37/1/7
f 19/1/8 42/1/8 41/1/8
f 25/1/8 43/9/8 42/1/8
f 26/1/8 44/1/8 43/9/8
f 26/1/8 20/1/8 41/1/8
f 20/1/13 46/1/13 45/1/13
f 26/1/20 47/1/20 46/1/20
f 21/1/13 48/1/13 47/1/13
f 21/1/21 12/1/21 45/1/21
f 14/1/16 50/1/16 49/8/16
f 23/1/22 51/1/22 50/1/22
f 24/1/16 52/1/16 51/1/16
f 24/1/23 18/1/23 49/8/23
f 19/1/8 18/1/8 54/1/8
f 24/1/8 55/1/8 54/1/8
f 24/1/8 25/1/8 56/9/8
f 19/1/8 53/8/8 56/9/8
f 13/1/7 12/1/7 58/1/7
f 21/1/7 59/1/7 58/1/7
f 21/1/7 22/1/7 60/8/7
f 22/1/7 13/1/7 57/9/7
f 29/7/3 65/7/3 62/7/3
f 8/1/3 64/1/3 65/1/3
f 4/1/6 61/1/6 64/1/6
f 88/1/1 86/1/1 61/1/1
f 27/7/1 71/7/1 67/7/1
f 27/1/1 2/1/1 69/1/1
f 73/1/19 69/1/19 68/1/19
f 80/1/3 78/1/3 68/1/3
f 64/10/4 61/10/4 66/10/4
f 66/10/11 63/10/11 62/10/11
f 65/10/4 64/10/4 66/10/4
f 20/1/3 77/1/3 79/1/3
f 79/1/3 77/1/3 78/1/3
f 12/1/19 74/1/19 77/1/19
f 74/1/19 73/1/19 78/1/19
f 69/1/1 73/1/1 75/1/1
f 73/1/1 74/1/1 76/1/1
f 14/1/1 85/1/1 87/1/1
f 85/1/1 86/1/1 88/1/1
f 64/1/3 81/1/3 83/1/3
f 81/1/3 82/1/3 84/1/3
f 61/1/6 86/1/6 81/1/6
f 86/1/6 85/1/6 82/1/6
o Cylinder
v 0.000000 0.200000 2.800000
v 0.300000 0.200000 2.800000
v 0.000000 0.000000 3.000000
v 0.300000 0.000000 3.000000
v 0.000000 0.000000 3.200000
v 0.300000 0.000000 3.200000
v 0.000000 0.200000 3.400000
v 0.300000 0.200000 3.400000
v 0.000000 0.400000 3.400000
v 0.300000 0.400000 3.400000
v 0.000000 0.600000 3.200000
v 0.300000 0.600000 3.200000
v 0.000000 0.600000 3.000000
v 0.300000 0.600000 3.000000
v 0.000000 0.400000 2.800000
v 0.300000 0.400000 2.800000
v 0.300000 0.100000 3.000000
v 0.300000 0.200000 2.900000
v 0.300000 0.400000 2.900000
v 0.300000 0.500000 3.000000
v 0.300000 0.500000 3.200000
v 0.300000 0.400000 3.300000
v 0.300000 0.200000 3.300000
v 0.300000 0.100000 3.200000
v 0.000000 0.200000 2.900000
v 0.000000 0.100000 3.000000
v 0.000000 0.100000 3.200000
v 0.000000 0.200000 3.300000
v 0.000000 0.400000 3.300000
v 0.000000 0.500000 3.200000
v 0.000000 0.500000 3.000000
v 0.000000 0.400000 2.900000
vn -0.0000 -0.7071 -0.7071
vn -0.0000 -1.0000 -0.0000
vn -0.0000 -0.7071 0.7071
vn -0.0000 -0.0000 1.0000
vn -0.0000 0.7071 0.7071
vn -0.0000 1.0000 -0.0000
vn 1.0000 -0.0000 -0.0000
vn -0.0000 0.7071 -0.7071
vn -0.0000 -0.0000 -1.0000
vn -1.0000 -0.0000 -0.0000
vt 0.069363 0.524686
vt 0.460627 0.485314
s 0
usemtl Material.001
f 89/11/24 92/11/24 91/11/24
f 92/11/25 93/11/25 91/11/25
f 94/11/26 95/11/26 93/11/26
f 96/11/27 97/11/27 95/11/27
f 98/11/28 99/11/28 97/11/28
f 99/11/29 102/11/29 101/11/29
f 108/12/30 110/12/30 112/12/30
f 102/11/31 103/11/31 101/11/31
f 104/11/32 89/11/32 103/11/32
f 116/12/33 118/12/33 120/12/33
f 90/11/30 105/11/30 92/11/30
f 104/11/30 106/11/30 90/11/30
f 104/11/30 108/11/30 107/11/30
f 100/11/30 108/11/30 102/11/30
f 98/11/30 109/11/30 100/11/30
f 98/11/30 111/11/30 110/11/30
f 96/11/30 112/11/30 111/11/30
f 94/11/30 105/11/30 112/11/30
f 91/11/33 113/11/33 89/11/33
f 93/11/33 114/11/33 91/11/33
f 95/11/33 115/11/33 93/11/33
f 95/11/33 117/11/33 116/11/33
f 97/11/33 118/11/33 117/11/33
f 99/11/33 119/11/33 118/11/33
f 101/11/33 120/11/33 119/11/33
f 103/11/33 113/11/33 120/11/33
f 89/11/24 90/11/24 92/11/24
f 92/11/25 94/11/25 93/11/25
f 94/11/26 96/11/26 95/11/26
f 96/11/27 98/11/27 97/11/27
f 98/11/28 100/11/28 99/11/28
f 99/11/29 100/11/29 102/11/29
f 112/12/30 105/12/30 106/12/30
f 106/12/30 107/12/30 108/12/30
f 108/12/30 109/12/30 110/12/30
f 110/12/30 111/12/30 112/12/30
f 112/12/30 106/12/30 108/12/30
f 102/11/31 104/11/31 103/11/31
f 104/11/32 90/11/32 89/11/32
f 120/12/33 113/12/33 114/12/33
f 114/12/33 115/12/33 116/12/33
f 116/12/33 117/12/33 118/12/33
f 118/12/33 119/12/33 120/12/33
f 120/12/33 114/12/33 116/12/33
f 90/11/30 106/11/30 105/11/30
f 104/11/30 107/11/30 106/11/30
f 104/11/30 102/11/30 108/11/30
f 100/11/30 109/11/30 108/11/30
f 98/11/30 110/11/30 109/11/30
f 98/11/30 96/11/30 111/11/30
f 96/11/30 94/11/30 112/11/30
f 94/11/30 92/11/30 105/11/30
f 91/11/33 114/11/33 113/11/33
f 93/11/33 115/11/33 114/11/33
f 95/11/33 116/11/33 115/11/33
f 95/11/33 97/11/33 117/11/33
f 97/11/33 99/11/33 118/11/33
f 99/11/33 101/11/33 119/11/33
f 101/11/33 103/11/33 120/11/33
f 103/11/33 89/11/33 113/11/33
o Cylinder.001
v 1.700000 0.200000 2.800000
v 2.000000 0.200000 2.800000
v 1.700000 0.000000 3.000000
v 2.000000 0.000000 3.000000
v 1.700000 0.000000 3.200000
v 2.000000 0.000000 3.200000
v 1.700000 0.200000 3.400000
v 2.000000 0.200000 3.400000
v 1.700000 0.400000 3.400000
v 2.000000 0.400000 3.400000
v 1.700000 0.600000 3.200000
v 2.000000 0.600000 3.200000
v 1.700000 0.600000 3.000000
v 2.000000 0.600000 3.000000
v 1.700000 0.400000 2.800000
v 2.000000 0.400000 2.800000
v 2.000000 0.100000 3.000000
v 2.000000 0.200000 2.900000
v 2.000000 0.400000 2.900000
v 2.000000 0.500000 3.000000
v 2.000000 0.500000 3.200000
v 2.000000 0.400000 3.300000
v 2.000000 0.200000 3.300000
v 2.000000 0.100000 3.200000
v 1.700000 0.200000 2.900000
v 1.700000 0.100000 3.000000
v 1.700000 0.100000 3.200000
v 1.700000 0.200000 3.300000
v 1.700000 0.400000 3.300000
v 1.700000 0.500000 3.200000
v 1.700000 0.500000 3.000000
v 1.700000 0.400000 2.900000
vn -0.0000 -0.7071 -0.7071
vn -0.0000 -1.0000 -0.0000
vn -0.0000 -0.7071 0.7071
vn -0.0000 -0.0000 1.0000
vn -0.0000 0.7071 0.7071
vn -0.0000 1.0000 -0.0000
vn 1.0000 -0.0000 -0.0000
vn -0.0000 0.7071 -0.7071
vn -0.0000 -0.0000 -1.0000
vn -1.0000 -0.0000 -0.0000
vt 0.069363 0.524686
vt 0.460627 0.485314
s 0
usemtl Material.001
f 121/13/34 124/13/34 123/13/34
f 124/13/35 125/13/35 123/13/35
f 126/13/36 127/13/36 125/13/36
f 128/13/37 129/13/37 127/13/37
f 130/13/38 131/13/38 129/13/38
f 131/13/39 134/13/39 133/13/39
f 140/14/40 142/14/40 144/14/40
f 134/13/41 135/13/41 133/13/41
f 136/13/42 121/13/42 135/13/42
f 148/14/43 150/14/43 152/14/43
f 122/13/40 137/13/40 124/13/40
f 136/13/40 138/13/40 122/13/40
f 136/13/40 140/13/40 139/13/40
f 132/13/40 140/13/40 134/13/40
f 130/13/40 141/13/40 132/13/40
f 130/13/40 143/13/40 142/13/40
f 128/13/40 144/13/40 143/13/40
f 126/13/40 137/13/40 144/13/40
f 123/13/43 145/13/43 121/13/43
f 125/13/43 146/13/43 123/13/43
f 127/13/43 147/13/43 125/13/43
f 127/13/43 149/13/43 148/13/43
f 129/13/43 150/13/43 149/13/43
f 131/13/43 151/13/43 150/13/43
f 133/13/43 152/13/43 151/13/43
f 135/13/43 145/13/43 152/13/43
f 121/13/34 122/13/34 124/13/34
f 124/13/35 126/13/35 125/13/35
f 126/13/36 128/13/36 127/13/36
f 128/13/37 130/13/37 129/13/37
f 130/13/38 132/13/38 131/13/38
f 131/13/39 132/13/39 134/13/39
f 144/14/40 137/14/40 138/14/40
f 138/14/40 139/14/40 140/14/40
f 140/14/40 141/14/40 142/14/40
f 142/14/40 143/14/40 144/14/40
f 144/14/40 138/14/40 140/14/40
f 134/13/41 136/13/41 135/13/41
f 136/13/42 122/13/42 121/13/42
f 152/14/43 145/14/43 146/14/43
f 146/14/43 147/14/43 148/14/43
f 148/14/43 149/14/43 150/14/43
f 150/14/43 151/14/43 152/14/43
f 152/14/43 146/14/43 148/14/43
f 122/13/40 138/13/40 137/13/40
f 136/13/40 139/13/40 138/13/40
f 136/13/40 134/13/40 140/13/40
f 132/13/40 141/13/40 140/13/40
f 130/13/40 142/13/40 141/13/40
f 130/13/40 128/13/40 143/13/40
f 128/13/40 126/13/40 144/13/40
f 126/13/40 124/13/40 137/13/40
f 123/13/43 146/13/43 145/13/43
f 125/13/43 147/13/43 146/13/43
f 127/13/43 148/13/43 147/13/43
f 127/13/43 129/13/43 149/13/43
f 129/13/43 131/13/43 150/13/43
f 131/13/43 133/13/43 151/13/43
f 133/13/43 135/13/43 152/13/43
f 135/13/43 121/13/43 145/13/43
o Cylinder.002
v 0.000000 0.200000 0.500000
v 0.300000 0.200000 0.500000
v 0.000000 0.000000 0.700000
v 0.300000 0.000000 0.700000
v 0.000000 0.000000 0.900000
v 0.300000 0.000000 0.900000
v 0.000000 0.200000 1.100000
v 0.300000 0.200000 1.100000
v 0.000000 0.400000 1.100000
v 0.300000 0.400000 1.100000
v 0.000000 0.600000 0.900000
v 0.300000 0.600000 0.900000
v 0.000000 0.600000 0.700000
v 0.300000 0.600000 0.700000
v 0.000000 0.400000 0.500000
v 0.300000 0.400000 0.500000
v 0.300000 0.100000 0.700000
v 0.300000 0.200000 0.600000
v 0.300000 0.400000 0.600000
v 0.300000 0.500000 0.700000
v 0.300000 0.500000 0.900000
v 0.300000 0.400000 1.000000
v 0.300000 0.200000 1.000000
v 0.300000 0.100000 0.900000
v 0.000000 0.200000 0.600000
v 0.000000 0.100000 0.700000
v 0.000000 0.100000 0.900000
v 0.000000 0.200000 1.000000
v 0.000000 0.400000 1.000000
v 0.000000 0.500000 0.900000
v 0.000000 0.500000 0.700000
v 0.000000 0.400000 0.600000
vn -0.0000 -0.7071 -0.7071
vn -0.0000 -1.0000 -0.0000
vn -0.0000 -0.7071 0.7071
vn -0.0000 -0.0000 1.0000
vn -0.0000 0.7071 0.7071
vn -0.0000 1.0000 -0.0000
vn 1.0000 -0.0000 -0.0000
vn -0.0000 0.7071 -0.7071
vn -0.0000 -0.0000 -1.0000
vn -1.0000 -0.0000 -0.0000
vt 0.069363 0.524686
vt 0.460627 0.485314
s 0
usemtl Material.001
f 153/15/44 156/15/44 155/15/44
f 156/15/45 157/15/45 155/15/45
f 158/15/46 159/15/46 157/15/46
f 160/15/47 161/15/47 159/15/47
f 162/15/48 163/15/48 161/15/48
f 163/15/49 166/15/49 165/15/49
f 172/16/50 174/16/50 176/16/50
f 166/15/51 167/15/51 165/15/51
f 168/15/52 153/15/52 167/15/52
f 180/16/53 182/16/53 184/16/53
f 154/15/50 169/15/50 156/15/50
f 168/15/50 170/15/50 154/15/50
f 168/15/50 172/15/50 171/15/50
f 164/15/50 172/15/50 166/15/50
f 162/15/50 173/15/50 164/15/50
f 162/15/50 175/15/50 174/15/50
f 160/15/50 176/15/50 175/15/50
f 158/15/50 169/15/50 176/15/50
f 155/15/53 177/15/53 153/15/53
f 157/15/53 178/15/53 155/15/53
f 159/15/53 179/15/53 157/15/53
f 159/15/53 181/15/53 180/15/53
f 161/15/53 182/15/53 181/15/53
f 163/15/53 183/15/53 182/15/53
f 165/15/53 184/15/53 183/15/53
f 167/15/53 177/15/53 184/15/53
f 153/15/44 154/15/44 156/15/44
f 156/15/45 158/15/45 157/15/45
f 158/15/46 160/15/46 159/15/46
f 160/15/47 162/15/47 161/15/47
f 162/15/48 164/15/48 163/15/48
f 163/15/49 164/15/49 166/15/49
f 176/16/50 169/16/50 170/16/50
f 170/16/50 171/16/50 172/16/50
f 172/16/50 173/16/50 174/16/50
f 174/16/50 175/16/50 176/16/50
f 176/16/50 170/16/50 172/16/50
f 166/15/51 168/15/51 167/15/51
f 168/15/52 154/15/52 153/15/52
f 184/16/53 177/16/53 178/16/53
f 178/16/53 179/16/53 180/16/53
f 180/16/53 181/16/53 182/16/53
f 182/16/53 183/16/53 184/16/53
f 184/16/53 178/16/53 180/16/53
f 154/15/50 170/15/50 169/15/50
f 168/15/50 171/15/50 170/15/50
f 168/15/50 166/15/50 172/15/50
f 164/15/50 173/15/50 172/15/50
f 162/15/50 174/15/50 173/15/50
f 162/15/50 160/15/50 175/15/50
f 160/15/50 158/15/50 176/15/50
f 158/15/50 156/15/50 169/15/50
f 155/15/53 178/15/53 177/15/53
f 157/15/53 179/15/53 178/15/53
f 159/15/53 180/15/53 179/15/53
f 159/15/53 161/15/53 181/15/53
f 161/15/53 163/15/53 182/15/53
f 163/15/53 165/15/53 183/15/53
f 165/15/53 167/15/53 184/15/53
f 167/15/53 153/15/53 177/15/53
o Cylinder.003
v 1.700000 0.200000 0.500000
v 2.000000 0.200000 0.500000
v 1.700000 0.000000 0.700000
v 2.000000 0.000000 0.700000
v 1.700000 0.000000 0.900000
v 2.000000 0.000000 0.900000
v 1.700000 0.200000 1.100000
v 2.000000 0.200000 1.100000
v 1.700000 0.400000 1.100000
v 2.000000 0.400000 1.100000
v 1.700000 0.600000 0.900000
v 2.000000 0.600000 0.900000
v 1.700000 0.600000 0.700000
v 2.000000 0.600000 0.700000
v 1.700000 0.400000 0.500000
v 2.000000 0.400000 0.500000
v 2.000000 0.100000 0.700000
v 2.000000 0.200000 0.600000
v 2.000000 0.400000 0.600000
v 2.000000 0.500000 0.700000
v 2.000000 0.500000 0.900000
v 2.000000 0.400000 1.000000
v 2.000000 0.200000 1.000000
v 2.000000 0.100000 0.900000
v 1.700000 0.200000 0.600000
v 1.700000 0.100000 0.700000
v 1.700000 0.100000 0.900000
v 1.700000 0.200000 1.000000
v 1.700000 0.400000 1.000000
v 1.700000 0.500000 0.900000
v 1.700000 0.500000 0.700000
v 1.700000 0.400000 0.600000
vn -0.0000 -0.7071 -0.7071
vn -0.0000 -1.0000 -0.0000
vn -0.0000 -0.7071 0.7071
vn -0.0000 -0.0000 1.0000
vn -0.0000 0.7071 0.7071
vn -0.0000 1.0000 -0.0000
vn 1.0000 -0.0000 -0.0000
vn -0.0000 0.7071 -0.7071
vn -0.0000 -0.0000 -1.0000
vn -1.0000 -0.0000 -0.0000
vt 0.069363 0.524686
vt 0.460627 0.485314
s 0
usemtl Material.001
f 185/17/54 188/17/54 187/17/54
f 188/17/55 189/17/55 187/17/55
f 190/17/56 191/17/56 189/17/56
f 192/17/57 193/17/57 191/17/57
f 194/17/58 195/17/58 193/17/58
f 195/17/59 198/17/59 197/17/59
f 204/18/60 206/18/60 208/18/60
f 198/17/61 199/17/61 197/17/61
f 200/17/62 185/17/62 199/17/62
f 212/18/63 214/18/63 216/18/63
f 186/17/60 201/17/60 188/17/60
f 200/17/60 202/17/60 186/17/60
f 200/17/60 204/17/60 203/17/60
f 196/17/60 204/17/60 198/17/60
f 194/17/60 205/17/60 196/17/60
f 194/17/60 207/17/60 206/17/60
f 192/17/60 208/17/60 207/17/60
f 190/17/60 201/17/60 208/17/60
f 187/17/63 209/17/63 185/17/63
f 189/17/63 210/17/63 187/17/63
f 191/17/63 211/17/63 189/17/63
f 191/17/63 213/17/63 212/17/63
f 193/17/63 214/17/63 213/17/63
f 195/17/63 215/17/63 214/17/63
f 197/17/63 216/17/63 215/17/63
f 199/17/63 209/17/63 216/17/63
f 185/17/54 186/17/54 188/17/54
f 188/17/55 190/17/55 189/17/55
f 190/17/56 192/17/56 191/17/56
f 192/17/57 194/17/57 193/17/57
f 194/17/58 196/17/58 195/17/58
f 195/17/59 196/17/59 198/17/59
f 208/18/60 201/18/60 202/18/60
f 202/18/60 203/18/60 204/18/60
f 204/18/60 205/18/60 206/18/60
f 206/18/60 207/18/60 208/18/60
f 208/18/60 202/18/60 204/18/60
f 198/17/61 200/17/61 199/17/61
f 200/17/62 186/17/62 185/17/62
f 216/18/63 209/18/63 210/18/63
f 210/18/63 211/18/63 212/18/63
f 212/18/63 213/18/63 214/18/63
f 214/18/63 215/18/63 216/18/63
f 216/18/63 210/18/63 212/18/63
f 186/17/60 202/17/60 201/17/60
f 200/17/60 203/17/60 202/17/60
f 200/17/60 198/17/60 204/17/60
f 196/17/60 205/17/60 204/17/60
f 194/17/60 206/17/60 205/17/60
f 194/17/60 192/17/60 207/17/60
f 192/17/60 190/17/60 208/17/60
f 190/17/60 188/17/60 201/17/60
f 187/17/63 210/17/63 209/17/63
f 189/17/63 211/17/63 210/17/63
f 191/17/63 212/17/63 211/17/63
f 191/17/63 193/17/63 213/17/63
f 193/17/63 195/17/63 214/17/63
f 195/17/63 197/17/63 215/17/63
f 197/17/63 199/17/63 216/17/63
f 199/17/63 185/17/63 209/17/63
