# Blender 5.1.2
# www.blender.org
mtllib car2.mtl
o CAR2
v 0.485406 0.200000 -1.500000
v 0.785406 0.200000 -1.500000
v 0.485406 0.000000 -1.300000
v 0.785406 0.000000 -1.300000
v 0.485406 0.000000 -1.100000
v 0.785406 0.000000 -1.100000
v 0.485406 0.200000 -0.900000
v 0.785406 0.200000 -0.900000
v 0.485406 0.400000 -0.900000
v 0.785406 0.400000 -0.900000
v 0.485406 0.600000 -1.100000
v 0.785406 0.600000 -1.100000
v 0.485406 0.600000 -1.300000
v 0.785406 0.600000 -1.300000
v 0.485406 0.400000 -1.500000
v 0.785406 0.400000 -1.500000
v 0.785406 0.100000 -1.300000
v 0.785406 0.200000 -1.400000
v 0.785406 0.400000 -1.400000
v 0.785406 0.500000 -1.300000
v 0.785406 0.500000 -1.100000
v 0.785406 0.400000 -1.000000
v 0.785406 0.200000 -1.000000
v 0.785406 0.100000 -1.100000
v 0.485406 0.200000 -1.400000
v 0.485406 0.100000 -1.300000
v 0.485406 0.100000 -1.100000
v 0.485406 0.200000 -1.000000
v 0.485406 0.400000 -1.000000
v 0.485406 0.500000 -1.100000
v 0.485406 0.500000 -1.300000
v 0.485406 0.400000 -1.400000
v -0.798818 0.300000 1.705524
v -0.798818 0.800000 1.805524
v -0.798818 0.300000 -1.698818
v -0.798818 1.000000 -1.798818
v 0.785406 0.300000 1.705524
v 0.785406 0.800000 1.805524
v 0.785406 0.300000 -1.698818
v 0.785406 1.000000 -1.798818
v -0.798818 0.300000 -0.800000
v -0.798818 0.300000 -0.200000
v -0.798818 0.300000 0.700000
v -0.798818 1.000000 0.700000
v -0.798818 1.000000 -0.200000
v -0.798818 1.000000 -0.900000
v 0.785406 0.300000 0.700000
v 0.785406 0.300000 -0.200000
v 0.785406 0.300000 -0.800000
v 0.785406 1.000000 -0.900000
v 0.785406 1.000000 -0.200000
v 0.785406 1.000000 0.700000
v -0.398818 1.500000 0.200000
v -0.398818 1.500000 -0.100000
v -0.398818 1.500000 -0.600000
v 0.385406 1.500000 -0.600000
v 0.385406 1.500000 -0.100000
v 0.385406 1.500000 0.200000
v -0.798818 0.500000 1.805524
v -0.798818 0.500000 -1.798818
v 0.785406 0.500000 -1.798818
v 0.785406 0.500000 1.805524
v 0.785406 0.500000 -0.900000
v 0.785406 0.500000 -0.200000
v 0.785406 0.500000 0.800000
v -0.798818 0.500000 0.800000
v -0.798818 0.500000 -0.200000
v -0.798818 0.500000 -0.900000
v -0.773601 1.031521 -0.827187
v -0.773601 1.031521 -0.240367
v -0.424035 1.468479 -0.140367
v -0.424035 1.468479 -0.577621
v 0.760189 1.031521 0.584967
v 0.760189 1.031521 -0.159633
v 0.410623 1.468479 -0.059633
v 0.410623 1.468479 0.185834
v -0.737857 1.021394 0.665769
v 0.724445 1.021394 0.665769
v 0.358676 1.478606 0.234231
v -0.372088 1.478606 0.234231
v 0.712593 1.031521 -0.874783
v -0.726005 1.031521 -0.874783
v -0.376439 1.468479 -0.625217
v 0.363027 1.468479 -0.625217
v 0.760189 1.031521 -0.240367
v 0.760189 1.031521 -0.827187
v 0.410623 1.468479 -0.577621
v 0.410623 1.468479 -0.140367
v -0.773601 1.031521 -0.159633
v -0.773601 1.031521 0.584967
v -0.424035 1.468479 0.185834
v -0.424035 1.468479 -0.059633
v -0.798818 1.000000 -1.500000
v 0.785406 0.300000 -1.600000
v -0.798818 0.300000 -1.600000
v 0.785406 1.000000 -1.500000
v 0.785406 0.500000 -1.500000
v -0.798818 0.500000 -1.500000
v -0.798818 0.300000 1.500000
v 0.785406 0.900000 1.500000
v -0.798818 0.900000 1.500000
v 0.785406 0.300000 1.500000
v -0.798818 0.500000 1.400000
v 0.785406 0.500000 1.400000
v -0.798818 0.933333 1.233333
v -0.798818 0.966667 0.966666
v -0.798818 0.600000 1.200000
v -0.798818 0.600000 1.000000
v 0.785406 0.966667 0.966666
v 0.785406 0.933333 1.233333
v 0.785406 0.600000 1.000000
v 0.785406 0.600000 1.200000
v 0.785406 1.000000 -1.300000
v 0.785406 1.000000 -1.100000
v 0.785406 0.600000 -1.300000
v 0.785406 0.600000 -1.100000
v -0.798818 1.000000 -1.100000
v -0.798818 1.000000 -1.300000
v -0.798818 0.600000 -1.100000
v -0.798818 0.600000 -1.300000
v 0.234842 0.352230 1.731639
v 0.234842 0.447770 1.779409
v -0.234827 0.447770 1.779409
v -0.234827 0.352230 1.731639
v -0.216725 0.337392 -1.717514
v -0.216725 0.462608 -1.780123
v 0.216740 0.462608 -1.780123
v 0.216740 0.337392 -1.717514
v 0.738154 0.547252 1.805524
v 0.738154 0.752748 1.805524
v -0.751566 0.752748 1.805524
v -0.751566 0.547252 1.805524
v 0.738154 0.752748 1.805524
v 0.738154 0.547252 1.805524
v 0.512807 0.547252 1.805524
v -0.526219 0.547252 1.805524
v 0.512807 0.752748 1.805524
v -0.526219 0.752748 1.805524
v -0.751566 0.547252 1.805524
v -0.751566 0.752748 1.805524
v 0.329382 0.547252 1.805524
v -0.342794 0.547252 1.805524
v 0.440067 0.752748 1.805524
v -0.453479 0.752748 1.805524
v -0.132152 1.000000 -1.798818
v 0.333333 1.000000 -1.798818
v -0.798818 0.833333 -1.798818
v -0.798818 0.666667 -1.798818
v 0.785406 0.833333 -1.798818
v 0.785406 0.666667 -1.798818
v -0.232735 0.500000 -1.798818
v 0.232750 0.500000 -1.798818
v -0.527239 0.666667 -1.798818
v 0.513827 0.666667 -1.798818
v -0.527239 0.833333 -1.798818
v 0.513827 0.833333 -1.798818
v -0.798818 0.200000 0.800000
v -0.498818 0.200000 0.800000
v -0.798818 0.000000 1.000000
v -0.498818 0.000000 1.000000
v -0.798818 0.000000 1.200000
v -0.498818 0.000000 1.200000
v -0.798818 0.200000 1.400000
v -0.498818 0.200000 1.400000
v -0.798818 0.400000 1.400000
v -0.498818 0.400000 1.400000
v -0.798818 0.600000 1.200000
v -0.498818 0.600000 1.200000
v -0.798818 0.600000 1.000000
v -0.498818 0.600000 1.000000
v -0.798818 0.400000 0.800000
v -0.498818 0.400000 0.800000
v -0.498818 0.100000 1.000000
v -0.498818 0.200000 0.900000
v -0.498818 0.400000 0.900000
v -0.498818 0.500000 1.000000
v -0.498818 0.500000 1.200000
v -0.498818 0.400000 1.300000
v -0.498818 0.200000 1.299999
v -0.498818 0.100000 1.200000
v -0.798818 0.200000 0.900000
v -0.798818 0.100000 1.000000
v -0.798818 0.100000 1.200000
v -0.798818 0.200000 1.299999
v -0.798818 0.400000 1.300000
v -0.798818 0.500000 1.200000
v -0.798818 0.500000 1.000000
v -0.798818 0.400000 0.900000
v 0.485406 0.200000 0.800000
v 0.785406 0.200000 0.800000
v 0.485406 0.000000 1.000000
v 0.785406 0.000000 1.000000
v 0.485406 0.000000 1.200000
v 0.785406 0.000000 1.200000
v 0.485406 0.200000 1.400000
v 0.785406 0.200000 1.400000
v 0.485406 0.400000 1.400000
v 0.785406 0.400000 1.400000
v 0.485406 0.600000 1.200000
v 0.785406 0.600000 1.200000
v 0.485406 0.600000 1.000000
v 0.785406 0.600000 1.000000
v 0.485406 0.400000 0.800000
v 0.785406 0.400000 0.800000
v 0.785406 0.100000 1.000000
v 0.785406 0.200000 0.900000
v 0.785406 0.400000 0.900000
v 0.785406 0.500000 1.000000
v 0.785406 0.500000 1.200000
v 0.785406 0.400000 1.300000
v 0.785406 0.200000 1.300000
v 0.785406 0.100000 1.200000
v 0.485406 0.200000 0.900000
v 0.485406 0.100000 1.000000
v 0.485406 0.100000 1.200000
v 0.485406 0.200000 1.300000
v 0.485406 0.400000 1.300000
v 0.485406 0.500000 1.200000
v 0.485406 0.500000 1.000000
v 0.485406 0.400000 0.900000
v -0.798818 0.200000 -1.500000
v -0.498818 0.200000 -1.500000
v -0.798818 0.000000 -1.300000
v -0.498818 0.000000 -1.300000
v -0.798818 0.000000 -1.100000
v -0.498818 0.000000 -1.100000
v -0.798818 0.200000 -0.900000
v -0.498818 0.200000 -0.900000
v -0.798818 0.400000 -0.900000
v -0.498818 0.400000 -0.900000
v -0.798818 0.600000 -1.100000
v -0.498818 0.600000 -1.100000
v -0.798818 0.600000 -1.300000
v -0.498818 0.600000 -1.300000
v -0.798818 0.400000 -1.500000
v -0.498818 0.400000 -1.500000
v -0.498818 0.100000 -1.300000
v -0.498818 0.200000 -1.400000
v -0.498818 0.400000 -1.400000
v -0.498818 0.500000 -1.300000
v -0.498818 0.500000 -1.100000
v -0.498818 0.400000 -1.000000
v -0.498818 0.200000 -1.000000
v -0.498818 0.100000 -1.100000
v -0.798818 0.200000 -1.400000
v -0.798818 0.100000 -1.300000
v -0.798818 0.100000 -1.100000
v -0.798818 0.200000 -1.000000
v -0.798818 0.400000 -1.000000
v -0.798818 0.500000 -1.100000
v -0.798818 0.500000 -1.300000
v -0.798818 0.400000 -1.400000
vn -0.0000 -0.7071 -0.7071
vn -0.0000 -1.0000 -0.0000
vn -0.0000 -0.7071 0.7071
vn -0.0000 -0.0000 1.0000
vn -0.0000 0.7071 0.7071
vn -0.0000 1.0000 -0.0000
vn 1.0000 -0.0000 -0.0000
vn -0.0000 0.7071 -0.7071
vn -0.0000 -0.0000 -1.0000
vn -1.0000 -0.0000 -0.0000
vn -0.0000 0.9504 0.3111
vn -0.7809 0.6247 -0.0000
vn 0.7809 0.6247 -0.0000
vn -0.0000 0.6864 0.7272
vn -0.0000 0.4960 -0.8683
vn -0.0000 -0.4472 0.8944
vn -0.0000 -0.4472 -0.8944
vn -0.0000 0.8480 0.5300
vn -0.2264 0.5922 0.7733
vn -0.2008 0.7526 0.6272
vn -0.0000 0.6247 -0.7809
vn 0.1179 0.4398 -0.8903
vn 0.1237 0.5649 -0.8158
vn -0.0000 0.9923 0.1240
vn -0.0000 -0.3868 -0.9222
vn -0.0000 0.3868 0.9222
vn 0.2008 0.7526 0.6271
vn 0.2264 0.5922 0.7733
vn -0.1237 0.5649 -0.8158
vn -0.1179 0.4398 -0.8903
vt 0.011327 0.524686
vt 0.727645 0.470309
vt 0.632697 0.390265
vt 0.696914 0.704147
vt 0.696914 0.704147
vt 0.708388 0.546657
vt 0.376273 0.569165
vt 0.033981 0.478146
vt 0.367464 0.412152
vt 0.367464 0.412152
vt 0.033981 0.478146
vt 0.033981 0.478146
vt 0.201007 0.487598
vt 0.033981 0.478146
vt 0.087929 0.546657
s 0
usemtl Material.003
f 1/1/1 4/1/1 3/1/1
f 4/1/2 5/1/2 3/1/2
f 6/1/3 7/1/3 5/1/3
f 8/1/4 9/1/4 7/1/4
f 10/1/5 11/1/5 9/1/5
f 12/1/6 13/1/6 11/1/6
f 20/2/7 22/2/7 24/2/7
f 13/1/8 16/1/8 15/1/8
f 16/1/9 1/1/9 15/1/9
f 28/2/10 30/2/10 32/2/10
f 2/1/7 17/1/7 4/1/7
f 16/1/7 18/1/7 2/1/7
f 16/1/7 20/1/7 19/1/7
f 12/1/7 20/1/7 14/1/7
f 10/1/7 21/1/7 12/1/7
f 10/1/7 23/1/7 22/1/7
f 8/1/7 24/1/7 23/1/7
f 4/1/7 24/1/7 6/1/7
f 1/1/10 26/1/10 25/1/10
f 5/1/10 26/1/10 3/1/10
f 7/1/10 27/1/10 5/1/10
f 7/1/10 29/1/10 28/1/10
f 9/1/10 30/1/10 29/1/10
f 11/1/10 31/1/10 30/1/10
f 15/1/10 31/1/10 13/1/10
f 15/1/10 25/1/10 32/1/10
f 60/3/10 98/3/10 148/3/10
f 156/3/9 40/3/9 149/3/9
f 104/3/7 38/3/7 62/3/7
f 144/4/7 131/5/7 140/4/7
f 101/3/11 38/3/11 100/3/11
f 117/3/6 50/3/6 114/3/6
f 70/6/12 72/6/12 69/6/12
f 74/6/13 76/6/13 73/6/13
f 116/3/7 50/3/7 63/3/7
f 50/3/7 64/3/7 63/3/7
f 64/3/7 52/3/7 65/3/7
f 108/3/10 44/3/10 66/3/10
f 44/3/10 67/3/10 66/3/10
f 45/3/10 68/3/10 67/3/10
f 56/3/6 54/3/6 57/3/6
f 54/3/6 58/3/6 57/3/6
f 78/6/14 80/6/14 77/6/14
f 82/6/15 84/6/15 81/6/15
f 85/6/13 87/6/13 88/6/13
f 89/6/12 91/6/12 92/6/12
f 67/3/10 41/3/10 42/3/10
f 43/3/10 67/3/10 42/3/10
f 64/3/7 47/3/7 48/3/7
f 49/3/7 64/3/7 48/3/7
f 122/7/16 124/7/16 121/7/16
f 102/8/7 62/8/7 37/8/7
f 125/9/17 127/10/17 128/10/17
f 95/8/10 60/8/10 35/8/10
f 45/3/12 69/3/12 46/3/12
f 45/3/12 71/3/12 70/3/12
f 55/3/12 71/3/12 54/3/12
f 55/3/12 69/3/12 72/3/12
f 51/3/13 73/3/13 52/3/13
f 57/3/13 74/3/13 51/3/13
f 58/3/13 75/3/13 57/3/13
f 58/3/13 73/3/13 76/3/13
f 52/3/18 77/3/18 44/3/18
f 58/3/19 78/3/19 52/3/19
f 53/3/18 79/3/18 58/3/18
f 53/3/20 77/3/20 80/3/20
f 46/3/21 81/3/21 50/3/21
f 55/3/22 82/3/22 46/3/22
f 56/3/21 83/3/21 55/3/21
f 56/3/23 81/3/23 84/3/23
f 51/3/13 86/3/13 85/3/13
f 56/3/13 86/3/13 50/3/13
f 56/3/13 88/3/13 87/3/13
f 51/3/13 88/3/13 57/3/13
f 45/3/12 90/3/12 89/3/12
f 53/3/12 90/3/12 44/3/12
f 53/3/12 92/3/12 91/3/12
f 54/3/12 89/3/12 92/3/12
f 61/8/7 94/8/7 39/8/7
f 149/3/7 40/3/7 96/3/7
f 145/3/6 36/3/6 93/3/6
f 120/3/10 93/3/10 98/3/10
f 59/8/10 99/8/10 33/8/10
f 34/3/10 103/3/10 59/3/10
f 105/3/24 100/3/24 110/3/24
f 112/3/7 100/3/7 104/3/7
f 52/3/7 111/3/7 65/3/7
f 111/3/7 110/3/7 112/3/7
f 44/3/24 109/3/24 52/3/24
f 106/3/24 110/3/24 109/3/24
f 101/3/10 107/3/10 103/3/10
f 105/3/10 108/3/10 107/3/10
f 46/3/10 119/3/10 68/3/10
f 117/3/10 120/3/10 119/3/10
f 96/3/7 115/3/7 97/3/7
f 113/3/7 116/3/7 115/3/7
f 93/3/6 113/3/6 96/3/6
f 118/3/6 114/3/6 113/3/6
f 62/8/16 121/11/16 37/8/16
f 62/8/16 123/12/16 122/11/16
f 33/8/16 123/12/16 59/8/16
f 37/8/16 124/11/16 33/8/16
f 60/8/17 125/8/17 35/8/17
f 152/8/17 61/8/17 127/8/17
f 39/8/17 127/8/17 61/8/17
f 39/8/17 125/8/17 128/8/17
f 129/4/7 62/4/7 134/4/7
f 130/3/4 38/3/4 137/3/4
f 131/5/7 34/4/7 140/4/7
f 132/3/4 59/3/4 136/3/4
f 62/3/4 129/3/4 135/3/4
f 59/3/4 135/3/4 136/3/4
f 59/4/7 132/4/7 139/4/7
f 59/3/4 140/3/4 34/3/4
f 34/3/4 131/3/4 138/3/4
f 34/3/4 137/3/4 38/3/4
f 38/4/7 130/4/7 133/4/7
f 62/3/4 133/3/4 134/3/4
f 136/4/7 139/4/7 132/4/7
f 144/13/4 139/13/4 142/13/4
f 129/4/7 141/4/7 135/4/7
f 135/4/25 142/4/25 136/4/25
f 134/13/4 143/13/4 141/13/4
f 143/3/4 142/3/4 141/3/4
f 133/4/26 137/4/26 143/4/26
f 143/4/25 138/4/25 144/4/25
f 60/8/17 151/8/17 126/14/17
f 152/8/17 126/14/17 151/8/17
f 40/3/6 146/3/6 96/3/6
f 145/3/6 96/3/6 146/3/6
f 61/3/7 150/3/7 97/3/7
f 149/3/7 97/3/7 150/3/7
f 154/3/9 61/3/9 152/3/9
f 156/15/9 150/15/9 154/15/9
f 60/3/9 153/3/9 151/3/9
f 151/3/9 154/3/9 152/3/9
f 147/15/9 153/15/9 148/15/9
f 155/3/9 154/3/9 153/3/9
f 36/3/9 155/3/9 147/3/9
f 145/3/9 156/3/9 155/3/9
f 93/3/10 36/3/10 147/3/10
f 93/3/10 148/3/10 98/3/10
f 158/1/1 159/1/1 157/1/1
f 160/1/2 161/1/2 159/1/2
f 161/1/3 164/1/3 163/1/3
f 164/1/4 165/1/4 163/1/4
f 166/1/5 167/1/5 165/1/5
f 168/1/6 169/1/6 167/1/6
f 176/2/7 178/2/7 180/2/7
f 170/1/8 171/1/8 169/1/8
f 172/1/9 157/1/9 171/1/9
f 184/2/10 186/2/10 188/2/10
f 160/1/7 174/1/7 173/1/7
f 158/1/7 175/1/7 174/1/7
f 172/1/7 176/1/7 175/1/7
f 168/1/7 176/1/7 170/1/7
f 166/1/7 177/1/7 168/1/7
f 164/1/7 178/1/7 166/1/7
f 162/1/7 179/1/7 164/1/7
f 162/1/7 173/1/7 180/1/7
f 159/1/10 181/1/10 157/1/10
f 161/1/10 182/1/10 159/1/10
f 163/1/10 183/1/10 161/1/10
f 165/1/10 184/1/10 163/1/10
f 165/1/10 186/1/10 185/1/10
f 167/1/10 187/1/10 186/1/10
f 171/1/10 187/1/10 169/1/10
f 157/1/10 188/1/10 171/1/10
f 189/1/1 192/1/1 191/1/1
f 192/1/2 193/1/2 191/1/2
f 194/1/3 195/1/3 193/1/3
f 196/1/4 197/1/4 195/1/4
f 198/1/5 199/1/5 197/1/5
f 200/1/6 201/1/6 199/1/6
f 208/2/7 210/2/7 212/2/7
f 202/1/8 203/1/8 201/1/8
f 204/1/9 189/1/9 203/1/9
f 216/2/10 218/2/10 220/2/10
f 192/1/7 206/1/7 205/1/7
f 190/1/7 207/1/7 206/1/7
f 204/1/7 208/1/7 207/1/7
f 200/1/7 208/1/7 202/1/7
f 198/1/7 209/1/7 200/1/7
f 196/1/7 210/1/7 198/1/7
f 194/1/7 211/1/7 196/1/7
f 192/1/7 212/1/7 194/1/7
f 191/1/10 213/1/10 189/1/10
f 193/1/10 214/1/10 191/1/10
f 195/1/10 215/1/10 193/1/10
f 197/1/10 216/1/10 195/1/10
f 197/1/10 218/1/10 217/1/10
f 199/1/10 219/1/10 218/1/10
f 203/1/10 219/1/10 201/1/10
f 189/1/10 220/1/10 203/1/10
f 222/1/1 223/1/1 221/1/1
f 224/1/2 225/1/2 223/1/2
f 225/1/3 228/1/3 227/1/3
f 228/1/4 229/1/4 227/1/4
f 230/1/5 231/1/5 229/1/5
f 232/1/6 233/1/6 231/1/6
f 240/2/7 242/2/7 244/2/7
f 234/1/8 235/1/8 233/1/8
f 236/1/9 221/1/9 235/1/9
f 248/2/10 250/2/10 252/2/10
f 222/1/7 237/1/7 224/1/7
f 236/1/7 238/1/7 222/1/7
f 236/1/7 240/1/7 239/1/7
f 232/1/7 240/1/7 234/1/7
f 230/1/7 241/1/7 232/1/7
f 228/1/7 242/1/7 230/1/7
f 228/1/7 244/1/7 243/1/7
f 226/1/7 237/1/7 244/1/7
f 221/1/10 246/1/10 245/1/10
f 225/1/10 246/1/10 223/1/10
f 227/1/10 247/1/10 225/1/10
f 229/1/10 248/1/10 227/1/10
f 229/1/10 250/1/10 249/1/10
f 231/1/10 251/1/10 250/1/10
f 235/1/10 251/1/10 233/1/10
f 221/1/10 252/1/10 235/1/10
f 1/1/1 2/1/1 4/1/1
f 4/1/2 6/1/2 5/1/2
f 6/1/3 8/1/3 7/1/3
f 8/1/4 10/1/4 9/1/4
f 10/1/5 12/1/5 11/1/5
f 12/1/6 14/1/6 13/1/6
f 24/2/7 17/2/7 18/2/7
f 18/2/7 19/2/7 20/2/7
f 20/2/7 21/2/7 22/2/7
f 22/2/7 23/2/7 24/2/7
f 24/2/7 18/2/7 20/2/7
f 13/1/8 14/1/8 16/1/8
f 16/1/9 2/1/9 1/1/9
f 32/2/10 25/2/10 26/2/10
f 26/2/10 27/2/10 28/2/10
f 28/2/10 29/2/10 30/2/10
f 30/2/10 31/2/10 32/2/10
f 32/2/10 26/2/10 28/2/10
f 2/1/7 18/1/7 17/1/7
f 16/1/7 19/1/7 18/1/7
f 16/1/7 14/1/7 20/1/7
f 12/1/7 21/1/7 20/1/7
f 10/1/7 22/1/7 21/1/7
f 10/1/7 8/1/7 23/1/7
f 8/1/7 6/1/7 24/1/7
f 4/1/7 17/1/7 24/1/7
f 1/1/10 3/1/10 26/1/10
f 5/1/10 27/1/10 26/1/10
f 7/1/10 28/1/10 27/1/10
f 7/1/10 9/1/10 29/1/10
f 9/1/10 11/1/10 30/1/10
f 11/1/10 13/1/10 31/1/10
f 15/1/10 32/1/10 31/1/10
f 15/1/10 1/1/10 25/1/10
f 156/3/9 146/3/9 40/3/9
f 104/3/7 100/3/7 38/3/7
f 144/4/26 138/4/26 131/5/26
f 101/3/11 34/3/11 38/3/11
f 117/3/6 46/3/6 50/3/6
f 70/6/12 71/6/12 72/6/12
f 74/6/13 75/6/13 76/6/13
f 116/3/7 114/3/7 50/3/7
f 50/3/7 51/3/7 64/3/7
f 64/3/7 51/3/7 52/3/7
f 108/3/10 106/3/10 44/3/10
f 44/3/10 45/3/10 67/3/10
f 45/3/10 46/3/10 68/3/10
f 56/3/6 55/3/6 54/3/6
f 54/3/6 53/3/6 58/3/6
f 78/6/14 79/6/14 80/6/14
f 82/6/15 83/6/15 84/6/15
f 85/6/13 86/6/13 87/6/13
f 89/6/12 90/6/12 91/6/12
f 67/3/10 68/3/10 41/3/10
f 43/3/10 66/3/10 67/3/10
f 64/3/7 65/3/7 47/3/7
f 49/3/7 63/3/7 64/3/7
f 122/7/16 123/7/16 124/7/16
f 102/8/7 104/8/7 62/8/7
f 125/9/17 126/10/17 127/10/17
f 95/8/10 98/8/10 60/8/10
f 45/3/12 70/3/12 69/3/12
f 45/3/12 54/3/12 71/3/12
f 55/3/12 72/3/12 71/3/12
f 55/3/12 46/3/12 69/3/12
f 51/3/13 74/3/13 73/3/13
f 57/3/13 75/3/13 74/3/13
f 58/3/13 76/3/13 75/3/13
f 58/3/13 52/3/13 73/3/13
f 52/3/18 78/3/18 77/3/18
f 58/3/27 79/3/27 78/3/27
f 53/3/18 80/3/18 79/3/18
f 53/3/28 44/3/28 77/3/28
f 46/3/21 82/3/21 81/3/21
f 55/3/29 83/3/29 82/3/29
f 56/3/21 84/3/21 83/3/21
f 56/3/30 50/3/30 81/3/30
f 51/3/13 50/3/13 86/3/13
f 56/3/13 87/3/13 86/3/13
f 56/3/13 57/3/13 88/3/13
f 51/3/13 85/3/13 88/3/13
f 45/3/12 44/3/12 90/3/12
f 53/3/12 91/3/12 90/3/12
f 53/3/12 54/3/12 92/3/12
f 54/3/12 45/3/12 89/3/12
f 61/8/7 97/8/7 94/8/7
f 120/3/10 118/3/10 93/3/10
f 59/8/10 103/8/10 99/8/10
f 34/3/10 101/3/10 103/3/10
f 105/3/24 101/3/24 100/3/24
f 112/3/7 110/3/7 100/3/7
f 52/3/7 109/3/7 111/3/7
f 111/3/7 109/3/7 110/3/7
f 44/3/24 106/3/24 109/3/24
f 106/3/24 105/3/24 110/3/24
f 101/3/10 105/3/10 107/3/10
f 105/3/10 106/3/10 108/3/10
f 46/3/10 117/3/10 119/3/10
f 117/3/10 118/3/10 120/3/10
f 96/3/7 113/3/7 115/3/7
f 113/3/7 114/3/7 116/3/7
f 93/3/6 118/3/6 113/3/6
f 118/3/6 117/3/6 114/3/6
f 62/8/16 122/11/16 121/11/16
f 62/8/16 59/8/16 123/12/16
f 33/8/16 124/11/16 123/12/16
f 37/8/16 121/11/16 124/11/16
f 60/8/17 126/14/17 125/8/17
f 39/8/17 128/8/17 127/8/17
f 39/8/17 35/8/17 125/8/17
f 59/3/4 62/3/4 135/3/4
f 59/3/4 139/3/4 140/3/4
f 34/3/4 138/3/4 137/3/4
f 62/3/4 38/3/4 133/3/4
f 136/4/7 142/4/7 139/4/7
f 144/13/4 140/13/4 139/13/4
f 129/4/7 134/4/7 141/4/7
f 135/4/7 141/4/7 142/4/7
f 134/13/4 133/13/4 143/13/4
f 143/3/4 144/3/4 142/3/4
f 133/4/7 130/4/7 137/4/7
f 143/4/7 137/4/7 138/4/7
f 152/8/17 127/8/17 126/14/17
f 145/3/6 93/3/6 96/3/6
f 149/3/7 96/3/7 97/3/7
f 154/3/9 150/3/9 61/3/9
f 156/15/9 149/15/9 150/15/9
f 60/3/9 148/3/9 153/3/9
f 151/3/9 153/3/9 154/3/9
f 147/15/9 155/15/9 153/15/9
f 155/3/9 156/3/9 154/3/9
f 36/3/9 145/3/9 155/3/9
f 145/3/9 146/3/9 156/3/9
f 93/3/10 147/3/10 148/3/10
f 158/1/1 160/1/1 159/1/1
f 160/1/2 162/1/2 161/1/2
f 161/1/3 162/1/3 164/1/3
f 164/1/4 166/1/4 165/1/4
f 166/1/5 168/1/5 167/1/5
f 168/1/6 170/1/6 169/1/6
f 180/2/7 173/2/7 174/2/7
f 174/2/7 175/2/7 176/2/7
f 176/2/7 177/2/7 178/2/7
f 178/2/7 179/2/7 180/2/7
f 180/2/7 174/2/7 176/2/7
f 170/1/8 172/1/8 171/1/8
f 172/1/9 158/1/9 157/1/9
f 188/2/10 181/2/10 182/2/10
f 182/2/10 183/2/10 184/2/10
f 184/2/10 185/2/10 186/2/10
f 186/2/10 187/2/10 188/2/10
f 188/2/10 182/2/10 184/2/10
f 160/1/7 158/1/7 174/1/7
f 158/1/7 172/1/7 175/1/7
f 172/1/7 170/1/7 176/1/7
f 168/1/7 177/1/7 176/1/7
f 166/1/7 178/1/7 177/1/7
f 164/1/7 179/1/7 178/1/7
f 162/1/7 180/1/7 179/1/7
f 162/1/7 160/1/7 173/1/7
f 159/1/10 182/1/10 181/1/10
f 161/1/10 183/1/10 182/1/10
f 163/1/10 184/1/10 183/1/10
f 165/1/10 185/1/10 184/1/10
f 165/1/10 167/1/10 186/1/10
f 167/1/10 169/1/10 187/1/10
f 171/1/10 188/1/10 187/1/10
f 157/1/10 181/1/10 188/1/10
f 189/1/1 190/1/1 192/1/1
f 192/1/2 194/1/2 193/1/2
f 194/1/3 196/1/3 195/1/3
f 196/1/4 198/1/4 197/1/4
f 198/1/5 200/1/5 199/1/5
f 200/1/6 202/1/6 201/1/6
f 212/2/7 205/2/7 206/2/7
f 206/2/7 207/2/7 208/2/7
f 208/2/7 209/2/7 210/2/7
f 210/2/7 211/2/7 212/2/7
f 212/2/7 206/2/7 208/2/7
f 202/1/8 204/1/8 203/1/8
f 204/1/9 190/1/9 189/1/9
f 220/2/10 213/2/10 214/2/10
f 214/2/10 215/2/10 216/2/10
f 216/2/10 217/2/10 218/2/10
f 218/2/10 219/2/10 220/2/10
f 220/2/10 214/2/10 216/2/10
f 192/1/7 190/1/7 206/1/7
f 190/1/7 204/1/7 207/1/7
f 204/1/7 202/1/7 208/1/7
f 200/1/7 209/1/7 208/1/7
f 198/1/7 210/1/7 209/1/7
f 196/1/7 211/1/7 210/1/7
f 194/1/7 212/1/7 211/1/7
f 192/1/7 205/1/7 212/1/7
f 191/1/10 214/1/10 213/1/10
f 193/1/10 215/1/10 214/1/10
f 195/1/10 216/1/10 215/1/10
f 197/1/10 217/1/10 216/1/10
f 197/1/10 199/1/10 218/1/10
f 199/1/10 201/1/10 219/1/10
f 203/1/10 220/1/10 219/1/10
f 189/1/10 213/1/10 220/1/10
f 222/1/1 224/1/1 223/1/1
f 224/1/2 226/1/2 225/1/2
f 225/1/3 226/1/3 228/1/3
f 228/1/4 230/1/4 229/1/4
f 230/1/5 232/1/5 231/1/5
f 232/1/6 234/1/6 233/1/6
f 244/2/7 237/2/7 238/2/7
f 238/2/7 239/2/7 240/2/7
f 240/2/7 241/2/7 242/2/7
f 242/2/7 243/2/7 244/2/7
f 244/2/7 238/2/7 240/2/7
f 234/1/8 236/1/8 235/1/8
f 236/1/9 222/1/9 221/1/9
f 252/2/10 245/2/10 246/2/10
f 246/2/10 247/2/10 248/2/10
f 248/2/10 249/2/10 250/2/10
f 250/2/10 251/2/10 252/2/10
f 252/2/10 246/2/10 248/2/10
f 222/1/7 238/1/7 237/1/7
f 236/1/7 239/1/7 238/1/7
f 236/1/7 234/1/7 240/1/7
f 232/1/7 241/1/7 240/1/7
f 230/1/7 242/1/7 241/1/7
f 228/1/7 243/1/7 242/1/7
f 228/1/7 226/1/7 244/1/7
f 226/1/7 224/1/7 237/1/7
f 221/1/10 223/1/10 246/1/10
f 225/1/10 247/1/10 246/1/10
f 227/1/10 248/1/10 247/1/10
f 229/1/10 249/1/10 248/1/10
f 229/1/10 231/1/10 250/1/10
f 231/1/10 233/1/10 251/1/10
f 235/1/10 252/1/10 251/1/10
f 221/1/10 245/1/10 252/1/10
