# Blender 5.1.2
# www.blender.org
mtllib driver.mtl
o DRIVER
v -0.100000 1.031541 -0.181655
v -0.120000 0.640000 -0.220000
v 0.100000 1.031541 -0.181655
v 0.120000 0.640000 -0.220000
v -0.110000 0.610000 0.080000
v 0.110000 0.610000 0.080000
v -0.110000 0.310000 0.050000
v 0.110000 0.310000 0.050000
v -0.110000 0.240000 0.170000
v 0.110000 0.240000 0.170000
v -0.114471 1.130000 -0.117100
v 0.114471 1.130000 -0.117100
v -0.120066 1.349091 -0.053572
v 0.120066 1.349091 -0.053572
v 0.335069 1.072442 0.187813
v 0.278543 1.072187 0.207813
v -0.335069 1.072442 0.187813
v -0.278543 1.072187 0.207813
v -0.113182 0.786583 -0.248380
v 0.113182 0.786583 -0.248381
v -0.108922 0.640000 -0.795714
v 0.124261 0.640000 -0.795714
v -0.108922 0.786583 -0.795715
v 0.124261 0.786583 -0.795715
v -0.114471 1.130000 -0.114703
v 0.114471 1.130000 -0.114703
v -0.120066 1.349091 -0.051175
v 0.120066 1.349091 -0.051175
v 0.125648 1.080771 -0.162144
v -0.125648 1.080771 -0.162144
v 0.306806 1.072314 0.197813
v -0.306806 1.072314 0.197813
v 0.223853 1.091458 0.099509
v 0.169162 1.110729 -0.008795
v 0.178356 1.045174 -0.058499
v 0.256713 1.058808 0.064657
v 0.255619 1.092140 0.082083
v 0.195191 1.107419 -0.033647
v -0.256713 1.058808 0.064657
v -0.178356 1.045174 -0.058499
v -0.169162 1.110729 -0.008795
v -0.223853 1.091458 0.099509
v -0.255619 1.092140 0.082083
v -0.195191 1.107419 -0.033647
v 0.040000 0.664262 -0.260378
v -0.040000 0.664262 -0.260378
v -0.033333 1.031541 -0.222034
v 0.033333 1.031541 -0.222034
v 0.036667 0.668988 0.148068
v -0.036667 0.668988 0.148068
v 0.036667 0.310000 0.082015
v -0.036667 0.310000 0.082015
v 0.036667 0.240000 0.202015
v -0.036667 0.240000 0.202015
v -0.038157 1.130000 -0.157478
v 0.038157 1.130000 -0.157478
v -0.040022 1.349091 -0.053572
v 0.040022 1.349091 -0.053572
v -0.037727 0.786583 -0.288759
v 0.037727 0.786583 -0.288759
v -0.041883 1.080770 -0.202523
v 0.041883 1.080770 -0.202523
v -0.118201 1.276061 -0.074748
v -0.116336 1.203030 -0.095924
v 0.116336 1.203030 -0.095924
v 0.118201 1.276061 -0.074748
v -0.039400 1.276061 -0.109607
v -0.038779 1.203030 -0.130783
v 0.039400 1.276061 -0.109607
v 0.038779 1.203030 -0.130783
v -0.118201 1.276061 -0.072351
v -0.116336 1.203030 -0.093527
v 0.116336 1.203030 -0.093527
v 0.118201 1.276061 -0.072351
v -0.038157 1.130000 -0.157472
v 0.038157 1.130000 -0.157472
v 0.040022 1.349091 -0.051175
v -0.040022 1.349091 -0.051175
v -0.038779 1.203030 -0.033589
v 0.038779 1.203030 -0.033589
v -0.039400 1.276061 -0.012413
v 0.039400 1.276061 -0.012413
vn 0.4630 -0.1922 -0.8653
vn 0.2399 -0.9651 -0.1045
vn 0.6088 0.1436 -0.7803
vn 0.2148 -0.8436 -0.4921
vn 0.3191 0.6782 -0.6620
vn 0.3317 0.5725 -0.7498
vn 0.9056 0.2195 -0.3629
vn -0.0589 0.9875 0.1460
vn 0.4579 0.2413 -0.8556
vn -0.0000 -0.0000 -1.0000
vn -0.5587 -0.3851 -0.7345
vn -0.9056 0.2195 -0.3629
vn 0.0589 0.9875 0.1460
vn 0.5027 0.2417 -0.8300
vn 0.8136 0.4821 -0.3250
vn 0.1960 0.9777 0.0750
vn 0.8318 -0.2339 -0.5033
vn 0.8443 -0.0145 -0.5356
vn -0.8318 -0.2339 -0.5033
vn -0.8443 -0.0145 -0.5356
vn -0.8136 0.4821 -0.3250
vn -0.1959 0.9777 0.0750
vn -0.5027 0.2416 -0.8300
vn -0.0000 0.3684 -0.9296
vn -0.5013 0.2524 -0.8276
vn -0.0000 0.2628 -0.9648
vn -0.3317 0.5725 -0.7498
vn -0.0000 0.6087 -0.7934
vn -0.3191 0.6782 -0.6620
vn -0.0000 0.6750 -0.7378
vn -0.2148 -0.8436 -0.4921
vn -0.0000 -0.8638 -0.5039
vn -0.6088 0.1436 -0.7803
vn -0.0000 0.1810 -0.9835
vn -0.2399 -0.9651 -0.1045
vn -0.0000 -0.9999 0.0116
vn -0.4072 -0.1553 -0.9000
vn -0.0000 -0.2260 -0.9741
vn -0.0000 0.3433 -0.9392
vn -0.0000 0.2785 -0.9604
vn -0.4455 0.3040 -0.8421
vn -0.3967 0.2525 -0.8825
vn 0.4455 0.3040 -0.8421
vn 0.3967 0.2525 -0.8825
vn 0.2743 0.8278 -0.4894
vn -0.5939 0.2380 -0.7685
vn 0.5939 0.2380 -0.7685
vn -0.2743 0.8278 -0.4894
vn -0.0000 0.8615 -0.5078
vn 0.5587 -0.3851 -0.7345
vn -0.0000 -0.4688 -0.8833
vn 0.4072 -0.1553 -0.9000
vn 0.6245 -0.7810 0.0039
vn 0.3984 0.0913 -0.9126
vn 0.3574 0.6450 -0.6754
vn -0.0355 0.9955 -0.0876
vn -0.0479 0.9878 0.1480
vn 0.5013 0.2524 -0.8276
vn 0.0355 0.9955 -0.0876
vn 0.0479 0.9878 0.1480
vn 0.4306 0.1297 -0.8932
vn -0.0459 0.9828 -0.1790
vn 0.0393 0.9931 0.1106
vn 0.8828 -0.0523 -0.4669
vn 0.8716 0.2493 -0.4222
vn -0.8828 -0.0523 -0.4669
vn -0.8716 0.2493 -0.4222
vn 0.0459 0.9828 -0.1790
vn -0.0393 0.9931 0.1106
vn -0.4306 0.1297 -0.8932
vn -0.4579 0.2413 -0.8556
vn -0.3574 0.6450 -0.6754
vn -0.3984 0.0913 -0.9126
vn -0.6245 -0.7810 0.0039
vn -0.4630 -0.1922 -0.8653
vn -0.3973 0.2462 -0.8840
vn -0.3920 0.2470 -0.8862
vn 0.3973 0.2462 -0.8840
vn 0.3920 0.2470 -0.8862
vn -0.5892 0.2296 -0.7747
vn 0.5892 0.2296 -0.7747
vt 0.003664 0.697481
vt 0.042012 0.625400
vt 0.043203 0.697481
vt 0.042085 0.595409
vt 0.008565 0.410573
vt 0.003777 0.595409
vt 0.043681 0.497159
vt 0.043681 0.410573
vt 0.042873 0.389700
vt 0.008602 0.274861
vt 0.008602 0.389700
vt 0.046379 0.851602
vt 0.015812 0.866355
vt 0.013192 0.851602
vt 0.082465 0.996924
vt 0.122467 0.953697
vt 0.082465 0.953697
vt 0.191794 0.863297
vt 0.219277 0.783358
vt 0.191411 0.783601
vt 0.191624 0.783338
vt 0.217236 0.862807
vt 0.216839 0.782749
vt 0.045505 0.836850
vt 0.274865 0.896313
vt 0.392130 0.842266
vt 0.392130 0.896313
vt 0.208016 0.998973
vt 0.247430 0.955192
vt 0.207973 0.955192
vt 0.166409 0.783928
vt 0.191575 0.862621
vt 0.164062 0.863281
vt 0.163546 0.783844
vt 0.010572 0.836850
vt 0.163029 0.704407
vt 0.190647 0.624210
vt 0.162512 0.624969
vt 0.191029 0.703905
vt 0.219029 0.703404
vt 0.218781 0.623450
vt 0.166904 0.705420
vt 0.191722 0.624773
vt 0.167399 0.626912
vt 0.191673 0.704055
vt 0.216442 0.702691
vt 0.216045 0.622633
vt 0.115372 0.836850
vt 0.079565 0.851602
vt 0.080438 0.836850
vt 0.122279 0.697481
vt 0.082741 0.697481
vt 0.002461 0.953697
vt 0.042463 0.996924
vt 0.042463 0.953697
vt 0.110132 0.866355
vt 0.112752 0.851602
vt 0.078692 0.866355
vt 0.111414 0.274861
vt 0.077144 0.389700
vt 0.111414 0.389700
vt 0.077144 0.274861
vt 0.113912 0.410573
vt 0.078797 0.497159
vt 0.078797 0.410573
vt 0.080393 0.595409
vt 0.118701 0.595409
vt 0.083932 0.625400
vt 0.125852 0.625400
vt 0.042463 0.910469
vt 0.082465 0.867242
vt 0.042463 0.867242
vt 0.082465 0.910469
vt 0.002461 0.867242
vt 0.002461 0.910469
vt 0.122467 0.867242
vt 0.122467 0.910469
vt 0.207930 0.911410
vt 0.247430 0.867629
vt 0.207887 0.867629
vt 0.247430 0.911410
vt 0.129060 0.955192
vt 0.168431 0.911410
vt 0.128931 0.911410
vt 0.168517 0.955192
vt 0.128802 0.867629
vt 0.168344 0.867629
vt 0.168603 0.998973
vt 0.000092 0.625400
vt 0.008565 0.497159
vt 0.042873 0.274861
vt 0.047252 0.866355
vt 0.122467 0.996924
vt 0.219525 0.863312
vt 0.274865 0.842266
vt 0.247430 0.998973
vt 0.165914 0.862436
vt 0.002461 0.996924
vt 0.113912 0.497159
vt 0.129189 0.998973
s 0
usemtl Material.005
f 20/1/1 45/2/1 60/3/1
f 46/4/2 5/5/2 2/6/2
f 52/7/3 5/5/3 50/8/3
f 52/9/4 9/10/4 7/11/4
f 62/12/5 12/13/5 29/14/5
f 58/15/6 66/16/6 69/17/6
f 31/18/7 36/19/7 37/20/7
f 43/21/8 18/22/8 42/23/8
f 48/24/9 20/1/9 60/3/9
f 24/25/10 21/26/10 23/27/10
f 77/28/11 74/29/11 82/30/11
f 39/31/12 32/32/12 43/21/12
f 16/33/13 37/20/13 33/34/13
f 62/12/14 3/35/14 48/24/14
f 34/36/15 29/37/15 12/38/15
f 33/34/16 38/39/16 34/36/16
f 29/37/17 35/40/17 3/41/17
f 38/39/18 36/19/18 35/40/18
f 40/42/19 30/43/19 1/44/19
f 39/31/20 44/45/20 40/42/20
f 30/43/21 41/46/21 11/47/21
f 44/45/22 42/23/22 41/46/22
f 1/48/23 61/49/23 47/50/23
f 61/49/24 48/24/24 47/50/24
f 47/50/25 19/51/25 1/48/25
f 48/24/26 59/52/26 47/50/26
f 63/53/27 57/54/27 67/55/27
f 57/54/28 69/17/28 67/55/28
f 11/56/29 61/49/29 30/57/29
f 55/58/30 62/12/30 61/49/30
f 10/59/31 51/60/31 8/61/31
f 53/62/32 52/9/32 51/60/32
f 6/63/33 51/64/33 49/65/33
f 49/65/34 52/7/34 50/8/34
f 6/63/35 45/66/35 4/67/35
f 49/65/36 46/4/36 45/66/36
f 19/51/37 46/68/37 2/69/37
f 60/3/38 46/68/38 59/52/38
f 68/70/39 56/71/39 55/72/39
f 68/70/40 69/17/40 70/73/40
f 11/74/41 68/70/41 55/72/41
f 64/75/42 67/55/42 68/70/42
f 70/73/43 12/76/43 56/71/43
f 69/17/44 65/77/44 70/73/44
f 80/78/45 26/79/45 76/80/45
f 80/78/46 74/29/46 73/81/46
f 71/82/47 79/83/47 72/84/47
f 81/85/40 80/78/40 79/83/40
f 25/86/48 79/83/48 75/87/48
f 75/87/49 80/78/49 76/80/49
f 71/82/50 78/88/50 81/85/50
f 78/88/51 82/30/51 81/85/51
f 20/1/52 4/89/52 45/2/52
f 46/4/53 50/8/53 5/5/53
f 52/7/54 7/90/54 5/5/54
f 52/9/4 54/91/4 9/10/4
f 62/12/55 56/92/55 12/13/55
f 58/15/40 14/93/40 66/16/40
f 31/18/56 15/94/56 36/19/56
f 43/21/57 32/32/57 18/22/57
f 48/24/58 3/35/58 20/1/58
f 24/25/10 22/95/10 21/26/10
f 77/28/40 28/96/40 74/29/40
f 39/31/59 17/97/59 32/32/59
f 16/33/60 31/18/60 37/20/60
f 62/12/61 29/14/61 3/35/61
f 34/36/62 38/39/62 29/37/62
f 33/34/63 37/20/63 38/39/63
f 29/37/64 38/39/64 35/40/64
f 38/39/65 37/20/65 36/19/65
f 40/42/66 44/45/66 30/43/66
f 39/31/67 43/21/67 44/45/67
f 30/43/68 44/45/68 41/46/68
f 44/45/69 43/21/69 42/23/69
f 1/48/70 30/57/70 61/49/70
f 61/49/24 62/12/24 48/24/24
f 47/50/71 59/52/71 19/51/71
f 48/24/26 60/3/26 59/52/26
f 63/53/40 13/98/40 57/54/40
f 57/54/28 58/15/28 69/17/28
f 11/56/72 55/58/72 61/49/72
f 55/58/30 56/92/30 62/12/30
f 10/59/31 53/62/31 51/60/31
f 53/62/32 54/91/32 52/9/32
f 6/63/73 8/99/73 51/64/73
f 49/65/34 51/64/34 52/7/34
f 6/63/74 49/65/74 45/66/74
f 49/65/36 50/8/36 46/4/36
f 19/51/75 59/52/75 46/68/75
f 60/3/38 45/2/38 46/68/38
f 68/70/39 70/73/39 56/71/39
f 68/70/40 67/55/40 69/17/40
f 11/74/76 64/75/76 68/70/76
f 64/75/77 63/53/77 67/55/77
f 70/73/78 65/77/78 12/76/78
f 69/17/79 66/16/79 65/77/79
f 80/78/46 73/81/46 26/79/46
f 80/78/80 82/30/80 74/29/80
f 71/82/81 81/85/81 79/83/81
f 81/85/40 82/30/40 80/78/40
f 25/86/47 72/84/47 79/83/47
f 75/87/49 79/83/49 80/78/49
f 71/82/40 27/100/40 78/88/40
f 78/88/51 77/28/51 82/30/51
