# Blender 5.1.2
# www.blender.org
mtllib road2.mtl
o ROAD2
v -3.000000 0.000000 5.000000
v -2.000000 0.000000 5.000000
v -1.000000 0.000000 5.000000
v 0.200000 0.000000 5.000000
v 1.000000 0.000000 5.000000
v 2.000000 0.000000 5.000000
v 3.000000 0.000000 5.000000
v 3.000000 0.000000 -5.000000
v 2.000000 0.000000 -5.000000
v 1.000000 0.000000 -5.000000
v 0.200000 0.000000 -5.000000
v -1.000000 0.000000 -5.000000
v -2.000000 0.000000 -5.000000
v -3.000000 0.000000 -5.000000
v -3.000000 0.000000 4.000000
v -3.000000 0.000000 3.000000
v -3.000000 0.000000 2.000000
v -3.000000 0.000000 1.000000
v -3.000000 0.000000 0.000000
v -3.000000 0.000000 -1.000000
v -3.000000 0.000000 -2.000000
v -3.000000 0.000000 -3.000000
v -3.000000 0.000000 -4.000000
v -2.000000 0.000000 4.000000
v -2.000000 0.000000 3.000000
v -2.000000 0.000000 2.000000
v -2.000000 0.000000 1.000000
v -2.000000 0.000000 0.000000
v -2.000000 0.000000 -1.000000
v -2.000000 0.000000 -2.000000
v -2.000000 0.000000 -3.000000
v -2.000000 0.000000 -4.000000
v -1.000000 0.000000 4.000000
v -1.000000 0.000000 3.000000
v -1.000000 0.000000 2.000000
v -1.000000 0.000000 1.000000
v -1.000000 0.000000 0.000000
v -1.000000 0.000000 -1.000000
v -1.000000 0.000000 -2.000000
v -1.000000 0.000000 -3.000000
v -1.000000 0.000000 -4.000000
v 0.200000 0.000000 4.000000
v 0.200000 0.000000 3.000000
v 0.200000 0.000000 2.000000
v 0.200000 0.000000 1.000000
v 0.200000 0.000000 0.000000
v 0.200000 0.000000 -1.000000
v 0.200000 0.000000 -2.000000
v 0.200000 0.000000 -3.000000
v 0.200000 0.000000 -4.000000
v 1.000000 0.000000 4.000000
v 1.000000 0.000000 3.000000
v 1.000000 0.000000 2.000000
v 1.000000 0.000000 1.000000
v 1.000000 0.000000 0.000000
v 1.000000 0.000000 -1.000000
v 1.000000 0.000000 -2.000000
v 1.000000 0.000000 -3.000000
v 1.000000 0.000000 -4.000000
v 2.000000 0.000000 4.000000
v 2.000000 0.000000 3.000000
v 2.000000 0.000000 2.000000
v 2.000000 0.000000 1.000000
v 2.000000 0.000000 0.000000
v 2.000000 0.000000 -1.000000
v 2.000000 0.000000 -2.000000
v 2.000000 0.000000 -3.000000
v 2.000000 0.000000 -4.000000
v 3.000000 0.000000 4.000000
v 3.000000 0.000000 3.000000
v 3.000000 0.000000 2.000000
v 3.000000 0.000000 1.000000
v 3.000000 0.000000 0.000000
v 3.000000 0.000000 -1.000000
v 3.000000 0.000000 -2.000000
v 3.000000 0.000000 -3.000000
v 3.000000 0.000000 -4.000000
v -5.000000 0.142152 4.000000
v -5.000000 0.142152 5.000000
v 4.000000 0.142152 5.000000
v 5.000000 0.142152 5.000000
v 5.000000 0.142152 -4.000000
v 5.000000 0.142152 -5.000000
v -4.000000 0.142152 -5.000000
v -5.000000 0.142152 -5.000000
v -5.000000 0.142152 -4.000000
v -5.000000 0.142152 -3.000000
v -5.000000 0.142152 -2.000000
v -5.000000 0.142152 -1.000000
v -5.000000 0.142152 0.000000
v -5.000000 0.142152 1.000000
v -5.000000 0.142152 2.000000
v -5.000000 0.142152 3.000000
v -4.000000 0.142152 5.000000
v -3.000000 0.142152 5.000000
v 3.000000 0.142152 5.000000
v 5.000000 0.142152 4.000000
v 5.000000 0.142152 3.000000
v 5.000000 0.142152 2.000000
v 5.000000 0.142152 1.000000
v 5.000000 0.142152 0.000000
v 5.000000 0.142152 -1.000000
v 5.000000 0.142152 -2.000000
v 5.000000 0.142152 -3.000000
v 4.000000 0.142152 -5.000000
v 3.000000 0.142152 -5.000000
v -3.000000 0.142152 -5.000000
v -4.000000 0.142152 -4.000000
v -4.000000 0.142152 4.000000
v -4.000000 0.142152 3.000000
v -4.000000 0.142152 2.000000
v -4.000000 0.142152 1.000000
v -4.000000 0.142152 0.000000
v -4.000000 0.142152 -1.000000
v -4.000000 0.142152 -2.000000
v -4.000000 0.142152 -3.000000
v -3.000000 0.142152 -4.000000
v -3.000000 0.142152 4.000000
v -3.000000 0.142152 3.000000
v -3.000000 0.142152 2.000000
v -3.000000 0.142152 1.000000
v -3.000000 0.142152 0.000000
v -3.000000 0.142152 -1.000000
v -3.000000 0.142152 -2.000000
v -3.000000 0.142152 -3.000000
v 3.000000 0.142152 -4.000000
v 3.000000 0.142152 4.000000
v 3.000000 0.142152 3.000000
v 3.000000 0.142152 2.000000
v 3.000000 0.142152 1.000000
v 3.000000 0.142152 0.000000
v 3.000000 0.142152 -1.000000
v 3.000000 0.142152 -2.000000
v 3.000000 0.142152 -3.000000
v 4.000000 0.142152 -4.000000
v 4.000000 0.142152 4.000000
v 4.000000 0.142152 3.000000
v 4.000000 0.142152 2.000000
v 4.000000 0.142152 1.000000
v 4.000000 0.142152 0.000000
v 4.000000 0.142152 -1.000000
v 4.000000 0.142152 -2.000000
v 4.000000 0.142152 -3.000000
v -0.200000 0.000000 5.000000
v -0.200000 0.000000 -5.000000
v -0.200000 0.000000 4.000000
v -0.200000 0.000000 3.000000
v -0.200000 0.000000 2.000000
v -0.200000 0.000000 1.000000
v -0.200000 0.000000 0.000000
v -0.200000 0.000000 -1.000000
v -0.200000 0.000000 -2.000000
v -0.200000 0.000000 -3.000000
v -0.200000 0.000000 -4.000000
v -4.700655 0.140087 -1.733984
v -4.517263 0.140087 -1.550592
v -4.700655 0.140087 -1.367200
v -4.884046 0.140087 -1.550592
v -4.517263 0.186333 -1.550592
v -4.700655 0.186333 -1.733984
v -4.700655 0.186333 -1.367200
v -4.884046 0.186333 -1.550592
v -4.700655 0.186333 -1.482545
v -4.768702 0.186333 -1.550592
v -4.700655 0.186333 -1.618639
v -4.632608 0.186333 -1.550592
v -4.760700 1.736611 -1.550592
v -4.700655 1.736611 -1.482545
v -4.640610 1.736611 -1.550592
v -4.700655 1.736611 -1.618639
v -3.691559 0.140087 -1.733984
v -3.508167 0.140087 -1.550592
v -3.691559 0.140087 -1.367200
v -3.874950 0.140087 -1.550592
v -3.508167 0.186333 -1.550592
v -3.691559 0.186333 -1.733984
v -3.691559 0.186333 -1.367200
v -3.874950 0.186333 -1.550592
v -3.691559 0.186333 -1.482545
v -3.759605 0.186333 -1.550592
v -3.691559 0.186333 -1.618639
v -3.623512 0.186333 -1.550592
v -3.751604 1.736611 -1.550592
v -3.691559 1.736611 -1.482545
v -3.631514 1.736611 -1.550592
v -3.691559 1.736611 -1.618639
v -4.700655 0.140087 1.243444
v -4.517263 0.140087 1.426836
v -4.700655 0.140087 1.610227
v -4.884046 0.140087 1.426836
v -4.517263 0.186333 1.426836
v -4.700655 0.186333 1.243444
v -4.700655 0.186333 1.610227
v -4.884046 0.186333 1.426836
v -4.700655 0.186333 1.494882
v -4.768702 0.186333 1.426836
v -4.700655 0.186333 1.358789
v -4.632608 0.186333 1.426836
v -4.760700 1.736611 1.426836
v -4.700655 1.736611 1.494882
v -4.640610 1.736611 1.426836
v -4.700655 1.736611 1.358789
v -3.691559 0.140087 1.243444
v -3.508167 0.140087 1.426836
v -3.691559 0.140087 1.610227
v -3.874950 0.140087 1.426836
v -3.508167 0.186333 1.426836
v -3.691559 0.186333 1.243444
v -3.691559 0.186333 1.610227
v -3.874950 0.186333 1.426836
v -3.691559 0.186333 1.494882
v -3.759605 0.186333 1.426836
v -3.691559 0.186333 1.358789
v -3.623512 0.186333 1.426836
v -3.751604 1.736611 1.426836
v -3.691559 1.736611 1.494882
v -3.631514 1.736611 1.426836
v -3.691559 1.736611 1.358789
v -4.760700 1.828455 -1.550592
v -4.700655 1.828455 -1.482545
v -4.640610 1.828455 -1.550592
v -4.700655 1.828455 -1.618639
v -3.691559 1.828455 -1.482545
v -3.751604 1.828455 -1.550592
v -3.631514 1.828455 -1.550592
v -3.691559 1.828455 -1.618639
v -4.700655 1.828455 1.494882
v -4.760700 1.828455 1.426836
v -4.640610 1.828455 1.426836
v -4.700655 1.828455 1.358789
v -3.691559 1.828455 1.494882
v -3.751604 1.828455 1.426836
v -3.631514 1.828455 1.426836
v -3.691559 1.828455 1.358789
v -4.700655 0.961472 -1.618639
v -4.764701 0.961472 -1.550592
v -4.700655 0.961472 -1.482545
v -4.636609 0.961472 -1.550592
v -4.700655 0.961472 1.358789
v -4.764701 0.961472 1.426836
v -4.700655 0.961472 1.494882
v -4.636609 0.961472 1.426836
v -4.766701 0.388704 1.426836
v -4.700655 0.388704 1.494882
v -4.700655 0.388704 1.358789
v -4.634608 0.388704 1.426836
v -4.766701 0.388704 -1.550592
v -4.700655 0.388704 -1.482545
v -4.700655 0.388704 -1.618639
v -4.634608 0.388704 -1.550592
v -4.760700 1.828455 -1.550592
v -4.760700 1.828455 1.426836
v -3.752631 2.002852 -1.550592
v -3.752631 2.002852 1.426836
v -4.642432 2.002852 -1.550592
v -4.642432 2.002852 1.426836
v -4.060791 2.139715 -1.550592
v -4.060791 2.139715 1.426836
v -4.342994 2.139715 -1.550592
v -4.342994 2.139715 1.426836
v -4.273360 0.486242 -0.493750
v -4.273360 0.486242 1.162940
v -4.600934 0.486242 -0.493750
v -4.600934 0.486242 1.162940
v -4.308496 0.536834 -0.493750
v -4.308496 0.536834 1.162940
v -4.566625 0.536834 -0.493750
v -4.566625 0.536834 1.162940
v -4.397892 0.554671 -0.493750
v -4.397892 0.554671 1.162940
v -4.479759 0.554671 -0.493750
v -4.479759 0.554671 1.162940
v -4.273360 0.486242 0.990191
v -4.273360 0.486242 0.918222
v -4.273360 0.486242 -0.249032
v -4.273360 0.486242 -0.321001
v -4.600934 0.486242 0.990191
v -4.600934 0.486242 0.918222
v -4.600934 0.486242 -0.249032
v -4.600934 0.486242 -0.321001
v -4.308496 0.536834 0.990191
v -4.308496 0.536834 0.918222
v -4.308496 0.536834 -0.249032
v -4.308496 0.536834 -0.321001
v -4.566625 0.536834 0.990191
v -4.566625 0.536834 0.918222
v -4.566625 0.536834 -0.249032
v -4.566625 0.536834 -0.321001
v -4.397892 0.554671 0.990191
v -4.397892 0.554671 0.918222
v -4.397892 0.554671 -0.249032
v -4.397892 0.554671 -0.321001
v -4.479759 0.554671 0.990191
v -4.479759 0.554671 0.918222
v -4.479759 0.554671 -0.249032
v -4.479759 0.554671 -0.321001
v -4.397892 0.139815 0.990191
v -4.397892 0.139815 0.918222
v -4.397892 0.139815 -0.249032
v -4.397892 0.139815 -0.321001
v -4.479759 0.139815 0.990191
v -4.479759 0.139815 0.918222
v -4.479759 0.139815 -0.249032
v -4.479759 0.139815 -0.321001
vn -1.0000 -0.0000 -0.0000
vn 1.0000 -0.0000 -0.0000
vn -0.0000 1.0000 -0.0000
vn 0.7282 -0.0038 0.6854
vn 0.7071 -0.0000 0.7071
vn -0.7071 -0.0000 0.7071
vn 0.7071 -0.0000 -0.7071
vn -0.7071 -0.0000 -0.7071
vn -0.0000 -1.0000 -0.0000
vn 0.7498 -0.0000 -0.6616
vn -0.7498 -0.0000 0.6616
vn -0.7282 -0.0038 -0.6854
vn 0.7071 -0.0036 0.7071
vn -0.7071 -0.0036 -0.7071
vn -0.7498 -0.0000 -0.6616
vn 0.7498 -0.0000 0.6616
vn -0.0000 -0.0000 1.0000
vn -0.0000 -0.0000 -1.0000
vn -0.7176 -0.0025 -0.6965
vn -0.7282 -0.0000 0.6854
vn 0.7282 -0.0000 -0.6854
vn 0.7176 -0.0025 0.6965
vn 0.7071 -0.0070 0.7071
vn 0.7176 -0.0000 -0.6965
vn -0.7176 -0.0000 0.6965
vn -0.7071 -0.0070 -0.7071
vn 0.8276 -0.5613 -0.0000
vn -0.8214 -0.5704 -0.0000
vn 0.4157 -0.9095 -0.0000
vn -0.4059 -0.9139 -0.0000
vn 0.2011 -0.9796 -0.0000
vn -0.1957 -0.9807 -0.0000
vn 0.7282 -0.0038 -0.6854
vn -0.7282 -0.0038 0.6854
vn 0.7071 -0.0036 -0.7071
vn -0.7071 -0.0036 0.7071
vn -0.7282 -0.0000 -0.6854
vn -0.7176 -0.0025 0.6965
vn 0.7176 -0.0025 -0.6965
vn 0.7282 -0.0000 0.6854
vn 0.7176 -0.0000 0.6965
vn 0.7071 -0.0070 -0.7071
vn -0.7071 -0.0070 0.7071
vn -0.7176 -0.0000 -0.6965
vt 0.178116 0.392409
vt 0.772835 0.400787
vt 0.208268 0.549606
vt 0.609842 0.500000
vt 0.768843 0.757972
vt 0.726323 0.559547
vt 0.726323 0.559547
vt 0.725196 0.297638
s 0
usemtl Material.002
f 7/1/1 127/1/1 69/1/1
f 21/1/2 123/1/2 20/1/2
f 32/2/3 14/2/3 23/2/3
f 41/2/3 13/2/3 32/2/3
f 50/3/3 145/3/3 154/3/3
f 59/2/3 11/2/3 50/2/3
f 68/2/3 10/2/3 59/2/3
f 77/2/3 9/2/3 68/2/3
f 77/1/1 106/1/1 8/1/1
f 20/1/2 122/1/2 19/1/2
f 19/1/2 121/1/2 18/1/2
f 18/1/2 120/1/2 17/1/2
f 17/1/2 119/1/2 16/1/2
f 16/1/2 118/1/2 15/1/2
f 2/2/3 15/2/3 1/2/3
f 24/2/3 16/2/3 15/2/3
f 25/2/3 17/2/3 16/2/3
f 26/2/3 18/2/3 17/2/3
f 27/2/3 19/2/3 18/2/3
f 28/2/3 20/2/3 19/2/3
f 29/2/3 21/2/3 20/2/3
f 30/2/3 22/2/3 21/2/3
f 31/2/3 23/2/3 22/2/3
f 3/2/3 24/2/3 2/2/3
f 33/2/3 25/2/3 24/2/3
f 34/2/3 26/2/3 25/2/3
f 35/2/3 27/2/3 26/2/3
f 36/2/3 28/2/3 27/2/3
f 37/2/3 29/2/3 28/2/3
f 38/2/3 30/2/3 29/2/3
f 39/2/3 31/2/3 30/2/3
f 40/2/3 32/2/3 31/2/3
f 4/2/3 146/2/3 144/2/3
f 42/2/3 147/2/3 146/2/3
f 43/2/3 148/2/3 147/2/3
f 44/3/3 149/3/3 148/3/3
f 45/3/3 150/3/3 149/3/3
f 46/2/3 151/2/3 150/2/3
f 47/2/3 152/2/3 151/2/3
f 48/2/3 153/2/3 152/2/3
f 49/3/3 154/3/3 153/3/3
f 5/2/3 42/2/3 4/2/3
f 51/2/3 43/2/3 42/2/3
f 52/2/3 44/2/3 43/2/3
f 53/2/3 45/2/3 44/2/3
f 54/2/3 46/2/3 45/2/3
f 55/2/3 47/2/3 46/2/3
f 56/2/3 48/2/3 47/2/3
f 57/2/3 49/2/3 48/2/3
f 58/2/3 50/2/3 49/2/3
f 6/2/3 51/2/3 5/2/3
f 60/2/3 52/2/3 51/2/3
f 61/2/3 53/2/3 52/2/3
f 62/2/3 54/2/3 53/2/3
f 63/2/3 55/2/3 54/2/3
f 64/2/3 56/2/3 55/2/3
f 65/2/3 57/2/3 56/2/3
f 66/2/3 58/2/3 57/2/3
f 67/2/3 59/2/3 58/2/3
f 7/2/3 60/2/3 6/2/3
f 69/2/3 61/2/3 60/2/3
f 70/2/3 62/2/3 61/2/3
f 71/2/3 63/2/3 62/2/3
f 72/2/3 64/2/3 63/2/3
f 73/2/3 65/2/3 64/2/3
f 74/2/3 66/2/3 65/2/3
f 75/2/3 67/2/3 66/2/3
f 76/2/3 68/2/3 67/2/3
f 76/1/1 126/1/1 77/1/1
f 15/1/2 95/1/2 1/1/2
f 75/1/1 134/1/1 76/1/1
f 14/1/2 117/1/2 23/1/2
f 74/1/1 133/1/1 75/1/1
f 73/1/1 132/1/1 74/1/1
f 72/1/1 131/1/1 73/1/1
f 71/1/1 130/1/1 72/1/1
f 82/4/3 105/4/3 135/4/3
f 108/4/3 85/4/3 86/4/3
f 117/4/3 84/4/3 108/4/3
f 135/4/3 106/4/3 126/4/3
f 94/4/3 78/4/3 79/4/3
f 109/4/3 93/4/3 78/4/3
f 110/4/3 92/4/3 93/4/3
f 111/4/3 91/4/3 92/4/3
f 112/4/3 90/4/3 91/4/3
f 113/4/3 89/4/3 90/4/3
f 114/4/3 88/4/3 89/4/3
f 115/4/3 87/4/3 88/4/3
f 116/4/3 86/4/3 87/4/3
f 95/4/3 109/4/3 94/4/3
f 118/4/3 110/4/3 109/4/3
f 119/4/3 111/4/3 110/4/3
f 120/4/3 112/4/3 111/4/3
f 121/4/3 113/4/3 112/4/3
f 122/4/3 114/4/3 113/4/3
f 123/4/3 115/4/3 114/4/3
f 124/4/3 116/4/3 115/4/3
f 125/4/3 108/4/3 116/4/3
f 80/4/3 127/4/3 96/4/3
f 136/4/3 128/4/3 127/4/3
f 137/4/3 129/4/3 128/4/3
f 138/4/3 130/4/3 129/4/3
f 139/4/3 131/4/3 130/4/3
f 140/4/3 132/4/3 131/4/3
f 141/4/3 133/4/3 132/4/3
f 142/4/3 134/4/3 133/4/3
f 143/4/3 126/4/3 134/4/3
f 81/4/3 136/4/3 80/4/3
f 97/4/3 137/4/3 136/4/3
f 98/4/3 138/4/3 137/4/3
f 99/4/3 139/4/3 138/4/3
f 100/4/3 140/4/3 139/4/3
f 101/4/3 141/4/3 140/4/3
f 102/4/3 142/4/3 141/4/3
f 103/4/3 143/4/3 142/4/3
f 104/4/3 135/4/3 143/4/3
f 22/1/2 124/1/2 21/1/2
f 69/1/1 128/1/1 70/1/1
f 23/1/2 125/1/2 22/1/2
f 70/1/1 129/1/1 71/1/1
f 153/2/3 41/2/3 40/2/3
f 152/2/3 40/2/3 39/2/3
f 151/2/3 39/2/3 38/2/3
f 150/2/3 38/2/3 37/2/3
f 149/2/3 37/2/3 36/2/3
f 148/2/3 36/2/3 35/2/3
f 147/2/3 35/2/3 34/2/3
f 146/2/3 34/2/3 33/2/3
f 144/2/3 33/2/3 3/2/3
f 154/2/3 12/2/3 41/2/3
f 156/5/3 158/5/3 157/5/3
f 235/5/4 167/5/4 236/5/4
f 155/5/5 162/5/5 158/5/5
f 156/5/6 160/5/6 155/5/6
f 158/5/7 161/5/7 157/5/7
f 157/5/8 159/5/8 156/5/8
f 162/5/9 163/5/9 161/5/9
f 162/5/9 165/5/9 164/5/9
f 160/5/9 166/5/9 165/5/9
f 161/5/9 166/5/9 159/5/9
f 237/5/10 167/5/10 168/5/10
f 235/5/11 169/5/11 170/5/11
f 237/5/12 169/5/12 238/5/12
f 172/5/3 174/5/3 173/5/3
f 181/5/13 183/5/13 180/5/13
f 171/5/5 178/5/5 174/5/5
f 172/5/6 176/5/6 171/5/6
f 174/5/7 177/5/7 173/5/7
f 173/5/8 175/5/8 172/5/8
f 178/5/9 179/5/9 177/5/9
f 178/5/9 181/5/9 180/5/9
f 176/5/9 182/5/9 181/5/9
f 177/5/9 182/5/9 175/5/9
f 179/5/10 183/5/10 184/5/10
f 181/5/11 185/5/11 186/5/11
f 179/5/14 185/5/14 182/5/14
f 188/5/3 190/5/3 189/5/3
f 239/5/4 199/5/4 240/5/4
f 187/5/5 194/5/5 190/5/5
f 188/5/6 192/5/6 187/5/6
f 190/5/7 193/5/7 189/5/7
f 189/5/8 191/5/8 188/5/8
f 194/5/9 195/5/9 193/5/9
f 194/5/9 197/5/9 196/5/9
f 192/5/9 198/5/9 197/5/9
f 193/5/9 198/5/9 191/5/9
f 241/5/10 199/5/10 200/5/10
f 239/5/11 201/5/11 202/5/11
f 241/5/12 201/5/12 242/5/12
f 204/5/3 206/5/3 205/5/3
f 213/5/13 215/5/13 212/5/13
f 203/5/5 210/5/5 206/5/5
f 204/5/6 208/5/6 203/5/6
f 206/5/7 209/5/7 205/5/7
f 205/5/8 207/5/8 204/5/8
f 210/5/9 211/5/9 209/5/9
f 210/5/9 213/5/9 212/5/9
f 208/5/9 214/5/9 213/5/9
f 209/5/9 214/5/9 207/5/9
f 211/5/10 215/5/10 216/5/10
f 213/5/11 217/5/11 218/5/11
f 211/5/14 217/5/14 214/5/14
f 216/5/15 233/5/15 217/5/15
f 226/5/9 221/5/9 222/5/9
f 231/5/9 229/5/9 232/5/9
f 170/5/16 219/5/16 167/5/16
f 228/5/9 229/5/9 227/5/9
f 232/5/9 233/5/9 231/5/9
f 219/5/9 221/5/9 220/5/9
f 224/5/9 225/5/9 223/5/9
f 199/5/10 227/5/10 200/5/10
f 218/5/16 232/5/16 215/5/16
f 232/5/17 201/5/17 215/5/17
f 234/5/9 225/5/9 233/5/9
f 183/5/10 223/5/10 184/5/10
f 228/5/9 220/5/9 230/5/9
f 233/5/1 185/5/1 217/5/1
f 201/5/11 230/5/11 202/5/11
f 230/5/1 168/5/1 202/5/1
f 226/5/17 170/5/17 186/5/17
f 168/5/15 221/5/15 169/5/15
f 185/5/11 226/5/11 186/5/11
f 218/5/2 223/5/2 234/5/2
f 217/5/3 184/5/3 218/5/3
f 183/5/18 221/5/18 224/5/18
f 186/5/3 169/5/3 183/5/3
f 199/5/2 219/5/2 228/5/2
f 202/5/3 167/5/3 199/5/3
f 216/5/18 227/5/18 231/5/18
f 216/5/3 201/5/3 200/5/3
f 248/5/19 238/5/19 250/5/19
f 249/5/20 238/5/20 235/5/20
f 248/5/21 236/5/21 237/5/21
f 249/5/22 236/5/22 247/5/22
f 244/5/19 242/5/19 246/5/19
f 245/5/20 242/5/20 239/5/20
f 244/5/21 240/5/21 241/5/21
f 245/5/22 240/5/22 243/5/22
f 197/5/23 243/5/23 196/5/23
f 195/5/24 243/5/24 244/5/24
f 197/5/25 246/5/25 245/5/25
f 195/5/26 246/5/26 198/5/26
f 165/5/23 247/5/23 164/5/23
f 163/5/24 247/5/24 248/5/24
f 165/5/25 250/5/25 249/5/25
f 163/5/26 250/5/26 166/5/26
f 237/6/1 245/6/1 239/6/1
f 228/5/3 251/5/3 252/5/3
f 251/6/27 256/6/27 252/6/27
f 233/6/28 253/6/28 225/6/28
f 255/6/29 260/6/29 256/6/29
f 254/6/30 257/6/30 253/6/30
f 258/6/9 259/6/9 257/6/9
f 263/6/27 288/7/27 280/7/27
f 262/6/28 281/6/28 273/6/28
f 267/6/31 296/7/31 288/7/31
f 266/6/32 289/6/32 281/6/32
f 270/6/9 293/6/9 289/6/9
f 292/7/9 271/6/9 269/6/9
f 295/7/17 299/7/17 291/7/17
f 290/6/9 295/7/9 291/7/9
f 293/6/17 297/6/17 289/6/17
f 284/7/32 269/6/32 265/6/32
f 283/7/32 292/7/32 284/7/32
f 282/6/32 291/7/32 283/7/32
f 281/6/32 290/6/32 282/6/32
f 285/6/31 272/6/31 268/6/31
f 286/6/31 293/6/31 285/6/31
f 287/7/31 294/6/31 286/6/31
f 288/7/31 295/7/31 287/7/31
f 276/7/28 265/6/28 261/6/28
f 275/7/28 284/7/28 276/7/28
f 274/6/28 283/7/28 275/7/28
f 273/6/28 282/6/28 274/6/28
f 277/6/27 268/6/27 264/6/27
f 278/6/27 285/6/27 277/6/27
f 279/7/27 286/6/27 278/6/27
f 280/7/27 287/7/27 279/7/27
f 299/7/9 304/7/9 300/7/9
f 297/6/9 302/6/9 298/6/9
f 296/7/1 303/7/1 295/7/1
f 294/6/1 301/6/1 293/6/1
f 291/7/2 300/7/2 292/7/2
f 289/6/2 298/6/2 290/6/2
f 290/6/18 302/6/18 294/6/18
f 292/7/18 304/7/18 296/7/18
f 289/8/3 294/8/3 293/8/3
f 291/8/3 296/8/3 295/8/3
f 7/1/1 96/1/1 127/1/1
f 21/1/2 124/1/2 123/1/2
f 32/2/3 13/2/3 14/2/3
f 41/2/3 12/2/3 13/2/3
f 50/3/3 11/3/3 145/3/3
f 59/2/3 10/2/3 11/2/3
f 68/2/3 9/2/3 10/2/3
f 77/2/3 8/2/3 9/2/3
f 77/1/1 126/1/1 106/1/1
f 20/1/2 123/1/2 122/1/2
f 19/1/2 122/1/2 121/1/2
f 18/1/2 121/1/2 120/1/2
f 17/1/2 120/1/2 119/1/2
f 16/1/2 119/1/2 118/1/2
f 2/2/3 24/2/3 15/2/3
f 24/2/3 25/2/3 16/2/3
f 25/2/3 26/2/3 17/2/3
f 26/2/3 27/2/3 18/2/3
f 27/2/3 28/2/3 19/2/3
f 28/2/3 29/2/3 20/2/3
f 29/2/3 30/2/3 21/2/3
f 30/2/3 31/2/3 22/2/3
f 31/2/3 32/2/3 23/2/3
f 3/2/3 33/2/3 24/2/3
f 33/2/3 34/2/3 25/2/3
f 34/2/3 35/2/3 26/2/3
f 35/2/3 36/2/3 27/2/3
f 36/2/3 37/2/3 28/2/3
f 37/2/3 38/2/3 29/2/3
f 38/2/3 39/2/3 30/2/3
f 39/2/3 40/2/3 31/2/3
f 40/2/3 41/2/3 32/2/3
f 4/2/3 42/2/3 146/2/3
f 42/2/3 43/2/3 147/2/3
f 43/2/3 44/2/3 148/2/3
f 44/3/3 45/3/3 149/3/3
f 45/3/3 46/3/3 150/3/3
f 46/2/3 47/2/3 151/2/3
f 47/2/3 48/2/3 152/2/3
f 48/2/3 49/2/3 153/2/3
f 49/3/3 50/3/3 154/3/3
f 5/2/3 51/2/3 42/2/3
f 51/2/3 52/2/3 43/2/3
f 52/2/3 53/2/3 44/2/3
f 53/2/3 54/2/3 45/2/3
f 54/2/3 55/2/3 46/2/3
f 55/2/3 56/2/3 47/2/3
f 56/2/3 57/2/3 48/2/3
f 57/2/3 58/2/3 49/2/3
f 58/2/3 59/2/3 50/2/3
f 6/2/3 60/2/3 51/2/3
f 60/2/3 61/2/3 52/2/3
f 61/2/3 62/2/3 53/2/3
f 62/2/3 63/2/3 54/2/3
f 63/2/3 64/2/3 55/2/3
f 64/2/3 65/2/3 56/2/3
f 65/2/3 66/2/3 57/2/3
f 66/2/3 67/2/3 58/2/3
f 67/2/3 68/2/3 59/2/3
f 7/2/3 69/2/3 60/2/3
f 69/2/3 70/2/3 61/2/3
f 70/2/3 71/2/3 62/2/3
f 71/2/3 72/2/3 63/2/3
f 72/2/3 73/2/3 64/2/3
f 73/2/3 74/2/3 65/2/3
f 74/2/3 75/2/3 66/2/3
f 75/2/3 76/2/3 67/2/3
f 76/2/3 77/2/3 68/2/3
f 76/1/1 134/1/1 126/1/1
f 15/1/2 118/1/2 95/1/2
f 75/1/1 133/1/1 134/1/1
f 14/1/2 107/1/2 117/1/2
f 74/1/1 132/1/1 133/1/1
f 73/1/1 131/1/1 132/1/1
f 72/1/1 130/1/1 131/1/1
f 71/1/1 129/1/1 130/1/1
f 82/4/3 83/4/3 105/4/3
f 108/4/3 84/4/3 85/4/3
f 117/4/3 107/4/3 84/4/3
f 135/4/3 105/4/3 106/4/3
f 94/4/3 109/4/3 78/4/3
f 109/4/3 110/4/3 93/4/3
f 110/4/3 111/4/3 92/4/3
f 111/4/3 112/4/3 91/4/3
f 112/4/3 113/4/3 90/4/3
f 113/4/3 114/4/3 89/4/3
f 114/4/3 115/4/3 88/4/3
f 115/4/3 116/4/3 87/4/3
f 116/4/3 108/4/3 86/4/3
f 95/4/3 118/4/3 109/4/3
f 118/4/3 119/4/3 110/4/3
f 119/4/3 120/4/3 111/4/3
f 120/4/3 121/4/3 112/4/3
f 121/4/3 122/4/3 113/4/3
f 122/4/3 123/4/3 114/4/3
f 123/4/3 124/4/3 115/4/3
f 124/4/3 125/4/3 116/4/3
f 125/4/3 117/4/3 108/4/3
f 80/4/3 136/4/3 127/4/3
f 136/4/3 137/4/3 128/4/3
f 137/4/3 138/4/3 129/4/3
f 138/4/3 139/4/3 130/4/3
f 139/4/3 140/4/3 131/4/3
f 140/4/3 141/4/3 132/4/3
f 141/4/3 142/4/3 133/4/3
f 142/4/3 143/4/3 134/4/3
f 143/4/3 135/4/3 126/4/3
f 81/4/3 97/4/3 136/4/3
f 97/4/3 98/4/3 137/4/3
f 98/4/3 99/4/3 138/4/3
f 99/4/3 100/4/3 139/4/3
f 100/4/3 101/4/3 140/4/3
f 101/4/3 102/4/3 141/4/3
f 102/4/3 103/4/3 142/4/3
f 103/4/3 104/4/3 143/4/3
f 104/4/3 82/4/3 135/4/3
f 22/1/2 125/1/2 124/1/2
f 69/1/1 127/1/1 128/1/1
f 23/1/2 117/1/2 125/1/2
f 70/1/1 128/1/1 129/1/1
f 153/2/3 154/2/3 41/2/3
f 152/2/3 153/2/3 40/2/3
f 151/2/3 152/2/3 39/2/3
f 150/2/3 151/2/3 38/2/3
f 149/2/3 150/2/3 37/2/3
f 148/2/3 149/2/3 36/2/3
f 147/2/3 148/2/3 35/2/3
f 146/2/3 147/2/3 34/2/3
f 144/2/3 146/2/3 33/2/3
f 154/2/3 145/2/3 12/2/3
f 156/5/3 155/5/3 158/5/3
f 235/5/16 170/5/16 167/5/16
f 155/5/5 160/5/5 162/5/5
f 156/5/6 159/5/6 160/5/6
f 158/5/7 162/5/7 161/5/7
f 157/5/8 161/5/8 159/5/8
f 162/5/9 164/5/9 163/5/9
f 162/5/9 160/5/9 165/5/9
f 160/5/9 159/5/9 166/5/9
f 161/5/9 163/5/9 166/5/9
f 237/5/33 236/5/33 167/5/33
f 235/5/34 238/5/34 169/5/34
f 237/5/15 168/5/15 169/5/15
f 172/5/3 171/5/3 174/5/3
f 181/5/16 186/5/16 183/5/16
f 171/5/5 176/5/5 178/5/5
f 172/5/6 175/5/6 176/5/6
f 174/5/7 178/5/7 177/5/7
f 173/5/8 177/5/8 175/5/8
f 178/5/9 180/5/9 179/5/9
f 178/5/9 176/5/9 181/5/9
f 176/5/9 175/5/9 182/5/9
f 177/5/9 179/5/9 182/5/9
f 179/5/35 180/5/35 183/5/35
f 181/5/36 182/5/36 185/5/36
f 179/5/15 184/5/15 185/5/15
f 188/5/3 187/5/3 190/5/3
f 239/5/16 202/5/16 199/5/16
f 187/5/5 192/5/5 194/5/5
f 188/5/6 191/5/6 192/5/6
f 190/5/7 194/5/7 193/5/7
f 189/5/8 193/5/8 191/5/8
f 194/5/9 196/5/9 195/5/9
f 194/5/9 192/5/9 197/5/9
f 192/5/9 191/5/9 198/5/9
f 193/5/9 195/5/9 198/5/9
f 241/5/33 240/5/33 199/5/33
f 239/5/34 242/5/34 201/5/34
f 241/5/15 200/5/15 201/5/15
f 204/5/3 203/5/3 206/5/3
f 213/5/16 218/5/16 215/5/16
f 203/5/5 208/5/5 210/5/5
f 204/5/6 207/5/6 208/5/6
f 206/5/7 210/5/7 209/5/7
f 205/5/8 209/5/8 207/5/8
f 210/5/9 212/5/9 211/5/9
f 210/5/9 208/5/9 213/5/9
f 208/5/9 207/5/9 214/5/9
f 209/5/9 211/5/9 214/5/9
f 211/5/35 212/5/35 215/5/35
f 213/5/36 214/5/36 217/5/36
f 211/5/15 216/5/15 217/5/15
f 216/5/15 231/5/15 233/5/15
f 226/5/9 224/5/9 221/5/9
f 231/5/9 227/5/9 229/5/9
f 170/5/16 222/5/16 219/5/16
f 228/5/9 230/5/9 229/5/9
f 232/5/9 234/5/9 233/5/9
f 219/5/9 222/5/9 221/5/9
f 224/5/9 226/5/9 225/5/9
f 199/5/10 228/5/10 227/5/10
f 218/5/16 234/5/16 232/5/16
f 232/5/17 229/5/17 201/5/17
f 234/5/9 223/5/9 225/5/9
f 183/5/10 224/5/10 223/5/10
f 228/5/9 219/5/9 220/5/9
f 233/5/1 225/5/1 185/5/1
f 201/5/11 229/5/11 230/5/11
f 230/5/1 220/5/1 168/5/1
f 226/5/17 222/5/17 170/5/17
f 168/5/15 220/5/15 221/5/15
f 185/5/11 225/5/11 226/5/11
f 218/5/2 184/5/2 223/5/2
f 217/5/3 185/5/3 184/5/3
f 183/5/18 169/5/18 221/5/18
f 186/5/3 170/5/3 169/5/3
f 199/5/2 167/5/2 219/5/2
f 202/5/3 168/5/3 167/5/3
f 216/5/18 200/5/18 227/5/18
f 216/5/3 215/5/3 201/5/3
f 248/5/37 237/5/37 238/5/37
f 249/5/38 250/5/38 238/5/38
f 248/5/39 247/5/39 236/5/39
f 249/5/40 235/5/40 236/5/40
f 244/5/37 241/5/37 242/5/37
f 245/5/38 246/5/38 242/5/38
f 244/5/39 243/5/39 240/5/39
f 245/5/40 239/5/40 240/5/40
f 197/5/41 245/5/41 243/5/41
f 195/5/42 196/5/42 243/5/42
f 197/5/43 198/5/43 246/5/43
f 195/5/44 244/5/44 246/5/44
f 165/5/41 249/5/41 247/5/41
f 163/5/42 164/5/42 247/5/42
f 165/5/43 166/5/43 250/5/43
f 163/5/44 248/5/44 250/5/44
f 237/6/1 248/6/1 245/6/1
f 228/5/3 219/5/3 251/5/3
f 251/6/27 255/6/27 256/6/27
f 233/6/28 254/6/28 253/6/28
f 255/6/29 259/6/29 260/6/29
f 254/6/30 258/6/30 257/6/30
f 258/6/9 260/6/9 259/6/9
f 263/6/27 267/6/27 288/7/27
f 262/6/28 266/6/28 281/6/28
f 267/6/31 271/6/31 296/7/31
f 266/6/32 270/6/32 289/6/32
f 270/6/9 272/6/9 293/6/9
f 292/7/9 296/7/9 271/6/9
f 295/7/17 303/7/17 299/7/17
f 290/6/9 294/6/9 295/7/9
f 293/6/17 301/6/17 297/6/17
f 284/7/32 292/7/32 269/6/32
f 283/7/32 291/7/32 292/7/32
f 282/6/32 290/6/32 291/7/32
f 281/6/32 289/6/32 290/6/32
f 285/6/31 293/6/31 272/6/31
f 286/6/31 294/6/31 293/6/31
f 287/7/31 295/7/31 294/6/31
f 288/7/31 296/7/31 295/7/31
f 276/7/28 284/7/28 265/6/28
f 275/7/28 283/7/28 284/7/28
f 274/6/28 282/6/28 283/7/28
f 273/6/28 281/6/28 282/6/28
f 277/6/27 285/6/27 268/6/27
f 278/6/27 286/6/27 285/6/27
f 279/7/27 287/7/27 286/6/27
f 280/7/27 288/7/27 287/7/27
f 299/7/9 303/7/9 304/7/9
f 297/6/9 301/6/9 302/6/9
f 296/7/1 304/7/1 303/7/1
f 294/6/1 302/6/1 301/6/1
f 291/7/2 299/7/2 300/7/2
f 289/6/2 297/6/2 298/6/2
f 290/6/18 298/6/18 302/6/18
f 292/7/18 300/7/18 304/7/18
f 289/8/3 290/8/3 294/8/3
f 291/8/3 292/8/3 296/8/3
