# Blender 5.1.2
# www.blender.org
mtllib road.mtl
o ROAD
v -3.000000 0.000000 5.000000
v -2.000000 0.000000 5.000000
v -1.000000 0.000000 5.000000
v 0.200000 0.000000 5.000000
v 1.000000 0.000000 5.000000
v 2.000000 0.000000 5.000000
v 3.000000 0.000000 5.000000
v 3.000000 0.000000 -5.000000
v 2.000000 0.000000 -5.000000
v 1.000000 0.000000 -5.000000
v 0.200000 0.000000 -5.000000
v -1.000000 0.000000 -5.000000
v -2.000000 0.000000 -5.000000
v -3.000000 0.000000 -5.000000
v -3.000000 0.000000 4.000000
v -3.000000 0.000000 3.000000
v -3.000000 0.000000 2.000000
v -3.000000 0.000000 1.000000
v -3.000000 0.000000 0.000000
v -3.000000 0.000000 -1.000000
v -3.000000 0.000000 -2.000000
v -3.000000 0.000000 -3.000000
v -3.000000 0.000000 -4.000000
v -2.000000 0.000000 4.000000
v -2.000000 0.000000 3.000000
v -2.000000 0.000000 2.000000
v -2.000000 0.000000 1.000000
v -2.000000 0.000000 0.000000
v -2.000000 0.000000 -1.000000
v -2.000000 0.000000 -2.000000
v -2.000000 0.000000 -3.000000
v -2.000000 0.000000 -4.000000
v -1.000000 0.000000 4.000000
v -1.000000 0.000000 3.000000
v -1.000000 0.000000 2.000000
v -1.000000 0.000000 1.000000
v -1.000000 0.000000 0.000000
v -1.000000 0.000000 -1.000000
v -1.000000 0.000000 -2.000000
v -1.000000 0.000000 -3.000000
v -1.000000 0.000000 -4.000000
v 0.200000 0.000000 4.000000
v 0.200000 0.000000 3.000000
v 0.200000 0.000000 2.000000
v 0.200000 0.000000 1.000000
v 0.200000 0.000000 0.000000
v 0.200000 0.000000 -1.000000
v 0.200000 0.000000 -2.000000
v 0.200000 0.000000 -3.000000
v 0.200000 0.000000 -4.000000
v 1.000000 0.000000 4.000000
v 1.000000 0.000000 3.000000
v 1.000000 0.000000 2.000000
v 1.000000 0.000000 1.000000
v 1.000000 0.000000 0.000000
v 1.000000 0.000000 -1.000000
v 1.000000 0.000000 -2.000000
v 1.000000 0.000000 -3.000000
v 1.000000 0.000000 -4.000000
v 2.000000 0.000000 4.000000
v 2.000000 0.000000 3.000000
v 2.000000 0.000000 2.000000
v 2.000000 0.000000 1.000000
v 2.000000 0.000000 0.000000
v 2.000000 0.000000 -1.000000
v 2.000000 0.000000 -2.000000
v 2.000000 0.000000 -3.000000
v 2.000000 0.000000 -4.000000
v 3.000000 0.000000 4.000000
v 3.000000 0.000000 3.000000
v 3.000000 0.000000 2.000000
v 3.000000 0.000000 1.000000
v 3.000000 0.000000 0.000000
v 3.000000 0.000000 -1.000000
v 3.000000 0.000000 -2.000000
v 3.000000 0.000000 -3.000000
v 3.000000 0.000000 -4.000000
v -5.000000 0.142152 4.000000
v -5.000000 0.142152 5.000000
v 4.000000 0.142152 5.000000
v 5.000000 0.142152 5.000000
v 5.000000 0.142152 -4.000000
v 5.000000 0.142152 -5.000000
v -4.000000 0.142152 -5.000000
v -5.000000 0.142152 -5.000000
v -5.000000 0.142152 -4.000000
v -5.000000 0.142152 -3.000000
v -5.000000 0.142152 -2.000000
v -5.000000 0.142152 -1.000000
v -5.000000 0.142152 0.000000
v -5.000000 0.142152 1.000000
v -5.000000 0.142152 2.000000
v -5.000000 0.142152 3.000000
v -4.000000 0.142152 5.000000
v -3.000000 0.142152 5.000000
v 3.000000 0.142152 5.000000
v 5.000000 0.142152 4.000000
v 5.000000 0.142152 3.000000
v 5.000000 0.142152 2.000000
v 5.000000 0.142152 1.000000
v 5.000000 0.142152 0.000000
v 5.000000 0.142152 -1.000000
v 5.000000 0.142152 -2.000000
v 5.000000 0.142152 -3.000000
v 4.000000 0.142152 -5.000000
v 3.000000 0.142152 -5.000000
v -3.000000 0.142152 -5.000000
v -4.000000 0.142152 -4.000000
v -4.000000 0.142152 4.000000
v -4.000000 0.142152 3.000000
v -4.000000 0.142152 2.000000
v -4.000000 0.142152 1.000000
v -4.000000 0.142152 0.000000
v -4.000000 0.142152 -1.000000
v -4.000000 0.142152 -2.000000
v -4.000000 0.142152 -3.000000
v -3.000000 0.142152 -4.000000
v -3.000000 0.142152 4.000000
v -3.000000 0.142152 3.000000
v -3.000000 0.142152 2.000000
v -3.000000 0.142152 1.000000
v -3.000000 0.142152 0.000000
v -3.000000 0.142152 -1.000000
v -3.000000 0.142152 -2.000000
v -3.000000 0.142152 -3.000000
v 3.000000 0.142152 -4.000000
v 3.000000 0.142152 4.000000
v 3.000000 0.142152 3.000000
v 3.000000 0.142152 2.000000
v 3.000000 0.142152 1.000000
v 3.000000 0.142152 0.000000
v 3.000000 0.142152 -1.000000
v 3.000000 0.142152 -2.000000
v 3.000000 0.142152 -3.000000
v 4.000000 0.142152 -4.000000
v 4.000000 0.142152 4.000000
v 4.000000 0.142152 3.000000
v 4.000000 0.142152 2.000000
v 4.000000 0.142152 1.000000
v 4.000000 0.142152 0.000000
v 4.000000 0.142152 -1.000000
v 4.000000 0.142152 -2.000000
v 4.000000 0.142152 -3.000000
v -0.200000 0.000000 5.000000
v -0.200000 0.000000 -5.000000
v -0.200000 0.000000 4.000000
v -0.200000 0.000000 3.000000
v -0.200000 0.000000 2.000000
v -0.200000 0.000000 1.000000
v -0.200000 0.000000 0.000000
v -0.200000 0.000000 -1.000000
v -0.200000 0.000000 -2.000000
v -0.200000 0.000000 -3.000000
v -0.200000 0.000000 -4.000000
v 4.008095 0.142152 -4.833179
v 3.674916 0.142152 -4.500000
v 4.008095 0.142152 -4.166821
v 4.341273 0.142152 -4.500000
v 3.674916 0.336948 -4.500000
v 4.008095 0.336948 -4.833179
v 4.008095 0.336948 -4.166821
v 4.341273 0.336948 -4.500000
v 4.008095 0.336948 -4.376376
v 4.131720 0.336948 -4.500000
v 4.008095 0.336948 -4.623624
v 3.884470 0.336948 -4.500000
v 4.117183 3.211592 -4.500000
v 4.008095 3.153430 -4.376376
v 3.899007 3.095268 -4.500000
v 4.008095 3.153430 -4.623624
v 3.693813 3.979790 -4.500000
v 3.631274 3.874596 -4.376376
v 3.568734 3.874596 -4.500000
v 3.631274 3.874596 -4.623624
v 3.366502 3.979790 -4.500000
v 3.363793 3.874596 -4.376376
v 3.363793 3.874596 -4.623624
v 2.972063 3.979790 -4.500000
v 2.969354 3.874596 -4.376376
v 2.971247 3.874596 -4.500000
v 2.969354 3.874596 -4.623624
v 3.366502 3.979790 -4.500000
v 3.363793 3.874596 -4.376376
v 3.443792 3.874596 -4.500000
v 3.363793 3.874596 -4.623624
v 2.972063 3.979790 -4.500000
v 2.969354 3.874596 -4.376376
v 2.877234 3.874596 -4.500000
v 2.969354 3.874596 -4.623624
v 3.363793 3.752908 -4.376376
v 3.356481 3.710559 -4.500000
v 3.363793 3.752908 -4.623624
v 2.969354 3.752908 -4.376376
v 2.877234 3.710559 -4.500000
v 2.969354 3.752908 -4.623624
v -3.998245 0.142153 -4.815313
v -3.665066 0.142153 -4.482135
v -3.998245 0.142153 -4.148956
v -4.331423 0.142153 -4.482135
v -3.665066 0.336948 -4.482135
v -3.998245 0.336948 -4.815313
v -3.998245 0.336948 -4.148956
v -4.331423 0.336948 -4.482135
v -3.998245 0.336948 -4.358510
v -4.121869 0.336948 -4.482135
v -3.998245 0.336948 -4.605759
v -3.874620 0.336948 -4.482135
v -4.107332 3.211592 -4.482135
v -3.998245 3.153430 -4.358510
v -3.889157 3.095268 -4.482135
v -3.998245 3.153430 -4.605759
v -3.683963 3.979790 -4.482135
v -3.621423 3.874596 -4.358510
v -3.558884 3.874596 -4.482135
v -3.621423 3.874596 -4.605759
v -3.356652 3.979790 -4.482135
v -3.353943 3.874596 -4.358510
v -3.353943 3.874596 -4.605759
v -2.962213 3.979790 -4.482135
v -2.959503 3.874596 -4.358510
v -2.961396 3.874596 -4.482135
v -2.959503 3.874596 -4.605759
v -3.356652 3.979790 -4.482135
v -3.353943 3.874596 -4.358510
v -3.433942 3.874596 -4.482135
v -3.353943 3.874596 -4.605759
v -2.962213 3.979790 -4.482135
v -2.959503 3.874596 -4.358510
v -2.867384 3.874596 -4.482135
v -2.959503 3.874596 -4.605759
v -3.353943 3.752908 -4.358510
v -3.346631 3.710559 -4.482135
v -3.353943 3.752908 -4.605759
v -2.959503 3.752908 -4.358510
v -2.867384 3.710559 -4.482135
v -2.959503 3.752908 -4.605759
vn -1.0000 -0.0000 -0.0000
vn 1.0000 -0.0000 -0.0000
vn -0.0000 1.0000 -0.0000
vn -0.0000 -1.0000 -0.0000
vn 0.7489 0.0038 -0.6626
vn 0.7071 -0.0000 -0.7071
vn -0.7071 -0.0000 -0.7071
vn 0.7071 -0.0000 0.7071
vn -0.7071 -0.0000 0.7071
vn 0.6661 0.3671 -0.6493
vn -0.7498 -0.0000 -0.6616
vn -0.7071 0.0037 0.7071
vn 0.8776 -0.4671 0.1081
vn 0.6267 0.3275 0.7071
vn -0.6267 -0.3275 -0.7071
vn -0.8346 -0.3537 0.4222
vn 0.8395 -0.0000 0.5433
vn -0.0000 0.7616 -0.6481
vn -0.0000 0.7616 0.6481
vn 0.6499 -0.5858 0.4842
vn -0.8019 -0.0000 0.5975
vn -0.8019 -0.0000 -0.5975
vn -0.0000 -0.9460 -0.3241
vn -0.0000 -0.9460 0.3241
vn -0.0000 -0.0000 1.0000
vn -0.0000 -0.0000 -1.0000
vn 0.8776 -0.4671 -0.1081
vn 0.8395 -0.0000 -0.5433
vn 0.6499 -0.5858 -0.4842
vn 0.7489 -0.0038 0.6626
vn 0.6661 -0.3671 0.6493
vn -0.7498 -0.0000 0.6616
vn -0.7071 -0.0037 -0.7071
vn 0.8776 0.4671 -0.1081
vn 0.6267 -0.3275 -0.7071
vn -0.6267 0.3275 0.7071
vn -0.8346 0.3537 -0.4222
vn -0.0000 -0.7616 0.6480
vn -0.0000 -0.7616 -0.6481
vn 0.6499 0.5858 -0.4842
vn -0.0000 -0.7616 0.6481
vn -0.0000 0.9460 0.3241
vn -0.0000 0.9460 -0.3241
vn 0.8776 0.4671 0.1081
vn 0.6499 0.5858 0.4842
vn -0.9999 -0.0078 0.0153
vn 0.6267 0.3275 -0.7071
vn 0.7489 0.0038 0.6626
vn -0.7071 0.0037 -0.7071
vn 0.6661 0.3671 0.6493
vn -0.8346 -0.3537 -0.4222
vn -0.6267 -0.3275 0.7071
vn 0.6267 -0.3275 0.7071
vn 0.7489 -0.0038 -0.6626
vn -0.7071 -0.0037 0.7071
vn 0.6661 -0.3671 -0.6493
vn -0.8346 0.3537 0.4222
vn -0.6267 0.3275 -0.7071
vn -0.9999 -0.0078 -0.0153
vt 0.631102 0.400787
vt 0.631102 0.599213
vt 0.772835 0.400787
vt 0.208268 0.549606
vt 0.609842 0.500000
vt 0.611166 0.187500
vt 0.609842 0.500000
vt 0.238563 1.375000
vt 0.609842 0.500000
vt 0.364659 0.380463
s 0
usemtl Material.001
f 7/1/1 127/1/1 69/1/1
f 21/2/2 123/2/2 20/2/2
f 32/3/3 14/3/3 23/3/3
f 41/3/3 13/3/3 32/3/3
f 50/4/3 145/4/3 154/4/3
f 59/3/3 11/3/3 50/3/3
f 68/3/3 10/3/3 59/3/3
f 77/3/3 9/3/3 68/3/3
f 77/1/1 106/1/1 8/1/1
f 20/2/2 122/2/2 19/2/2
f 19/2/2 121/2/2 18/2/2
f 18/2/2 120/2/2 17/2/2
f 17/2/2 119/2/2 16/2/2
f 16/2/2 118/2/2 15/2/2
f 2/3/3 15/3/3 1/3/3
f 24/3/3 16/3/3 15/3/3
f 25/3/3 17/3/3 16/3/3
f 26/3/3 18/3/3 17/3/3
f 27/3/3 19/3/3 18/3/3
f 28/3/3 20/3/3 19/3/3
f 29/3/3 21/3/3 20/3/3
f 30/3/3 22/3/3 21/3/3
f 31/3/3 23/3/3 22/3/3
f 3/3/3 24/3/3 2/3/3
f 33/3/3 25/3/3 24/3/3
f 34/3/3 26/3/3 25/3/3
f 35/3/3 27/3/3 26/3/3
f 36/3/3 28/3/3 27/3/3
f 37/3/3 29/3/3 28/3/3
f 38/3/3 30/3/3 29/3/3
f 39/3/3 31/3/3 30/3/3
f 40/3/3 32/3/3 31/3/3
f 4/3/3 146/3/3 144/3/3
f 42/3/3 147/3/3 146/3/3
f 43/3/3 148/3/3 147/3/3
f 44/4/3 149/4/3 148/4/3
f 45/4/3 150/4/3 149/4/3
f 46/3/3 151/3/3 150/3/3
f 47/3/3 152/3/3 151/3/3
f 48/3/3 153/3/3 152/3/3
f 49/4/3 154/4/3 153/4/3
f 5/3/3 42/3/3 4/3/3
f 51/3/3 43/3/3 42/3/3
f 52/3/3 44/3/3 43/3/3
f 53/3/3 45/3/3 44/3/3
f 54/3/3 46/3/3 45/3/3
f 55/3/3 47/3/3 46/3/3
f 56/3/3 48/3/3 47/3/3
f 57/3/3 49/3/3 48/3/3
f 58/3/3 50/3/3 49/3/3
f 6/3/3 51/3/3 5/3/3
f 60/3/3 52/3/3 51/3/3
f 61/3/3 53/3/3 52/3/3
f 62/3/3 54/3/3 53/3/3
f 63/3/3 55/3/3 54/3/3
f 64/3/3 56/3/3 55/3/3
f 65/3/3 57/3/3 56/3/3
f 66/3/3 58/3/3 57/3/3
f 67/3/3 59/3/3 58/3/3
f 7/3/3 60/3/3 6/3/3
f 69/3/3 61/3/3 60/3/3
f 70/3/3 62/3/3 61/3/3
f 71/3/3 63/3/3 62/3/3
f 72/3/3 64/3/3 63/3/3
f 73/3/3 65/3/3 64/3/3
f 74/3/3 66/3/3 65/3/3
f 75/3/3 67/3/3 66/3/3
f 76/3/3 68/3/3 67/3/3
f 76/1/1 126/1/1 77/1/1
f 15/2/2 95/2/2 1/2/2
f 75/1/1 134/1/1 76/1/1
f 14/2/2 117/2/2 23/2/2
f 74/1/1 133/1/1 75/1/1
f 73/1/1 132/1/1 74/1/1
f 72/1/1 131/1/1 73/1/1
f 71/1/1 130/1/1 72/1/1
f 82/5/3 105/5/3 135/5/3
f 108/5/3 85/5/3 86/5/3
f 117/5/3 84/5/3 108/5/3
f 135/5/3 106/5/3 126/5/3
f 94/5/3 78/5/3 79/5/3
f 109/5/3 93/5/3 78/5/3
f 110/5/3 92/5/3 93/5/3
f 111/5/3 91/5/3 92/5/3
f 112/5/3 90/5/3 91/5/3
f 113/5/3 89/5/3 90/5/3
f 114/5/3 88/5/3 89/5/3
f 115/5/3 87/5/3 88/5/3
f 116/5/3 86/5/3 87/5/3
f 95/5/3 109/5/3 94/5/3
f 118/5/3 110/5/3 109/5/3
f 119/5/3 111/5/3 110/5/3
f 120/5/3 112/5/3 111/5/3
f 121/5/3 113/5/3 112/5/3
f 122/5/3 114/5/3 113/5/3
f 123/5/3 115/5/3 114/5/3
f 124/5/3 116/5/3 115/5/3
f 125/5/3 108/5/3 116/5/3
f 80/5/3 127/5/3 96/5/3
f 136/5/3 128/5/3 127/5/3
f 137/5/3 129/5/3 128/5/3
f 138/5/3 130/5/3 129/5/3
f 139/5/3 131/5/3 130/5/3
f 140/5/3 132/5/3 131/5/3
f 141/5/3 133/5/3 132/5/3
f 142/5/3 134/5/3 133/5/3
f 143/5/3 126/5/3 134/5/3
f 81/5/3 136/5/3 80/5/3
f 97/5/3 137/5/3 136/5/3
f 98/5/3 138/5/3 137/5/3
f 99/5/3 139/5/3 138/5/3
f 100/5/3 140/5/3 139/5/3
f 101/5/3 141/5/3 140/5/3
f 102/5/3 142/5/3 141/5/3
f 103/5/3 143/5/3 142/5/3
f 104/5/3 135/5/3 143/5/3
f 22/2/2 124/2/2 21/2/2
f 69/1/1 128/1/1 70/1/1
f 23/2/2 125/2/2 22/2/2
f 70/1/1 129/1/1 71/1/1
f 153/3/3 41/3/3 40/3/3
f 152/3/3 40/3/3 39/3/3
f 151/3/3 39/3/3 38/3/3
f 150/3/3 38/3/3 37/3/3
f 149/3/3 37/3/3 36/3/3
f 148/3/3 36/3/3 35/3/3
f 147/3/3 35/3/3 34/3/3
f 146/3/3 34/3/3 33/3/3
f 144/3/3 33/3/3 3/3/3
f 154/3/3 12/3/3 41/3/3
f 156/6/4 158/6/4 157/6/4
f 164/6/5 170/6/5 167/6/5
f 155/6/6 162/6/6 158/6/6
f 156/6/7 160/6/7 155/6/7
f 158/6/8 161/6/8 157/6/8
f 157/6/9 159/6/9 156/6/9
f 161/6/3 164/6/3 163/6/3
f 160/6/3 164/6/3 162/6/3
f 160/6/3 166/6/3 165/6/3
f 161/6/3 166/6/3 159/6/3
f 167/6/10 174/6/10 171/6/10
f 164/6/8 168/6/8 163/6/8
f 165/6/11 169/6/11 170/6/11
f 163/6/12 169/6/12 166/6/12
f 191/6/13 184/6/13 190/6/13
f 167/6/14 172/6/14 168/6/14
f 169/6/15 174/6/15 170/6/15
f 169/6/16 172/6/16 173/6/16
f 176/5/3 182/7/3 183/8/3
f 183/6/17 190/6/17 184/6/17
f 174/6/18 175/6/18 171/6/18
f 172/6/19 175/6/19 176/6/19
f 188/6/20 189/6/20 186/6/20
f 180/9/3 189/8/3 188/8/3
f 175/7/3 185/8/3 182/7/3
f 178/7/3 187/8/3 186/7/3
f 185/6/18 186/6/18 182/6/18
f 183/6/19 186/6/19 187/6/19
f 188/10/21 193/10/21 187/10/21
f 188/10/22 195/10/22 194/10/22
f 179/5/3 188/8/3 187/8/3
f 181/5/3 186/7/3 189/8/3
f 191/10/23 195/10/23 192/10/23
f 191/10/24 193/10/24 194/10/24
f 187/10/25 190/10/25 183/10/25
f 185/10/26 195/10/26 189/10/26
f 183/6/3 172/6/3 184/6/3
f 184/6/27 191/6/27 192/6/27
f 184/6/3 174/6/3 185/6/3
f 192/6/28 185/6/28 184/6/28
f 173/6/4 172/6/4 184/6/4
f 174/6/4 173/6/4 184/6/4
f 188/6/29 186/6/29 187/6/29
f 197/6/3 199/6/3 198/6/3
f 205/6/30 211/6/30 208/6/30
f 196/6/8 203/6/8 199/6/8
f 197/6/9 201/6/9 196/6/9
f 199/6/6 202/6/6 198/6/6
f 198/6/7 200/6/7 197/6/7
f 202/6/4 205/6/4 204/6/4
f 201/6/4 205/6/4 203/6/4
f 201/6/4 207/6/4 206/6/4
f 202/6/4 207/6/4 200/6/4
f 208/6/31 215/6/31 212/6/31
f 205/6/6 209/6/6 204/6/6
f 206/6/32 210/6/32 211/6/32
f 204/6/33 210/6/33 207/6/33
f 232/6/34 225/6/34 231/6/34
f 208/6/35 213/6/35 209/6/35
f 210/6/36 215/6/36 211/6/36
f 210/6/37 213/6/37 214/6/37
f 217/5/3 223/7/3 224/8/3
f 224/6/28 231/6/28 225/6/28
f 215/6/38 216/6/38 212/6/38
f 213/6/39 216/6/39 217/6/39
f 229/6/40 230/6/40 227/6/40
f 221/9/4 230/8/4 229/8/4
f 216/7/3 226/8/3 223/7/3
f 219/7/3 228/8/3 227/7/3
f 226/6/41 227/6/41 223/6/41
f 224/6/39 227/6/39 228/6/39
f 229/10/22 234/10/22 228/10/22
f 229/10/21 236/10/21 235/10/21
f 220/5/3 229/8/3 228/8/3
f 222/5/3 227/7/3 230/8/3
f 232/10/42 236/10/42 233/10/42
f 232/10/43 234/10/43 235/10/43
f 228/10/26 231/10/26 224/10/26
f 226/10/25 236/10/25 230/10/25
f 224/6/4 213/6/4 225/6/4
f 225/6/44 232/6/44 233/6/44
f 225/6/4 215/6/4 226/6/4
f 233/6/17 226/6/17 225/6/17
f 214/6/3 213/6/3 225/6/3
f 215/6/3 214/6/3 225/6/3
f 229/6/45 227/6/45 228/6/45
f 215/6/3 218/6/3 226/8/3
f 217/5/3 224/8/3 213/6/3
f 219/7/46 221/9/46 220/5/46
f 7/1/1 96/1/1 127/1/1
f 21/2/2 124/2/2 123/2/2
f 32/3/3 13/3/3 14/3/3
f 41/3/3 12/3/3 13/3/3
f 50/4/3 11/4/3 145/4/3
f 59/3/3 10/3/3 11/3/3
f 68/3/3 9/3/3 10/3/3
f 77/3/3 8/3/3 9/3/3
f 77/1/1 126/1/1 106/1/1
f 20/2/2 123/2/2 122/2/2
f 19/2/2 122/2/2 121/2/2
f 18/2/2 121/2/2 120/2/2
f 17/2/2 120/2/2 119/2/2
f 16/2/2 119/2/2 118/2/2
f 2/3/3 24/3/3 15/3/3
f 24/3/3 25/3/3 16/3/3
f 25/3/3 26/3/3 17/3/3
f 26/3/3 27/3/3 18/3/3
f 27/3/3 28/3/3 19/3/3
f 28/3/3 29/3/3 20/3/3
f 29/3/3 30/3/3 21/3/3
f 30/3/3 31/3/3 22/3/3
f 31/3/3 32/3/3 23/3/3
f 3/3/3 33/3/3 24/3/3
f 33/3/3 34/3/3 25/3/3
f 34/3/3 35/3/3 26/3/3
f 35/3/3 36/3/3 27/3/3
f 36/3/3 37/3/3 28/3/3
f 37/3/3 38/3/3 29/3/3
f 38/3/3 39/3/3 30/3/3
f 39/3/3 40/3/3 31/3/3
f 40/3/3 41/3/3 32/3/3
f 4/3/3 42/3/3 146/3/3
f 42/3/3 43/3/3 147/3/3
f 43/3/3 44/3/3 148/3/3
f 44/4/3 45/4/3 149/4/3
f 45/4/3 46/4/3 150/4/3
f 46/3/3 47/3/3 151/3/3
f 47/3/3 48/3/3 152/3/3
f 48/3/3 49/3/3 153/3/3
f 49/4/3 50/4/3 154/4/3
f 5/3/3 51/3/3 42/3/3
f 51/3/3 52/3/3 43/3/3
f 52/3/3 53/3/3 44/3/3
f 53/3/3 54/3/3 45/3/3
f 54/3/3 55/3/3 46/3/3
f 55/3/3 56/3/3 47/3/3
f 56/3/3 57/3/3 48/3/3
f 57/3/3 58/3/3 49/3/3
f 58/3/3 59/3/3 50/3/3
f 6/3/3 60/3/3 51/3/3
f 60/3/3 61/3/3 52/3/3
f 61/3/3 62/3/3 53/3/3
f 62/3/3 63/3/3 54/3/3
f 63/3/3 64/3/3 55/3/3
f 64/3/3 65/3/3 56/3/3
f 65/3/3 66/3/3 57/3/3
f 66/3/3 67/3/3 58/3/3
f 67/3/3 68/3/3 59/3/3
f 7/3/3 69/3/3 60/3/3
f 69/3/3 70/3/3 61/3/3
f 70/3/3 71/3/3 62/3/3
f 71/3/3 72/3/3 63/3/3
f 72/3/3 73/3/3 64/3/3
f 73/3/3 74/3/3 65/3/3
f 74/3/3 75/3/3 66/3/3
f 75/3/3 76/3/3 67/3/3
f 76/3/3 77/3/3 68/3/3
f 76/1/1 134/1/1 126/1/1
f 15/2/2 118/2/2 95/2/2
f 75/1/1 133/1/1 134/1/1
f 14/2/2 107/2/2 117/2/2
f 74/1/1 132/1/1 133/1/1
f 73/1/1 131/1/1 132/1/1
f 72/1/1 130/1/1 131/1/1
f 71/1/1 129/1/1 130/1/1
f 82/5/3 83/5/3 105/5/3
f 108/5/3 84/5/3 85/5/3
f 117/5/3 107/5/3 84/5/3
f 135/5/3 105/5/3 106/5/3
f 94/5/3 109/5/3 78/5/3
f 109/5/3 110/5/3 93/5/3
f 110/5/3 111/5/3 92/5/3
f 111/5/3 112/5/3 91/5/3
f 112/5/3 113/5/3 90/5/3
f 113/5/3 114/5/3 89/5/3
f 114/5/3 115/5/3 88/5/3
f 115/5/3 116/5/3 87/5/3
f 116/5/3 108/5/3 86/5/3
f 95/5/3 118/5/3 109/5/3
f 118/5/3 119/5/3 110/5/3
f 119/5/3 120/5/3 111/5/3
f 120/5/3 121/5/3 112/5/3
f 121/5/3 122/5/3 113/5/3
f 122/5/3 123/5/3 114/5/3
f 123/5/3 124/5/3 115/5/3
f 124/5/3 125/5/3 116/5/3
f 125/5/3 117/5/3 108/5/3
f 80/5/3 136/5/3 127/5/3
f 136/5/3 137/5/3 128/5/3
f 137/5/3 138/5/3 129/5/3
f 138/5/3 139/5/3 130/5/3
f 139/5/3 140/5/3 131/5/3
f 140/5/3 141/5/3 132/5/3
f 141/5/3 142/5/3 133/5/3
f 142/5/3 143/5/3 134/5/3
f 143/5/3 135/5/3 126/5/3
f 81/5/3 97/5/3 136/5/3
f 97/5/3 98/5/3 137/5/3
f 98/5/3 99/5/3 138/5/3
f 99/5/3 100/5/3 139/5/3
f 100/5/3 101/5/3 140/5/3
f 101/5/3 102/5/3 141/5/3
f 102/5/3 103/5/3 142/5/3
f 103/5/3 104/5/3 143/5/3
f 104/5/3 82/5/3 135/5/3
f 22/2/2 125/2/2 124/2/2
f 69/1/1 127/1/1 128/1/1
f 23/2/2 117/2/2 125/2/2
f 70/1/1 128/1/1 129/1/1
f 153/3/3 154/3/3 41/3/3
f 152/3/3 153/3/3 40/3/3
f 151/3/3 152/3/3 39/3/3
f 150/3/3 151/3/3 38/3/3
f 149/3/3 150/3/3 37/3/3
f 148/3/3 149/3/3 36/3/3
f 147/3/3 148/3/3 35/3/3
f 146/3/3 147/3/3 34/3/3
f 144/3/3 146/3/3 33/3/3
f 154/3/3 145/3/3 12/3/3
f 156/6/4 155/6/4 158/6/4
f 164/6/6 165/6/6 170/6/6
f 155/6/6 160/6/6 162/6/6
f 156/6/7 159/6/7 160/6/7
f 158/6/8 162/6/8 161/6/8
f 157/6/9 161/6/9 159/6/9
f 161/6/3 162/6/3 164/6/3
f 160/6/3 165/6/3 164/6/3
f 160/6/3 159/6/3 166/6/3
f 161/6/3 163/6/3 166/6/3
f 167/6/47 170/6/47 174/6/47
f 164/6/48 167/6/48 168/6/48
f 165/6/49 166/6/49 169/6/49
f 163/6/32 168/6/32 169/6/32
f 167/6/50 171/6/50 172/6/50
f 169/6/51 173/6/51 174/6/51
f 169/6/52 168/6/52 172/6/52
f 176/5/3 175/7/3 182/7/3
f 174/6/18 177/6/18 175/6/18
f 172/6/19 171/6/19 175/6/19
f 180/9/3 181/5/3 189/8/3
f 175/7/3 177/5/3 185/8/3
f 178/7/3 179/5/3 187/8/3
f 185/6/18 189/6/18 186/6/18
f 183/6/19 182/6/19 186/6/19
f 188/10/21 194/10/21 193/10/21
f 188/10/22 189/10/22 195/10/22
f 179/5/3 180/9/3 188/8/3
f 181/5/3 178/7/3 186/7/3
f 191/10/23 194/10/23 195/10/23
f 191/10/24 190/10/24 193/10/24
f 187/10/25 193/10/25 190/10/25
f 185/10/26 192/10/26 195/10/26
f 197/6/3 196/6/3 199/6/3
f 205/6/8 206/6/8 211/6/8
f 196/6/8 201/6/8 203/6/8
f 197/6/9 200/6/9 201/6/9
f 199/6/6 203/6/6 202/6/6
f 198/6/7 202/6/7 200/6/7
f 202/6/4 203/6/4 205/6/4
f 201/6/4 206/6/4 205/6/4
f 201/6/4 200/6/4 207/6/4
f 202/6/4 204/6/4 207/6/4
f 208/6/53 211/6/53 215/6/53
f 205/6/54 208/6/54 209/6/54
f 206/6/55 207/6/55 210/6/55
f 204/6/11 209/6/11 210/6/11
f 208/6/56 212/6/56 213/6/56
f 210/6/57 214/6/57 215/6/57
f 210/6/58 209/6/58 213/6/58
f 217/5/3 216/7/3 223/7/3
f 215/6/41 218/6/41 216/6/41
f 213/6/39 212/6/39 216/6/39
f 221/9/3 222/5/3 230/8/3
f 216/7/3 218/5/3 226/8/3
f 219/7/3 220/5/3 228/8/3
f 226/6/41 230/6/41 227/6/41
f 224/6/39 223/6/39 227/6/39
f 229/10/22 235/10/22 234/10/22
f 229/10/21 230/10/21 236/10/21
f 220/5/4 221/9/4 229/8/4
f 222/5/3 219/7/3 227/7/3
f 232/10/42 235/10/42 236/10/42
f 232/10/43 231/10/43 234/10/43
f 228/10/26 234/10/26 231/10/26
f 226/10/25 233/10/25 236/10/25
f 219/7/59 222/5/59 221/9/59
