# Blender 5.1.2
# www.blender.org
mtllib scooter.mtl
o SCOOTER
v 0.104277 0.137844 0.790356
v -0.100549 0.137844 0.790356
v 0.104277 0.001294 0.653806
v -0.100549 0.001294 0.653806
v 0.104277 0.001294 0.517255
v -0.100549 0.001294 0.517255
v 0.104277 0.137844 0.380705
v -0.100549 0.137844 0.380705
v 0.104277 0.274394 0.380705
v -0.100549 0.274394 0.380705
v 0.104277 0.410945 0.517255
v -0.100549 0.410945 0.517255
v 0.104277 0.410945 0.653806
v -0.100549 0.410945 0.653806
v 0.104277 0.274394 0.790356
v -0.100549 0.274394 0.790356
v -0.100549 0.069569 0.653806
v -0.100549 0.137844 0.722081
v -0.100549 0.274394 0.722081
v -0.100549 0.342669 0.653806
v -0.100549 0.342669 0.517255
v -0.100549 0.274394 0.448980
v -0.100549 0.137844 0.448980
v -0.100549 0.069569 0.517255
v 0.104277 0.137844 0.722081
v 0.104277 0.069569 0.653806
v 0.104277 0.069569 0.517255
v 0.104277 0.137844 0.448980
v 0.104277 0.274394 0.448980
v 0.104277 0.342669 0.517255
v 0.104277 0.342669 0.653806
v 0.104277 0.274394 0.722081
v 0.104277 0.141725 -0.212623
v -0.100549 0.141725 -0.212623
v 0.104277 0.005174 -0.349173
v -0.100549 0.005174 -0.349173
v 0.104277 0.005174 -0.485724
v -0.100549 0.005174 -0.485724
v 0.104277 0.141725 -0.622274
v -0.100549 0.141725 -0.622274
v 0.104277 0.278275 -0.622274
v -0.100549 0.278275 -0.622274
v 0.104277 0.414825 -0.485724
v -0.100549 0.414825 -0.485724
v 0.104277 0.414825 -0.349173
v -0.100549 0.414825 -0.349173
v 0.104277 0.278275 -0.212623
v -0.100549 0.278275 -0.212623
v -0.100549 0.073450 -0.349173
v -0.100549 0.141725 -0.280898
v -0.100549 0.278275 -0.280898
v -0.100549 0.346550 -0.349173
v -0.100549 0.346550 -0.485724
v -0.100549 0.278275 -0.553999
v -0.100549 0.141725 -0.553999
v -0.100549 0.073450 -0.485724
v 0.104277 0.141725 -0.280898
v 0.104277 0.073450 -0.349173
v 0.104277 0.073450 -0.485724
v 0.104277 0.141725 -0.553999
v 0.104277 0.278275 -0.553999
v 0.104277 0.346550 -0.485724
v 0.104277 0.346550 -0.349173
v 0.104277 0.278275 -0.280898
v -0.097099 0.140000 0.328974
v -0.097099 0.200000 0.328974
v -0.097099 0.140000 -0.177448
v -0.097099 0.200000 -0.177448
v 0.110985 0.140000 0.328974
v 0.110985 0.200000 0.328974
v 0.110985 0.140000 -0.177449
v 0.110985 0.200000 -0.177449
v -0.097099 0.200000 0.184282
v 0.110985 0.200000 0.184282
v -0.131387 0.472770 0.422551
v 0.145274 0.472770 0.422551
v -0.097099 0.432220 0.277859
v 0.110985 0.432220 0.277859
v -0.132332 0.200000 0.067141
v 0.146218 0.200000 0.067141
v -0.054609 0.447978 -0.013539
v -0.097099 0.447978 -0.177449
v 0.068495 0.447978 -0.013539
v 0.110985 0.397291 -0.216439
v -0.054609 0.554656 -0.013539
v -0.097099 0.554656 -0.177448
v 0.068495 0.554656 -0.013539
v 0.110985 0.554656 -0.177449
v 0.110985 0.447978 -0.648006
v -0.097099 0.447978 -0.648006
v 0.110985 0.525023 -0.616814
v -0.097099 0.525023 -0.616814
v -0.128543 0.140000 -0.177448
v -0.128543 0.200000 -0.177448
v -0.204739 0.140000 -0.013539
v -0.204739 0.200000 -0.013539
v 0.142429 0.140000 -0.177449
v 0.142429 0.200000 -0.177449
v 0.218625 0.140000 -0.013539
v 0.218625 0.200000 -0.013539
v -0.097099 0.140000 -0.471415
v -0.097099 0.200000 -0.471415
v 0.110985 0.140000 -0.471415
v 0.110985 0.200000 -0.471415
v -0.128543 0.140000 -0.471415
v -0.128543 0.200000 -0.471415
v 0.142429 0.140000 -0.471415
v 0.142429 0.200000 -0.471415
v -0.131387 0.605182 0.422551
v 0.145274 0.605182 0.422551
v -0.097099 0.605182 0.277859
v 0.110985 0.605182 0.277859
v -0.097099 0.899596 0.349561
v 0.110985 0.899596 0.349561
v -0.097099 0.899596 0.204869
v 0.110985 0.899596 0.204869
v -0.155199 0.432220 0.771334
v 0.169086 0.432220 0.771334
v -0.046426 0.570147 0.612329
v 0.060312 0.570147 0.612329
v -0.204739 0.140000 0.184282
v -0.204739 0.200000 0.184282
v 0.218626 0.140000 0.184282
v 0.218626 0.200000 0.184282
v -0.204739 0.140000 0.184282
v -0.204739 0.200000 0.184282
v 0.218626 0.140000 0.184282
v 0.218626 0.200000 0.184282
v -0.204739 0.432220 0.277859
v -0.204739 0.432220 0.277859
v 0.218626 0.432220 0.277859
v 0.218626 0.432220 0.277859
v -0.204739 0.140000 -0.013539
v -0.204739 0.200000 -0.013539
v 0.218626 0.140000 -0.013539
v 0.218626 0.200000 -0.013539
v -0.204739 0.605182 0.277859
v -0.204739 0.605182 0.277859
v 0.218626 0.605182 0.277859
v 0.218626 0.605182 0.277859
v -0.204739 0.899596 0.204869
v -0.204739 0.899596 0.204869
v 0.218626 0.899596 0.204869
v 0.218626 0.899596 0.204869
v 0.157646 0.554656 -0.419679
v 0.157646 0.554656 -0.533843
v 0.157646 0.447978 -0.533843
v 0.157646 0.447978 -0.419679
v -0.143760 0.554656 -0.419679
v -0.143760 0.554656 -0.533843
v -0.143760 0.447978 -0.419679
v -0.143760 0.447978 -0.533843
v -0.097099 0.280547 -0.688621
v -0.190421 0.280547 -0.688621
v 0.110985 0.280547 -0.688621
v -0.061988 0.602741 0.023026
v -0.109572 0.602741 -0.160533
v 0.075875 0.602741 0.023026
v 0.123458 0.602741 -0.160533
v 0.123458 0.569556 -0.652572
v -0.109572 0.569556 -0.652572
v 0.175713 0.602741 -0.559654
v -0.161827 0.602741 -0.559654
v 0.175713 0.602741 -0.431804
v -0.161827 0.602741 -0.431804
v 0.175713 0.837019 -0.431804
v 0.175713 0.837019 -0.559653
v -0.161827 0.837019 -0.431804
v -0.161827 0.837019 -0.559653
v -0.161827 0.602741 -0.793734
v 0.175713 0.602741 -0.793734
v -0.161827 0.837019 -0.793734
v 0.175713 0.837019 -0.793734
v -0.049785 0.899596 0.311312
v -0.049785 0.899596 0.243118
v 0.063671 0.899596 0.243118
v 0.063671 0.899596 0.311312
v -0.049785 1.006451 0.311312
v -0.049785 1.006451 0.243118
v 0.063671 1.006451 0.311312
v 0.063671 1.006451 0.243118
v -0.049785 1.089814 0.311312
v -0.049785 1.089814 0.243118
v 0.063671 1.089814 0.311312
v 0.063671 1.089814 0.243118
v -0.223182 1.006451 0.266907
v -0.223182 1.006451 0.198713
v 0.237068 1.006451 0.266907
v 0.237068 1.006451 0.198713
v -0.223182 1.089814 0.266907
v -0.223182 1.089814 0.198712
v 0.237068 1.089814 0.266907
v 0.237068 1.089814 0.198712
v -0.223182 1.024926 0.248432
v -0.223182 1.024926 0.217187
v -0.223182 1.071339 0.217187
v -0.223182 1.071339 0.248432
v 0.237068 1.024926 0.217187
v 0.237068 1.024926 0.248432
v 0.237068 1.071339 0.248432
v 0.237068 1.071339 0.217187
v -0.340890 1.024926 0.205109
v -0.340890 1.024926 0.173865
v -0.340890 1.071339 0.205109
v -0.340890 1.071339 0.173865
v 0.354776 1.024926 0.205109
v 0.354776 1.024926 0.173864
v 0.354776 1.071339 0.173865
v 0.354776 1.071339 0.205109
v -0.088039 0.966080 0.333051
v -0.088039 0.966080 0.366486
v 0.101925 1.130185 0.333051
v 0.101925 0.966080 0.333051
v -0.049785 1.089814 0.333051
v 0.063671 1.006451 0.333051
v 0.063671 1.089814 0.366485
v -0.049785 1.006451 0.333051
v -0.049785 1.006451 0.366485
v 0.063671 1.006451 0.366485
v -0.049785 1.089814 0.366485
v 0.063671 1.089814 0.333051
v -0.088038 1.130185 0.333051
v -0.088039 1.130185 0.366485
v 0.101925 1.130185 0.366485
v 0.101925 0.966080 0.366486
vn -0.0000 -0.7071 0.7071
vn -0.0000 -1.0000 -0.0000
vn -0.0000 -0.7071 -0.7071
vn -0.0000 -0.0000 -1.0000
vn -0.0000 0.7071 -0.7071
vn -0.0000 1.0000 -0.0000
vn -1.0000 -0.0000 -0.0000
vn -0.0000 0.7071 0.7071
vn -0.0000 -0.0000 1.0000
vn 1.0000 -0.0000 -0.0000
vn -0.0000 -0.3094 -0.9509
vn -0.0000 0.3245 -0.9459
vn -0.8919 -0.0000 -0.4522
vn -0.0000 -0.3738 0.9275
vn -0.0000 0.2406 0.9706
vn 0.8023 -0.0000 -0.5969
vn 0.8919 -0.0000 -0.4522
vn 0.1842 -0.0000 0.9829
vn -0.9799 -0.0386 -0.1956
vn 0.9570 -0.2551 0.1379
vn -0.0000 0.6261 0.7797
vn -0.9746 0.0539 -0.2176
vn -0.9150 -0.1514 0.3740
vn 0.9680 -0.0000 -0.2509
vn -0.0000 -0.3753 0.9269
vn -0.9361 0.3517 -0.0000
vn 0.8716 -0.0000 0.4902
vn -0.9218 -0.0914 0.3768
vn 0.9068 -0.0000 0.4215
vn -0.9068 -0.0000 0.4215
vn -0.0000 -0.7554 -0.6553
vn -0.9127 -0.0000 -0.4086
vn 0.7732 -0.6338 -0.0209
vn -0.0000 -0.9834 -0.1815
vn 1.0000 -0.0004 -0.0001
vn -0.9970 -0.0084 -0.0766
vn -0.9955 0.0354 -0.0882
vn -0.9993 -0.0069 0.0367
vn 0.9990 0.0405 0.0170
vn 0.9998 -0.0123 -0.0151
vn -0.9995 -0.0303 -0.0127
vn 0.8249 0.2734 -0.4948
vn 0.7937 -0.1464 -0.5904
vn -0.7801 0.2339 -0.5803
vn -0.8718 -0.2111 -0.4420
vn -0.8023 -0.0000 -0.5969
vn -0.0000 -0.9877 0.1562
vn 0.9819 -0.0000 -0.1892
vn -0.8298 0.4718 0.2981
vn 0.9349 0.3059 -0.1801
vn -0.9746 -0.0000 -0.2238
vn -0.0000 0.3868 -0.9222
vn -0.0000 -0.2357 0.9718
vn -0.0000 -0.9417 0.3363
vn 0.9361 0.3517 -0.0000
vn -0.0000 0.6053 -0.7960
vn 0.9167 0.3214 -0.2376
vn 0.8298 0.4718 0.2981
vn -0.9349 0.3059 -0.1801
vn -0.9167 0.3214 -0.2376
vn -0.0000 -0.2406 -0.9706
vn -0.2481 -0.0000 -0.9687
vn -0.3454 -0.0000 0.9385
vn -0.2481 -0.0000 0.9687
vn 0.2481 -0.0000 -0.9687
vn 0.2481 -0.0000 0.9687
vn 0.3454 -0.0000 0.9385
vn 0.3454 -0.0000 -0.9385
vn -0.3454 -0.0000 -0.9385
vn -0.0000 0.1939 0.9810
vn -0.9570 -0.2551 0.1379
vn -0.9680 -0.0000 -0.2509
vn -0.8716 -0.0000 0.4902
vn 0.9150 -0.1514 0.3740
vn -0.0000 -0.9989 0.0469
vn -0.7732 -0.6338 -0.0209
vn 0.9127 -0.0000 -0.4086
vn -0.9971 0.0019 -0.0766
vn 1.0000 0.0023 0.0010
vn -0.9990 -0.0161 0.0405
vn -0.9999 0.0069 -0.0087
vn -1.0000 0.0036 -0.0086
vn 0.7801 0.2339 -0.5803
vn 0.8718 -0.2111 -0.4420
vn -0.8249 0.2734 -0.4948
vn -0.7937 -0.1464 -0.5904
vn -0.9809 0.0468 -0.1889
vn 0.7910 -0.5193 0.3233
vt 0.005115 0.468979
vt 0.779080 0.547814
vt 0.106306 0.410010
vt 0.106306 0.566260
vt 0.795294 0.347510
vt 0.223689 0.505000
vt 0.206008 0.347510
s 0
usemtl Material.001
f 1/1/1 4/1/1 3/1/1
f 4/1/2 5/1/2 3/1/2
f 6/1/3 7/1/3 5/1/3
f 8/1/4 9/1/4 7/1/4
f 10/1/5 11/1/5 9/1/5
f 11/1/6 14/1/6 13/1/6
f 20/2/7 22/2/7 24/2/7
f 14/1/8 15/1/8 13/1/8
f 16/1/9 1/1/9 15/1/9
f 28/2/10 30/2/10 32/2/10
f 2/1/7 17/1/7 4/1/7
f 16/1/7 18/1/7 2/1/7
f 16/1/7 20/1/7 19/1/7
f 12/1/7 20/1/7 14/1/7
f 10/1/7 21/1/7 12/1/7
f 10/1/7 23/1/7 22/1/7
f 8/1/7 24/1/7 23/1/7
f 6/1/7 17/1/7 24/1/7
f 3/1/10 25/1/10 1/1/10
f 5/1/10 26/1/10 3/1/10
f 7/1/10 27/1/10 5/1/10
f 7/1/10 29/1/10 28/1/10
f 9/1/10 30/1/10 29/1/10
f 11/1/10 31/1/10 30/1/10
f 13/1/10 32/1/10 31/1/10
f 15/1/10 25/1/10 32/1/10
f 34/1/1 35/1/1 33/1/1
f 36/1/2 37/1/2 35/1/2
f 38/1/3 39/1/3 37/1/3
f 40/1/4 41/1/4 39/1/4
f 42/1/5 43/1/5 41/1/5
f 44/1/6 45/1/6 43/1/6
f 52/2/7 54/2/7 56/2/7
f 46/1/8 47/1/8 45/1/8
f 48/1/9 33/1/9 47/1/9
f 60/2/10 62/2/10 64/2/10
f 34/1/7 49/1/7 36/1/7
f 34/1/7 51/1/7 50/1/7
f 48/1/7 52/1/7 51/1/7
f 44/1/7 52/1/7 46/1/7
f 42/1/7 53/1/7 44/1/7
f 40/1/7 54/1/7 42/1/7
f 40/1/7 56/1/7 55/1/7
f 38/1/7 49/1/7 56/1/7
f 33/1/10 58/1/10 57/1/10
f 37/1/10 58/1/10 35/1/10
f 39/1/10 59/1/10 37/1/10
f 41/1/10 60/1/10 39/1/10
f 41/1/10 62/1/10 61/1/10
f 43/1/10 63/1/10 62/1/10
f 47/1/10 63/1/10 45/1/10
f 47/1/10 57/1/10 64/1/10
f 67/3/9 72/3/9 68/3/9
f 66/3/4 69/3/4 65/3/4
f 79/3/11 83/3/11 80/3/11
f 66/3/12 76/3/12 70/3/12
f 76/3/13 139/3/13 131/3/13
f 74/3/14 77/3/14 73/3/14
f 112/3/15 144/3/15 116/3/15
f 65/3/16 122/3/16 66/3/16
f 79/3/2 74/3/2 73/3/2
f 75/3/17 137/3/17 109/3/17
f 79/3/2 126/3/2 134/3/2
f 81/3/4 87/3/4 83/3/4
f 68/3/18 84/3/18 82/3/18
f 72/3/19 83/3/19 84/3/19
f 68/3/20 81/3/20 79/3/20
f 91/1/21 161/1/21 92/1/21
f 83/3/22 88/3/22 84/3/22
f 147/3/23 91/3/23 89/3/23
f 81/3/24 86/3/24 85/3/24
f 89/3/25 92/3/25 90/3/25
f 146/1/26 164/1/26 162/1/26
f 152/3/27 92/3/27 150/3/27
f 147/3/28 89/3/28 155/3/28
f 93/3/29 96/3/29 95/3/29
f 100/3/30 97/3/30 99/3/30
f 80/3/2 98/3/2 100/3/2
f 79/3/2 94/3/2 68/3/2
f 97/3/7 108/3/7 107/3/7
f 103/3/9 108/3/9 104/3/9
f 102/3/9 105/3/9 101/3/9
f 94/3/2 102/3/2 68/3/2
f 98/3/2 104/3/2 108/3/2
f 71/3/10 104/3/10 72/3/10
f 93/3/10 106/3/10 94/3/10
f 68/4/7 101/4/7 67/4/7
f 112/3/15 115/3/15 111/3/15
f 78/3/9 111/3/9 77/3/9
f 174/3/10 179/3/10 178/3/10
f 116/3/2 143/3/2 114/3/2
f 117/3/31 120/3/31 118/3/31
f 76/3/32 120/3/32 110/3/32
f 75/3/33 119/3/33 117/3/33
f 109/3/34 120/3/34 119/3/34
f 124/5/35 127/5/35 123/5/35
f 125/5/36 122/5/36 121/5/36
f 124/5/10 132/5/10 128/5/10
f 126/5/37 129/5/37 122/5/37
f 128/3/7 135/3/7 127/3/7
f 125/3/10 134/3/10 126/3/10
f 130/5/38 137/5/38 129/5/38
f 132/5/39 139/5/39 140/5/39
f 137/5/40 142/5/40 141/5/40
f 140/5/41 143/5/41 144/5/41
f 115/3/15 138/3/15 111/3/15
f 80/3/2 128/3/2 74/3/2
f 78/3/9 140/3/9 112/3/9
f 66/3/42 129/3/42 75/3/42
f 113/3/43 137/3/43 141/3/43
f 111/3/9 130/3/9 77/3/9
f 70/3/44 131/3/44 124/3/44
f 114/3/45 139/3/45 110/3/45
f 74/3/14 132/3/14 78/3/14
f 70/3/46 123/3/46 69/3/46
f 115/3/47 141/3/47 142/3/47
f 77/3/14 126/3/14 73/3/14
f 82/3/48 149/3/48 86/3/48
f 149/3/10 152/3/10 150/3/10
f 146/1/49 160/1/49 91/1/49
f 149/1/50 157/1/50 86/1/50
f 84/3/51 145/3/51 148/3/51
f 145/3/7 147/3/7 148/3/7
f 154/5/52 155/5/52 153/5/52
f 90/3/53 155/3/53 89/3/53
f 90/3/53 154/3/53 153/3/53
f 157/1/2 158/1/2 156/1/2
f 163/1/54 160/1/54 162/1/54
f 159/1/2 165/1/2 164/1/2
f 163/6/10 168/6/10 165/6/10
f 150/1/55 165/1/55 149/1/55
f 85/1/56 158/1/56 87/1/56
f 85/1/57 157/1/57 156/1/57
f 150/1/58 161/1/58 163/1/58
f 145/1/59 159/1/59 164/1/59
f 87/1/60 159/1/60 88/1/60
f 168/6/2 167/6/2 166/6/2
f 164/6/7 167/6/7 162/6/7
f 165/6/4 166/6/4 164/6/4
f 163/6/10 172/6/10 169/6/10
f 171/6/9 172/6/9 170/6/9
f 167/6/7 171/6/7 162/6/7
f 162/6/6 170/6/6 163/6/6
f 169/6/2 173/6/2 167/6/2
f 109/3/61 114/3/61 110/3/61
f 115/3/2 174/3/2 113/3/2
f 115/3/2 176/3/2 175/3/2
f 116/3/2 177/3/2 176/3/2
f 113/3/2 177/3/2 114/3/2
f 181/3/9 183/3/9 179/3/9
f 177/3/7 181/3/7 176/3/7
f 174/3/4 180/3/4 177/3/4
f 176/3/9 179/3/9 175/3/9
f 183/3/2 184/3/2 182/3/2
f 184/3/62 188/3/62 180/3/62
f 183/3/2 190/3/2 191/3/2
f 222/3/10 211/3/10 210/3/10
f 196/1/63 203/1/63 195/1/63
f 198/1/6 206/1/6 207/1/6
f 183/3/64 187/3/64 179/3/64
f 179/3/6 186/3/6 178/3/6
f 185/3/2 192/3/2 184/3/2
f 178/3/65 190/3/65 182/3/65
f 181/3/6 188/3/6 189/3/6
f 181/3/66 193/3/66 185/3/66
f 187/3/10 194/3/10 186/3/10
f 191/3/10 195/3/10 187/3/10
f 190/3/10 196/3/10 191/3/10
f 186/3/10 197/3/10 190/3/10
f 189/3/7 199/3/7 198/3/7
f 188/3/7 200/3/7 199/3/7
f 192/3/7 201/3/7 200/3/7
f 189/3/7 201/3/7 193/3/7
f 203/1/10 204/1/10 202/1/10
f 206/1/7 208/1/7 207/1/7
f 201/1/2 209/1/2 200/1/2
f 195/1/6 202/1/6 194/1/6
f 201/1/67 207/1/67 208/1/67
f 196/1/2 204/1/2 205/1/2
f 194/1/68 204/1/68 197/1/68
f 199/1/69 209/1/69 206/1/69
f 210/3/6 225/3/6 213/3/6
f 219/3/4 211/3/4 218/3/4
f 212/3/2 223/3/2 222/3/2
f 213/3/7 224/3/7 212/3/7
f 218/3/4 223/3/4 220/3/4
f 215/3/9 212/3/9 221/3/9
f 220/3/4 224/3/4 216/3/4
f 218/7/4 216/7/4 219/7/4
f 182/3/10 217/3/10 178/3/10
f 184/3/2 214/3/2 182/3/2
f 180/3/7 221/3/7 184/3/7
f 178/3/6 215/3/6 180/3/6
f 217/3/9 213/3/9 215/3/9
f 217/3/9 222/3/9 210/3/9
f 221/3/9 222/3/9 214/3/9
f 216/3/4 225/3/4 219/3/4
f 1/1/1 2/1/1 4/1/1
f 4/1/2 6/1/2 5/1/2
f 6/1/3 8/1/3 7/1/3
f 8/1/4 10/1/4 9/1/4
f 10/1/5 12/1/5 11/1/5
f 11/1/6 12/1/6 14/1/6
f 24/2/7 17/2/7 18/2/7
f 18/2/7 19/2/7 20/2/7
f 20/2/7 21/2/7 22/2/7
f 22/2/7 23/2/7 24/2/7
f 24/2/7 18/2/7 20/2/7
f 14/1/8 16/1/8 15/1/8
f 16/1/9 2/1/9 1/1/9
f 32/2/10 25/2/10 26/2/10
f 26/2/10 27/2/10 28/2/10
f 28/2/10 29/2/10 30/2/10
f 30/2/10 31/2/10 32/2/10
f 32/2/10 26/2/10 28/2/10
f 2/1/7 18/1/7 17/1/7
f 16/1/7 19/1/7 18/1/7
f 16/1/7 14/1/7 20/1/7
f 12/1/7 21/1/7 20/1/7
f 10/1/7 22/1/7 21/1/7
f 10/1/7 8/1/7 23/1/7
f 8/1/7 6/1/7 24/1/7
f 6/1/7 4/1/7 17/1/7
f 3/1/10 26/1/10 25/1/10
f 5/1/10 27/1/10 26/1/10
f 7/1/10 28/1/10 27/1/10
f 7/1/10 9/1/10 29/1/10
f 9/1/10 11/1/10 30/1/10
f 11/1/10 13/1/10 31/1/10
f 13/1/10 15/1/10 32/1/10
f 15/1/10 1/1/10 25/1/10
f 34/1/1 36/1/1 35/1/1
f 36/1/2 38/1/2 37/1/2
f 38/1/3 40/1/3 39/1/3
f 40/1/4 42/1/4 41/1/4
f 42/1/5 44/1/5 43/1/5
f 44/1/6 46/1/6 45/1/6
f 56/2/7 49/2/7 50/2/7
f 50/2/7 51/2/7 52/2/7
f 52/2/7 53/2/7 54/2/7
f 54/2/7 55/2/7 56/2/7
f 56/2/7 50/2/7 52/2/7
f 46/1/8 48/1/8 47/1/8
f 48/1/9 34/1/9 33/1/9
f 64/2/10 57/2/10 58/2/10
f 58/2/10 59/2/10 60/2/10
f 60/2/10 61/2/10 62/2/10
f 62/2/10 63/2/10 64/2/10
f 64/2/10 58/2/10 60/2/10
f 34/1/7 50/1/7 49/1/7
f 34/1/7 48/1/7 51/1/7
f 48/1/7 46/1/7 52/1/7
f 44/1/7 53/1/7 52/1/7
f 42/1/7 54/1/7 53/1/7
f 40/1/7 55/1/7 54/1/7
f 40/1/7 38/1/7 56/1/7
f 38/1/7 36/1/7 49/1/7
f 33/1/10 35/1/10 58/1/10
f 37/1/10 59/1/10 58/1/10
f 39/1/10 60/1/10 59/1/10
f 41/1/10 61/1/10 60/1/10
f 41/1/10 43/1/10 62/1/10
f 43/1/10 45/1/10 63/1/10
f 47/1/10 64/1/10 63/1/10
f 47/1/10 33/1/10 57/1/10
f 67/3/9 71/3/9 72/3/9
f 66/3/4 70/3/4 69/3/4
f 79/3/11 81/3/11 83/3/11
f 66/3/12 75/3/12 76/3/12
f 76/3/13 110/3/13 139/3/13
f 74/3/14 78/3/14 77/3/14
f 112/3/15 140/3/15 144/3/15
f 65/3/16 121/3/16 122/3/16
f 79/3/2 80/3/2 74/3/2
f 75/3/17 129/3/17 137/3/17
f 79/3/2 73/3/2 126/3/2
f 81/3/4 85/3/4 87/3/4
f 68/3/70 72/3/70 84/3/70
f 72/3/71 80/3/71 83/3/71
f 68/3/24 82/3/24 81/3/24
f 91/1/21 160/1/21 161/1/21
f 83/3/72 87/3/72 88/3/72
f 147/3/73 146/3/73 91/3/73
f 81/3/24 82/3/24 86/3/24
f 89/3/25 91/3/25 92/3/25
f 146/1/26 145/1/26 164/1/26
f 152/3/74 90/3/74 92/3/74
f 93/3/29 94/3/29 96/3/29
f 100/3/30 98/3/30 97/3/30
f 80/3/2 72/3/2 98/3/2
f 79/3/2 96/3/2 94/3/2
f 97/3/7 98/3/7 108/3/7
f 103/3/9 107/3/9 108/3/9
f 102/3/9 106/3/9 105/3/9
f 94/3/2 106/3/2 102/3/2
f 98/3/2 72/3/2 104/3/2
f 71/3/10 103/3/10 104/3/10
f 93/3/10 105/3/10 106/3/10
f 68/4/7 102/4/7 101/4/7
f 112/3/15 116/3/15 115/3/15
f 78/3/9 112/3/9 111/3/9
f 174/3/10 175/3/10 179/3/10
f 116/3/75 144/3/75 143/3/75
f 117/3/31 119/3/31 120/3/31
f 76/3/76 118/3/76 120/3/76
f 75/3/77 109/3/77 119/3/77
f 109/3/34 110/3/34 120/3/34
f 124/5/10 128/5/10 127/5/10
f 125/5/78 126/5/78 122/5/78
f 124/5/79 131/5/79 132/5/79
f 126/5/80 130/5/80 129/5/80
f 128/3/7 136/3/7 135/3/7
f 125/3/10 133/3/10 134/3/10
f 130/5/81 138/5/81 137/5/81
f 132/5/10 131/5/10 139/5/10
f 137/5/82 138/5/82 142/5/82
f 140/5/10 139/5/10 143/5/10
f 115/3/15 142/3/15 138/3/15
f 80/3/2 136/3/2 128/3/2
f 78/3/9 132/3/9 140/3/9
f 66/3/83 122/3/83 129/3/83
f 113/3/84 109/3/84 137/3/84
f 111/3/9 138/3/9 130/3/9
f 70/3/85 76/3/85 131/3/85
f 114/3/86 143/3/86 139/3/86
f 74/3/14 128/3/14 132/3/14
f 70/3/46 124/3/46 123/3/46
f 115/3/2 113/3/2 141/3/2
f 77/3/14 130/3/14 126/3/14
f 82/3/48 151/3/48 149/3/48
f 149/3/10 151/3/10 152/3/10
f 146/1/49 162/1/49 160/1/49
f 149/1/50 165/1/50 157/1/50
f 84/3/87 88/3/87 145/3/87
f 145/3/7 146/3/7 147/3/7
f 90/3/53 153/3/53 155/3/53
f 90/3/88 152/3/88 154/3/88
f 157/1/2 159/1/2 158/1/2
f 163/1/54 161/1/54 160/1/54
f 159/1/2 157/1/2 165/1/2
f 163/6/10 169/6/10 168/6/10
f 150/1/55 163/1/55 165/1/55
f 85/1/56 156/1/56 158/1/56
f 85/1/57 86/1/57 157/1/57
f 150/1/58 92/1/58 161/1/58
f 145/1/59 88/1/59 159/1/59
f 87/1/60 158/1/60 159/1/60
f 168/6/2 169/6/2 167/6/2
f 164/6/7 166/6/7 167/6/7
f 165/6/4 168/6/4 166/6/4
f 163/6/10 170/6/10 172/6/10
f 171/6/9 173/6/9 172/6/9
f 167/6/7 173/6/7 171/6/7
f 162/6/6 171/6/6 170/6/6
f 169/6/2 172/6/2 173/6/2
f 109/3/61 113/3/61 114/3/61
f 115/3/2 175/3/2 174/3/2
f 115/3/2 116/3/2 176/3/2
f 116/3/2 114/3/2 177/3/2
f 113/3/2 174/3/2 177/3/2
f 181/3/9 185/3/9 183/3/9
f 177/3/7 180/3/7 181/3/7
f 174/3/4 178/3/4 180/3/4
f 176/3/9 181/3/9 179/3/9
f 183/3/2 185/3/2 184/3/2
f 184/3/62 192/3/62 188/3/62
f 183/3/2 182/3/2 190/3/2
f 222/3/10 223/3/10 211/3/10
f 196/1/63 205/1/63 203/1/63
f 198/1/6 199/1/6 206/1/6
f 183/3/64 191/3/64 187/3/64
f 179/3/6 187/3/6 186/3/6
f 185/3/2 193/3/2 192/3/2
f 178/3/65 186/3/65 190/3/65
f 181/3/6 180/3/6 188/3/6
f 181/3/66 189/3/66 193/3/66
f 187/3/10 195/3/10 194/3/10
f 191/3/10 196/3/10 195/3/10
f 190/3/10 197/3/10 196/3/10
f 186/3/10 194/3/10 197/3/10
f 189/3/7 188/3/7 199/3/7
f 188/3/7 192/3/7 200/3/7
f 192/3/7 193/3/7 201/3/7
f 189/3/7 198/3/7 201/3/7
f 203/1/10 205/1/10 204/1/10
f 206/1/7 209/1/7 208/1/7
f 201/1/2 208/1/2 209/1/2
f 195/1/6 203/1/6 202/1/6
f 201/1/67 198/1/67 207/1/67
f 196/1/2 197/1/2 204/1/2
f 194/1/68 202/1/68 204/1/68
f 199/1/69 200/1/69 209/1/69
f 210/3/6 211/3/6 225/3/6
f 219/3/4 225/3/4 211/3/4
f 212/3/2 224/3/2 223/3/2
f 213/3/7 225/3/7 224/3/7
f 218/3/4 211/3/4 223/3/4
f 215/3/9 213/3/9 212/3/9
f 220/3/4 223/3/4 224/3/4
f 218/7/4 220/7/4 216/7/4
f 182/3/10 214/3/10 217/3/10
f 184/3/2 221/3/2 214/3/2
f 180/3/7 215/3/7 221/3/7
f 178/3/6 217/3/6 215/3/6
f 217/3/9 210/3/9 213/3/9
f 217/3/9 214/3/9 222/3/9
f 221/3/9 212/3/9 222/3/9
f 216/3/4 224/3/4 225/3/4
